solid OpenSCAD_Model
  facet normal 0 0 -1
    outer loop
      vertex -15 0 0
      vertex -14.6722 3.11867 0
      vertex -14.6722 -3.11867 0
    endloop
  endfacet
  facet normal 0 0 -1
    outer loop
      vertex -14.6722 -3.11867 0
      vertex -14.6722 3.11867 0
      vertex -13.7032 6.10105 0
    endloop
  endfacet
  facet normal 0 0 -1
    outer loop
      vertex -14.6722 -3.11867 0
      vertex -13.7032 6.10105 0
      vertex -12.1353 8.81678 0
    endloop
  endfacet
  facet normal 0 0 -1
    outer loop
      vertex -14.6722 -3.11867 0
      vertex -12.1353 8.81678 0
      vertex -10.037 11.1472 0
    endloop
  endfacet
  facet normal 0 0 -1
    outer loop
      vertex -14.6722 -3.11867 0
      vertex -10.037 11.1472 0
      vertex -8 12.6271 0
    endloop
  endfacet
  facet normal 0 0 -1
    outer loop
      vertex -8 12.6271 0
      vertex -8 26 0
      vertex 8 26 0
    endloop
  endfacet
  facet normal 0 0 -1
    outer loop
      vertex 3.7082 11.4127 0
      vertex 8 26 0
      vertex 8 12.6271 0
    endloop
  endfacet
  facet normal 0 0 -1
    outer loop
      vertex 6 10.3923 0
      vertex 8 12.6271 0
      vertex 10.037 11.1472 0
    endloop
  endfacet
  facet normal 0 0 -1
    outer loop
      vertex 8.02957 8.91774 0
      vertex 10.037 11.1472 0
      vertex 12.1353 8.81678 0
    endloop
  endfacet
  facet normal 0 0 -1
    outer loop
      vertex 9.7082 7.05342 0
      vertex 12.1353 8.81678 0
      vertex 13.7032 6.10105 0
    endloop
  endfacet
  facet normal 0 0 -1
    outer loop
      vertex 11.7378 2.49494 0
      vertex 13.7032 6.10105 0
      vertex 14.6722 3.11867 0
    endloop
  endfacet
  facet normal 0 0 -1
    outer loop
      vertex 12 0 0
      vertex 14.6722 3.11867 0
      vertex 15 0 0
    endloop
  endfacet
  facet normal 0 0 -1
    outer loop
      vertex 11.7378 -2.49494 0
      vertex 15 0 0
      vertex 14.6722 -3.11867 0
    endloop
  endfacet
  facet normal 0 0 -1
    outer loop
      vertex 10.9625 -4.88084 0
      vertex 14.6722 -3.11867 0
      vertex 13.7032 -6.10105 0
    endloop
  endfacet
  facet normal 0 0 -1
    outer loop
      vertex 9.7082 -7.05342 0
      vertex 13.7032 -6.10105 0
      vertex 12.1353 -8.81678 0
    endloop
  endfacet
  facet normal 0 0 -1
    outer loop
      vertex 8.02957 -8.91774 0
      vertex 12.1353 -8.81678 0
      vertex 10.037 -11.1472 0
    endloop
  endfacet
  facet normal 0 0 -1
    outer loop
      vertex 6 -10.3923 0
      vertex 10.037 -11.1472 0
      vertex 7.5 -12.9904 0
    endloop
  endfacet
  facet normal 0 0 -1
    outer loop
      vertex 1.25434 -11.9343 0
      vertex 7.5 -12.9904 0
      vertex 4.63525 -14.2658 0
    endloop
  endfacet
  facet normal 0 0 -1
    outer loop
      vertex -1.25434 -11.9343 0
      vertex 4.63525 -14.2658 0
      vertex 1.56793 -14.9178 0
    endloop
  endfacet
  facet normal 0 0 -1
    outer loop
      vertex -6 -10.3923 0
      vertex 1.56793 -14.9178 0
      vertex -1.56793 -14.9178 0
    endloop
  endfacet
  facet normal 0 0 -1
    outer loop
      vertex -14.6722 -3.11867 0
      vertex -1.56793 -14.9178 0
      vertex -4.63525 -14.2658 0
    endloop
  endfacet
  facet normal 0 0 -1
    outer loop
      vertex -14.6722 -3.11867 0
      vertex -4.63525 -14.2658 0
      vertex -7.5 -12.9904 0
    endloop
  endfacet
  facet normal 0 0 -1
    outer loop
      vertex -14.6722 -3.11867 0
      vertex -7.5 -12.9904 0
      vertex -10.037 -11.1472 0
    endloop
  endfacet
  facet normal 0 0 -1
    outer loop
      vertex -14.6722 -3.11867 0
      vertex -10.037 -11.1472 0
      vertex -12.1353 -8.81678 0
    endloop
  endfacet
  facet normal 0 0 -1
    outer loop
      vertex -14.6722 -3.11867 0
      vertex -12.1353 -8.81678 0
      vertex -13.7032 -6.10105 0
    endloop
  endfacet
  facet normal 0 0 -1
    outer loop
      vertex -11.7378 -2.49494 0
      vertex -14.6722 -3.11867 0
      vertex -12 0 0
    endloop
  endfacet
  facet normal 0 0 -1
    outer loop
      vertex 8.02957 -8.91774 0
      vertex 10.037 -11.1472 0
      vertex 6 -10.3923 0
    endloop
  endfacet
  facet normal 0 0 -1
    outer loop
      vertex -10.9625 -4.88084 0
      vertex -14.6722 -3.11867 0
      vertex -11.7378 -2.49494 0
    endloop
  endfacet
  facet normal 0 0 -1
    outer loop
      vertex -9.7082 -7.05342 0
      vertex -14.6722 -3.11867 0
      vertex -10.9625 -4.88084 0
    endloop
  endfacet
  facet normal 0 0 -1
    outer loop
      vertex -6 -10.3923 0
      vertex -1.56793 -14.9178 0
      vertex -8.02957 -8.91774 0
    endloop
  endfacet
  facet normal 0 0 -1
    outer loop
      vertex -14.6722 -3.11867 0
      vertex -9.7082 -7.05342 0
      vertex -8.02957 -8.91774 0
    endloop
  endfacet
  facet normal 0 0 -1
    outer loop
      vertex -14.6722 -3.11867 0
      vertex -8.02957 -8.91774 0
      vertex -1.56793 -14.9178 0
    endloop
  endfacet
  facet normal 0 0 -1
    outer loop
      vertex -3.7082 -11.4127 0
      vertex 1.56793 -14.9178 0
      vertex -6 -10.3923 0
    endloop
  endfacet
  facet normal 0 0 -1
    outer loop
      vertex -1.25434 -11.9343 0
      vertex 1.56793 -14.9178 0
      vertex -3.7082 -11.4127 0
    endloop
  endfacet
  facet normal 0 0 -1
    outer loop
      vertex 3.7082 -11.4127 0
      vertex 7.5 -12.9904 0
      vertex 1.25434 -11.9343 0
    endloop
  endfacet
  facet normal 0 0 -1
    outer loop
      vertex 6 -10.3923 0
      vertex 7.5 -12.9904 0
      vertex 3.7082 -11.4127 0
    endloop
  endfacet
  facet normal 0 0 -1
    outer loop
      vertex 1.25434 -11.9343 0
      vertex 4.63525 -14.2658 0
      vertex -1.25434 -11.9343 0
    endloop
  endfacet
  facet normal 0 0 -1
    outer loop
      vertex 11.7378 2.49494 0
      vertex 14.6722 3.11867 0
      vertex 12 0 0
    endloop
  endfacet
  facet normal 0 0 -1
    outer loop
      vertex 10.9625 4.88084 0
      vertex 13.7032 6.10105 0
      vertex 11.7378 2.49494 0
    endloop
  endfacet
  facet normal 0 0 -1
    outer loop
      vertex 12 0 0
      vertex 15 0 0
      vertex 11.7378 -2.49494 0
    endloop
  endfacet
  facet normal 0 0 -1
    outer loop
      vertex 11.7378 -2.49494 0
      vertex 14.6722 -3.11867 0
      vertex 10.9625 -4.88084 0
    endloop
  endfacet
  facet normal 0 0 -1
    outer loop
      vertex 10.9625 -4.88084 0
      vertex 13.7032 -6.10105 0
      vertex 9.7082 -7.05342 0
    endloop
  endfacet
  facet normal 0 0 -1
    outer loop
      vertex 9.7082 -7.05342 0
      vertex 12.1353 -8.81678 0
      vertex 8.02957 -8.91774 0
    endloop
  endfacet
  facet normal 0 0 -1
    outer loop
      vertex 1.25434 11.9343 0
      vertex 8 26 0
      vertex 3.7082 11.4127 0
    endloop
  endfacet
  facet normal 0 0 -1
    outer loop
      vertex -3.7082 11.4127 0
      vertex 8 26 0
      vertex -1.25434 11.9343 0
    endloop
  endfacet
  facet normal 0 0 -1
    outer loop
      vertex -1.25434 11.9343 0
      vertex 8 26 0
      vertex 1.25434 11.9343 0
    endloop
  endfacet
  facet normal 0 0 -1
    outer loop
      vertex -8 12.6271 0
      vertex 8 26 0
      vertex -3.7082 11.4127 0
    endloop
  endfacet
  facet normal 0 0 -1
    outer loop
      vertex 3.7082 11.4127 0
      vertex 8 12.6271 0
      vertex 6 10.3923 0
    endloop
  endfacet
  facet normal 0 0 -1
    outer loop
      vertex -8 12.6271 0
      vertex -3.7082 11.4127 0
      vertex -6 10.3923 0
    endloop
  endfacet
  facet normal 0 0 -1
    outer loop
      vertex -8 12.6271 0
      vertex -6 10.3923 0
      vertex -8.02957 8.91774 0
    endloop
  endfacet
  facet normal 0 0 -1
    outer loop
      vertex 6 10.3923 0
      vertex 10.037 11.1472 0
      vertex 8.02957 8.91774 0
    endloop
  endfacet
  facet normal 0 0 -1
    outer loop
      vertex -8 12.6271 0
      vertex -8.02957 8.91774 0
      vertex -9.7082 7.05342 0
    endloop
  endfacet
  facet normal 0 0 -1
    outer loop
      vertex -8 12.6271 0
      vertex -9.7082 7.05342 0
      vertex -10.9625 4.88084 0
    endloop
  endfacet
  facet normal 0 0 -1
    outer loop
      vertex -8 12.6271 0
      vertex -10.9625 4.88084 0
      vertex -14.6722 -3.11867 0
    endloop
  endfacet
  facet normal 0 0 -1
    outer loop
      vertex -12 0 0
      vertex -14.6722 -3.11867 0
      vertex -11.7378 2.49494 0
    endloop
  endfacet
  facet normal 0 0 -1
    outer loop
      vertex -11.7378 2.49494 0
      vertex -14.6722 -3.11867 0
      vertex -10.9625 4.88084 0
    endloop
  endfacet
  facet normal 0 0 -1
    outer loop
      vertex 8.02957 8.91774 0
      vertex 12.1353 8.81678 0
      vertex 9.7082 7.05342 0
    endloop
  endfacet
  facet normal 0 0 -1
    outer loop
      vertex 9.7082 7.05342 0
      vertex 13.7032 6.10105 0
      vertex 10.9625 4.88084 0
    endloop
  endfacet
  facet normal -0.994522 0.104528 0
    outer loop
      vertex -15 0 0
      vertex -15 0 12
      vertex -14.6722 3.11867 0
    endloop
  endfacet
  facet normal -0.994522 0.104528 0
    outer loop
      vertex -14.6722 3.11867 0
      vertex -15 0 12
      vertex -14.6722 3.11867 12
    endloop
  endfacet
  facet normal -0.994522 -0.104528 0
    outer loop
      vertex -15 0 0
      vertex -14.6722 -3.11867 0
      vertex -15 0 12
    endloop
  endfacet
  facet normal -0.994522 -0.104528 0
    outer loop
      vertex -15 0 12
      vertex -14.6722 -3.11867 0
      vertex -14.6722 -3.11867 12
    endloop
  endfacet
  facet normal -0.951057 -0.309017 0
    outer loop
      vertex -14.6722 -3.11867 0
      vertex -13.7032 -6.10105 0
      vertex -14.6722 -3.11867 12
    endloop
  endfacet
  facet normal -0.951057 -0.309017 0
    outer loop
      vertex -14.6722 -3.11867 12
      vertex -13.7032 -6.10105 0
      vertex -13.7032 -6.10105 12
    endloop
  endfacet
  facet normal -0.866025 -0.5 0
    outer loop
      vertex -13.7032 -6.10105 0
      vertex -12.1353 -8.81678 0
      vertex -13.7032 -6.10105 12
    endloop
  endfacet
  facet normal -0.866025 -0.5 0
    outer loop
      vertex -13.7032 -6.10105 12
      vertex -12.1353 -8.81678 0
      vertex -12.1353 -8.81678 12
    endloop
  endfacet
  facet normal -0.743145 -0.669131 0
    outer loop
      vertex -12.1353 -8.81678 0
      vertex -10.037 -11.1472 0
      vertex -12.1353 -8.81678 12
    endloop
  endfacet
  facet normal -0.743145 -0.669131 0
    outer loop
      vertex -12.1353 -8.81678 12
      vertex -10.037 -11.1472 0
      vertex -10.037 -11.1472 12
    endloop
  endfacet
  facet normal -0.587785 -0.809017 0
    outer loop
      vertex -10.037 -11.1472 12
      vertex -10.037 -11.1472 0
      vertex -7.5 -12.9904 0
    endloop
  endfacet
  facet normal -0.587785 -0.809017 0
    outer loop
      vertex -7.5 -12.9904 12
      vertex -10.037 -11.1472 12
      vertex -7.5 -12.9904 0
    endloop
  endfacet
  facet normal -0.406737 -0.913545 0
    outer loop
      vertex -7.5 -12.9904 12
      vertex -7.5 -12.9904 0
      vertex -4.63525 -14.2658 0
    endloop
  endfacet
  facet normal -0.406737 -0.913545 0
    outer loop
      vertex -4.63525 -14.2658 12
      vertex -7.5 -12.9904 12
      vertex -4.63525 -14.2658 0
    endloop
  endfacet
  facet normal -0.207911 -0.978148 0
    outer loop
      vertex -4.63525 -14.2658 12
      vertex -4.63525 -14.2658 0
      vertex -1.56793 -14.9178 0
    endloop
  endfacet
  facet normal -0.207911 -0.978148 0
    outer loop
      vertex -1.56793 -14.9178 12
      vertex -4.63525 -14.2658 12
      vertex -1.56793 -14.9178 0
    endloop
  endfacet
  facet normal 0 -1 0
    outer loop
      vertex -1.56793 -14.9178 12
      vertex -1.56793 -14.9178 0
      vertex 1.56793 -14.9178 0
    endloop
  endfacet
  facet normal 0 -1 0
    outer loop
      vertex 1.56793 -14.9178 12
      vertex -1.56793 -14.9178 12
      vertex 1.56793 -14.9178 0
    endloop
  endfacet
  facet normal 0.207911 -0.978148 0
    outer loop
      vertex 1.56793 -14.9178 12
      vertex 1.56793 -14.9178 0
      vertex 4.63525 -14.2658 0
    endloop
  endfacet
  facet normal 0.207911 -0.978148 0
    outer loop
      vertex 4.63525 -14.2658 12
      vertex 1.56793 -14.9178 12
      vertex 4.63525 -14.2658 0
    endloop
  endfacet
  facet normal 0.406737 -0.913545 0
    outer loop
      vertex 4.63525 -14.2658 12
      vertex 4.63525 -14.2658 0
      vertex 7.5 -12.9904 0
    endloop
  endfacet
  facet normal 0.406737 -0.913545 0
    outer loop
      vertex 7.5 -12.9904 12
      vertex 4.63525 -14.2658 12
      vertex 7.5 -12.9904 0
    endloop
  endfacet
  facet normal 0.587785 -0.809017 0
    outer loop
      vertex 7.5 -12.9904 12
      vertex 7.5 -12.9904 0
      vertex 10.037 -11.1472 0
    endloop
  endfacet
  facet normal 0.587785 -0.809017 0
    outer loop
      vertex 10.037 -11.1472 12
      vertex 7.5 -12.9904 12
      vertex 10.037 -11.1472 0
    endloop
  endfacet
  facet normal 0.743145 -0.669131 0
    outer loop
      vertex 10.037 -11.1472 12
      vertex 10.037 -11.1472 0
      vertex 12.1353 -8.81678 0
    endloop
  endfacet
  facet normal 0.743145 -0.669131 0
    outer loop
      vertex 12.1353 -8.81678 12
      vertex 10.037 -11.1472 12
      vertex 12.1353 -8.81678 0
    endloop
  endfacet
  facet normal 0.866025 -0.5 0
    outer loop
      vertex 12.1353 -8.81678 12
      vertex 12.1353 -8.81678 0
      vertex 13.7032 -6.10105 0
    endloop
  endfacet
  facet normal 0.866025 -0.5 0
    outer loop
      vertex 13.7032 -6.10105 12
      vertex 12.1353 -8.81678 12
      vertex 13.7032 -6.10105 0
    endloop
  endfacet
  facet normal 0.951057 -0.309017 0
    outer loop
      vertex 13.7032 -6.10105 12
      vertex 13.7032 -6.10105 0
      vertex 14.6722 -3.11867 0
    endloop
  endfacet
  facet normal 0.951057 -0.309017 0
    outer loop
      vertex 14.6722 -3.11867 12
      vertex 13.7032 -6.10105 12
      vertex 14.6722 -3.11867 0
    endloop
  endfacet
  facet normal 0.994522 -0.104528 0
    outer loop
      vertex 14.6722 -3.11867 12
      vertex 14.6722 -3.11867 0
      vertex 15 0 0
    endloop
  endfacet
  facet normal 0.994522 -0.104528 0
    outer loop
      vertex 15 0 12
      vertex 14.6722 -3.11867 12
      vertex 15 0 0
    endloop
  endfacet
  facet normal 0.994522 0.104528 0
    outer loop
      vertex 15 0 0
      vertex 14.6722 3.11867 0
      vertex 14.6722 3.11867 12
    endloop
  endfacet
  facet normal 0.994522 0.104528 0
    outer loop
      vertex 15 0 12
      vertex 15 0 0
      vertex 14.6722 3.11867 12
    endloop
  endfacet
  facet normal 0.951057 0.309017 0
    outer loop
      vertex 14.6722 3.11867 0
      vertex 13.7032 6.10105 0
      vertex 13.7032 6.10105 12
    endloop
  endfacet
  facet normal 0.951057 0.309017 0
    outer loop
      vertex 14.6722 3.11867 12
      vertex 14.6722 3.11867 0
      vertex 13.7032 6.10105 12
    endloop
  endfacet
  facet normal 0.866025 0.5 0
    outer loop
      vertex 13.7032 6.10105 0
      vertex 12.1353 8.81678 0
      vertex 12.1353 8.81678 12
    endloop
  endfacet
  facet normal 0.866025 0.5 0
    outer loop
      vertex 13.7032 6.10105 12
      vertex 13.7032 6.10105 0
      vertex 12.1353 8.81678 12
    endloop
  endfacet
  facet normal 0.743145 0.669131 0
    outer loop
      vertex 12.1353 8.81678 0
      vertex 10.037 11.1472 0
      vertex 10.037 11.1472 12
    endloop
  endfacet
  facet normal 0.743145 0.669131 0
    outer loop
      vertex 12.1353 8.81678 12
      vertex 12.1353 8.81678 0
      vertex 10.037 11.1472 12
    endloop
  endfacet
  facet normal 0.587785 0.809017 0
    outer loop
      vertex 8 12.6271 0
      vertex 8 12.6271 12
      vertex 10.037 11.1472 0
    endloop
  endfacet
  facet normal 0.587785 0.809017 0
    outer loop
      vertex 10.037 11.1472 0
      vertex 8 12.6271 12
      vertex 10.037 11.1472 12
    endloop
  endfacet
  facet normal 1 0 0
    outer loop
      vertex 8 22 13
      vertex 8 26 0
      vertex 8 26 9.34315
    endloop
  endfacet
  facet normal 1 0 0
    outer loop
      vertex 8 12 20
      vertex 8 12 12
      vertex 8 12.6271 12
    endloop
  endfacet
  facet normal 1 0 0
    outer loop
      vertex 8 22 4
      vertex 8 16 4
      vertex 8 26 0
    endloop
  endfacet
  facet normal 1 0 0
    outer loop
      vertex 8 26 9.34315
      vertex 8 32.1924 15.5355
      vertex 8 26 15
    endloop
  endfacet
  facet normal 1 0 0
    outer loop
      vertex 8 26 9.34315
      vertex 8 26 15
      vertex 8 25.6569 15
    endloop
  endfacet
  facet normal 1 0 0
    outer loop
      vertex 8 16 4
      vertex 8 16 20
      vertex 8 12 20
    endloop
  endfacet
  facet normal 1 0 0
    outer loop
      vertex 8 26 9.34315
      vertex 8 25.6569 15
      vertex 8 22 13
    endloop
  endfacet
  facet normal 1 0 0
    outer loop
      vertex 8 12.6271 0
      vertex 8 16 4
      vertex 8 12.6271 12
    endloop
  endfacet
  facet normal 1 0 0
    outer loop
      vertex 8 12.6271 0
      vertex 8 26 0
      vertex 8 16 4
    endloop
  endfacet
  facet normal 1 0 0
    outer loop
      vertex 8 19.4645 21.1924
      vertex 8 16.636 18.364
      vertex 8 25.6569 15
    endloop
  endfacet
  facet normal 1 0 0
    outer loop
      vertex 8 22 13
      vertex 8 22 4
      vertex 8 26 0
    endloop
  endfacet
  facet normal 1 0 0
    outer loop
      vertex 8 16 4
      vertex 8 12 20
      vertex 8 12.6271 12
    endloop
  endfacet
  facet normal 1 0 0
    outer loop
      vertex 8 29.364 18.364
      vertex 8 26 15
      vertex 8 32.1924 15.5355
    endloop
  endfacet
  facet normal 1 0 0
    outer loop
      vertex 8 16.636 18.364
      vertex 8 22 13
      vertex 8 25.6569 15
    endloop
  endfacet
  facet normal 0 1 0
    outer loop
      vertex -8 26 0
      vertex -8 26 9.34315
      vertex 8 26 0
    endloop
  endfacet
  facet normal 0 1 0
    outer loop
      vertex 8 26 0
      vertex -8 26 9.34315
      vertex 8 26 9.34315
    endloop
  endfacet
  facet normal -1 0 0
    outer loop
      vertex -8 12 12
      vertex -8 12 20
      vertex -8 12.6271 12
    endloop
  endfacet
  facet normal -1 0 0
    outer loop
      vertex -8 12.6271 12
      vertex -8 12 20
      vertex -8 16 20
    endloop
  endfacet
  facet normal -1 0 0
    outer loop
      vertex -8 12.6271 12
      vertex -8 16 20
      vertex -8 16 4
    endloop
  endfacet
  facet normal -1 0 0
    outer loop
      vertex -8 19.4645 21.1924
      vertex -8 22 13
      vertex -8 16.636 18.364
    endloop
  endfacet
  facet normal -1 0 0
    outer loop
      vertex -8 26 0
      vertex -8 22 4
      vertex -8 26 9.34315
    endloop
  endfacet
  facet normal -1 0 0
    outer loop
      vertex -8 22 13
      vertex -8 19.4645 21.1924
      vertex -8 25.6569 15
    endloop
  endfacet
  facet normal -1 0 0
    outer loop
      vertex -8 22 13
      vertex -8 25.6569 15
      vertex -8 22 4
    endloop
  endfacet
  facet normal -1 0 0
    outer loop
      vertex -8 22 4
      vertex -8 25.6569 15
      vertex -8 26 15
    endloop
  endfacet
  facet normal -1 0 0
    outer loop
      vertex -8 22 4
      vertex -8 26 15
      vertex -8 29.364 18.364
    endloop
  endfacet
  facet normal -1 0 0
    outer loop
      vertex -8 26 9.34315
      vertex -8 29.364 18.364
      vertex -8 32.1924 15.5355
    endloop
  endfacet
  facet normal -1 0 0
    outer loop
      vertex -8 22 4
      vertex -8 29.364 18.364
      vertex -8 26 9.34315
    endloop
  endfacet
  facet normal -1 0 0
    outer loop
      vertex -8 22 4
      vertex -8 26 0
      vertex -8 16 4
    endloop
  endfacet
  facet normal -1 0 0
    outer loop
      vertex -8 16 4
      vertex -8 26 0
      vertex -8 12.6271 0
    endloop
  endfacet
  facet normal -1 0 0
    outer loop
      vertex -8 12.6271 12
      vertex -8 16 4
      vertex -8 12.6271 0
    endloop
  endfacet
  facet normal -0.587785 0.809017 0
    outer loop
      vertex -10.037 11.1472 0
      vertex -10.037 11.1472 12
      vertex -8 12.6271 0
    endloop
  endfacet
  facet normal -0.587785 0.809017 0
    outer loop
      vertex -8 12.6271 0
      vertex -10.037 11.1472 12
      vertex -8 12.6271 12
    endloop
  endfacet
  facet normal -0.743145 0.669131 0
    outer loop
      vertex -12.1353 8.81678 0
      vertex -12.1353 8.81678 12
      vertex -10.037 11.1472 0
    endloop
  endfacet
  facet normal -0.743145 0.669131 0
    outer loop
      vertex -10.037 11.1472 0
      vertex -12.1353 8.81678 12
      vertex -10.037 11.1472 12
    endloop
  endfacet
  facet normal -0.866025 0.5 0
    outer loop
      vertex -13.7032 6.10105 0
      vertex -13.7032 6.10105 12
      vertex -12.1353 8.81678 0
    endloop
  endfacet
  facet normal -0.866025 0.5 0
    outer loop
      vertex -12.1353 8.81678 0
      vertex -13.7032 6.10105 12
      vertex -12.1353 8.81678 12
    endloop
  endfacet
  facet normal -0.951057 0.309017 0
    outer loop
      vertex -14.6722 3.11867 0
      vertex -14.6722 3.11867 12
      vertex -13.7032 6.10105 0
    endloop
  endfacet
  facet normal -0.951057 0.309017 0
    outer loop
      vertex -13.7032 6.10105 0
      vertex -14.6722 3.11867 12
      vertex -13.7032 6.10105 12
    endloop
  endfacet
  facet normal 0.994522 -0.104529 0
    outer loop
      vertex -11.7378 2.49494 0
      vertex -11.7378 2.49494 10
      vertex -12 0 10
    endloop
  endfacet
  facet normal 0.994522 -0.104529 0
    outer loop
      vertex -12 0 0
      vertex -11.7378 2.49494 0
      vertex -12 0 10
    endloop
  endfacet
  facet normal 0.994522 0.104529 0
    outer loop
      vertex -12 0 10
      vertex -11.7378 -2.49494 10
      vertex -11.7378 -2.49494 0
    endloop
  endfacet
  facet normal 0.994522 0.104529 0
    outer loop
      vertex -12 0 0
      vertex -12 0 10
      vertex -11.7378 -2.49494 0
    endloop
  endfacet
  facet normal 0.951057 -0.309017 0
    outer loop
      vertex -10.9625 4.88084 0
      vertex -10.9625 4.88084 10
      vertex -11.7378 2.49494 10
    endloop
  endfacet
  facet normal 0.951057 -0.309017 0
    outer loop
      vertex -11.7378 2.49494 0
      vertex -10.9625 4.88084 0
      vertex -11.7378 2.49494 10
    endloop
  endfacet
  facet normal 0.866025 -0.5 0
    outer loop
      vertex -9.7082 7.05342 0
      vertex -9.7082 7.05342 10
      vertex -10.9625 4.88084 10
    endloop
  endfacet
  facet normal 0.866025 -0.5 0
    outer loop
      vertex -10.9625 4.88084 0
      vertex -9.7082 7.05342 0
      vertex -10.9625 4.88084 10
    endloop
  endfacet
  facet normal 0.743145 -0.669131 0
    outer loop
      vertex -8.02957 8.91774 0
      vertex -8.02957 8.91774 10
      vertex -9.7082 7.05342 10
    endloop
  endfacet
  facet normal 0.743145 -0.669131 0
    outer loop
      vertex -9.7082 7.05342 0
      vertex -8.02957 8.91774 0
      vertex -9.7082 7.05342 10
    endloop
  endfacet
  facet normal 0.587785 -0.809017 0
    outer loop
      vertex -6 10.3923 0
      vertex -6 10.3923 10
      vertex -8.02957 8.91774 10
    endloop
  endfacet
  facet normal 0.587785 -0.809017 0
    outer loop
      vertex -8.02957 8.91774 0
      vertex -6 10.3923 0
      vertex -8.02957 8.91774 10
    endloop
  endfacet
  facet normal 0.406737 -0.913546 0
    outer loop
      vertex -3.7082 11.4127 0
      vertex -3.7082 11.4127 10
      vertex -6 10.3923 10
    endloop
  endfacet
  facet normal 0.406737 -0.913546 0
    outer loop
      vertex -6 10.3923 0
      vertex -3.7082 11.4127 0
      vertex -6 10.3923 10
    endloop
  endfacet
  facet normal 0.207912 -0.978148 0
    outer loop
      vertex -1.25434 11.9343 0
      vertex -1.25434 11.9343 10
      vertex -3.7082 11.4127 10
    endloop
  endfacet
  facet normal 0.207912 -0.978148 0
    outer loop
      vertex -3.7082 11.4127 0
      vertex -1.25434 11.9343 0
      vertex -3.7082 11.4127 10
    endloop
  endfacet
  facet normal 0 -1 0
    outer loop
      vertex 1.25434 11.9343 0
      vertex 1.25434 11.9343 10
      vertex -1.25434 11.9343 10
    endloop
  endfacet
  facet normal 0 -1 0
    outer loop
      vertex -1.25434 11.9343 0
      vertex 1.25434 11.9343 0
      vertex -1.25434 11.9343 10
    endloop
  endfacet
  facet normal -0.207912 -0.978148 0
    outer loop
      vertex 3.7082 11.4127 0
      vertex 3.7082 11.4127 10
      vertex 1.25434 11.9343 10
    endloop
  endfacet
  facet normal -0.207912 -0.978148 0
    outer loop
      vertex 1.25434 11.9343 0
      vertex 3.7082 11.4127 0
      vertex 1.25434 11.9343 10
    endloop
  endfacet
  facet normal -0.406737 -0.913546 0
    outer loop
      vertex 6 10.3923 0
      vertex 6 10.3923 10
      vertex 3.7082 11.4127 10
    endloop
  endfacet
  facet normal -0.406737 -0.913546 0
    outer loop
      vertex 3.7082 11.4127 0
      vertex 6 10.3923 0
      vertex 3.7082 11.4127 10
    endloop
  endfacet
  facet normal -0.587785 -0.809017 0
    outer loop
      vertex 8.02957 8.91774 0
      vertex 8.02957 8.91774 10
      vertex 6 10.3923 10
    endloop
  endfacet
  facet normal -0.587785 -0.809017 0
    outer loop
      vertex 6 10.3923 0
      vertex 8.02957 8.91774 0
      vertex 6 10.3923 10
    endloop
  endfacet
  facet normal -0.743145 -0.669131 0
    outer loop
      vertex 9.7082 7.05342 10
      vertex 8.02957 8.91774 10
      vertex 9.7082 7.05342 0
    endloop
  endfacet
  facet normal -0.743145 -0.669131 0
    outer loop
      vertex 9.7082 7.05342 0
      vertex 8.02957 8.91774 10
      vertex 8.02957 8.91774 0
    endloop
  endfacet
  facet normal -0.866025 -0.5 0
    outer loop
      vertex 10.9625 4.88084 10
      vertex 9.7082 7.05342 10
      vertex 10.9625 4.88084 0
    endloop
  endfacet
  facet normal -0.866025 -0.5 0
    outer loop
      vertex 10.9625 4.88084 0
      vertex 9.7082 7.05342 10
      vertex 9.7082 7.05342 0
    endloop
  endfacet
  facet normal -0.951057 -0.309017 0
    outer loop
      vertex 11.7378 2.49494 10
      vertex 10.9625 4.88084 10
      vertex 11.7378 2.49494 0
    endloop
  endfacet
  facet normal -0.951057 -0.309017 0
    outer loop
      vertex 11.7378 2.49494 0
      vertex 10.9625 4.88084 10
      vertex 10.9625 4.88084 0
    endloop
  endfacet
  facet normal -0.994522 -0.104529 0
    outer loop
      vertex 12 0 10
      vertex 11.7378 2.49494 10
      vertex 12 0 0
    endloop
  endfacet
  facet normal -0.994522 -0.104529 0
    outer loop
      vertex 12 0 0
      vertex 11.7378 2.49494 10
      vertex 11.7378 2.49494 0
    endloop
  endfacet
  facet normal -0.994522 0.104529 0
    outer loop
      vertex 12 0 10
      vertex 12 0 0
      vertex 11.7378 -2.49494 10
    endloop
  endfacet
  facet normal -0.994522 0.104529 0
    outer loop
      vertex 11.7378 -2.49494 10
      vertex 12 0 0
      vertex 11.7378 -2.49494 0
    endloop
  endfacet
  facet normal -0.951057 0.309017 0
    outer loop
      vertex 11.7378 -2.49494 10
      vertex 11.7378 -2.49494 0
      vertex 10.9625 -4.88084 10
    endloop
  endfacet
  facet normal -0.951057 0.309017 0
    outer loop
      vertex 10.9625 -4.88084 10
      vertex 11.7378 -2.49494 0
      vertex 10.9625 -4.88084 0
    endloop
  endfacet
  facet normal -0.866025 0.5 0
    outer loop
      vertex 10.9625 -4.88084 10
      vertex 10.9625 -4.88084 0
      vertex 9.7082 -7.05342 10
    endloop
  endfacet
  facet normal -0.866025 0.5 0
    outer loop
      vertex 9.7082 -7.05342 10
      vertex 10.9625 -4.88084 0
      vertex 9.7082 -7.05342 0
    endloop
  endfacet
  facet normal -0.743145 0.669131 0
    outer loop
      vertex 9.7082 -7.05342 10
      vertex 9.7082 -7.05342 0
      vertex 8.02957 -8.91774 10
    endloop
  endfacet
  facet normal -0.743145 0.669131 0
    outer loop
      vertex 8.02957 -8.91774 10
      vertex 9.7082 -7.05342 0
      vertex 8.02957 -8.91774 0
    endloop
  endfacet
  facet normal -0.587785 0.809017 0
    outer loop
      vertex 8.02957 -8.91774 10
      vertex 8.02957 -8.91774 0
      vertex 6 -10.3923 10
    endloop
  endfacet
  facet normal -0.587785 0.809017 0
    outer loop
      vertex 6 -10.3923 10
      vertex 8.02957 -8.91774 0
      vertex 6 -10.3923 0
    endloop
  endfacet
  facet normal -0.406737 0.913546 0
    outer loop
      vertex 6 -10.3923 10
      vertex 6 -10.3923 0
      vertex 3.7082 -11.4127 10
    endloop
  endfacet
  facet normal -0.406737 0.913546 0
    outer loop
      vertex 3.7082 -11.4127 10
      vertex 6 -10.3923 0
      vertex 3.7082 -11.4127 0
    endloop
  endfacet
  facet normal -0.207912 0.978148 0
    outer loop
      vertex 3.7082 -11.4127 10
      vertex 3.7082 -11.4127 0
      vertex 1.25434 -11.9343 10
    endloop
  endfacet
  facet normal -0.207912 0.978148 0
    outer loop
      vertex 1.25434 -11.9343 10
      vertex 3.7082 -11.4127 0
      vertex 1.25434 -11.9343 0
    endloop
  endfacet
  facet normal 0 1 0
    outer loop
      vertex 1.25434 -11.9343 10
      vertex 1.25434 -11.9343 0
      vertex -1.25434 -11.9343 10
    endloop
  endfacet
  facet normal 0 1 0
    outer loop
      vertex -1.25434 -11.9343 10
      vertex 1.25434 -11.9343 0
      vertex -1.25434 -11.9343 0
    endloop
  endfacet
  facet normal 0.207912 0.978148 0
    outer loop
      vertex -1.25434 -11.9343 10
      vertex -1.25434 -11.9343 0
      vertex -3.7082 -11.4127 10
    endloop
  endfacet
  facet normal 0.207912 0.978148 0
    outer loop
      vertex -3.7082 -11.4127 10
      vertex -1.25434 -11.9343 0
      vertex -3.7082 -11.4127 0
    endloop
  endfacet
  facet normal 0.406737 0.913546 0
    outer loop
      vertex -3.7082 -11.4127 10
      vertex -3.7082 -11.4127 0
      vertex -6 -10.3923 10
    endloop
  endfacet
  facet normal 0.406737 0.913546 0
    outer loop
      vertex -6 -10.3923 10
      vertex -3.7082 -11.4127 0
      vertex -6 -10.3923 0
    endloop
  endfacet
  facet normal 0.587785 0.809017 0
    outer loop
      vertex -6 -10.3923 10
      vertex -6 -10.3923 0
      vertex -8.02957 -8.91774 10
    endloop
  endfacet
  facet normal 0.587785 0.809017 0
    outer loop
      vertex -8.02957 -8.91774 10
      vertex -6 -10.3923 0
      vertex -8.02957 -8.91774 0
    endloop
  endfacet
  facet normal 0.743145 0.669131 0
    outer loop
      vertex -9.7082 -7.05342 10
      vertex -8.02957 -8.91774 10
      vertex -8.02957 -8.91774 0
    endloop
  endfacet
  facet normal 0.743145 0.669131 0
    outer loop
      vertex -9.7082 -7.05342 0
      vertex -9.7082 -7.05342 10
      vertex -8.02957 -8.91774 0
    endloop
  endfacet
  facet normal 0.866025 0.5 0
    outer loop
      vertex -10.9625 -4.88084 10
      vertex -9.7082 -7.05342 10
      vertex -9.7082 -7.05342 0
    endloop
  endfacet
  facet normal 0.866025 0.5 0
    outer loop
      vertex -10.9625 -4.88084 0
      vertex -10.9625 -4.88084 10
      vertex -9.7082 -7.05342 0
    endloop
  endfacet
  facet normal 0.951057 0.309017 0
    outer loop
      vertex -11.7378 -2.49494 10
      vertex -10.9625 -4.88084 10
      vertex -10.9625 -4.88084 0
    endloop
  endfacet
  facet normal 0.951057 0.309017 0
    outer loop
      vertex -11.7378 -2.49494 0
      vertex -11.7378 -2.49494 10
      vertex -10.9625 -4.88084 0
    endloop
  endfacet
  facet normal 0 0 1
    outer loop
      vertex -14.6722 3.11867 12
      vertex -15 0 12
      vertex -14.6722 -3.11867 12
    endloop
  endfacet
  facet normal 0 0 1
    outer loop
      vertex -12.1353 -8.81678 12
      vertex -14.6722 3.11867 12
      vertex -13.7032 -6.10105 12
    endloop
  endfacet
  facet normal 0 0 1
    outer loop
      vertex -13.7032 -6.10105 12
      vertex -14.6722 3.11867 12
      vertex -14.6722 -3.11867 12
    endloop
  endfacet
  facet normal 0 0 1
    outer loop
      vertex -10.037 -11.1472 12
      vertex -14.6722 3.11867 12
      vertex -12.1353 -8.81678 12
    endloop
  endfacet
  facet normal 0 0 1
    outer loop
      vertex -7.5 -12.9904 12
      vertex -14.6722 3.11867 12
      vertex -10.037 -11.1472 12
    endloop
  endfacet
  facet normal 0 0 1
    outer loop
      vertex -4.63525 -14.2658 12
      vertex -14.6722 3.11867 12
      vertex -7.5 -12.9904 12
    endloop
  endfacet
  facet normal 0 0 1
    outer loop
      vertex -1.56793 -14.9178 12
      vertex -14.6722 3.11867 12
      vertex -4.63525 -14.2658 12
    endloop
  endfacet
  facet normal 0 0 1
    outer loop
      vertex 1.56793 -14.9178 12
      vertex -14.6722 3.11867 12
      vertex -1.56793 -14.9178 12
    endloop
  endfacet
  facet normal 0 0 1
    outer loop
      vertex 4.63525 -14.2658 12
      vertex -14.6722 3.11867 12
      vertex 1.56793 -14.9178 12
    endloop
  endfacet
  facet normal 0 0 1
    outer loop
      vertex 7.5 -12.9904 12
      vertex -14.6722 3.11867 12
      vertex 4.63525 -14.2658 12
    endloop
  endfacet
  facet normal 0 0 1
    outer loop
      vertex 10.037 -11.1472 12
      vertex -14.6722 3.11867 12
      vertex 7.5 -12.9904 12
    endloop
  endfacet
  facet normal 0 0 1
    outer loop
      vertex 12.1353 -8.81678 12
      vertex -14.6722 3.11867 12
      vertex 10.037 -11.1472 12
    endloop
  endfacet
  facet normal 0 0 1
    outer loop
      vertex 13.7032 -6.10105 12
      vertex -14.6722 3.11867 12
      vertex 12.1353 -8.81678 12
    endloop
  endfacet
  facet normal 0 0 1
    outer loop
      vertex 14.6722 -3.11867 12
      vertex -14.6722 3.11867 12
      vertex 13.7032 -6.10105 12
    endloop
  endfacet
  facet normal 0 0 1
    outer loop
      vertex 15 0 12
      vertex -14.6722 3.11867 12
      vertex 14.6722 -3.11867 12
    endloop
  endfacet
  facet normal 0 0 1
    outer loop
      vertex 14.6722 3.11867 12
      vertex -14.6722 3.11867 12
      vertex 15 0 12
    endloop
  endfacet
  facet normal 0 0 1
    outer loop
      vertex 13.7032 6.10105 12
      vertex -14.6722 3.11867 12
      vertex 14.6722 3.11867 12
    endloop
  endfacet
  facet normal 0 0 1
    outer loop
      vertex 12.1353 8.81678 12
      vertex -14.6722 3.11867 12
      vertex 13.7032 6.10105 12
    endloop
  endfacet
  facet normal 0 0 1
    outer loop
      vertex 10.037 11.1472 12
      vertex -14.6722 3.11867 12
      vertex 12.1353 8.81678 12
    endloop
  endfacet
  facet normal 0 0 1
    outer loop
      vertex 8 12 12
      vertex -14.6722 3.11867 12
      vertex 10.037 11.1472 12
    endloop
  endfacet
  facet normal 0 0 1
    outer loop
      vertex 8 12.6271 12
      vertex 8 12 12
      vertex 10.037 11.1472 12
    endloop
  endfacet
  facet normal 0 0 1
    outer loop
      vertex -8 12.6271 12
      vertex -14.6722 3.11867 12
      vertex -8 12 12
    endloop
  endfacet
  facet normal 0 0 1
    outer loop
      vertex -10.037 11.1472 12
      vertex -14.6722 3.11867 12
      vertex -8 12.6271 12
    endloop
  endfacet
  facet normal 0 0 1
    outer loop
      vertex -12.1353 8.81678 12
      vertex -14.6722 3.11867 12
      vertex -10.037 11.1472 12
    endloop
  endfacet
  facet normal 0 0 1
    outer loop
      vertex -13.7032 6.10105 12
      vertex -14.6722 3.11867 12
      vertex -12.1353 8.81678 12
    endloop
  endfacet
  facet normal 0 0 1
    outer loop
      vertex 8 12 12
      vertex -8 12 12
      vertex -14.6722 3.11867 12
    endloop
  endfacet
  facet normal 0 -1 0
    outer loop
      vertex -8 12 20
      vertex -8 12 12
      vertex 8 12 12
    endloop
  endfacet
  facet normal 0 -1 0
    outer loop
      vertex 8 12 20
      vertex -8 12 20
      vertex 8 12 12
    endloop
  endfacet
  facet normal 0 0 1
    outer loop
      vertex -8 16 20
      vertex -8 12 20
      vertex 8 12 20
    endloop
  endfacet
  facet normal 0 0 1
    outer loop
      vertex 8 16 20
      vertex -8 16 20
      vertex 8 12 20
    endloop
  endfacet
  facet normal 0 1 0
    outer loop
      vertex -8 16 4
      vertex -8 16 20
      vertex 8 16 4
    endloop
  endfacet
  facet normal 0 1 0
    outer loop
      vertex 8 16 4
      vertex -8 16 20
      vertex 8 16 20
    endloop
  endfacet
  facet normal 0 0 1
    outer loop
      vertex -8 22 4
      vertex -8 16 4
      vertex 8 16 4
    endloop
  endfacet
  facet normal 0 0 1
    outer loop
      vertex 8 22 4
      vertex -8 22 4
      vertex 8 16 4
    endloop
  endfacet
  facet normal 0 -1 0
    outer loop
      vertex -8 22 13
      vertex -8 22 4
      vertex 8 22 4
    endloop
  endfacet
  facet normal 0 -1 0
    outer loop
      vertex 8 22 13
      vertex -8 22 13
      vertex 8 22 4
    endloop
  endfacet
  facet normal 0 -0.707107 -0.707107
    outer loop
      vertex -8 16.636 18.364
      vertex -8 22 13
      vertex 8 16.636 18.364
    endloop
  endfacet
  facet normal 0 -0.707107 -0.707107
    outer loop
      vertex 8 16.636 18.364
      vertex -8 22 13
      vertex 8 22 13
    endloop
  endfacet
  facet normal 0 -0.707107 0.707107
    outer loop
      vertex -8 19.4645 21.1924
      vertex -8 16.636 18.364
      vertex 8 16.636 18.364
    endloop
  endfacet
  facet normal 0 -0.707107 0.707107
    outer loop
      vertex 8 19.4645 21.1924
      vertex -8 19.4645 21.1924
      vertex 8 16.636 18.364
    endloop
  endfacet
  facet normal 0 0.707107 0.707107
    outer loop
      vertex -8 25.6569 15
      vertex -8 19.4645 21.1924
      vertex 8 19.4645 21.1924
    endloop
  endfacet
  facet normal 0 0.707107 0.707107
    outer loop
      vertex 8 25.6569 15
      vertex -8 25.6569 15
      vertex 8 19.4645 21.1924
    endloop
  endfacet
  facet normal 0 0 1
    outer loop
      vertex -8 26 15
      vertex -8 25.6569 15
      vertex 8 25.6569 15
    endloop
  endfacet
  facet normal 0 0 1
    outer loop
      vertex 8 26 15
      vertex -8 26 15
      vertex 8 25.6569 15
    endloop
  endfacet
  facet normal 0 -0.707107 0.707107
    outer loop
      vertex -8 29.364 18.364
      vertex -8 26 15
      vertex 8 26 15
    endloop
  endfacet
  facet normal 0 -0.707107 0.707107
    outer loop
      vertex 8 29.364 18.364
      vertex -8 29.364 18.364
      vertex 8 26 15
    endloop
  endfacet
  facet normal 0 0.707107 0.707107
    outer loop
      vertex -8 29.364 18.364
      vertex 8 29.364 18.364
      vertex -8 32.1924 15.5355
    endloop
  endfacet
  facet normal 0 0.707107 0.707107
    outer loop
      vertex -8 32.1924 15.5355
      vertex 8 29.364 18.364
      vertex 8 32.1924 15.5355
    endloop
  endfacet
  facet normal 0 0.707107 -0.707107
    outer loop
      vertex -8 26 9.34315
      vertex -8 32.1924 15.5355
      vertex 8 26 9.34315
    endloop
  endfacet
  facet normal 0 0.707107 -0.707107
    outer loop
      vertex 8 26 9.34315
      vertex -8 32.1924 15.5355
      vertex 8 32.1924 15.5355
    endloop
  endfacet
  facet normal 0 0 -1
    outer loop
      vertex -12 0 10
      vertex -11.7378 2.49494 10
      vertex -11.7378 -2.49494 10
    endloop
  endfacet
  facet normal 0 0 -1
    outer loop
      vertex -11.7378 -2.49494 10
      vertex -11.7378 2.49494 10
      vertex -10.9625 4.88084 10
    endloop
  endfacet
  facet normal 0 0 -1
    outer loop
      vertex -11.7378 -2.49494 10
      vertex -10.9625 4.88084 10
      vertex -9.7082 7.05342 10
    endloop
  endfacet
  facet normal 0 0 -1
    outer loop
      vertex -11.7378 -2.49494 10
      vertex -9.7082 7.05342 10
      vertex -8.02957 8.91774 10
    endloop
  endfacet
  facet normal 0 0 -1
    outer loop
      vertex -11.7378 -2.49494 10
      vertex -8.02957 8.91774 10
      vertex -6 10.3923 10
    endloop
  endfacet
  facet normal 0 0 -1
    outer loop
      vertex -11.7378 -2.49494 10
      vertex -6 10.3923 10
      vertex -3.7082 11.4127 10
    endloop
  endfacet
  facet normal 0 0 -1
    outer loop
      vertex -11.7378 -2.49494 10
      vertex -3.7082 11.4127 10
      vertex -1.25434 11.9343 10
    endloop
  endfacet
  facet normal 0 0 -1
    outer loop
      vertex -11.7378 -2.49494 10
      vertex -1.25434 11.9343 10
      vertex 1.25434 11.9343 10
    endloop
  endfacet
  facet normal 0 0 -1
    outer loop
      vertex -11.7378 -2.49494 10
      vertex 1.25434 11.9343 10
      vertex 3.7082 11.4127 10
    endloop
  endfacet
  facet normal 0 0 -1
    outer loop
      vertex -11.7378 -2.49494 10
      vertex 3.7082 11.4127 10
      vertex 6 10.3923 10
    endloop
  endfacet
  facet normal 0 0 -1
    outer loop
      vertex -11.7378 -2.49494 10
      vertex 6 10.3923 10
      vertex 8.02957 8.91774 10
    endloop
  endfacet
  facet normal 0 0 -1
    outer loop
      vertex -11.7378 -2.49494 10
      vertex 8.02957 8.91774 10
      vertex 9.7082 7.05342 10
    endloop
  endfacet
  facet normal 0 0 -1
    outer loop
      vertex -11.7378 -2.49494 10
      vertex 9.7082 7.05342 10
      vertex 10.9625 4.88084 10
    endloop
  endfacet
  facet normal 0 0 -1
    outer loop
      vertex -11.7378 -2.49494 10
      vertex 10.9625 4.88084 10
      vertex 11.7378 2.49494 10
    endloop
  endfacet
  facet normal 0 0 -1
    outer loop
      vertex -11.7378 -2.49494 10
      vertex 11.7378 2.49494 10
      vertex 12 0 10
    endloop
  endfacet
  facet normal 0 0 -1
    outer loop
      vertex -11.7378 -2.49494 10
      vertex 12 0 10
      vertex 11.7378 -2.49494 10
    endloop
  endfacet
  facet normal 0 0 -1
    outer loop
      vertex -11.7378 -2.49494 10
      vertex 11.7378 -2.49494 10
      vertex 10.9625 -4.88084 10
    endloop
  endfacet
  facet normal 0 0 -1
    outer loop
      vertex -11.7378 -2.49494 10
      vertex 10.9625 -4.88084 10
      vertex 9.7082 -7.05342 10
    endloop
  endfacet
  facet normal 0 0 -1
    outer loop
      vertex -11.7378 -2.49494 10
      vertex 9.7082 -7.05342 10
      vertex 8.02957 -8.91774 10
    endloop
  endfacet
  facet normal 0 0 -1
    outer loop
      vertex -11.7378 -2.49494 10
      vertex 8.02957 -8.91774 10
      vertex 6 -10.3923 10
    endloop
  endfacet
  facet normal 0 0 -1
    outer loop
      vertex -11.7378 -2.49494 10
      vertex 6 -10.3923 10
      vertex 3.7082 -11.4127 10
    endloop
  endfacet
  facet normal 0 0 -1
    outer loop
      vertex -11.7378 -2.49494 10
      vertex 3.7082 -11.4127 10
      vertex 1.25434 -11.9343 10
    endloop
  endfacet
  facet normal 0 0 -1
    outer loop
      vertex -11.7378 -2.49494 10
      vertex 1.25434 -11.9343 10
      vertex -1.25434 -11.9343 10
    endloop
  endfacet
  facet normal 0 0 -1
    outer loop
      vertex -11.7378 -2.49494 10
      vertex -1.25434 -11.9343 10
      vertex -3.7082 -11.4127 10
    endloop
  endfacet
  facet normal 0 0 -1
    outer loop
      vertex -11.7378 -2.49494 10
      vertex -3.7082 -11.4127 10
      vertex -6 -10.3923 10
    endloop
  endfacet
  facet normal 0 0 -1
    outer loop
      vertex -11.7378 -2.49494 10
      vertex -6 -10.3923 10
      vertex -8.02957 -8.91774 10
    endloop
  endfacet
  facet normal 0 0 -1
    outer loop
      vertex -11.7378 -2.49494 10
      vertex -8.02957 -8.91774 10
      vertex -9.7082 -7.05342 10
    endloop
  endfacet
  facet normal 0 0 -1
    outer loop
      vertex -11.7378 -2.49494 10
      vertex -9.7082 -7.05342 10
      vertex -10.9625 -4.88084 10
    endloop
  endfacet
endsolid OpenSCAD_Model
