solid Creeper Body 02 (repaired)
 facet normal 0.000000 0.000000 -1.000000
  outer loop
   vertex 23.100000 0.000000 0.000000
   vertex 23.100000 15.000000 0.000000
   vertex 34.599998 0.000000 0.000000
  endloop
 endfacet
 facet normal 0.000000 0.000000 -1.000000
  outer loop
   vertex 0.000000 17.200001 0.000000
   vertex 23.100000 15.000000 0.000000
   vertex 11.500000 15.000000 0.000000
  endloop
 endfacet
 facet normal 0.000000 0.000000 -1.000000
  outer loop
   vertex 0.000000 17.200001 0.000000
   vertex 11.500000 15.000000 0.000000
   vertex 11.500000 0.000000 0.000000
  endloop
 endfacet
 facet normal 0.000000 0.000000 -1.000000
  outer loop
   vertex 0.000000 0.000000 0.000000
   vertex 0.000000 17.200001 0.000000
   vertex 11.500000 0.000000 0.000000
  endloop
 endfacet
 facet normal 0.000000 0.000000 -1.000000
  outer loop
   vertex 23.100000 15.000000 0.000000
   vertex 0.000000 17.200001 0.000000
   vertex 11.500000 17.200001 0.000000
  endloop
 endfacet
 facet normal 0.000000 0.000000 -1.000000
  outer loop
   vertex 23.100000 15.000000 0.000000
   vertex 11.500000 17.200001 0.000000
   vertex 23.100000 17.200001 0.000000
  endloop
 endfacet
 facet normal 0.000000 0.000000 -1.000000
  outer loop
   vertex 34.599998 0.000000 0.000000
   vertex 23.100000 15.000000 0.000000
   vertex 23.100000 17.200001 0.000000
  endloop
 endfacet
 facet normal -0.000000 -0.000000 -1.000000
  outer loop
   vertex 34.599998 17.200001 0.000000
   vertex 34.599998 0.000000 0.000000
   vertex 23.100000 17.200001 0.000000
  endloop
 endfacet
 facet normal 0.000000 0.000000 -1.000000
  outer loop
   vertex 11.500000 17.200001 0.000000
   vertex 11.500000 51.799999 0.000000
   vertex 23.100000 17.200001 0.000000
  endloop
 endfacet
 facet normal -0.000000 -0.000000 -1.000000
  outer loop
   vertex 23.100000 51.799999 0.000000
   vertex 23.100000 17.200001 0.000000
   vertex 11.500000 51.799999 0.000000
  endloop
 endfacet
 facet normal -0.000000 0.000000 1.000000
  outer loop
   vertex 11.500000 51.799999 23.000000
   vertex 11.500000 17.200001 23.000000
   vertex 23.100000 51.799999 23.000000
  endloop
 endfacet
 facet normal 0.000000 -0.000000 1.000000
  outer loop
   vertex 23.100000 17.200001 23.000000
   vertex 23.100000 51.799999 23.000000
   vertex 11.500000 17.200001 23.000000
  endloop
 endfacet
 facet normal 0.000000 0.000000 1.000000
  outer loop
   vertex 11.500000 15.000000 23.000000
   vertex 34.599998 17.200001 23.000000
   vertex 23.100000 17.200001 23.000000
  endloop
 endfacet
 facet normal 0.000000 0.000000 1.000000
  outer loop
   vertex 11.500000 15.000000 23.000000
   vertex 23.100000 17.200001 23.000000
   vertex 11.500000 17.200001 23.000000
  endloop
 endfacet
 facet normal 0.000000 0.000000 1.000000
  outer loop
   vertex 0.000000 0.000000 23.000000
   vertex 11.500000 15.000000 23.000000
   vertex 11.500000 17.200001 23.000000
  endloop
 endfacet
 facet normal -0.000000 0.000000 1.000000
  outer loop
   vertex 0.000000 17.200001 23.000000
   vertex 0.000000 0.000000 23.000000
   vertex 11.500000 17.200001 23.000000
  endloop
 endfacet
 facet normal 0.000000 -0.000000 1.000000
  outer loop
   vertex 11.500000 0.000000 23.000000
   vertex 11.500000 15.000000 23.000000
   vertex 0.000000 0.000000 23.000000
  endloop
 endfacet
 facet normal 0.000000 0.000000 1.000000
  outer loop
   vertex 34.599998 17.200001 23.000000
   vertex 11.500000 15.000000 23.000000
   vertex 23.100000 15.000000 23.000000
  endloop
 endfacet
 facet normal 0.000000 0.000000 1.000000
  outer loop
   vertex 34.599998 17.200001 23.000000
   vertex 23.100000 15.000000 23.000000
   vertex 23.100000 0.000000 23.000000
  endloop
 endfacet
 facet normal 0.000000 -0.000000 1.000000
  outer loop
   vertex 34.599998 0.000000 23.000000
   vertex 34.599998 17.200001 23.000000
   vertex 23.100000 0.000000 23.000000
  endloop
 endfacet
 facet normal 0.000000 -1.000000 0.000000
  outer loop
   vertex 11.500000 15.000000 23.000000
   vertex 11.500000 15.000000 0.000000
   vertex 23.100000 15.000000 23.000000
  endloop
 endfacet
 facet normal 0.000000 -1.000000 0.000000
  outer loop
   vertex 23.100000 15.000000 0.000000
   vertex 23.100000 15.000000 23.000000
   vertex 11.500000 15.000000 0.000000
  endloop
 endfacet
 facet normal -1.000000 -0.000000 -0.000000
  outer loop
   vertex 23.100000 15.000000 23.000000
   vertex 23.100000 15.000000 0.000000
   vertex 23.100000 0.000000 23.000000
  endloop
 endfacet
 facet normal -1.000000 0.000000 0.000000
  outer loop
   vertex 23.100000 0.000000 0.000000
   vertex 23.100000 0.000000 23.000000
   vertex 23.100000 15.000000 0.000000
  endloop
 endfacet
 facet normal 0.000000 -1.000000 0.000000
  outer loop
   vertex 23.100000 0.000000 23.000000
   vertex 23.100000 0.000000 0.000000
   vertex 34.599998 0.000000 23.000000
  endloop
 endfacet
 facet normal 0.000000 -1.000000 0.000000
  outer loop
   vertex 34.599998 0.000000 0.000000
   vertex 34.599998 0.000000 23.000000
   vertex 23.100000 0.000000 0.000000
  endloop
 endfacet
 facet normal 1.000000 -0.000000 0.000000
  outer loop
   vertex 34.599998 0.000000 23.000000
   vertex 34.599998 0.000000 0.000000
   vertex 34.599998 17.200001 23.000000
  endloop
 endfacet
 facet normal 1.000000 0.000000 -0.000000
  outer loop
   vertex 34.599998 17.200001 0.000000
   vertex 34.599998 17.200001 23.000000
   vertex 34.599998 0.000000 0.000000
  endloop
 endfacet
 facet normal 0.000000 1.000000 0.000000
  outer loop
   vertex 34.599998 17.200001 23.000000
   vertex 34.599998 17.200001 0.000000
   vertex 23.100000 17.200001 23.000000
  endloop
 endfacet
 facet normal 0.000000 1.000000 0.000000
  outer loop
   vertex 23.100000 17.200001 0.000000
   vertex 23.100000 17.200001 23.000000
   vertex 34.599998 17.200001 0.000000
  endloop
 endfacet
 facet normal 1.000000 0.000000 0.000000
  outer loop
   vertex 23.100000 51.799999 23.000000
   vertex 23.100000 17.200001 23.000000
   vertex 23.100000 51.799999 0.000000
  endloop
 endfacet
 facet normal 1.000000 0.000000 0.000000
  outer loop
   vertex 23.100000 17.200001 0.000000
   vertex 23.100000 51.799999 0.000000
   vertex 23.100000 17.200001 23.000000
  endloop
 endfacet
 facet normal 0.000000 1.000000 0.000000
  outer loop
   vertex 23.100000 51.799999 0.000000
   vertex 17.299999 51.799999 8.500000
   vertex 17.769690 51.799999 8.537302
  endloop
 endfacet
 facet normal 0.000000 1.000000 0.000000
  outer loop
   vertex 23.100000 51.799999 0.000000
   vertex 17.769690 51.799999 8.537302
   vertex 18.226191 51.799999 8.646691
  endloop
 endfacet
 facet normal 0.000000 1.000000 0.000000
  outer loop
   vertex 23.100000 51.799999 0.000000
   vertex 18.226191 51.799999 8.646691
   vertex 18.662680 51.799999 8.827493
  endloop
 endfacet
 facet normal 0.000000 1.000000 0.000000
  outer loop
   vertex 23.100000 51.799999 0.000000
   vertex 18.662680 51.799999 8.827493
   vertex 19.062830 51.799999 9.072939
  endloop
 endfacet
 facet normal 0.000000 1.000000 0.000000
  outer loop
   vertex 23.100000 51.799999 0.000000
   vertex 19.062830 51.799999 9.072939
   vertex 19.421320 51.799999 9.378680
  endloop
 endfacet
 facet normal 0.000000 1.000000 0.000000
  outer loop
   vertex 23.100000 51.799999 0.000000
   vertex 19.421320 51.799999 9.378680
   vertex 19.727060 51.799999 9.737173
  endloop
 endfacet
 facet normal 0.000000 1.000000 0.000000
  outer loop
   vertex 23.100000 51.799999 0.000000
   vertex 19.727060 51.799999 9.737173
   vertex 19.972509 51.799999 10.137320
  endloop
 endfacet
 facet normal 0.000000 1.000000 0.000000
  outer loop
   vertex 23.100000 51.799999 0.000000
   vertex 19.972509 51.799999 10.137320
   vertex 20.153311 51.799999 10.573810
  endloop
 endfacet
 facet normal 0.000000 1.000000 0.000000
  outer loop
   vertex 23.100000 51.799999 0.000000
   vertex 20.153311 51.799999 10.573810
   vertex 20.262360 51.799999 11.027780
  endloop
 endfacet
 facet normal 0.000000 1.000000 0.000000
  outer loop
   vertex 23.100000 51.799999 0.000000
   vertex 20.262360 51.799999 11.027780
   vertex 20.299999 51.799999 11.500000
  endloop
 endfacet
 facet normal 0.000000 1.000000 0.000000
  outer loop
   vertex 23.100000 51.799999 0.000000
   vertex 20.299999 51.799999 11.500000
   vertex 20.262360 51.799999 11.972220
  endloop
 endfacet
 facet normal 0.000000 1.000000 0.000000
  outer loop
   vertex 17.769690 51.799999 14.462700
   vertex 17.299999 51.799999 14.500000
   vertex 11.500000 51.799999 23.000000
  endloop
 endfacet
 facet normal 0.000000 1.000000 0.000000
  outer loop
   vertex 18.226191 51.799999 14.353310
   vertex 17.769690 51.799999 14.462700
   vertex 11.500000 51.799999 23.000000
  endloop
 endfacet
 facet normal 0.000000 1.000000 0.000000
  outer loop
   vertex 18.662680 51.799999 14.172510
   vertex 18.226191 51.799999 14.353310
   vertex 11.500000 51.799999 23.000000
  endloop
 endfacet
 facet normal 0.000000 1.000000 0.000000
  outer loop
   vertex 19.062830 51.799999 13.927060
   vertex 18.662680 51.799999 14.172510
   vertex 11.500000 51.799999 23.000000
  endloop
 endfacet
 facet normal 0.000000 1.000000 0.000000
  outer loop
   vertex 19.421320 51.799999 13.621320
   vertex 19.062830 51.799999 13.927060
   vertex 11.500000 51.799999 23.000000
  endloop
 endfacet
 facet normal 0.000000 1.000000 0.000000
  outer loop
   vertex 19.727060 51.799999 13.262830
   vertex 19.421320 51.799999 13.621320
   vertex 11.500000 51.799999 23.000000
  endloop
 endfacet
 facet normal 0.000000 1.000000 -0.000000
  outer loop
   vertex 19.727060 51.799999 13.262830
   vertex 11.500000 51.799999 23.000000
   vertex 23.100000 51.799999 23.000000
  endloop
 endfacet
 facet normal 0.000000 1.000000 -0.000000
  outer loop
   vertex 19.972509 51.799999 12.862680
   vertex 19.727060 51.799999 13.262830
   vertex 23.100000 51.799999 23.000000
  endloop
 endfacet
 facet normal 0.000000 1.000000 -0.000000
  outer loop
   vertex 20.153311 51.799999 12.426190
   vertex 19.972509 51.799999 12.862680
   vertex 23.100000 51.799999 23.000000
  endloop
 endfacet
 facet normal 0.000000 1.000000 -0.000000
  outer loop
   vertex 20.262360 51.799999 11.972220
   vertex 20.153311 51.799999 12.426190
   vertex 23.100000 51.799999 23.000000
  endloop
 endfacet
 facet normal 0.000000 1.000000 0.000000
  outer loop
   vertex 23.100000 51.799999 23.000000
   vertex 23.100000 51.799999 0.000000
   vertex 20.262360 51.799999 11.972220
  endloop
 endfacet
 facet normal 0.000000 1.000000 0.000000
  outer loop
   vertex 11.500000 51.799999 23.000000
   vertex 17.299999 51.799999 14.500000
   vertex 16.830320 51.799999 14.462700
  endloop
 endfacet
 facet normal 0.000000 1.000000 0.000000
  outer loop
   vertex 11.500000 51.799999 23.000000
   vertex 16.830320 51.799999 14.462700
   vertex 16.373810 51.799999 14.353310
  endloop
 endfacet
 facet normal 0.000000 1.000000 0.000000
  outer loop
   vertex 11.500000 51.799999 23.000000
   vertex 16.373810 51.799999 14.353310
   vertex 15.937320 51.799999 14.172510
  endloop
 endfacet
 facet normal 0.000000 1.000000 0.000000
  outer loop
   vertex 11.500000 51.799999 23.000000
   vertex 15.937320 51.799999 14.172510
   vertex 15.537170 51.799999 13.927060
  endloop
 endfacet
 facet normal 0.000000 1.000000 0.000000
  outer loop
   vertex 11.500000 51.799999 23.000000
   vertex 15.537170 51.799999 13.927060
   vertex 15.178680 51.799999 13.621320
  endloop
 endfacet
 facet normal 0.000000 1.000000 0.000000
  outer loop
   vertex 11.500000 51.799999 23.000000
   vertex 15.178680 51.799999 13.621320
   vertex 14.872940 51.799999 13.262830
  endloop
 endfacet
 facet normal 0.000000 1.000000 0.000000
  outer loop
   vertex 11.500000 51.799999 23.000000
   vertex 14.872940 51.799999 13.262830
   vertex 14.627490 51.799999 12.862680
  endloop
 endfacet
 facet normal 0.000000 1.000000 0.000000
  outer loop
   vertex 11.500000 51.799999 23.000000
   vertex 14.627490 51.799999 12.862680
   vertex 14.446690 51.799999 12.426190
  endloop
 endfacet
 facet normal 0.000000 1.000000 0.000000
  outer loop
   vertex 11.500000 51.799999 23.000000
   vertex 14.446690 51.799999 12.426190
   vertex 14.337640 51.799999 11.972220
  endloop
 endfacet
 facet normal 0.000000 1.000000 0.000000
  outer loop
   vertex 11.500000 51.799999 23.000000
   vertex 14.337640 51.799999 11.972220
   vertex 14.300000 51.799999 11.500000
  endloop
 endfacet
 facet normal 0.000000 1.000000 0.000000
  outer loop
   vertex 11.500000 51.799999 23.000000
   vertex 14.300000 51.799999 11.500000
   vertex 14.337640 51.799999 11.027780
  endloop
 endfacet
 facet normal 0.000000 1.000000 0.000000
  outer loop
   vertex 16.830320 51.799999 8.537302
   vertex 17.299999 51.799999 8.500000
   vertex 23.100000 51.799999 0.000000
  endloop
 endfacet
 facet normal 0.000000 1.000000 0.000000
  outer loop
   vertex 16.373810 51.799999 8.646691
   vertex 16.830320 51.799999 8.537302
   vertex 23.100000 51.799999 0.000000
  endloop
 endfacet
 facet normal 0.000000 1.000000 0.000000
  outer loop
   vertex 15.937320 51.799999 8.827493
   vertex 16.373810 51.799999 8.646691
   vertex 23.100000 51.799999 0.000000
  endloop
 endfacet
 facet normal 0.000000 1.000000 0.000000
  outer loop
   vertex 15.537170 51.799999 9.072939
   vertex 15.937320 51.799999 8.827493
   vertex 23.100000 51.799999 0.000000
  endloop
 endfacet
 facet normal 0.000000 1.000000 0.000000
  outer loop
   vertex 15.178680 51.799999 9.378680
   vertex 15.537170 51.799999 9.072939
   vertex 23.100000 51.799999 0.000000
  endloop
 endfacet
 facet normal 0.000000 1.000000 0.000000
  outer loop
   vertex 14.872940 51.799999 9.737173
   vertex 15.178680 51.799999 9.378680
   vertex 23.100000 51.799999 0.000000
  endloop
 endfacet
 facet normal 0.000000 1.000000 0.000000
  outer loop
   vertex 14.872940 51.799999 9.737173
   vertex 23.100000 51.799999 0.000000
   vertex 11.500000 51.799999 0.000000
  endloop
 endfacet
 facet normal 0.000000 1.000000 0.000000
  outer loop
   vertex 14.627490 51.799999 10.137320
   vertex 14.872940 51.799999 9.737173
   vertex 11.500000 51.799999 0.000000
  endloop
 endfacet
 facet normal 0.000000 1.000000 0.000000
  outer loop
   vertex 14.446690 51.799999 10.573810
   vertex 14.627490 51.799999 10.137320
   vertex 11.500000 51.799999 0.000000
  endloop
 endfacet
 facet normal 0.000000 1.000000 0.000000
  outer loop
   vertex 14.337640 51.799999 11.027780
   vertex 14.446690 51.799999 10.573810
   vertex 11.500000 51.799999 0.000000
  endloop
 endfacet
 facet normal 0.000000 1.000000 0.000000
  outer loop
   vertex 11.500000 51.799999 0.000000
   vertex 11.500000 51.799999 23.000000
   vertex 14.337640 51.799999 11.027780
  endloop
 endfacet
 facet normal -1.000000 0.000000 0.000000
  outer loop
   vertex 11.500000 17.200001 23.000000
   vertex 11.500000 51.799999 23.000000
   vertex 11.500000 17.200001 0.000000
  endloop
 endfacet
 facet normal -1.000000 0.000000 0.000000
  outer loop
   vertex 11.500000 51.799999 0.000000
   vertex 11.500000 17.200001 0.000000
   vertex 11.500000 51.799999 23.000000
  endloop
 endfacet
 facet normal 0.000000 1.000000 0.000000
  outer loop
   vertex 11.500000 17.200001 23.000000
   vertex 11.500000 17.200001 0.000000
   vertex 0.000000 17.200001 23.000000
  endloop
 endfacet
 facet normal 0.000000 1.000000 0.000000
  outer loop
   vertex 0.000000 17.200001 0.000000
   vertex 0.000000 17.200001 23.000000
   vertex 11.500000 17.200001 0.000000
  endloop
 endfacet
 facet normal -1.000000 -0.000000 -0.000000
  outer loop
   vertex 0.000000 17.200001 23.000000
   vertex 0.000000 17.200001 0.000000
   vertex 0.000000 0.000000 23.000000
  endloop
 endfacet
 facet normal -1.000000 0.000000 0.000000
  outer loop
   vertex 0.000000 0.000000 0.000000
   vertex 0.000000 0.000000 23.000000
   vertex 0.000000 17.200001 0.000000
  endloop
 endfacet
 facet normal 0.000000 -1.000000 0.000000
  outer loop
   vertex 0.000000 0.000000 23.000000
   vertex 0.000000 0.000000 0.000000
   vertex 11.500000 0.000000 23.000000
  endloop
 endfacet
 facet normal 0.000000 -1.000000 0.000000
  outer loop
   vertex 11.500000 0.000000 0.000000
   vertex 11.500000 0.000000 23.000000
   vertex 0.000000 0.000000 0.000000
  endloop
 endfacet
 facet normal 1.000000 -0.000000 0.000000
  outer loop
   vertex 11.500000 0.000000 23.000000
   vertex 11.500000 0.000000 0.000000
   vertex 11.500000 15.000000 23.000000
  endloop
 endfacet
 facet normal 1.000000 0.000000 -0.000000
  outer loop
   vertex 11.500000 15.000000 0.000000
   vertex 11.500000 15.000000 23.000000
   vertex 11.500000 0.000000 0.000000
  endloop
 endfacet
 facet normal -0.996838 0.000000 -0.079456
  outer loop
   vertex 20.299999 41.799999 11.500000
   vertex 20.262360 41.799999 11.972220
   vertex 20.299999 51.799999 11.500000
  endloop
 endfacet
 facet normal -0.996838 -0.000000 -0.079456
  outer loop
   vertex 20.262360 51.799999 11.972220
   vertex 20.299999 51.799999 11.500000
   vertex 20.262360 41.799999 11.972220
  endloop
 endfacet
 facet normal -0.972341 0.000000 -0.233567
  outer loop
   vertex 20.262360 41.799999 11.972220
   vertex 20.153311 41.799999 12.426190
   vertex 20.262360 51.799999 11.972220
  endloop
 endfacet
 facet normal -0.972341 -0.000000 -0.233567
  outer loop
   vertex 20.153311 51.799999 12.426190
   vertex 20.262360 51.799999 11.972220
   vertex 20.153311 41.799999 12.426190
  endloop
 endfacet
 facet normal -0.923879 0.000000 -0.382686
  outer loop
   vertex 20.153311 41.799999 12.426190
   vertex 19.972509 41.799999 12.862680
   vertex 20.153311 51.799999 12.426190
  endloop
 endfacet
 facet normal -0.923879 -0.000000 -0.382686
  outer loop
   vertex 19.972509 51.799999 12.862680
   vertex 20.153311 51.799999 12.426190
   vertex 19.972509 41.799999 12.862680
  endloop
 endfacet
 facet normal -0.852415 0.000000 -0.522866
  outer loop
   vertex 19.972509 41.799999 12.862680
   vertex 19.727060 41.799999 13.262830
   vertex 19.972509 51.799999 12.862680
  endloop
 endfacet
 facet normal -0.852415 -0.000000 -0.522866
  outer loop
   vertex 19.727060 51.799999 13.262830
   vertex 19.972509 51.799999 12.862680
   vertex 19.727060 41.799999 13.262830
  endloop
 endfacet
 facet normal -0.760866 0.000000 -0.648909
  outer loop
   vertex 19.727060 41.799999 13.262830
   vertex 19.421320 41.799999 13.621320
   vertex 19.727060 51.799999 13.262830
  endloop
 endfacet
 facet normal -0.760866 -0.000000 -0.648909
  outer loop
   vertex 19.421320 51.799999 13.621320
   vertex 19.727060 51.799999 13.262830
   vertex 19.421320 41.799999 13.621320
  endloop
 endfacet
 facet normal -0.648909 0.000000 -0.760866
  outer loop
   vertex 19.421320 41.799999 13.621320
   vertex 19.062830 41.799999 13.927060
   vertex 19.421320 51.799999 13.621320
  endloop
 endfacet
 facet normal -0.648909 -0.000000 -0.760866
  outer loop
   vertex 19.062830 51.799999 13.927060
   vertex 19.421320 51.799999 13.621320
   vertex 19.062830 41.799999 13.927060
  endloop
 endfacet
 facet normal -0.522866 0.000000 -0.852415
  outer loop
   vertex 19.062830 41.799999 13.927060
   vertex 18.662680 41.799999 14.172510
   vertex 19.062830 51.799999 13.927060
  endloop
 endfacet
 facet normal -0.522866 -0.000000 -0.852415
  outer loop
   vertex 18.662680 51.799999 14.172510
   vertex 19.062830 51.799999 13.927060
   vertex 18.662680 41.799999 14.172510
  endloop
 endfacet
 facet normal -0.382683 0.000000 -0.923880
  outer loop
   vertex 18.662680 41.799999 14.172510
   vertex 18.226191 41.799999 14.353310
   vertex 18.662680 51.799999 14.172510
  endloop
 endfacet
 facet normal -0.382683 -0.000000 -0.923880
  outer loop
   vertex 18.226191 51.799999 14.353310
   vertex 18.662680 51.799999 14.172510
   vertex 18.226191 41.799999 14.353310
  endloop
 endfacet
 facet normal -0.233031 0.000000 -0.972469
  outer loop
   vertex 18.226191 41.799999 14.353310
   vertex 17.769690 41.799999 14.462700
   vertex 18.226191 51.799999 14.353310
  endloop
 endfacet
 facet normal -0.233031 -0.000000 -0.972469
  outer loop
   vertex 17.769690 51.799999 14.462700
   vertex 18.226191 51.799999 14.353310
   vertex 17.769690 41.799999 14.462700
  endloop
 endfacet
 facet normal -0.079165 0.000000 -0.996862
  outer loop
   vertex 17.769690 41.799999 14.462700
   vertex 17.299999 41.799999 14.500000
   vertex 17.769690 51.799999 14.462700
  endloop
 endfacet
 facet normal -0.079165 -0.000000 -0.996862
  outer loop
   vertex 17.299999 51.799999 14.500000
   vertex 17.769690 51.799999 14.462700
   vertex 17.299999 41.799999 14.500000
  endloop
 endfacet
 facet normal 0.079167 0.000000 -0.996861
  outer loop
   vertex 17.299999 41.799999 14.500000
   vertex 16.830320 41.799999 14.462700
   vertex 17.299999 51.799999 14.500000
  endloop
 endfacet
 facet normal 0.079167 0.000000 -0.996861
  outer loop
   vertex 16.830320 51.799999 14.462700
   vertex 17.299999 51.799999 14.500000
   vertex 16.830320 41.799999 14.462700
  endloop
 endfacet
 facet normal 0.233026 0.000000 -0.972471
  outer loop
   vertex 16.830320 41.799999 14.462700
   vertex 16.373810 41.799999 14.353310
   vertex 16.830320 51.799999 14.462700
  endloop
 endfacet
 facet normal 0.233026 0.000000 -0.972471
  outer loop
   vertex 16.373810 51.799999 14.353310
   vertex 16.830320 51.799999 14.462700
   vertex 16.373810 41.799999 14.353310
  endloop
 endfacet
 facet normal 0.382682 0.000000 -0.923880
  outer loop
   vertex 16.373810 41.799999 14.353310
   vertex 15.937320 41.799999 14.172510
   vertex 16.373810 51.799999 14.353310
  endloop
 endfacet
 facet normal 0.382682 0.000000 -0.923880
  outer loop
   vertex 15.937320 51.799999 14.172510
   vertex 16.373810 51.799999 14.353310
   vertex 15.937320 41.799999 14.172510
  endloop
 endfacet
 facet normal 0.522867 0.000000 -0.852414
  outer loop
   vertex 15.937320 41.799999 14.172510
   vertex 15.537170 41.799999 13.927060
   vertex 15.937320 51.799999 14.172510
  endloop
 endfacet
 facet normal 0.522867 0.000000 -0.852414
  outer loop
   vertex 15.537170 51.799999 13.927060
   vertex 15.937320 51.799999 14.172510
   vertex 15.537170 41.799999 13.927060
  endloop
 endfacet
 facet normal 0.648909 0.000000 -0.760866
  outer loop
   vertex 15.537170 41.799999 13.927060
   vertex 15.178680 41.799999 13.621320
   vertex 15.537170 51.799999 13.927060
  endloop
 endfacet
 facet normal 0.648909 0.000000 -0.760866
  outer loop
   vertex 15.178680 51.799999 13.621320
   vertex 15.537170 51.799999 13.927060
   vertex 15.178680 41.799999 13.621320
  endloop
 endfacet
 facet normal 0.760866 0.000000 -0.648909
  outer loop
   vertex 15.178680 41.799999 13.621320
   vertex 14.872940 41.799999 13.262830
   vertex 15.178680 51.799999 13.621320
  endloop
 endfacet
 facet normal 0.760866 0.000000 -0.648909
  outer loop
   vertex 14.872940 51.799999 13.262830
   vertex 15.178680 51.799999 13.621320
   vertex 14.872940 41.799999 13.262830
  endloop
 endfacet
 facet normal 0.852414 0.000000 -0.522867
  outer loop
   vertex 14.872940 41.799999 13.262830
   vertex 14.627490 41.799999 12.862680
   vertex 14.872940 51.799999 13.262830
  endloop
 endfacet
 facet normal 0.852414 0.000000 -0.522867
  outer loop
   vertex 14.627490 51.799999 12.862680
   vertex 14.872940 51.799999 13.262830
   vertex 14.627490 41.799999 12.862680
  endloop
 endfacet
 facet normal 0.923879 0.000000 -0.382684
  outer loop
   vertex 14.627490 41.799999 12.862680
   vertex 14.446690 41.799999 12.426190
   vertex 14.627490 51.799999 12.862680
  endloop
 endfacet
 facet normal 0.923879 0.000000 -0.382684
  outer loop
   vertex 14.446690 51.799999 12.426190
   vertex 14.627490 51.799999 12.862680
   vertex 14.446690 41.799999 12.426190
  endloop
 endfacet
 facet normal 0.972340 0.000000 -0.233569
  outer loop
   vertex 14.446690 41.799999 12.426190
   vertex 14.337640 41.799999 11.972220
   vertex 14.446690 51.799999 12.426190
  endloop
 endfacet
 facet normal 0.972340 0.000000 -0.233569
  outer loop
   vertex 14.337640 51.799999 11.972220
   vertex 14.446690 51.799999 12.426190
   vertex 14.337640 41.799999 11.972220
  endloop
 endfacet
 facet normal 0.996838 0.000000 -0.079456
  outer loop
   vertex 14.337640 41.799999 11.972220
   vertex 14.300000 41.799999 11.500000
   vertex 14.337640 51.799999 11.972220
  endloop
 endfacet
 facet normal 0.996838 0.000000 -0.079456
  outer loop
   vertex 14.300000 51.799999 11.500000
   vertex 14.337640 51.799999 11.972220
   vertex 14.300000 41.799999 11.500000
  endloop
 endfacet
 facet normal 0.996838 -0.000000 0.079456
  outer loop
   vertex 14.300000 41.799999 11.500000
   vertex 14.337640 41.799999 11.027780
   vertex 14.300000 51.799999 11.500000
  endloop
 endfacet
 facet normal 0.996838 0.000000 0.079456
  outer loop
   vertex 14.337640 51.799999 11.027780
   vertex 14.300000 51.799999 11.500000
   vertex 14.337640 41.799999 11.027780
  endloop
 endfacet
 facet normal 0.972340 -0.000000 0.233569
  outer loop
   vertex 14.337640 41.799999 11.027780
   vertex 14.446690 41.799999 10.573810
   vertex 14.337640 51.799999 11.027780
  endloop
 endfacet
 facet normal 0.972340 0.000000 0.233569
  outer loop
   vertex 14.446690 51.799999 10.573810
   vertex 14.337640 51.799999 11.027780
   vertex 14.446690 41.799999 10.573810
  endloop
 endfacet
 facet normal 0.923879 -0.000000 0.382684
  outer loop
   vertex 14.446690 41.799999 10.573810
   vertex 14.627490 41.799999 10.137320
   vertex 14.446690 51.799999 10.573810
  endloop
 endfacet
 facet normal 0.923879 0.000000 0.382684
  outer loop
   vertex 14.627490 51.799999 10.137320
   vertex 14.446690 51.799999 10.573810
   vertex 14.627490 41.799999 10.137320
  endloop
 endfacet
 facet normal 0.852412 -0.000000 0.522870
  outer loop
   vertex 14.627490 41.799999 10.137320
   vertex 14.872940 41.799999 9.737173
   vertex 14.627490 51.799999 10.137320
  endloop
 endfacet
 facet normal 0.852412 0.000000 0.522870
  outer loop
   vertex 14.872940 51.799999 9.737173
   vertex 14.627490 51.799999 10.137320
   vertex 14.872940 41.799999 9.737173
  endloop
 endfacet
 facet normal 0.760868 -0.000000 0.648906
  outer loop
   vertex 14.872940 41.799999 9.737173
   vertex 15.178680 41.799999 9.378680
   vertex 14.872940 51.799999 9.737173
  endloop
 endfacet
 facet normal 0.760868 0.000000 0.648906
  outer loop
   vertex 15.178680 51.799999 9.378680
   vertex 14.872940 51.799999 9.737173
   vertex 15.178680 41.799999 9.378680
  endloop
 endfacet
 facet normal 0.648910 -0.000000 0.760865
  outer loop
   vertex 15.178680 41.799999 9.378680
   vertex 15.537170 41.799999 9.072939
   vertex 15.178680 51.799999 9.378680
  endloop
 endfacet
 facet normal 0.648910 0.000000 0.760865
  outer loop
   vertex 15.537170 51.799999 9.072939
   vertex 15.178680 51.799999 9.378680
   vertex 15.537170 41.799999 9.072939
  endloop
 endfacet
 facet normal 0.522861 -0.000000 0.852418
  outer loop
   vertex 15.537170 41.799999 9.072939
   vertex 15.937320 41.799999 8.827493
   vertex 15.537170 51.799999 9.072939
  endloop
 endfacet
 facet normal 0.522861 0.000000 0.852418
  outer loop
   vertex 15.937320 51.799999 8.827493
   vertex 15.537170 51.799999 9.072939
   vertex 15.937320 41.799999 8.827493
  endloop
 endfacet
 facet normal 0.382686 -0.000000 0.923879
  outer loop
   vertex 15.937320 41.799999 8.827493
   vertex 16.373810 41.799999 8.646691
   vertex 15.937320 51.799999 8.827493
  endloop
 endfacet
 facet normal 0.382686 0.000000 0.923879
  outer loop
   vertex 16.373810 51.799999 8.646691
   vertex 15.937320 51.799999 8.827493
   vertex 16.373810 41.799999 8.646691
  endloop
 endfacet
 facet normal 0.233024 -0.000000 0.972471
  outer loop
   vertex 16.373810 41.799999 8.646691
   vertex 16.830320 41.799999 8.537302
   vertex 16.373810 51.799999 8.646691
  endloop
 endfacet
 facet normal 0.233024 0.000000 0.972471
  outer loop
   vertex 16.830320 51.799999 8.537302
   vertex 16.373810 51.799999 8.646691
   vertex 16.830320 41.799999 8.537302
  endloop
 endfacet
 facet normal 0.079171 -0.000000 0.996861
  outer loop
   vertex 16.830320 41.799999 8.537302
   vertex 17.299999 41.799999 8.500000
   vertex 16.830320 51.799999 8.537302
  endloop
 endfacet
 facet normal 0.079171 0.000000 0.996861
  outer loop
   vertex 17.299999 51.799999 8.500000
   vertex 16.830320 51.799999 8.537302
   vertex 17.299999 41.799999 8.500000
  endloop
 endfacet
 facet normal -0.079169 0.000000 0.996861
  outer loop
   vertex 17.299999 41.799999 8.500000
   vertex 17.769690 41.799999 8.537302
   vertex 17.299999 51.799999 8.500000
  endloop
 endfacet
 facet normal -0.079169 0.000000 0.996861
  outer loop
   vertex 17.769690 51.799999 8.537302
   vertex 17.299999 51.799999 8.500000
   vertex 17.769690 41.799999 8.537302
  endloop
 endfacet
 facet normal -0.233029 0.000000 0.972470
  outer loop
   vertex 17.769690 41.799999 8.537302
   vertex 18.226191 41.799999 8.646691
   vertex 17.769690 51.799999 8.537302
  endloop
 endfacet
 facet normal -0.233029 0.000000 0.972470
  outer loop
   vertex 18.226191 51.799999 8.646691
   vertex 17.769690 51.799999 8.537302
   vertex 18.226191 41.799999 8.646691
  endloop
 endfacet
 facet normal -0.382686 0.000000 0.923878
  outer loop
   vertex 18.226191 41.799999 8.646691
   vertex 18.662680 41.799999 8.827493
   vertex 18.226191 51.799999 8.646691
  endloop
 endfacet
 facet normal -0.382686 0.000000 0.923878
  outer loop
   vertex 18.662680 51.799999 8.827493
   vertex 18.226191 51.799999 8.646691
   vertex 18.662680 41.799999 8.827493
  endloop
 endfacet
 facet normal -0.522861 0.000000 0.852418
  outer loop
   vertex 18.662680 41.799999 8.827493
   vertex 19.062830 41.799999 9.072939
   vertex 18.662680 51.799999 8.827493
  endloop
 endfacet
 facet normal -0.522861 0.000000 0.852418
  outer loop
   vertex 19.062830 51.799999 9.072939
   vertex 18.662680 51.799999 8.827493
   vertex 19.062830 41.799999 9.072939
  endloop
 endfacet
 facet normal -0.648910 0.000000 0.760865
  outer loop
   vertex 19.062830 41.799999 9.072939
   vertex 19.421320 41.799999 9.378680
   vertex 19.062830 51.799999 9.072939
  endloop
 endfacet
 facet normal -0.648910 0.000000 0.760865
  outer loop
   vertex 19.421320 51.799999 9.378680
   vertex 19.062830 51.799999 9.072939
   vertex 19.421320 41.799999 9.378680
  endloop
 endfacet
 facet normal -0.760868 0.000000 0.648906
  outer loop
   vertex 19.421320 41.799999 9.378680
   vertex 19.727060 41.799999 9.737173
   vertex 19.421320 51.799999 9.378680
  endloop
 endfacet
 facet normal -0.760868 0.000000 0.648906
  outer loop
   vertex 19.727060 51.799999 9.737173
   vertex 19.421320 51.799999 9.378680
   vertex 19.727060 41.799999 9.737173
  endloop
 endfacet
 facet normal -0.852413 0.000000 0.522869
  outer loop
   vertex 19.727060 41.799999 9.737173
   vertex 19.972509 41.799999 10.137320
   vertex 19.727060 51.799999 9.737173
  endloop
 endfacet
 facet normal -0.852413 0.000000 0.522869
  outer loop
   vertex 19.972509 51.799999 10.137320
   vertex 19.727060 51.799999 9.737173
   vertex 19.972509 41.799999 10.137320
  endloop
 endfacet
 facet normal -0.923879 0.000000 0.382686
  outer loop
   vertex 19.972509 41.799999 10.137320
   vertex 20.153311 41.799999 10.573810
   vertex 19.972509 51.799999 10.137320
  endloop
 endfacet
 facet normal -0.923879 0.000000 0.382686
  outer loop
   vertex 20.153311 51.799999 10.573810
   vertex 19.972509 51.799999 10.137320
   vertex 20.153311 41.799999 10.573810
  endloop
 endfacet
 facet normal -0.972341 0.000000 0.233567
  outer loop
   vertex 20.153311 41.799999 10.573810
   vertex 20.262360 41.799999 11.027780
   vertex 20.153311 51.799999 10.573810
  endloop
 endfacet
 facet normal -0.972341 0.000000 0.233567
  outer loop
   vertex 20.262360 51.799999 11.027780
   vertex 20.153311 51.799999 10.573810
   vertex 20.262360 41.799999 11.027780
  endloop
 endfacet
 facet normal -0.996838 0.000000 0.079456
  outer loop
   vertex 20.262360 41.799999 11.027780
   vertex 20.299999 41.799999 11.500000
   vertex 20.262360 51.799999 11.027780
  endloop
 endfacet
 facet normal -0.996838 0.000000 0.079456
  outer loop
   vertex 20.299999 51.799999 11.500000
   vertex 20.262360 51.799999 11.027780
   vertex 20.299999 41.799999 11.500000
  endloop
 endfacet
 facet normal 0.000000 -1.000000 0.000000
  outer loop
   vertex 17.612511 41.799999 6.510067
   vertex 18.238150 41.799999 6.589163
   vertex 16.987490 41.799999 6.510067
  endloop
 endfacet
 facet normal 0.000000 -1.000000 0.000000
  outer loop
   vertex 16.361851 41.799999 6.589163
   vertex 16.987490 41.799999 6.510067
   vertex 18.238150 41.799999 6.589163
  endloop
 endfacet
 facet normal 0.000000 -1.000000 0.000000
  outer loop
   vertex 18.238150 41.799999 6.589163
   vertex 18.843651 41.799999 6.744485
   vertex 16.361851 41.799999 6.589163
  endloop
 endfacet
 facet normal 0.000000 -1.000000 0.000000
  outer loop
   vertex 15.756350 41.799999 6.744485
   vertex 16.361851 41.799999 6.589163
   vertex 18.843651 41.799999 6.744485
  endloop
 endfacet
 facet normal 0.000000 -1.000000 0.000000
  outer loop
   vertex 18.843651 41.799999 6.744485
   vertex 19.429790 41.799999 6.976741
   vertex 15.756350 41.799999 6.744485
  endloop
 endfacet
 facet normal 0.000000 -1.000000 0.000000
  outer loop
   vertex 15.170210 41.799999 6.976741
   vertex 15.756350 41.799999 6.744485
   vertex 19.429790 41.799999 6.976741
  endloop
 endfacet
 facet normal 0.000000 -1.000000 0.000000
  outer loop
   vertex 19.429790 41.799999 6.976741
   vertex 19.977890 41.799999 7.277760
   vertex 15.170210 41.799999 6.976741
  endloop
 endfacet
 facet normal 0.000000 -1.000000 0.000000
  outer loop
   vertex 14.622110 41.799999 7.277760
   vertex 15.170210 41.799999 6.976741
   vertex 19.977890 41.799999 7.277760
  endloop
 endfacet
 facet normal 0.000000 -1.000000 0.000000
  outer loop
   vertex 19.977890 41.799999 7.277760
   vertex 20.487570 41.799999 7.648410
   vertex 14.622110 41.799999 7.277760
  endloop
 endfacet
 facet normal 0.000000 -1.000000 0.000000
  outer loop
   vertex 14.112430 41.799999 7.648410
   vertex 14.622110 41.799999 7.277760
   vertex 20.487570 41.799999 7.648410
  endloop
 endfacet
 facet normal 0.000000 -1.000000 0.000000
  outer loop
   vertex 20.487570 41.799999 7.648410
   vertex 20.943951 41.799999 8.076455
   vertex 14.112430 41.799999 7.648410
  endloop
 endfacet
 facet normal 0.000000 -1.000000 0.000000
  outer loop
   vertex 13.656050 41.799999 8.076455
   vertex 14.112430 41.799999 7.648410
   vertex 20.943951 41.799999 8.076455
  endloop
 endfacet
 facet normal 0.000000 -1.000000 0.000000
  outer loop
   vertex 21.345100 41.799999 8.561955
   vertex 17.769690 41.799999 8.537302
   vertex 17.299999 41.799999 8.500000
  endloop
 endfacet
 facet normal 0.000000 -1.000000 0.000000
  outer loop
   vertex 21.345100 41.799999 8.561955
   vertex 17.299999 41.799999 8.500000
   vertex 13.656050 41.799999 8.076455
  endloop
 endfacet
 facet normal 0.000000 -1.000000 0.000000
  outer loop
   vertex 20.943951 41.799999 8.076455
   vertex 21.345100 41.799999 8.561955
   vertex 13.656050 41.799999 8.076455
  endloop
 endfacet
 facet normal 0.000000 -1.000000 0.000000
  outer loop
   vertex 13.656050 41.799999 8.076455
   vertex 17.299999 41.799999 8.500000
   vertex 16.830320 41.799999 8.537302
  endloop
 endfacet
 facet normal 0.000000 -1.000000 0.000000
  outer loop
   vertex 13.254900 41.799999 8.561955
   vertex 13.656050 41.799999 8.076455
   vertex 16.830320 41.799999 8.537302
  endloop
 endfacet
 facet normal 0.000000 -1.000000 -0.000000
  outer loop
   vertex 18.226191 41.799999 8.646691
   vertex 17.769690 41.799999 8.537302
   vertex 21.345100 41.799999 8.561955
  endloop
 endfacet
 facet normal 0.000000 -1.000000 0.000000
  outer loop
   vertex 16.830320 41.799999 8.537302
   vertex 16.373810 41.799999 8.646691
   vertex 13.254900 41.799999 8.561955
  endloop
 endfacet
 facet normal 0.000000 -1.000000 0.000000
  outer loop
   vertex 21.681049 41.799999 9.090445
   vertex 19.062830 41.799999 9.072939
   vertex 18.662680 41.799999 8.827493
  endloop
 endfacet
 facet normal 0.000000 -1.000000 0.000000
  outer loop
   vertex 21.681049 41.799999 9.090445
   vertex 18.662680 41.799999 8.827493
   vertex 18.226191 41.799999 8.646691
  endloop
 endfacet
 facet normal 0.000000 -1.000000 0.000000
  outer loop
   vertex 21.345100 41.799999 8.561955
   vertex 21.681049 41.799999 9.090445
   vertex 18.226191 41.799999 8.646691
  endloop
 endfacet
 facet normal 0.000000 -1.000000 0.000000
  outer loop
   vertex 13.254900 41.799999 8.561955
   vertex 16.373810 41.799999 8.646691
   vertex 15.937320 41.799999 8.827493
  endloop
 endfacet
 facet normal 0.000000 -1.000000 0.000000
  outer loop
   vertex 13.254900 41.799999 8.561955
   vertex 15.937320 41.799999 8.827493
   vertex 15.537170 41.799999 9.072939
  endloop
 endfacet
 facet normal 0.000000 -1.000000 0.000000
  outer loop
   vertex 12.918950 41.799999 9.090445
   vertex 13.254900 41.799999 8.561955
   vertex 15.537170 41.799999 9.072939
  endloop
 endfacet
 facet normal 0.000000 -1.000000 -0.000000
  outer loop
   vertex 19.421320 41.799999 9.378680
   vertex 19.062830 41.799999 9.072939
   vertex 21.681049 41.799999 9.090445
  endloop
 endfacet
 facet normal 0.000000 -1.000000 0.000000
  outer loop
   vertex 15.537170 41.799999 9.072939
   vertex 15.178680 41.799999 9.378680
   vertex 12.918950 41.799999 9.090445
  endloop
 endfacet
 facet normal 0.000000 -1.000000 0.000000
  outer loop
   vertex 21.681049 41.799999 9.090445
   vertex 21.948549 41.799999 9.659987
   vertex 19.421320 41.799999 9.378680
  endloop
 endfacet
 facet normal 0.000000 -1.000000 0.000000
  outer loop
   vertex 12.651450 41.799999 9.659987
   vertex 12.918950 41.799999 9.090445
   vertex 15.178680 41.799999 9.378680
  endloop
 endfacet
 facet normal 0.000000 -1.000000 -0.000000
  outer loop
   vertex 19.727060 41.799999 9.737173
   vertex 19.421320 41.799999 9.378680
   vertex 21.948549 41.799999 9.659987
  endloop
 endfacet
 facet normal 0.000000 -1.000000 0.000000
  outer loop
   vertex 15.178680 41.799999 9.378680
   vertex 14.872940 41.799999 9.737173
   vertex 12.651450 41.799999 9.659987
  endloop
 endfacet
 facet normal 0.000000 -1.000000 0.000000
  outer loop
   vertex 22.142759 41.799999 10.255980
   vertex 19.972509 41.799999 10.137320
   vertex 19.727060 41.799999 9.737173
  endloop
 endfacet
 facet normal 0.000000 -1.000000 0.000000
  outer loop
   vertex 21.948549 41.799999 9.659987
   vertex 22.142759 41.799999 10.255980
   vertex 19.727060 41.799999 9.737173
  endloop
 endfacet
 facet normal 0.000000 -1.000000 0.000000
  outer loop
   vertex 12.651450 41.799999 9.659987
   vertex 14.872940 41.799999 9.737173
   vertex 14.627490 41.799999 10.137320
  endloop
 endfacet
 facet normal 0.000000 -1.000000 0.000000
  outer loop
   vertex 12.457240 41.799999 10.255980
   vertex 12.651450 41.799999 9.659987
   vertex 14.627490 41.799999 10.137320
  endloop
 endfacet
 facet normal 0.000000 -1.000000 -0.000000
  outer loop
   vertex 20.153311 41.799999 10.573810
   vertex 19.972509 41.799999 10.137320
   vertex 22.142759 41.799999 10.255980
  endloop
 endfacet
 facet normal 0.000000 -1.000000 0.000000
  outer loop
   vertex 14.627490 41.799999 10.137320
   vertex 14.446690 41.799999 10.573810
   vertex 12.457240 41.799999 10.255980
  endloop
 endfacet
 facet normal 0.000000 -1.000000 0.000000
  outer loop
   vertex 22.142759 41.799999 10.255980
   vertex 22.259300 41.799999 10.867830
   vertex 20.153311 41.799999 10.573810
  endloop
 endfacet
 facet normal 0.000000 -1.000000 0.000000
  outer loop
   vertex 12.340700 41.799999 10.867830
   vertex 12.457240 41.799999 10.255980
   vertex 14.446690 41.799999 10.573810
  endloop
 endfacet
 facet normal 0.000000 -1.000000 -0.000000
  outer loop
   vertex 20.262360 41.799999 11.027780
   vertex 20.153311 41.799999 10.573810
   vertex 22.259300 41.799999 10.867830
  endloop
 endfacet
 facet normal 0.000000 -1.000000 0.000000
  outer loop
   vertex 14.446690 41.799999 10.573810
   vertex 14.337640 41.799999 11.027780
   vertex 12.340700 41.799999 10.867830
  endloop
 endfacet
 facet normal 0.000000 -1.000000 0.000000
  outer loop
   vertex 22.259300 41.799999 10.867830
   vertex 22.299999 41.799999 11.500000
   vertex 20.262360 41.799999 11.027780
  endloop
 endfacet
 facet normal 0.000000 -1.000000 -0.000000
  outer loop
   vertex 20.299999 41.799999 11.500000
   vertex 20.262360 41.799999 11.027780
   vertex 22.299999 41.799999 11.500000
  endloop
 endfacet
 facet normal 0.000000 -1.000000 0.000000
  outer loop
   vertex 12.340700 41.799999 10.867830
   vertex 14.337640 41.799999 11.027780
   vertex 14.300000 41.799999 11.500000
  endloop
 endfacet
 facet normal 0.000000 -1.000000 0.000000
  outer loop
   vertex 12.300000 41.799999 11.500000
   vertex 12.340700 41.799999 10.867830
   vertex 14.300000 41.799999 11.500000
  endloop
 endfacet
 facet normal 0.000000 -1.000000 0.000000
  outer loop
   vertex 14.300000 41.799999 11.500000
   vertex 14.337640 41.799999 11.972220
   vertex 12.300000 41.799999 11.500000
  endloop
 endfacet
 facet normal 0.000000 -1.000000 0.000000
  outer loop
   vertex 22.259300 41.799999 12.132170
   vertex 20.262360 41.799999 11.972220
   vertex 20.299999 41.799999 11.500000
  endloop
 endfacet
 facet normal 0.000000 -1.000000 0.000000
  outer loop
   vertex 22.299999 41.799999 11.500000
   vertex 22.259300 41.799999 12.132170
   vertex 20.299999 41.799999 11.500000
  endloop
 endfacet
 facet normal 0.000000 -1.000000 -0.000000
  outer loop
   vertex 12.340700 41.799999 12.132170
   vertex 12.300000 41.799999 11.500000
   vertex 14.337640 41.799999 11.972220
  endloop
 endfacet
 facet normal 0.000000 -1.000000 0.000000
  outer loop
   vertex 20.153311 41.799999 12.426190
   vertex 20.262360 41.799999 11.972220
   vertex 22.259300 41.799999 12.132170
  endloop
 endfacet
 facet normal 0.000000 -1.000000 0.000000
  outer loop
   vertex 14.337640 41.799999 11.972220
   vertex 14.446690 41.799999 12.426190
   vertex 12.340700 41.799999 12.132170
  endloop
 endfacet
 facet normal 0.000000 -1.000000 0.000000
  outer loop
   vertex 22.259300 41.799999 12.132170
   vertex 22.142759 41.799999 12.744020
   vertex 20.153311 41.799999 12.426190
  endloop
 endfacet
 facet normal 0.000000 -1.000000 -0.000000
  outer loop
   vertex 12.457240 41.799999 12.744020
   vertex 12.340700 41.799999 12.132170
   vertex 14.446690 41.799999 12.426190
  endloop
 endfacet
 facet normal 0.000000 -1.000000 0.000000
  outer loop
   vertex 19.972509 41.799999 12.862680
   vertex 20.153311 41.799999 12.426190
   vertex 22.142759 41.799999 12.744020
  endloop
 endfacet
 facet normal 0.000000 -1.000000 0.000000
  outer loop
   vertex 14.446690 41.799999 12.426190
   vertex 14.627490 41.799999 12.862680
   vertex 12.457240 41.799999 12.744020
  endloop
 endfacet
 facet normal 0.000000 -1.000000 0.000000
  outer loop
   vertex 21.948549 41.799999 13.340010
   vertex 19.727060 41.799999 13.262830
   vertex 19.972509 41.799999 12.862680
  endloop
 endfacet
 facet normal 0.000000 -1.000000 0.000000
  outer loop
   vertex 22.142759 41.799999 12.744020
   vertex 21.948549 41.799999 13.340010
   vertex 19.972509 41.799999 12.862680
  endloop
 endfacet
 facet normal 0.000000 -1.000000 0.000000
  outer loop
   vertex 12.457240 41.799999 12.744020
   vertex 14.627490 41.799999 12.862680
   vertex 14.872940 41.799999 13.262830
  endloop
 endfacet
 facet normal 0.000000 -1.000000 -0.000000
  outer loop
   vertex 12.651450 41.799999 13.340010
   vertex 12.457240 41.799999 12.744020
   vertex 14.872940 41.799999 13.262830
  endloop
 endfacet
 facet normal 0.000000 -1.000000 0.000000
  outer loop
   vertex 19.421320 41.799999 13.621320
   vertex 19.727060 41.799999 13.262830
   vertex 21.948549 41.799999 13.340010
  endloop
 endfacet
 facet normal 0.000000 -1.000000 0.000000
  outer loop
   vertex 14.872940 41.799999 13.262830
   vertex 15.178680 41.799999 13.621320
   vertex 12.651450 41.799999 13.340010
  endloop
 endfacet
 facet normal 0.000000 -1.000000 0.000000
  outer loop
   vertex 21.948549 41.799999 13.340010
   vertex 21.681049 41.799999 13.909560
   vertex 19.421320 41.799999 13.621320
  endloop
 endfacet
 facet normal 0.000000 -1.000000 -0.000000
  outer loop
   vertex 12.918950 41.799999 13.909560
   vertex 12.651450 41.799999 13.340010
   vertex 15.178680 41.799999 13.621320
  endloop
 endfacet
 facet normal 0.000000 -1.000000 0.000000
  outer loop
   vertex 19.062830 41.799999 13.927060
   vertex 19.421320 41.799999 13.621320
   vertex 21.681049 41.799999 13.909560
  endloop
 endfacet
 facet normal 0.000000 -1.000000 0.000000
  outer loop
   vertex 15.178680 41.799999 13.621320
   vertex 15.537170 41.799999 13.927060
   vertex 12.918950 41.799999 13.909560
  endloop
 endfacet
 facet normal 0.000000 -1.000000 0.000000
  outer loop
   vertex 21.345100 41.799999 14.438050
   vertex 18.226191 41.799999 14.353310
   vertex 18.662680 41.799999 14.172510
  endloop
 endfacet
 facet normal 0.000000 -1.000000 0.000000
  outer loop
   vertex 21.345100 41.799999 14.438050
   vertex 18.662680 41.799999 14.172510
   vertex 19.062830 41.799999 13.927060
  endloop
 endfacet
 facet normal 0.000000 -1.000000 0.000000
  outer loop
   vertex 21.681049 41.799999 13.909560
   vertex 21.345100 41.799999 14.438050
   vertex 19.062830 41.799999 13.927060
  endloop
 endfacet
 facet normal 0.000000 -1.000000 0.000000
  outer loop
   vertex 12.918950 41.799999 13.909560
   vertex 15.537170 41.799999 13.927060
   vertex 15.937320 41.799999 14.172510
  endloop
 endfacet
 facet normal 0.000000 -1.000000 0.000000
  outer loop
   vertex 12.918950 41.799999 13.909560
   vertex 15.937320 41.799999 14.172510
   vertex 16.373810 41.799999 14.353310
  endloop
 endfacet
 facet normal 0.000000 -1.000000 -0.000000
  outer loop
   vertex 13.254900 41.799999 14.438050
   vertex 12.918950 41.799999 13.909560
   vertex 16.373810 41.799999 14.353310
  endloop
 endfacet
 facet normal 0.000000 -1.000000 0.000000
  outer loop
   vertex 17.769690 41.799999 14.462700
   vertex 18.226191 41.799999 14.353310
   vertex 21.345100 41.799999 14.438050
  endloop
 endfacet
 facet normal 0.000000 -1.000000 0.000000
  outer loop
   vertex 16.373810 41.799999 14.353310
   vertex 16.830320 41.799999 14.462700
   vertex 13.254900 41.799999 14.438050
  endloop
 endfacet
 facet normal 0.000000 -1.000000 0.000000
  outer loop
   vertex 20.943951 41.799999 14.923540
   vertex 17.299999 41.799999 14.500000
   vertex 17.769690 41.799999 14.462700
  endloop
 endfacet
 facet normal 0.000000 -1.000000 0.000000
  outer loop
   vertex 21.345100 41.799999 14.438050
   vertex 20.943951 41.799999 14.923540
   vertex 17.769690 41.799999 14.462700
  endloop
 endfacet
 facet normal 0.000000 -1.000000 0.000000
  outer loop
   vertex 13.254900 41.799999 14.438050
   vertex 16.830320 41.799999 14.462700
   vertex 17.299999 41.799999 14.500000
  endloop
 endfacet
 facet normal 0.000000 -1.000000 0.000000
  outer loop
   vertex 13.254900 41.799999 14.438050
   vertex 17.299999 41.799999 14.500000
   vertex 20.943951 41.799999 14.923540
  endloop
 endfacet
 facet normal 0.000000 -1.000000 -0.000000
  outer loop
   vertex 13.656050 41.799999 14.923540
   vertex 13.254900 41.799999 14.438050
   vertex 20.943951 41.799999 14.923540
  endloop
 endfacet
 facet normal 0.000000 -1.000000 0.000000
  outer loop
   vertex 20.943951 41.799999 14.923540
   vertex 20.487570 41.799999 15.351590
   vertex 13.656050 41.799999 14.923540
  endloop
 endfacet
 facet normal 0.000000 -1.000000 -0.000000
  outer loop
   vertex 14.112430 41.799999 15.351590
   vertex 13.656050 41.799999 14.923540
   vertex 20.487570 41.799999 15.351590
  endloop
 endfacet
 facet normal 0.000000 -1.000000 0.000000
  outer loop
   vertex 20.487570 41.799999 15.351590
   vertex 19.977890 41.799999 15.722240
   vertex 14.112430 41.799999 15.351590
  endloop
 endfacet
 facet normal 0.000000 -1.000000 -0.000000
  outer loop
   vertex 14.622110 41.799999 15.722240
   vertex 14.112430 41.799999 15.351590
   vertex 19.977890 41.799999 15.722240
  endloop
 endfacet
 facet normal 0.000000 -1.000000 0.000000
  outer loop
   vertex 19.977890 41.799999 15.722240
   vertex 19.429790 41.799999 16.023260
   vertex 14.622110 41.799999 15.722240
  endloop
 endfacet
 facet normal 0.000000 -1.000000 -0.000000
  outer loop
   vertex 15.170210 41.799999 16.023260
   vertex 14.622110 41.799999 15.722240
   vertex 19.429790 41.799999 16.023260
  endloop
 endfacet
 facet normal 0.000000 -1.000000 0.000000
  outer loop
   vertex 19.429790 41.799999 16.023260
   vertex 18.843651 41.799999 16.255510
   vertex 15.170210 41.799999 16.023260
  endloop
 endfacet
 facet normal 0.000000 -1.000000 -0.000000
  outer loop
   vertex 15.756350 41.799999 16.255510
   vertex 15.170210 41.799999 16.023260
   vertex 18.843651 41.799999 16.255510
  endloop
 endfacet
 facet normal 0.000000 -1.000000 0.000000
  outer loop
   vertex 18.843651 41.799999 16.255510
   vertex 18.238150 41.799999 16.410839
   vertex 15.756350 41.799999 16.255510
  endloop
 endfacet
 facet normal 0.000000 -1.000000 -0.000000
  outer loop
   vertex 16.361851 41.799999 16.410839
   vertex 15.756350 41.799999 16.255510
   vertex 18.238150 41.799999 16.410839
  endloop
 endfacet
 facet normal 0.000000 -1.000000 0.000000
  outer loop
   vertex 18.238150 41.799999 16.410839
   vertex 17.612511 41.799999 16.489929
   vertex 16.361851 41.799999 16.410839
  endloop
 endfacet
 facet normal 0.000000 -1.000000 -0.000000
  outer loop
   vertex 16.987490 41.799999 16.489929
   vertex 16.361851 41.799999 16.410839
   vertex 17.612511 41.799999 16.489929
  endloop
 endfacet
 facet normal 0.000000 1.000000 0.000000
  outer loop
   vertex 17.612511 36.799999 16.489929
   vertex 18.238150 36.799999 16.410839
   vertex 16.987490 36.799999 16.489929
  endloop
 endfacet
 facet normal 0.000000 1.000000 0.000000
  outer loop
   vertex 16.361851 36.799999 16.410839
   vertex 16.987490 36.799999 16.489929
   vertex 18.238150 36.799999 16.410839
  endloop
 endfacet
 facet normal 0.000000 1.000000 0.000000
  outer loop
   vertex 18.238150 36.799999 16.410839
   vertex 18.843651 36.799999 16.255510
   vertex 16.361851 36.799999 16.410839
  endloop
 endfacet
 facet normal 0.000000 1.000000 0.000000
  outer loop
   vertex 15.756350 36.799999 16.255510
   vertex 16.361851 36.799999 16.410839
   vertex 18.843651 36.799999 16.255510
  endloop
 endfacet
 facet normal 0.000000 1.000000 0.000000
  outer loop
   vertex 18.843651 36.799999 16.255510
   vertex 19.429790 36.799999 16.023260
   vertex 15.756350 36.799999 16.255510
  endloop
 endfacet
 facet normal 0.000000 1.000000 0.000000
  outer loop
   vertex 15.170210 36.799999 16.023260
   vertex 15.756350 36.799999 16.255510
   vertex 19.429790 36.799999 16.023260
  endloop
 endfacet
 facet normal 0.000000 1.000000 0.000000
  outer loop
   vertex 19.429790 36.799999 16.023260
   vertex 19.977890 36.799999 15.722240
   vertex 15.170210 36.799999 16.023260
  endloop
 endfacet
 facet normal 0.000000 1.000000 0.000000
  outer loop
   vertex 14.622110 36.799999 15.722240
   vertex 15.170210 36.799999 16.023260
   vertex 19.977890 36.799999 15.722240
  endloop
 endfacet
 facet normal 0.000000 1.000000 0.000000
  outer loop
   vertex 19.977890 36.799999 15.722240
   vertex 20.487570 36.799999 15.351590
   vertex 14.622110 36.799999 15.722240
  endloop
 endfacet
 facet normal 0.000000 1.000000 0.000000
  outer loop
   vertex 14.112430 36.799999 15.351590
   vertex 14.622110 36.799999 15.722240
   vertex 20.487570 36.799999 15.351590
  endloop
 endfacet
 facet normal 0.000000 1.000000 0.000000
  outer loop
   vertex 20.487570 36.799999 15.351590
   vertex 20.943951 36.799999 14.923540
   vertex 14.112430 36.799999 15.351590
  endloop
 endfacet
 facet normal 0.000000 1.000000 0.000000
  outer loop
   vertex 13.656050 36.799999 14.923540
   vertex 14.112430 36.799999 15.351590
   vertex 20.943951 36.799999 14.923540
  endloop
 endfacet
 facet normal 0.000000 1.000000 0.000000
  outer loop
   vertex 20.943951 36.799999 14.923540
   vertex 21.345100 36.799999 14.438050
   vertex 13.656050 36.799999 14.923540
  endloop
 endfacet
 facet normal 0.000000 1.000000 0.000000
  outer loop
   vertex 13.254900 36.799999 14.438050
   vertex 13.656050 36.799999 14.923540
   vertex 21.345100 36.799999 14.438050
  endloop
 endfacet
 facet normal 0.000000 1.000000 0.000000
  outer loop
   vertex 21.345100 36.799999 14.438050
   vertex 21.681049 36.799999 13.909560
   vertex 13.254900 36.799999 14.438050
  endloop
 endfacet
 facet normal 0.000000 1.000000 0.000000
  outer loop
   vertex 12.918950 36.799999 13.909560
   vertex 13.254900 36.799999 14.438050
   vertex 21.681049 36.799999 13.909560
  endloop
 endfacet
 facet normal 0.000000 1.000000 0.000000
  outer loop
   vertex 21.681049 36.799999 13.909560
   vertex 21.948549 36.799999 13.340010
   vertex 12.918950 36.799999 13.909560
  endloop
 endfacet
 facet normal 0.000000 1.000000 0.000000
  outer loop
   vertex 12.651450 36.799999 13.340010
   vertex 12.918950 36.799999 13.909560
   vertex 21.948549 36.799999 13.340010
  endloop
 endfacet
 facet normal 0.000000 1.000000 0.000000
  outer loop
   vertex 21.948549 36.799999 13.340010
   vertex 22.142759 36.799999 12.744020
   vertex 12.651450 36.799999 13.340010
  endloop
 endfacet
 facet normal 0.000000 1.000000 0.000000
  outer loop
   vertex 12.457240 36.799999 12.744020
   vertex 12.651450 36.799999 13.340010
   vertex 22.142759 36.799999 12.744020
  endloop
 endfacet
 facet normal 0.000000 1.000000 0.000000
  outer loop
   vertex 22.142759 36.799999 12.744020
   vertex 22.259300 36.799999 12.132170
   vertex 12.457240 36.799999 12.744020
  endloop
 endfacet
 facet normal 0.000000 1.000000 0.000000
  outer loop
   vertex 12.340700 36.799999 12.132170
   vertex 12.457240 36.799999 12.744020
   vertex 22.259300 36.799999 12.132170
  endloop
 endfacet
 facet normal 0.000000 1.000000 0.000000
  outer loop
   vertex 22.259300 36.799999 12.132170
   vertex 22.299999 36.799999 11.500000
   vertex 12.340700 36.799999 12.132170
  endloop
 endfacet
 facet normal 0.000000 1.000000 0.000000
  outer loop
   vertex 12.300000 36.799999 11.500000
   vertex 12.340700 36.799999 12.132170
   vertex 22.299999 36.799999 11.500000
  endloop
 endfacet
 facet normal 0.000000 1.000000 0.000000
  outer loop
   vertex 22.299999 36.799999 11.500000
   vertex 22.259300 36.799999 10.867830
   vertex 12.300000 36.799999 11.500000
  endloop
 endfacet
 facet normal 0.000000 1.000000 -0.000000
  outer loop
   vertex 12.340700 36.799999 10.867830
   vertex 12.300000 36.799999 11.500000
   vertex 22.259300 36.799999 10.867830
  endloop
 endfacet
 facet normal 0.000000 1.000000 0.000000
  outer loop
   vertex 22.259300 36.799999 10.867830
   vertex 22.142759 36.799999 10.255980
   vertex 12.340700 36.799999 10.867830
  endloop
 endfacet
 facet normal 0.000000 1.000000 -0.000000
  outer loop
   vertex 12.457240 36.799999 10.255980
   vertex 12.340700 36.799999 10.867830
   vertex 22.142759 36.799999 10.255980
  endloop
 endfacet
 facet normal 0.000000 1.000000 0.000000
  outer loop
   vertex 22.142759 36.799999 10.255980
   vertex 21.948549 36.799999 9.659987
   vertex 12.457240 36.799999 10.255980
  endloop
 endfacet
 facet normal 0.000000 1.000000 -0.000000
  outer loop
   vertex 12.651450 36.799999 9.659987
   vertex 12.457240 36.799999 10.255980
   vertex 21.948549 36.799999 9.659987
  endloop
 endfacet
 facet normal 0.000000 1.000000 0.000000
  outer loop
   vertex 21.948549 36.799999 9.659987
   vertex 21.681049 36.799999 9.090445
   vertex 12.651450 36.799999 9.659987
  endloop
 endfacet
 facet normal 0.000000 1.000000 -0.000000
  outer loop
   vertex 12.918950 36.799999 9.090445
   vertex 12.651450 36.799999 9.659987
   vertex 21.681049 36.799999 9.090445
  endloop
 endfacet
 facet normal 0.000000 1.000000 0.000000
  outer loop
   vertex 21.681049 36.799999 9.090445
   vertex 21.345100 36.799999 8.561955
   vertex 12.918950 36.799999 9.090445
  endloop
 endfacet
 facet normal 0.000000 1.000000 -0.000000
  outer loop
   vertex 13.254900 36.799999 8.561955
   vertex 12.918950 36.799999 9.090445
   vertex 21.345100 36.799999 8.561955
  endloop
 endfacet
 facet normal 0.000000 1.000000 0.000000
  outer loop
   vertex 21.345100 36.799999 8.561955
   vertex 20.943951 36.799999 8.076455
   vertex 13.254900 36.799999 8.561955
  endloop
 endfacet
 facet normal 0.000000 1.000000 -0.000000
  outer loop
   vertex 13.656050 36.799999 8.076455
   vertex 13.254900 36.799999 8.561955
   vertex 20.943951 36.799999 8.076455
  endloop
 endfacet
 facet normal 0.000000 1.000000 0.000000
  outer loop
   vertex 20.943951 36.799999 8.076455
   vertex 20.487570 36.799999 7.648410
   vertex 13.656050 36.799999 8.076455
  endloop
 endfacet
 facet normal 0.000000 1.000000 -0.000000
  outer loop
   vertex 14.112430 36.799999 7.648410
   vertex 13.656050 36.799999 8.076455
   vertex 20.487570 36.799999 7.648410
  endloop
 endfacet
 facet normal 0.000000 1.000000 0.000000
  outer loop
   vertex 20.487570 36.799999 7.648410
   vertex 19.977890 36.799999 7.277760
   vertex 14.112430 36.799999 7.648410
  endloop
 endfacet
 facet normal 0.000000 1.000000 -0.000000
  outer loop
   vertex 14.622110 36.799999 7.277760
   vertex 14.112430 36.799999 7.648410
   vertex 19.977890 36.799999 7.277760
  endloop
 endfacet
 facet normal 0.000000 1.000000 0.000000
  outer loop
   vertex 19.977890 36.799999 7.277760
   vertex 19.429790 36.799999 6.976741
   vertex 14.622110 36.799999 7.277760
  endloop
 endfacet
 facet normal 0.000000 1.000000 -0.000000
  outer loop
   vertex 15.170210 36.799999 6.976741
   vertex 14.622110 36.799999 7.277760
   vertex 19.429790 36.799999 6.976741
  endloop
 endfacet
 facet normal 0.000000 1.000000 0.000000
  outer loop
   vertex 19.429790 36.799999 6.976741
   vertex 18.843651 36.799999 6.744485
   vertex 15.170210 36.799999 6.976741
  endloop
 endfacet
 facet normal 0.000000 1.000000 -0.000000
  outer loop
   vertex 15.756350 36.799999 6.744485
   vertex 15.170210 36.799999 6.976741
   vertex 18.843651 36.799999 6.744485
  endloop
 endfacet
 facet normal 0.000000 1.000000 0.000000
  outer loop
   vertex 18.843651 36.799999 6.744485
   vertex 18.238150 36.799999 6.589163
   vertex 15.756350 36.799999 6.744485
  endloop
 endfacet
 facet normal 0.000000 1.000000 -0.000000
  outer loop
   vertex 16.361851 36.799999 6.589163
   vertex 15.756350 36.799999 6.744485
   vertex 18.238150 36.799999 6.589163
  endloop
 endfacet
 facet normal 0.000000 1.000000 0.000000
  outer loop
   vertex 18.238150 36.799999 6.589163
   vertex 17.612511 36.799999 6.510067
   vertex 16.361851 36.799999 6.589163
  endloop
 endfacet
 facet normal 0.000000 1.000000 -0.000000
  outer loop
   vertex 16.987490 36.799999 6.510067
   vertex 16.361851 36.799999 6.589163
   vertex 17.612511 36.799999 6.510067
  endloop
 endfacet
 facet normal -0.997934 0.000000 -0.064247
  outer loop
   vertex 22.299999 36.799999 11.500000
   vertex 22.259300 36.799999 12.132170
   vertex 22.299999 41.799999 11.500000
  endloop
 endfacet
 facet normal -0.997934 -0.000000 -0.064247
  outer loop
   vertex 22.259300 41.799999 12.132170
   vertex 22.299999 41.799999 11.500000
   vertex 22.259300 36.799999 12.132170
  endloop
 endfacet
 facet normal -0.982339 0.000000 -0.187109
  outer loop
   vertex 22.259300 36.799999 12.132170
   vertex 22.142759 36.799999 12.744020
   vertex 22.259300 41.799999 12.132170
  endloop
 endfacet
 facet normal -0.982339 -0.000000 -0.187109
  outer loop
   vertex 22.142759 41.799999 12.744020
   vertex 22.259300 41.799999 12.132170
   vertex 22.142759 36.799999 12.744020
  endloop
 endfacet
 facet normal -0.950793 0.000000 -0.309827
  outer loop
   vertex 22.142759 36.799999 12.744020
   vertex 21.948549 36.799999 13.340010
   vertex 22.142759 41.799999 12.744020
  endloop
 endfacet
 facet normal -0.950793 -0.000000 -0.309827
  outer loop
   vertex 21.948549 41.799999 13.340010
   vertex 22.142759 41.799999 12.744020
   vertex 21.948549 36.799999 13.340010
  endloop
 endfacet
 facet normal -0.905139 0.000000 -0.425115
  outer loop
   vertex 21.948549 36.799999 13.340010
   vertex 21.681049 36.799999 13.909560
   vertex 21.948549 41.799999 13.340010
  endloop
 endfacet
 facet normal -0.905139 -0.000000 -0.425115
  outer loop
   vertex 21.681049 41.799999 13.909560
   vertex 21.948549 41.799999 13.340010
   vertex 21.681049 36.799999 13.909560
  endloop
 endfacet
 facet normal -0.843924 0.000000 -0.536463
  outer loop
   vertex 21.681049 36.799999 13.909560
   vertex 21.345100 36.799999 14.438050
   vertex 21.681049 41.799999 13.909560
  endloop
 endfacet
 facet normal -0.843924 -0.000000 -0.536463
  outer loop
   vertex 21.345100 41.799999 14.438050
   vertex 21.681049 41.799999 13.909560
   vertex 21.345100 36.799999 14.438050
  endloop
 endfacet
 facet normal -0.770889 0.000000 -0.636969
  outer loop
   vertex 21.345100 36.799999 14.438050
   vertex 20.943951 36.799999 14.923540
   vertex 21.345100 41.799999 14.438050
  endloop
 endfacet
 facet normal -0.770889 -0.000000 -0.636969
  outer loop
   vertex 20.943951 41.799999 14.923540
   vertex 21.345100 41.799999 14.438050
   vertex 20.943951 36.799999 14.923540
  endloop
 endfacet
 facet normal -0.684105 0.000000 -0.729383
  outer loop
   vertex 20.943951 36.799999 14.923540
   vertex 20.487570 36.799999 15.351590
   vertex 20.943951 41.799999 14.923540
  endloop
 endfacet
 facet normal -0.684105 -0.000000 -0.729383
  outer loop
   vertex 20.487570 41.799999 15.351590
   vertex 20.943951 41.799999 14.923540
   vertex 20.487570 36.799999 15.351590
  endloop
 endfacet
 facet normal -0.588145 0.000000 -0.808756
  outer loop
   vertex 20.487570 36.799999 15.351590
   vertex 19.977890 36.799999 15.722240
   vertex 20.487570 41.799999 15.351590
  endloop
 endfacet
 facet normal -0.588145 -0.000000 -0.808756
  outer loop
   vertex 19.977890 41.799999 15.722240
   vertex 20.487570 41.799999 15.351590
   vertex 19.977890 36.799999 15.722240
  endloop
 endfacet
 facet normal -0.481385 0.000000 -0.876510
  outer loop
   vertex 19.977890 36.799999 15.722240
   vertex 19.429790 36.799999 16.023260
   vertex 19.977890 41.799999 15.722240
  endloop
 endfacet
 facet normal -0.481385 -0.000000 -0.876510
  outer loop
   vertex 19.429790 41.799999 16.023260
   vertex 19.977890 41.799999 15.722240
   vertex 19.429790 36.799999 16.023260
  endloop
 endfacet
 facet normal -0.368373 0.000000 -0.929678
  outer loop
   vertex 19.429790 36.799999 16.023260
   vertex 18.843651 36.799999 16.255510
   vertex 19.429790 41.799999 16.023260
  endloop
 endfacet
 facet normal -0.368373 -0.000000 -0.929678
  outer loop
   vertex 18.843651 41.799999 16.255510
   vertex 19.429790 41.799999 16.023260
   vertex 18.843651 36.799999 16.255510
  endloop
 endfacet
 facet normal -0.248484 0.000000 -0.968636
  outer loop
   vertex 18.843651 36.799999 16.255510
   vertex 18.238150 36.799999 16.410839
   vertex 18.843651 41.799999 16.255510
  endloop
 endfacet
 facet normal -0.248484 -0.000000 -0.968636
  outer loop
   vertex 18.238150 41.799999 16.410839
   vertex 18.843651 41.799999 16.255510
   vertex 18.238150 36.799999 16.410839
  endloop
 endfacet
 facet normal -0.125417 0.000000 -0.992104
  outer loop
   vertex 18.238150 36.799999 16.410839
   vertex 17.612511 36.799999 16.489929
   vertex 18.238150 41.799999 16.410839
  endloop
 endfacet
 facet normal -0.125417 -0.000000 -0.992104
  outer loop
   vertex 17.612511 41.799999 16.489929
   vertex 18.238150 41.799999 16.410839
   vertex 17.612511 36.799999 16.489929
  endloop
 endfacet
 facet normal 0.000000 0.000000 -1.000000
  outer loop
   vertex 17.612511 36.799999 16.489929
   vertex 16.987490 36.799999 16.489929
   vertex 17.612511 41.799999 16.489929
  endloop
 endfacet
 facet normal 0.000000 0.000000 -1.000000
  outer loop
   vertex 16.987490 41.799999 16.489929
   vertex 17.612511 41.799999 16.489929
   vertex 16.987490 36.799999 16.489929
  endloop
 endfacet
 facet normal 0.125417 0.000000 -0.992104
  outer loop
   vertex 16.987490 36.799999 16.489929
   vertex 16.361851 36.799999 16.410839
   vertex 16.987490 41.799999 16.489929
  endloop
 endfacet
 facet normal 0.125417 0.000000 -0.992104
  outer loop
   vertex 16.361851 41.799999 16.410839
   vertex 16.987490 41.799999 16.489929
   vertex 16.361851 36.799999 16.410839
  endloop
 endfacet
 facet normal 0.248484 0.000000 -0.968636
  outer loop
   vertex 16.361851 36.799999 16.410839
   vertex 15.756350 36.799999 16.255510
   vertex 16.361851 41.799999 16.410839
  endloop
 endfacet
 facet normal 0.248484 0.000000 -0.968636
  outer loop
   vertex 15.756350 41.799999 16.255510
   vertex 16.361851 41.799999 16.410839
   vertex 15.756350 36.799999 16.255510
  endloop
 endfacet
 facet normal 0.368373 0.000000 -0.929678
  outer loop
   vertex 15.756350 36.799999 16.255510
   vertex 15.170210 36.799999 16.023260
   vertex 15.756350 41.799999 16.255510
  endloop
 endfacet
 facet normal 0.368373 0.000000 -0.929678
  outer loop
   vertex 15.170210 41.799999 16.023260
   vertex 15.756350 41.799999 16.255510
   vertex 15.170210 36.799999 16.023260
  endloop
 endfacet
 facet normal 0.481385 0.000000 -0.876510
  outer loop
   vertex 15.170210 36.799999 16.023260
   vertex 14.622110 36.799999 15.722240
   vertex 15.170210 41.799999 16.023260
  endloop
 endfacet
 facet normal 0.481385 0.000000 -0.876510
  outer loop
   vertex 14.622110 41.799999 15.722240
   vertex 15.170210 41.799999 16.023260
   vertex 14.622110 36.799999 15.722240
  endloop
 endfacet
 facet normal 0.588144 0.000000 -0.808756
  outer loop
   vertex 14.622110 36.799999 15.722240
   vertex 14.112430 36.799999 15.351590
   vertex 14.622110 41.799999 15.722240
  endloop
 endfacet
 facet normal 0.588144 0.000000 -0.808756
  outer loop
   vertex 14.112430 41.799999 15.351590
   vertex 14.622110 41.799999 15.722240
   vertex 14.112430 36.799999 15.351590
  endloop
 endfacet
 facet normal 0.684106 0.000000 -0.729383
  outer loop
   vertex 14.112430 36.799999 15.351590
   vertex 13.656050 36.799999 14.923540
   vertex 14.112430 41.799999 15.351590
  endloop
 endfacet
 facet normal 0.684106 0.000000 -0.729383
  outer loop
   vertex 13.656050 41.799999 14.923540
   vertex 14.112430 41.799999 15.351590
   vertex 13.656050 36.799999 14.923540
  endloop
 endfacet
 facet normal 0.770889 0.000000 -0.636969
  outer loop
   vertex 13.656050 36.799999 14.923540
   vertex 13.254900 36.799999 14.438050
   vertex 13.656050 41.799999 14.923540
  endloop
 endfacet
 facet normal 0.770889 0.000000 -0.636969
  outer loop
   vertex 13.254900 41.799999 14.438050
   vertex 13.656050 41.799999 14.923540
   vertex 13.254900 36.799999 14.438050
  endloop
 endfacet
 facet normal 0.843923 0.000000 -0.536464
  outer loop
   vertex 13.254900 36.799999 14.438050
   vertex 12.918950 36.799999 13.909560
   vertex 13.254900 41.799999 14.438050
  endloop
 endfacet
 facet normal 0.843923 0.000000 -0.536464
  outer loop
   vertex 12.918950 41.799999 13.909560
   vertex 13.254900 41.799999 14.438050
   vertex 12.918950 36.799999 13.909560
  endloop
 endfacet
 facet normal 0.905139 0.000000 -0.425115
  outer loop
   vertex 12.918950 36.799999 13.909560
   vertex 12.651450 36.799999 13.340010
   vertex 12.918950 41.799999 13.909560
  endloop
 endfacet
 facet normal 0.905139 0.000000 -0.425115
  outer loop
   vertex 12.651450 41.799999 13.340010
   vertex 12.918950 41.799999 13.909560
   vertex 12.651450 36.799999 13.340010
  endloop
 endfacet
 facet normal 0.950793 0.000000 -0.309827
  outer loop
   vertex 12.651450 36.799999 13.340010
   vertex 12.457240 36.799999 12.744020
   vertex 12.651450 41.799999 13.340010
  endloop
 endfacet
 facet normal 0.950793 0.000000 -0.309827
  outer loop
   vertex 12.457240 41.799999 12.744020
   vertex 12.651450 41.799999 13.340010
   vertex 12.457240 36.799999 12.744020
  endloop
 endfacet
 facet normal 0.982340 0.000000 -0.187107
  outer loop
   vertex 12.457240 36.799999 12.744020
   vertex 12.340700 36.799999 12.132170
   vertex 12.457240 41.799999 12.744020
  endloop
 endfacet
 facet normal 0.982340 0.000000 -0.187107
  outer loop
   vertex 12.340700 41.799999 12.132170
   vertex 12.457240 41.799999 12.744020
   vertex 12.340700 36.799999 12.132170
  endloop
 endfacet
 facet normal 0.997934 0.000000 -0.064248
  outer loop
   vertex 12.340700 36.799999 12.132170
   vertex 12.300000 36.799999 11.500000
   vertex 12.340700 41.799999 12.132170
  endloop
 endfacet
 facet normal 0.997934 0.000000 -0.064248
  outer loop
   vertex 12.300000 41.799999 11.500000
   vertex 12.340700 41.799999 12.132170
   vertex 12.300000 36.799999 11.500000
  endloop
 endfacet
 facet normal 0.997934 -0.000000 0.064248
  outer loop
   vertex 12.300000 36.799999 11.500000
   vertex 12.340700 36.799999 10.867830
   vertex 12.300000 41.799999 11.500000
  endloop
 endfacet
 facet normal 0.997934 0.000000 0.064248
  outer loop
   vertex 12.340700 41.799999 10.867830
   vertex 12.300000 41.799999 11.500000
   vertex 12.340700 36.799999 10.867830
  endloop
 endfacet
 facet normal 0.982340 -0.000000 0.187107
  outer loop
   vertex 12.340700 36.799999 10.867830
   vertex 12.457240 36.799999 10.255980
   vertex 12.340700 41.799999 10.867830
  endloop
 endfacet
 facet normal 0.982340 0.000000 0.187107
  outer loop
   vertex 12.457240 41.799999 10.255980
   vertex 12.340700 41.799999 10.867830
   vertex 12.457240 36.799999 10.255980
  endloop
 endfacet
 facet normal 0.950793 -0.000000 0.309826
  outer loop
   vertex 12.457240 36.799999 10.255980
   vertex 12.651450 36.799999 9.659987
   vertex 12.457240 41.799999 10.255980
  endloop
 endfacet
 facet normal 0.950793 0.000000 0.309826
  outer loop
   vertex 12.651450 41.799999 9.659987
   vertex 12.457240 41.799999 10.255980
   vertex 12.651450 36.799999 9.659987
  endloop
 endfacet
 facet normal 0.905137 -0.000000 0.425120
  outer loop
   vertex 12.651450 36.799999 9.659987
   vertex 12.918950 36.799999 9.090445
   vertex 12.651450 41.799999 9.659987
  endloop
 endfacet
 facet normal 0.905137 0.000000 0.425120
  outer loop
   vertex 12.918950 41.799999 9.090445
   vertex 12.651450 41.799999 9.659987
   vertex 12.918950 36.799999 9.090445
  endloop
 endfacet
 facet normal 0.843923 -0.000000 0.536465
  outer loop
   vertex 12.918950 36.799999 9.090445
   vertex 13.254900 36.799999 8.561955
   vertex 12.918950 41.799999 9.090445
  endloop
 endfacet
 facet normal 0.843923 0.000000 0.536465
  outer loop
   vertex 13.254900 41.799999 8.561955
   vertex 12.918950 41.799999 9.090445
   vertex 13.254900 36.799999 8.561955
  endloop
 endfacet
 facet normal 0.770896 -0.000000 0.636961
  outer loop
   vertex 13.254900 36.799999 8.561955
   vertex 13.656050 36.799999 8.076455
   vertex 13.254900 41.799999 8.561955
  endloop
 endfacet
 facet normal 0.770896 0.000000 0.636961
  outer loop
   vertex 13.656050 41.799999 8.076455
   vertex 13.254900 41.799999 8.561955
   vertex 13.656050 36.799999 8.076455
  endloop
 endfacet
 facet normal 0.684102 -0.000000 0.729386
  outer loop
   vertex 13.656050 36.799999 8.076455
   vertex 14.112430 36.799999 7.648410
   vertex 13.656050 41.799999 8.076455
  endloop
 endfacet
 facet normal 0.684102 0.000000 0.729386
  outer loop
   vertex 14.112430 41.799999 7.648410
   vertex 13.656050 41.799999 8.076455
   vertex 14.112430 36.799999 7.648410
  endloop
 endfacet
 facet normal 0.588144 -0.000000 0.808757
  outer loop
   vertex 14.112430 36.799999 7.648410
   vertex 14.622110 36.799999 7.277760
   vertex 14.112430 41.799999 7.648410
  endloop
 endfacet
 facet normal 0.588144 0.000000 0.808757
  outer loop
   vertex 14.622110 41.799999 7.277760
   vertex 14.112430 41.799999 7.648410
   vertex 14.622110 36.799999 7.277760
  endloop
 endfacet
 facet normal 0.481384 -0.000000 0.876510
  outer loop
   vertex 14.622110 36.799999 7.277760
   vertex 15.170210 36.799999 6.976741
   vertex 14.622110 41.799999 7.277760
  endloop
 endfacet
 facet normal 0.481384 0.000000 0.876510
  outer loop
   vertex 15.170210 41.799999 6.976741
   vertex 14.622110 41.799999 7.277760
   vertex 15.170210 36.799999 6.976741
  endloop
 endfacet
 facet normal 0.368381 -0.000000 0.929675
  outer loop
   vertex 15.170210 36.799999 6.976741
   vertex 15.756350 36.799999 6.744485
   vertex 15.170210 41.799999 6.976741
  endloop
 endfacet
 facet normal 0.368381 0.000000 0.929675
  outer loop
   vertex 15.756350 41.799999 6.744485
   vertex 15.170210 41.799999 6.976741
   vertex 15.756350 36.799999 6.744485
  endloop
 endfacet
 facet normal 0.248473 -0.000000 0.968639
  outer loop
   vertex 15.756350 36.799999 6.744485
   vertex 16.361851 36.799999 6.589163
   vertex 15.756350 41.799999 6.744485
  endloop
 endfacet
 facet normal 0.248473 0.000000 0.968639
  outer loop
   vertex 16.361851 41.799999 6.589163
   vertex 15.756350 41.799999 6.744485
   vertex 16.361851 36.799999 6.589163
  endloop
 endfacet
 facet normal 0.125426 -0.000000 0.992103
  outer loop
   vertex 16.361851 36.799999 6.589163
   vertex 16.987490 36.799999 6.510067
   vertex 16.361851 41.799999 6.589163
  endloop
 endfacet
 facet normal 0.125426 0.000000 0.992103
  outer loop
   vertex 16.987490 41.799999 6.510067
   vertex 16.361851 41.799999 6.589163
   vertex 16.987490 36.799999 6.510067
  endloop
 endfacet
 facet normal 0.000000 0.000000 1.000000
  outer loop
   vertex 16.987490 36.799999 6.510067
   vertex 17.612511 36.799999 6.510067
   vertex 16.987490 41.799999 6.510067
  endloop
 endfacet
 facet normal 0.000000 0.000000 1.000000
  outer loop
   vertex 17.612511 41.799999 6.510067
   vertex 16.987490 41.799999 6.510067
   vertex 17.612511 36.799999 6.510067
  endloop
 endfacet
 facet normal -0.125426 0.000000 0.992103
  outer loop
   vertex 17.612511 36.799999 6.510067
   vertex 18.238150 36.799999 6.589163
   vertex 17.612511 41.799999 6.510067
  endloop
 endfacet
 facet normal -0.125426 0.000000 0.992103
  outer loop
   vertex 18.238150 41.799999 6.589163
   vertex 17.612511 41.799999 6.510067
   vertex 18.238150 36.799999 6.589163
  endloop
 endfacet
 facet normal -0.248473 0.000000 0.968639
  outer loop
   vertex 18.238150 36.799999 6.589163
   vertex 18.843651 36.799999 6.744485
   vertex 18.238150 41.799999 6.589163
  endloop
 endfacet
 facet normal -0.248473 0.000000 0.968639
  outer loop
   vertex 18.843651 41.799999 6.744485
   vertex 18.238150 41.799999 6.589163
   vertex 18.843651 36.799999 6.744485
  endloop
 endfacet
 facet normal -0.368381 0.000000 0.929675
  outer loop
   vertex 18.843651 36.799999 6.744485
   vertex 19.429790 36.799999 6.976741
   vertex 18.843651 41.799999 6.744485
  endloop
 endfacet
 facet normal -0.368381 0.000000 0.929675
  outer loop
   vertex 19.429790 41.799999 6.976741
   vertex 18.843651 41.799999 6.744485
   vertex 19.429790 36.799999 6.976741
  endloop
 endfacet
 facet normal -0.481384 0.000000 0.876510
  outer loop
   vertex 19.429790 36.799999 6.976741
   vertex 19.977890 36.799999 7.277760
   vertex 19.429790 41.799999 6.976741
  endloop
 endfacet
 facet normal -0.481384 0.000000 0.876510
  outer loop
   vertex 19.977890 41.799999 7.277760
   vertex 19.429790 41.799999 6.976741
   vertex 19.977890 36.799999 7.277760
  endloop
 endfacet
 facet normal -0.588144 0.000000 0.808756
  outer loop
   vertex 19.977890 36.799999 7.277760
   vertex 20.487570 36.799999 7.648410
   vertex 19.977890 41.799999 7.277760
  endloop
 endfacet
 facet normal -0.588144 0.000000 0.808756
  outer loop
   vertex 20.487570 41.799999 7.648410
   vertex 19.977890 41.799999 7.277760
   vertex 20.487570 36.799999 7.648410
  endloop
 endfacet
 facet normal -0.684101 0.000000 0.729387
  outer loop
   vertex 20.487570 36.799999 7.648410
   vertex 20.943951 36.799999 8.076455
   vertex 20.487570 41.799999 7.648410
  endloop
 endfacet
 facet normal -0.684101 0.000000 0.729387
  outer loop
   vertex 20.943951 41.799999 8.076455
   vertex 20.487570 41.799999 7.648410
   vertex 20.943951 36.799999 8.076455
  endloop
 endfacet
 facet normal -0.770896 0.000000 0.636961
  outer loop
   vertex 20.943951 36.799999 8.076455
   vertex 21.345100 36.799999 8.561955
   vertex 20.943951 41.799999 8.076455
  endloop
 endfacet
 facet normal -0.770896 0.000000 0.636961
  outer loop
   vertex 21.345100 41.799999 8.561955
   vertex 20.943951 41.799999 8.076455
   vertex 21.345100 36.799999 8.561955
  endloop
 endfacet
 facet normal -0.843923 0.000000 0.536464
  outer loop
   vertex 21.345100 36.799999 8.561955
   vertex 21.681049 36.799999 9.090445
   vertex 21.345100 41.799999 8.561955
  endloop
 endfacet
 facet normal -0.843923 0.000000 0.536464
  outer loop
   vertex 21.681049 41.799999 9.090445
   vertex 21.345100 41.799999 8.561955
   vertex 21.681049 36.799999 9.090445
  endloop
 endfacet
 facet normal -0.905137 0.000000 0.425120
  outer loop
   vertex 21.681049 36.799999 9.090445
   vertex 21.948549 36.799999 9.659987
   vertex 21.681049 41.799999 9.090445
  endloop
 endfacet
 facet normal -0.905137 0.000000 0.425120
  outer loop
   vertex 21.948549 41.799999 9.659987
   vertex 21.681049 41.799999 9.090445
   vertex 21.948549 36.799999 9.659987
  endloop
 endfacet
 facet normal -0.950793 0.000000 0.309826
  outer loop
   vertex 21.948549 36.799999 9.659987
   vertex 22.142759 36.799999 10.255980
   vertex 21.948549 41.799999 9.659987
  endloop
 endfacet
 facet normal -0.950793 0.000000 0.309826
  outer loop
   vertex 22.142759 41.799999 10.255980
   vertex 21.948549 41.799999 9.659987
   vertex 22.142759 36.799999 10.255980
  endloop
 endfacet
 facet normal -0.982339 0.000000 0.187109
  outer loop
   vertex 22.142759 36.799999 10.255980
   vertex 22.259300 36.799999 10.867830
   vertex 22.142759 41.799999 10.255980
  endloop
 endfacet
 facet normal -0.982339 0.000000 0.187109
  outer loop
   vertex 22.259300 41.799999 10.867830
   vertex 22.142759 41.799999 10.255980
   vertex 22.259300 36.799999 10.867830
  endloop
 endfacet
 facet normal -0.997934 0.000000 0.064247
  outer loop
   vertex 22.259300 36.799999 10.867830
   vertex 22.299999 36.799999 11.500000
   vertex 22.259300 41.799999 10.867830
  endloop
 endfacet
 facet normal -0.997934 0.000000 0.064247
  outer loop
   vertex 22.299999 41.799999 11.500000
   vertex 22.259300 41.799999 10.867830
   vertex 22.299999 36.799999 11.500000
  endloop
 endfacet
endsolid Creeper Body 02 (repaired)
