solid Head 02 (repaired)
 facet normal 0.000000 0.000000 -1.000000
  outer loop
   vertex 0.000000 0.000000 0.000000
   vertex 0.000000 23.000000 0.000000
   vertex 23.000000 0.000000 0.000000
  endloop
 endfacet
 facet normal -0.000000 -0.000000 -1.000000
  outer loop
   vertex 23.000000 23.000000 0.000000
   vertex 23.000000 0.000000 0.000000
   vertex 0.000000 23.000000 0.000000
  endloop
 endfacet
 facet normal 0.000000 0.000000 1.000000
  outer loop
   vertex 14.400000 20.200001 23.000000
   vertex 2.900000 17.299999 23.000000
   vertex 11.600000 17.299999 23.000000
  endloop
 endfacet
 facet normal 0.000000 -0.000000 1.000000
  outer loop
   vertex 14.400000 14.400000 23.000000
   vertex 14.400000 20.200001 23.000000
   vertex 11.600000 17.299999 23.000000
  endloop
 endfacet
 facet normal 0.000000 0.000000 1.000000
  outer loop
   vertex 11.600000 13.700000 23.000000
   vertex 20.200001 14.400000 23.000000
   vertex 14.400000 14.400000 23.000000
  endloop
 endfacet
 facet normal 0.000000 0.000000 1.000000
  outer loop
   vertex 11.600000 17.299999 23.000000
   vertex 11.600000 13.700000 23.000000
   vertex 14.400000 14.400000 23.000000
  endloop
 endfacet
 facet normal 0.000000 -0.000000 1.000000
  outer loop
   vertex 5.800000 8.600000 23.000000
   vertex 5.800000 14.400000 23.000000
   vertex 2.900000 8.600000 23.000000
  endloop
 endfacet
 facet normal 0.000000 0.000000 1.000000
  outer loop
   vertex 11.600000 5.700000 23.000000
   vertex 14.400000 8.600000 23.000000
   vertex 14.400000 9.200000 23.000000
  endloop
 endfacet
 facet normal -0.000000 0.000000 1.000000
  outer loop
   vertex 11.600000 9.200000 23.000000
   vertex 11.600000 5.700000 23.000000
   vertex 14.400000 9.200000 23.000000
  endloop
 endfacet
 facet normal 0.000000 -0.000000 1.000000
  outer loop
   vertex 14.400000 2.800000 23.000000
   vertex 14.400000 8.600000 23.000000
   vertex 11.600000 5.700000 23.000000
  endloop
 endfacet
 facet normal 0.000000 0.000000 1.000000
  outer loop
   vertex 0.000000 0.000000 23.000000
   vertex 20.200001 2.800000 23.000000
   vertex 14.400000 2.800000 23.000000
  endloop
 endfacet
 facet normal 0.000000 0.000000 1.000000
  outer loop
   vertex 0.000000 0.000000 23.000000
   vertex 14.400000 2.800000 23.000000
   vertex 11.600000 5.700000 23.000000
  endloop
 endfacet
 facet normal 0.000000 0.000000 1.000000
  outer loop
   vertex 0.000000 0.000000 23.000000
   vertex 11.600000 5.700000 23.000000
   vertex 2.900000 5.700000 23.000000
  endloop
 endfacet
 facet normal 0.000000 0.000000 1.000000
  outer loop
   vertex 0.000000 0.000000 23.000000
   vertex 2.900000 5.700000 23.000000
   vertex 2.900000 8.600000 23.000000
  endloop
 endfacet
 facet normal 0.000000 0.000000 1.000000
  outer loop
   vertex 2.900000 8.600000 23.000000
   vertex 5.800000 14.400000 23.000000
   vertex 2.900000 14.400000 23.000000
  endloop
 endfacet
 facet normal 0.000000 0.000000 1.000000
  outer loop
   vertex 0.000000 0.000000 23.000000
   vertex 2.900000 8.600000 23.000000
   vertex 2.900000 14.400000 23.000000
  endloop
 endfacet
 facet normal 0.000000 0.000000 1.000000
  outer loop
   vertex 0.000000 0.000000 23.000000
   vertex 2.900000 14.400000 23.000000
   vertex 2.900000 17.299999 23.000000
  endloop
 endfacet
 facet normal 0.000000 0.000000 1.000000
  outer loop
   vertex 2.900000 17.299999 23.000000
   vertex 14.400000 20.200001 23.000000
   vertex 23.000000 23.000000 23.000000
  endloop
 endfacet
 facet normal 0.000000 -0.000000 1.000000
  outer loop
   vertex 2.900000 17.299999 23.000000
   vertex 23.000000 23.000000 23.000000
   vertex 0.000000 23.000000 23.000000
  endloop
 endfacet
 facet normal 0.000000 0.000000 1.000000
  outer loop
   vertex 0.000000 23.000000 23.000000
   vertex 0.000000 0.000000 23.000000
   vertex 2.900000 17.299999 23.000000
  endloop
 endfacet
 facet normal 0.000000 0.000000 1.000000
  outer loop
   vertex 23.000000 23.000000 23.000000
   vertex 14.400000 20.200001 23.000000
   vertex 20.200001 20.200001 23.000000
  endloop
 endfacet
 facet normal 0.000000 0.000000 1.000000
  outer loop
   vertex 23.000000 23.000000 23.000000
   vertex 20.200001 20.200001 23.000000
   vertex 20.200001 14.400000 23.000000
  endloop
 endfacet
 facet normal 0.000000 0.000000 1.000000
  outer loop
   vertex 20.200001 14.400000 23.000000
   vertex 11.600000 13.700000 23.000000
   vertex 14.400000 13.700000 23.000000
  endloop
 endfacet
 facet normal 0.000000 0.000000 1.000000
  outer loop
   vertex 20.200001 14.400000 23.000000
   vertex 14.400000 13.700000 23.000000
   vertex 14.400000 9.200000 23.000000
  endloop
 endfacet
 facet normal 0.000000 0.000000 1.000000
  outer loop
   vertex 20.200001 14.400000 23.000000
   vertex 14.400000 9.200000 23.000000
   vertex 14.400000 8.600000 23.000000
  endloop
 endfacet
 facet normal 0.000000 0.000000 1.000000
  outer loop
   vertex 20.200001 14.400000 23.000000
   vertex 14.400000 8.600000 23.000000
   vertex 20.200001 8.600000 23.000000
  endloop
 endfacet
 facet normal 0.000000 0.000000 1.000000
  outer loop
   vertex 23.000000 23.000000 23.000000
   vertex 20.200001 14.400000 23.000000
   vertex 20.200001 8.600000 23.000000
  endloop
 endfacet
 facet normal 0.000000 0.000000 1.000000
  outer loop
   vertex 23.000000 23.000000 23.000000
   vertex 20.200001 8.600000 23.000000
   vertex 20.200001 2.800000 23.000000
  endloop
 endfacet
 facet normal 0.000000 0.000000 1.000000
  outer loop
   vertex 20.200001 2.800000 23.000000
   vertex 0.000000 0.000000 23.000000
   vertex 23.000000 0.000000 23.000000
  endloop
 endfacet
 facet normal 0.000000 -0.000000 1.000000
  outer loop
   vertex 23.000000 0.000000 23.000000
   vertex 23.000000 23.000000 23.000000
   vertex 20.200001 2.800000 23.000000
  endloop
 endfacet
 facet normal 0.000000 -1.000000 0.000000
  outer loop
   vertex 0.000000 0.000000 23.000000
   vertex 0.000000 0.000000 0.000000
   vertex 23.000000 0.000000 23.000000
  endloop
 endfacet
 facet normal 0.000000 -1.000000 0.000000
  outer loop
   vertex 23.000000 0.000000 0.000000
   vertex 23.000000 0.000000 23.000000
   vertex 0.000000 0.000000 0.000000
  endloop
 endfacet
 facet normal 1.000000 0.000000 0.000000
  outer loop
   vertex 23.000000 23.000000 23.000000
   vertex 23.000000 0.000000 23.000000
   vertex 23.000000 23.000000 0.000000
  endloop
 endfacet
 facet normal 1.000000 0.000000 0.000000
  outer loop
   vertex 23.000000 0.000000 0.000000
   vertex 23.000000 23.000000 0.000000
   vertex 23.000000 0.000000 23.000000
  endloop
 endfacet
 facet normal -0.000000 1.000000 0.000000
  outer loop
   vertex 0.000000 23.000000 23.000000
   vertex 23.000000 23.000000 23.000000
   vertex 0.000000 23.000000 0.000000
  endloop
 endfacet
 facet normal 0.000000 1.000000 -0.000000
  outer loop
   vertex 23.000000 23.000000 0.000000
   vertex 0.000000 23.000000 0.000000
   vertex 23.000000 23.000000 23.000000
  endloop
 endfacet
 facet normal -1.000000 0.000000 0.000000
  outer loop
   vertex 0.000000 23.000000 0.000000
   vertex 0.000000 11.500000 8.500000
   vertex 0.000000 11.969200 8.537606
  endloop
 endfacet
 facet normal -1.000000 0.000000 0.000000
  outer loop
   vertex 0.000000 23.000000 0.000000
   vertex 0.000000 11.969200 8.537606
   vertex 0.000000 12.427050 8.646831
  endloop
 endfacet
 facet normal -1.000000 0.000000 0.000000
  outer loop
   vertex 0.000000 23.000000 0.000000
   vertex 0.000000 12.427050 8.646831
   vertex 0.000000 12.861660 8.827586
  endloop
 endfacet
 facet normal -1.000000 0.000000 0.000000
  outer loop
   vertex 0.000000 23.000000 0.000000
   vertex 0.000000 12.861660 8.827586
   vertex 0.000000 13.263360 9.072949
  endloop
 endfacet
 facet normal -1.000000 0.000000 0.000000
  outer loop
   vertex 0.000000 23.000000 0.000000
   vertex 0.000000 13.263360 9.072949
   vertex 0.000000 13.620840 9.379160
  endloop
 endfacet
 facet normal -1.000000 0.000000 0.000000
  outer loop
   vertex 0.000000 23.000000 0.000000
   vertex 0.000000 13.620840 9.379160
   vertex 0.000000 13.927050 9.736644
  endloop
 endfacet
 facet normal -1.000000 0.000000 0.000000
  outer loop
   vertex 0.000000 23.000000 0.000000
   vertex 0.000000 13.927050 9.736644
   vertex 0.000000 14.172410 10.138340
  endloop
 endfacet
 facet normal -1.000000 0.000000 0.000000
  outer loop
   vertex 0.000000 23.000000 0.000000
   vertex 0.000000 14.172410 10.138340
   vertex 0.000000 14.353170 10.572950
  endloop
 endfacet
 facet normal -1.000000 0.000000 0.000000
  outer loop
   vertex 0.000000 23.000000 0.000000
   vertex 0.000000 14.353170 10.572950
   vertex 0.000000 14.461500 11.025130
  endloop
 endfacet
 facet normal -1.000000 0.000000 0.000000
  outer loop
   vertex 0.000000 23.000000 0.000000
   vertex 0.000000 14.461500 11.025130
   vertex 0.000000 14.500000 11.500000
  endloop
 endfacet
 facet normal -1.000000 0.000000 0.000000
  outer loop
   vertex 0.000000 23.000000 0.000000
   vertex 0.000000 14.500000 11.500000
   vertex 0.000000 14.461500 11.974870
  endloop
 endfacet
 facet normal -1.000000 0.000000 0.000000
  outer loop
   vertex 0.000000 23.000000 0.000000
   vertex 0.000000 14.461500 11.974870
   vertex 0.000000 14.353170 12.427050
  endloop
 endfacet
 facet normal -1.000000 0.000000 0.000000
  outer loop
   vertex 0.000000 23.000000 0.000000
   vertex 0.000000 14.353170 12.427050
   vertex 0.000000 14.172410 12.861660
  endloop
 endfacet
 facet normal -1.000000 0.000000 0.000000
  outer loop
   vertex 0.000000 23.000000 0.000000
   vertex 0.000000 14.172410 12.861660
   vertex 0.000000 13.927050 13.263360
  endloop
 endfacet
 facet normal -1.000000 0.000000 0.000000
  outer loop
   vertex 0.000000 11.969200 14.462390
   vertex 0.000000 11.500000 14.500000
   vertex 0.000000 0.000000 23.000000
  endloop
 endfacet
 facet normal -1.000000 0.000000 0.000000
  outer loop
   vertex 0.000000 12.427050 14.353170
   vertex 0.000000 11.969200 14.462390
   vertex 0.000000 0.000000 23.000000
  endloop
 endfacet
 facet normal -1.000000 0.000000 0.000000
  outer loop
   vertex 0.000000 12.861660 14.172410
   vertex 0.000000 12.427050 14.353170
   vertex 0.000000 0.000000 23.000000
  endloop
 endfacet
 facet normal -1.000000 0.000000 0.000000
  outer loop
   vertex 0.000000 13.263360 13.927050
   vertex 0.000000 12.861660 14.172410
   vertex 0.000000 0.000000 23.000000
  endloop
 endfacet
 facet normal -1.000000 0.000000 0.000000
  outer loop
   vertex 0.000000 13.263360 13.927050
   vertex 0.000000 0.000000 23.000000
   vertex 0.000000 23.000000 23.000000
  endloop
 endfacet
 facet normal -1.000000 0.000000 0.000000
  outer loop
   vertex 0.000000 13.620840 13.620840
   vertex 0.000000 13.263360 13.927050
   vertex 0.000000 23.000000 23.000000
  endloop
 endfacet
 facet normal -1.000000 0.000000 0.000000
  outer loop
   vertex 0.000000 13.927050 13.263360
   vertex 0.000000 13.620840 13.620840
   vertex 0.000000 23.000000 23.000000
  endloop
 endfacet
 facet normal -1.000000 0.000000 -0.000000
  outer loop
   vertex 0.000000 23.000000 23.000000
   vertex 0.000000 23.000000 0.000000
   vertex 0.000000 13.927050 13.263360
  endloop
 endfacet
 facet normal -1.000000 0.000000 0.000000
  outer loop
   vertex 0.000000 0.000000 23.000000
   vertex 0.000000 11.500000 14.500000
   vertex 0.000000 11.030800 14.462390
  endloop
 endfacet
 facet normal -1.000000 0.000000 0.000000
  outer loop
   vertex 0.000000 0.000000 23.000000
   vertex 0.000000 11.030800 14.462390
   vertex 0.000000 10.572950 14.353170
  endloop
 endfacet
 facet normal -1.000000 0.000000 0.000000
  outer loop
   vertex 0.000000 0.000000 23.000000
   vertex 0.000000 10.572950 14.353170
   vertex 0.000000 10.138340 14.172410
  endloop
 endfacet
 facet normal -1.000000 0.000000 0.000000
  outer loop
   vertex 0.000000 0.000000 23.000000
   vertex 0.000000 10.138340 14.172410
   vertex 0.000000 9.736644 13.927050
  endloop
 endfacet
 facet normal -1.000000 0.000000 0.000000
  outer loop
   vertex 0.000000 0.000000 23.000000
   vertex 0.000000 9.736644 13.927050
   vertex 0.000000 9.379160 13.620840
  endloop
 endfacet
 facet normal -1.000000 0.000000 0.000000
  outer loop
   vertex 0.000000 0.000000 23.000000
   vertex 0.000000 9.379160 13.620840
   vertex 0.000000 9.072949 13.263360
  endloop
 endfacet
 facet normal -1.000000 0.000000 0.000000
  outer loop
   vertex 0.000000 0.000000 23.000000
   vertex 0.000000 9.072949 13.263360
   vertex 0.000000 8.827586 12.861660
  endloop
 endfacet
 facet normal -1.000000 0.000000 0.000000
  outer loop
   vertex 0.000000 0.000000 23.000000
   vertex 0.000000 8.827586 12.861660
   vertex 0.000000 8.646831 12.427050
  endloop
 endfacet
 facet normal -1.000000 0.000000 0.000000
  outer loop
   vertex 0.000000 0.000000 23.000000
   vertex 0.000000 8.646831 12.427050
   vertex 0.000000 8.538504 11.974870
  endloop
 endfacet
 facet normal -1.000000 0.000000 0.000000
  outer loop
   vertex 0.000000 0.000000 23.000000
   vertex 0.000000 8.538504 11.974870
   vertex 0.000000 8.500000 11.500000
  endloop
 endfacet
 facet normal -1.000000 0.000000 0.000000
  outer loop
   vertex 0.000000 0.000000 23.000000
   vertex 0.000000 8.500000 11.500000
   vertex 0.000000 8.538504 11.025130
  endloop
 endfacet
 facet normal -1.000000 0.000000 0.000000
  outer loop
   vertex 0.000000 0.000000 23.000000
   vertex 0.000000 8.538504 11.025130
   vertex 0.000000 8.646831 10.572950
  endloop
 endfacet
 facet normal -1.000000 0.000000 0.000000
  outer loop
   vertex 0.000000 0.000000 23.000000
   vertex 0.000000 8.646831 10.572950
   vertex 0.000000 8.827586 10.138340
  endloop
 endfacet
 facet normal -1.000000 0.000000 0.000000
  outer loop
   vertex 0.000000 0.000000 23.000000
   vertex 0.000000 8.827586 10.138340
   vertex 0.000000 9.072949 9.736644
  endloop
 endfacet
 facet normal -1.000000 0.000000 0.000000
  outer loop
   vertex 0.000000 11.030800 8.537606
   vertex 0.000000 11.500000 8.500000
   vertex 0.000000 23.000000 0.000000
  endloop
 endfacet
 facet normal -1.000000 0.000000 0.000000
  outer loop
   vertex 0.000000 10.572950 8.646831
   vertex 0.000000 11.030800 8.537606
   vertex 0.000000 23.000000 0.000000
  endloop
 endfacet
 facet normal -1.000000 0.000000 0.000000
  outer loop
   vertex 0.000000 10.138340 8.827586
   vertex 0.000000 10.572950 8.646831
   vertex 0.000000 23.000000 0.000000
  endloop
 endfacet
 facet normal -1.000000 0.000000 0.000000
  outer loop
   vertex 0.000000 9.736644 9.072949
   vertex 0.000000 10.138340 8.827586
   vertex 0.000000 23.000000 0.000000
  endloop
 endfacet
 facet normal -1.000000 0.000000 -0.000000
  outer loop
   vertex 0.000000 9.736644 9.072949
   vertex 0.000000 23.000000 0.000000
   vertex 0.000000 0.000000 0.000000
  endloop
 endfacet
 facet normal -1.000000 0.000000 -0.000000
  outer loop
   vertex 0.000000 9.379160 9.379160
   vertex 0.000000 9.736644 9.072949
   vertex 0.000000 0.000000 0.000000
  endloop
 endfacet
 facet normal -1.000000 0.000000 -0.000000
  outer loop
   vertex 0.000000 9.072949 9.736644
   vertex 0.000000 9.379160 9.379160
   vertex 0.000000 0.000000 0.000000
  endloop
 endfacet
 facet normal -1.000000 0.000000 0.000000
  outer loop
   vertex 0.000000 0.000000 0.000000
   vertex 0.000000 0.000000 23.000000
   vertex 0.000000 9.072949 9.736644
  endloop
 endfacet
 facet normal -0.000000 0.000000 1.000000
  outer loop
   vertex 2.900000 17.299999 18.000000
   vertex 2.900000 14.400000 18.000000
   vertex 11.600000 17.299999 18.000000
  endloop
 endfacet
 facet normal 0.000000 0.000000 1.000000
  outer loop
   vertex 11.600000 17.299999 18.000000
   vertex 2.900000 14.400000 18.000000
   vertex 5.800000 14.400000 18.000000
  endloop
 endfacet
 facet normal 0.000000 -0.000000 1.000000
  outer loop
   vertex 11.600000 13.700000 18.000000
   vertex 11.600000 17.299999 18.000000
   vertex 5.800000 14.400000 18.000000
  endloop
 endfacet
 facet normal 0.000000 -0.000000 1.000000
  outer loop
   vertex 14.400000 9.200000 18.000000
   vertex 14.400000 13.700000 18.000000
   vertex 11.600000 9.200000 18.000000
  endloop
 endfacet
 facet normal 0.000000 0.000000 1.000000
  outer loop
   vertex 5.800000 8.600000 18.000000
   vertex 11.600000 9.200000 18.000000
   vertex 14.400000 13.700000 18.000000
  endloop
 endfacet
 facet normal 0.000000 0.000000 1.000000
  outer loop
   vertex 5.800000 8.600000 18.000000
   vertex 14.400000 13.700000 18.000000
   vertex 11.600000 13.700000 18.000000
  endloop
 endfacet
 facet normal 0.000000 0.000000 1.000000
  outer loop
   vertex 5.800000 14.400000 18.000000
   vertex 5.800000 8.600000 18.000000
   vertex 11.600000 13.700000 18.000000
  endloop
 endfacet
 facet normal -0.000000 0.000000 1.000000
  outer loop
   vertex 2.900000 8.600000 18.000000
   vertex 2.900000 5.700000 18.000000
   vertex 5.800000 8.600000 18.000000
  endloop
 endfacet
 facet normal 0.000000 0.000000 1.000000
  outer loop
   vertex 11.600000 9.200000 18.000000
   vertex 5.800000 8.600000 18.000000
   vertex 2.900000 5.700000 18.000000
  endloop
 endfacet
 facet normal 0.000000 -0.000000 1.000000
  outer loop
   vertex 11.600000 5.700000 18.000000
   vertex 11.600000 9.200000 18.000000
   vertex 2.900000 5.700000 18.000000
  endloop
 endfacet
 facet normal 0.000000 0.000000 1.000000
  outer loop
   vertex 14.400000 14.400000 18.000000
   vertex 20.200001 17.700001 18.000000
   vertex 18.000000 17.700001 18.000000
  endloop
 endfacet
 facet normal 0.000000 0.000000 1.000000
  outer loop
   vertex 14.400000 14.400000 18.000000
   vertex 18.000000 17.700001 18.000000
   vertex 18.000000 20.200001 18.000000
  endloop
 endfacet
 facet normal -0.000000 0.000000 1.000000
  outer loop
   vertex 14.400000 20.200001 18.000000
   vertex 14.400000 14.400000 18.000000
   vertex 18.000000 20.200001 18.000000
  endloop
 endfacet
 facet normal 0.000000 -0.000000 1.000000
  outer loop
   vertex 20.200001 14.400000 18.000000
   vertex 20.200001 17.700001 18.000000
   vertex 14.400000 14.400000 18.000000
  endloop
 endfacet
 facet normal 0.000000 -0.000000 1.000000
  outer loop
   vertex 20.200001 5.300000 18.000000
   vertex 20.200001 8.600000 18.000000
   vertex 18.000000 5.300000 18.000000
  endloop
 endfacet
 facet normal 0.000000 0.000000 1.000000
  outer loop
   vertex 14.400000 2.800000 18.000000
   vertex 18.000000 5.300000 18.000000
   vertex 20.200001 8.600000 18.000000
  endloop
 endfacet
 facet normal -0.000000 0.000000 1.000000
  outer loop
   vertex 14.400000 8.600000 18.000000
   vertex 14.400000 2.800000 18.000000
   vertex 20.200001 8.600000 18.000000
  endloop
 endfacet
 facet normal 0.000000 -0.000000 1.000000
  outer loop
   vertex 18.000000 2.800000 18.000000
   vertex 18.000000 5.300000 18.000000
   vertex 14.400000 2.800000 18.000000
  endloop
 endfacet
 facet normal 0.000000 1.000000 0.000000
  outer loop
   vertex 2.900000 14.400000 18.000000
   vertex 2.900000 14.400000 23.000000
   vertex 5.800000 14.400000 18.000000
  endloop
 endfacet
 facet normal 0.000000 1.000000 0.000000
  outer loop
   vertex 5.800000 14.400000 23.000000
   vertex 5.800000 14.400000 18.000000
   vertex 2.900000 14.400000 23.000000
  endloop
 endfacet
 facet normal 1.000000 0.000000 0.000000
  outer loop
   vertex 5.800000 8.600000 18.000000
   vertex 5.800000 14.400000 18.000000
   vertex 5.800000 8.600000 23.000000
  endloop
 endfacet
 facet normal 1.000000 0.000000 0.000000
  outer loop
   vertex 5.800000 14.400000 23.000000
   vertex 5.800000 8.600000 23.000000
   vertex 5.800000 14.400000 18.000000
  endloop
 endfacet
 facet normal 0.000000 -1.000000 0.000000
  outer loop
   vertex 5.800000 8.600000 18.000000
   vertex 5.800000 8.600000 23.000000
   vertex 2.900000 8.600000 18.000000
  endloop
 endfacet
 facet normal 0.000000 -1.000000 0.000000
  outer loop
   vertex 2.900000 8.600000 23.000000
   vertex 2.900000 8.600000 18.000000
   vertex 5.800000 8.600000 23.000000
  endloop
 endfacet
 facet normal 1.000000 0.000000 -0.000000
  outer loop
   vertex 2.900000 8.600000 18.000000
   vertex 2.900000 8.600000 23.000000
   vertex 2.900000 5.700000 18.000000
  endloop
 endfacet
 facet normal 1.000000 -0.000000 0.000000
  outer loop
   vertex 2.900000 5.700000 23.000000
   vertex 2.900000 5.700000 18.000000
   vertex 2.900000 8.600000 23.000000
  endloop
 endfacet
 facet normal 0.000000 1.000000 -0.000000
  outer loop
   vertex 11.600000 5.700000 18.000000
   vertex 2.900000 5.700000 18.000000
   vertex 11.600000 5.700000 23.000000
  endloop
 endfacet
 facet normal -0.000000 1.000000 0.000000
  outer loop
   vertex 2.900000 5.700000 23.000000
   vertex 11.600000 5.700000 23.000000
   vertex 2.900000 5.700000 18.000000
  endloop
 endfacet
 facet normal -1.000000 0.000000 0.000000
  outer loop
   vertex 11.600000 5.700000 18.000000
   vertex 11.600000 5.700000 23.000000
   vertex 11.600000 9.200000 18.000000
  endloop
 endfacet
 facet normal -1.000000 -0.000000 -0.000000
  outer loop
   vertex 11.600000 9.200000 23.000000
   vertex 11.600000 9.200000 18.000000
   vertex 11.600000 5.700000 23.000000
  endloop
 endfacet
 facet normal 0.000000 1.000000 0.000000
  outer loop
   vertex 11.600000 9.200000 18.000000
   vertex 11.600000 9.200000 23.000000
   vertex 14.400000 9.200000 18.000000
  endloop
 endfacet
 facet normal 0.000000 1.000000 0.000000
  outer loop
   vertex 14.400000 9.200000 23.000000
   vertex 14.400000 9.200000 18.000000
   vertex 11.600000 9.200000 23.000000
  endloop
 endfacet
 facet normal -1.000000 0.000000 0.000000
  outer loop
   vertex 14.400000 9.200000 18.000000
   vertex 14.400000 9.200000 23.000000
   vertex 14.400000 13.700000 18.000000
  endloop
 endfacet
 facet normal -1.000000 -0.000000 -0.000000
  outer loop
   vertex 14.400000 13.700000 23.000000
   vertex 14.400000 13.700000 18.000000
   vertex 14.400000 9.200000 23.000000
  endloop
 endfacet
 facet normal 0.000000 -1.000000 0.000000
  outer loop
   vertex 14.400000 13.700000 18.000000
   vertex 14.400000 13.700000 23.000000
   vertex 11.600000 13.700000 18.000000
  endloop
 endfacet
 facet normal 0.000000 -1.000000 0.000000
  outer loop
   vertex 11.600000 13.700000 23.000000
   vertex 11.600000 13.700000 18.000000
   vertex 14.400000 13.700000 23.000000
  endloop
 endfacet
 facet normal -1.000000 0.000000 0.000000
  outer loop
   vertex 11.600000 13.700000 18.000000
   vertex 11.600000 13.700000 23.000000
   vertex 11.600000 17.299999 18.000000
  endloop
 endfacet
 facet normal -1.000000 -0.000000 -0.000000
  outer loop
   vertex 11.600000 17.299999 23.000000
   vertex 11.600000 17.299999 18.000000
   vertex 11.600000 13.700000 23.000000
  endloop
 endfacet
 facet normal 0.000000 -1.000000 0.000000
  outer loop
   vertex 2.900000 17.299999 18.000000
   vertex 11.600000 17.299999 18.000000
   vertex 2.900000 17.299999 23.000000
  endloop
 endfacet
 facet normal -0.000000 -1.000000 -0.000000
  outer loop
   vertex 11.600000 17.299999 23.000000
   vertex 2.900000 17.299999 23.000000
   vertex 11.600000 17.299999 18.000000
  endloop
 endfacet
 facet normal 1.000000 0.000000 -0.000000
  outer loop
   vertex 2.900000 17.299999 18.000000
   vertex 2.900000 17.299999 23.000000
   vertex 2.900000 14.400000 18.000000
  endloop
 endfacet
 facet normal 1.000000 -0.000000 0.000000
  outer loop
   vertex 2.900000 14.400000 23.000000
   vertex 2.900000 14.400000 18.000000
   vertex 2.900000 17.299999 23.000000
  endloop
 endfacet
 facet normal 0.000000 1.000000 -0.000000
  outer loop
   vertex 20.200001 14.400000 18.000000
   vertex 14.400000 14.400000 18.000000
   vertex 20.200001 14.400000 23.000000
  endloop
 endfacet
 facet normal -0.000000 1.000000 0.000000
  outer loop
   vertex 14.400000 14.400000 23.000000
   vertex 20.200001 14.400000 23.000000
   vertex 14.400000 14.400000 18.000000
  endloop
 endfacet
 facet normal -1.000000 0.000000 0.000000
  outer loop
   vertex 20.200001 20.200001 20.500000
   vertex 20.200001 17.700001 20.500000
   vertex 20.200001 20.200001 23.000000
  endloop
 endfacet
 facet normal -1.000000 0.000000 0.000000
  outer loop
   vertex 20.200001 17.700001 18.000000
   vertex 20.200001 14.400000 18.000000
   vertex 20.200001 17.700001 20.500000
  endloop
 endfacet
 facet normal -1.000000 0.000000 0.000000
  outer loop
   vertex 20.200001 20.200001 23.000000
   vertex 20.200001 17.700001 20.500000
   vertex 20.200001 14.400000 18.000000
  endloop
 endfacet
 facet normal -1.000000 0.000000 0.000000
  outer loop
   vertex 20.200001 14.400000 23.000000
   vertex 20.200001 20.200001 23.000000
   vertex 20.200001 14.400000 18.000000
  endloop
 endfacet
 facet normal 0.000000 -1.000000 0.000000
  outer loop
   vertex 14.400000 20.200001 18.000000
   vertex 18.000000 20.200001 18.000000
   vertex 14.400000 20.200001 23.000000
  endloop
 endfacet
 facet normal 0.000000 -1.000000 0.000000
  outer loop
   vertex 14.400000 20.200001 23.000000
   vertex 18.000000 20.200001 18.000000
   vertex 18.000000 20.200001 20.500000
  endloop
 endfacet
 facet normal 0.000000 -1.000000 0.000000
  outer loop
   vertex 14.400000 20.200001 23.000000
   vertex 18.000000 20.200001 20.500000
   vertex 20.200001 20.200001 20.500000
  endloop
 endfacet
 facet normal -0.000000 -1.000000 -0.000000
  outer loop
   vertex 20.200001 20.200001 23.000000
   vertex 14.400000 20.200001 23.000000
   vertex 20.200001 20.200001 20.500000
  endloop
 endfacet
 facet normal 1.000000 0.000000 0.000000
  outer loop
   vertex 14.400000 14.400000 18.000000
   vertex 14.400000 20.200001 18.000000
   vertex 14.400000 14.400000 23.000000
  endloop
 endfacet
 facet normal 1.000000 0.000000 0.000000
  outer loop
   vertex 14.400000 20.200001 23.000000
   vertex 14.400000 14.400000 23.000000
   vertex 14.400000 20.200001 18.000000
  endloop
 endfacet
 facet normal 0.000000 -1.000000 0.000000
  outer loop
   vertex 14.400000 8.600000 18.000000
   vertex 20.200001 8.600000 18.000000
   vertex 14.400000 8.600000 23.000000
  endloop
 endfacet
 facet normal -0.000000 -1.000000 -0.000000
  outer loop
   vertex 20.200001 8.600000 23.000000
   vertex 14.400000 8.600000 23.000000
   vertex 20.200001 8.600000 18.000000
  endloop
 endfacet
 facet normal 1.000000 0.000000 0.000000
  outer loop
   vertex 14.400000 2.800000 18.000000
   vertex 14.400000 8.600000 18.000000
   vertex 14.400000 2.800000 23.000000
  endloop
 endfacet
 facet normal 1.000000 0.000000 0.000000
  outer loop
   vertex 14.400000 8.600000 23.000000
   vertex 14.400000 2.800000 23.000000
   vertex 14.400000 8.600000 18.000000
  endloop
 endfacet
 facet normal 0.000000 1.000000 -0.000000
  outer loop
   vertex 20.200001 2.800000 20.500000
   vertex 18.000000 2.800000 20.500000
   vertex 20.200001 2.800000 23.000000
  endloop
 endfacet
 facet normal 0.000000 1.000000 -0.000000
  outer loop
   vertex 18.000000 2.800000 18.000000
   vertex 14.400000 2.800000 18.000000
   vertex 18.000000 2.800000 20.500000
  endloop
 endfacet
 facet normal 0.000000 1.000000 0.000000
  outer loop
   vertex 20.200001 2.800000 23.000000
   vertex 18.000000 2.800000 20.500000
   vertex 14.400000 2.800000 18.000000
  endloop
 endfacet
 facet normal -0.000000 1.000000 0.000000
  outer loop
   vertex 14.400000 2.800000 23.000000
   vertex 20.200001 2.800000 23.000000
   vertex 14.400000 2.800000 18.000000
  endloop
 endfacet
 facet normal -1.000000 0.000000 0.000000
  outer loop
   vertex 20.200001 8.600000 18.000000
   vertex 20.200001 5.300000 18.000000
   vertex 20.200001 8.600000 23.000000
  endloop
 endfacet
 facet normal -1.000000 0.000000 0.000000
  outer loop
   vertex 20.200001 8.600000 23.000000
   vertex 20.200001 5.300000 18.000000
   vertex 20.200001 5.300000 20.500000
  endloop
 endfacet
 facet normal -1.000000 0.000000 0.000000
  outer loop
   vertex 20.200001 8.600000 23.000000
   vertex 20.200001 5.300000 20.500000
   vertex 20.200001 2.800000 20.500000
  endloop
 endfacet
 facet normal -1.000000 0.000000 0.000000
  outer loop
   vertex 20.200001 2.800000 23.000000
   vertex 20.200001 8.600000 23.000000
   vertex 20.200001 2.800000 20.500000
  endloop
 endfacet
 facet normal -0.000000 0.000000 1.000000
  outer loop
   vertex 18.000000 20.200001 20.500000
   vertex 18.000000 17.700001 20.500000
   vertex 20.200001 20.200001 20.500000
  endloop
 endfacet
 facet normal 0.000000 -0.000000 1.000000
  outer loop
   vertex 20.200001 17.700001 20.500000
   vertex 20.200001 20.200001 20.500000
   vertex 18.000000 17.700001 20.500000
  endloop
 endfacet
 facet normal -0.000000 0.000000 1.000000
  outer loop
   vertex 18.000000 5.300000 20.500000
   vertex 18.000000 2.800000 20.500000
   vertex 20.200001 5.300000 20.500000
  endloop
 endfacet
 facet normal 0.000000 -0.000000 1.000000
  outer loop
   vertex 20.200001 2.800000 20.500000
   vertex 20.200001 5.300000 20.500000
   vertex 18.000000 2.800000 20.500000
  endloop
 endfacet
 facet normal -1.000000 -0.000000 -0.000000
  outer loop
   vertex 18.000000 20.200001 20.500000
   vertex 18.000000 20.200001 18.000000
   vertex 18.000000 17.700001 20.500000
  endloop
 endfacet
 facet normal -1.000000 0.000000 0.000000
  outer loop
   vertex 18.000000 17.700001 18.000000
   vertex 18.000000 17.700001 20.500000
   vertex 18.000000 20.200001 18.000000
  endloop
 endfacet
 facet normal 0.000000 -1.000000 0.000000
  outer loop
   vertex 18.000000 17.700001 20.500000
   vertex 18.000000 17.700001 18.000000
   vertex 20.200001 17.700001 20.500000
  endloop
 endfacet
 facet normal 0.000000 -1.000000 0.000000
  outer loop
   vertex 20.200001 17.700001 18.000000
   vertex 20.200001 17.700001 20.500000
   vertex 18.000000 17.700001 18.000000
  endloop
 endfacet
 facet normal 0.000000 1.000000 0.000000
  outer loop
   vertex 20.200001 5.300000 20.500000
   vertex 20.200001 5.300000 18.000000
   vertex 18.000000 5.300000 20.500000
  endloop
 endfacet
 facet normal 0.000000 1.000000 0.000000
  outer loop
   vertex 18.000000 5.300000 18.000000
   vertex 18.000000 5.300000 20.500000
   vertex 20.200001 5.300000 18.000000
  endloop
 endfacet
 facet normal -1.000000 0.000000 0.000000
  outer loop
   vertex 18.000000 2.800000 20.500000
   vertex 18.000000 5.300000 20.500000
   vertex 18.000000 2.800000 18.000000
  endloop
 endfacet
 facet normal -1.000000 0.000000 0.000000
  outer loop
   vertex 18.000000 5.300000 18.000000
   vertex 18.000000 2.800000 18.000000
   vertex 18.000000 5.300000 20.500000
  endloop
 endfacet
 facet normal -0.000000 -0.996730 -0.080809
  outer loop
   vertex 10.000000 14.500000 11.500000
   vertex 10.000000 14.461500 11.974870
   vertex 0.000000 14.500000 11.500000
  endloop
 endfacet
 facet normal 0.000000 -0.996730 -0.080809
  outer loop
   vertex 0.000000 14.461500 11.974870
   vertex 0.000000 14.500000 11.500000
   vertex 10.000000 14.461500 11.974870
  endloop
 endfacet
 facet normal -0.000000 -0.972482 -0.232980
  outer loop
   vertex 10.000000 14.461500 11.974870
   vertex 10.000000 14.353170 12.427050
   vertex 0.000000 14.461500 11.974870
  endloop
 endfacet
 facet normal 0.000000 -0.972482 -0.232980
  outer loop
   vertex 0.000000 14.353170 12.427050
   vertex 0.000000 14.461500 11.974870
   vertex 10.000000 14.353170 12.427050
  endloop
 endfacet
 facet normal -0.000000 -0.923324 -0.384023
  outer loop
   vertex 10.000000 14.353170 12.427050
   vertex 10.000000 14.172410 12.861660
   vertex 0.000000 14.353170 12.427050
  endloop
 endfacet
 facet normal 0.000000 -0.923324 -0.384023
  outer loop
   vertex 0.000000 14.172410 12.861660
   vertex 0.000000 14.353170 12.427050
   vertex 10.000000 14.172410 12.861660
  endloop
 endfacet
 facet normal -0.000000 -0.853398 -0.521260
  outer loop
   vertex 10.000000 14.172410 12.861660
   vertex 10.000000 13.927050 13.263360
   vertex 0.000000 14.172410 12.861660
  endloop
 endfacet
 facet normal 0.000000 -0.853398 -0.521260
  outer loop
   vertex 0.000000 13.927050 13.263360
   vertex 0.000000 14.172410 12.861660
   vertex 10.000000 13.927050 13.263360
  endloop
 endfacet
 facet normal -0.000000 -0.759468 -0.650544
  outer loop
   vertex 10.000000 13.927050 13.263360
   vertex 10.000000 13.620840 13.620840
   vertex 0.000000 13.927050 13.263360
  endloop
 endfacet
 facet normal 0.000000 -0.759468 -0.650544
  outer loop
   vertex 0.000000 13.620840 13.620840
   vertex 0.000000 13.927050 13.263360
   vertex 10.000000 13.620840 13.620840
  endloop
 endfacet
 facet normal -0.000000 -0.650544 -0.759468
  outer loop
   vertex 10.000000 13.620840 13.620840
   vertex 10.000000 13.263360 13.927050
   vertex 0.000000 13.620840 13.620840
  endloop
 endfacet
 facet normal 0.000000 -0.650544 -0.759468
  outer loop
   vertex 0.000000 13.263360 13.927050
   vertex 0.000000 13.620840 13.620840
   vertex 10.000000 13.263360 13.927050
  endloop
 endfacet
 facet normal -0.000000 -0.521260 -0.853398
  outer loop
   vertex 10.000000 13.263360 13.927050
   vertex 10.000000 12.861660 14.172410
   vertex 0.000000 13.263360 13.927050
  endloop
 endfacet
 facet normal 0.000000 -0.521260 -0.853398
  outer loop
   vertex 0.000000 12.861660 14.172410
   vertex 0.000000 13.263360 13.927050
   vertex 10.000000 12.861660 14.172410
  endloop
 endfacet
 facet normal -0.000000 -0.384023 -0.923324
  outer loop
   vertex 10.000000 12.861660 14.172410
   vertex 10.000000 12.427050 14.353170
   vertex 0.000000 12.861660 14.172410
  endloop
 endfacet
 facet normal 0.000000 -0.384023 -0.923324
  outer loop
   vertex 0.000000 12.427050 14.353170
   vertex 0.000000 12.861660 14.172410
   vertex 10.000000 12.427050 14.353170
  endloop
 endfacet
 facet normal -0.000000 -0.232038 -0.972707
  outer loop
   vertex 10.000000 12.427050 14.353170
   vertex 10.000000 11.969200 14.462390
   vertex 0.000000 12.427050 14.353170
  endloop
 endfacet
 facet normal 0.000000 -0.232038 -0.972707
  outer loop
   vertex 0.000000 11.969200 14.462390
   vertex 0.000000 12.427050 14.353170
   vertex 10.000000 11.969200 14.462390
  endloop
 endfacet
 facet normal -0.000000 -0.079902 -0.996803
  outer loop
   vertex 10.000000 11.969200 14.462390
   vertex 10.000000 11.500000 14.500000
   vertex 0.000000 11.969200 14.462390
  endloop
 endfacet
 facet normal 0.000000 -0.079902 -0.996803
  outer loop
   vertex 0.000000 11.500000 14.500000
   vertex 0.000000 11.969200 14.462390
   vertex 10.000000 11.500000 14.500000
  endloop
 endfacet
 facet normal 0.000000 0.079902 -0.996803
  outer loop
   vertex 10.000000 11.500000 14.500000
   vertex 10.000000 11.030800 14.462390
   vertex 0.000000 11.500000 14.500000
  endloop
 endfacet
 facet normal 0.000000 0.079902 -0.996803
  outer loop
   vertex 0.000000 11.030800 14.462390
   vertex 0.000000 11.500000 14.500000
   vertex 10.000000 11.030800 14.462390
  endloop
 endfacet
 facet normal 0.000000 0.232038 -0.972707
  outer loop
   vertex 10.000000 11.030800 14.462390
   vertex 10.000000 10.572950 14.353170
   vertex 0.000000 11.030800 14.462390
  endloop
 endfacet
 facet normal 0.000000 0.232038 -0.972707
  outer loop
   vertex 0.000000 10.572950 14.353170
   vertex 0.000000 11.030800 14.462390
   vertex 10.000000 10.572950 14.353170
  endloop
 endfacet
 facet normal 0.000000 0.384023 -0.923324
  outer loop
   vertex 10.000000 10.572950 14.353170
   vertex 10.000000 10.138340 14.172410
   vertex 0.000000 10.572950 14.353170
  endloop
 endfacet
 facet normal 0.000000 0.384023 -0.923324
  outer loop
   vertex 0.000000 10.138340 14.172410
   vertex 0.000000 10.572950 14.353170
   vertex 10.000000 10.138340 14.172410
  endloop
 endfacet
 facet normal 0.000000 0.521263 -0.853396
  outer loop
   vertex 10.000000 10.138340 14.172410
   vertex 10.000000 9.736644 13.927050
   vertex 0.000000 10.138340 14.172410
  endloop
 endfacet
 facet normal 0.000000 0.521263 -0.853396
  outer loop
   vertex 0.000000 9.736644 13.927050
   vertex 0.000000 10.138340 14.172410
   vertex 10.000000 9.736644 13.927050
  endloop
 endfacet
 facet normal 0.000000 0.650540 -0.759472
  outer loop
   vertex 10.000000 9.736644 13.927050
   vertex 10.000000 9.379160 13.620840
   vertex 0.000000 9.736644 13.927050
  endloop
 endfacet
 facet normal 0.000000 0.650540 -0.759472
  outer loop
   vertex 0.000000 9.379160 13.620840
   vertex 0.000000 9.736644 13.927050
   vertex 10.000000 9.379160 13.620840
  endloop
 endfacet
 facet normal 0.000000 0.759468 -0.650545
  outer loop
   vertex 10.000000 9.379160 13.620840
   vertex 10.000000 9.072949 13.263360
   vertex 0.000000 9.379160 13.620840
  endloop
 endfacet
 facet normal 0.000000 0.759468 -0.650545
  outer loop
   vertex 0.000000 9.072949 13.263360
   vertex 0.000000 9.379160 13.620840
   vertex 10.000000 9.072949 13.263360
  endloop
 endfacet
 facet normal 0.000000 0.853395 -0.521264
  outer loop
   vertex 10.000000 9.072949 13.263360
   vertex 10.000000 8.827586 12.861660
   vertex 0.000000 9.072949 13.263360
  endloop
 endfacet
 facet normal 0.000000 0.853395 -0.521264
  outer loop
   vertex 0.000000 8.827586 12.861660
   vertex 0.000000 9.072949 13.263360
   vertex 10.000000 8.827586 12.861660
  endloop
 endfacet
 facet normal 0.000000 0.923327 -0.384014
  outer loop
   vertex 10.000000 8.827586 12.861660
   vertex 10.000000 8.646831 12.427050
   vertex 0.000000 8.827586 12.861660
  endloop
 endfacet
 facet normal 0.000000 0.923327 -0.384014
  outer loop
   vertex 0.000000 8.646831 12.427050
   vertex 0.000000 8.827586 12.861660
   vertex 10.000000 8.646831 12.427050
  endloop
 endfacet
 facet normal 0.000000 0.972483 -0.232974
  outer loop
   vertex 10.000000 8.646831 12.427050
   vertex 10.000000 8.538504 11.974870
   vertex 0.000000 8.646831 12.427050
  endloop
 endfacet
 facet normal 0.000000 0.972483 -0.232974
  outer loop
   vertex 0.000000 8.538504 11.974870
   vertex 0.000000 8.646831 12.427050
   vertex 10.000000 8.538504 11.974870
  endloop
 endfacet
 facet normal 0.000000 0.996729 -0.080817
  outer loop
   vertex 10.000000 8.538504 11.974870
   vertex 10.000000 8.500000 11.500000
   vertex 0.000000 8.538504 11.974870
  endloop
 endfacet
 facet normal 0.000000 0.996729 -0.080817
  outer loop
   vertex 0.000000 8.500000 11.500000
   vertex 0.000000 8.538504 11.974870
   vertex 10.000000 8.500000 11.500000
  endloop
 endfacet
 facet normal 0.000000 0.996729 0.080817
  outer loop
   vertex 10.000000 8.500000 11.500000
   vertex 10.000000 8.538504 11.025130
   vertex 0.000000 8.500000 11.500000
  endloop
 endfacet
 facet normal -0.000000 0.996729 0.080817
  outer loop
   vertex 0.000000 8.538504 11.025130
   vertex 0.000000 8.500000 11.500000
   vertex 10.000000 8.538504 11.025130
  endloop
 endfacet
 facet normal 0.000000 0.972483 0.232974
  outer loop
   vertex 10.000000 8.538504 11.025130
   vertex 10.000000 8.646831 10.572950
   vertex 0.000000 8.538504 11.025130
  endloop
 endfacet
 facet normal -0.000000 0.972483 0.232974
  outer loop
   vertex 0.000000 8.646831 10.572950
   vertex 0.000000 8.538504 11.025130
   vertex 10.000000 8.646831 10.572950
  endloop
 endfacet
 facet normal 0.000000 0.923327 0.384014
  outer loop
   vertex 10.000000 8.646831 10.572950
   vertex 10.000000 8.827586 10.138340
   vertex 0.000000 8.646831 10.572950
  endloop
 endfacet
 facet normal -0.000000 0.923327 0.384014
  outer loop
   vertex 0.000000 8.827586 10.138340
   vertex 0.000000 8.646831 10.572950
   vertex 10.000000 8.827586 10.138340
  endloop
 endfacet
 facet normal 0.000000 0.853393 0.521268
  outer loop
   vertex 10.000000 8.827586 10.138340
   vertex 10.000000 9.072949 9.736644
   vertex 0.000000 8.827586 10.138340
  endloop
 endfacet
 facet normal -0.000000 0.853393 0.521268
  outer loop
   vertex 0.000000 9.072949 9.736644
   vertex 0.000000 8.827586 10.138340
   vertex 10.000000 9.072949 9.736644
  endloop
 endfacet
 facet normal 0.000000 0.759471 0.650541
  outer loop
   vertex 10.000000 9.072949 9.736644
   vertex 10.000000 9.379160 9.379160
   vertex 0.000000 9.072949 9.736644
  endloop
 endfacet
 facet normal -0.000000 0.759471 0.650541
  outer loop
   vertex 0.000000 9.379160 9.379160
   vertex 0.000000 9.072949 9.736644
   vertex 10.000000 9.379160 9.379160
  endloop
 endfacet
 facet normal 0.000000 0.650541 0.759471
  outer loop
   vertex 10.000000 9.379160 9.379160
   vertex 10.000000 9.736644 9.072949
   vertex 0.000000 9.379160 9.379160
  endloop
 endfacet
 facet normal -0.000000 0.650541 0.759471
  outer loop
   vertex 0.000000 9.736644 9.072949
   vertex 0.000000 9.379160 9.379160
   vertex 10.000000 9.736644 9.072949
  endloop
 endfacet
 facet normal 0.000000 0.521268 0.853393
  outer loop
   vertex 10.000000 9.736644 9.072949
   vertex 10.000000 10.138340 8.827586
   vertex 0.000000 9.736644 9.072949
  endloop
 endfacet
 facet normal -0.000000 0.521268 0.853393
  outer loop
   vertex 0.000000 10.138340 8.827586
   vertex 0.000000 9.736644 9.072949
   vertex 10.000000 10.138340 8.827586
  endloop
 endfacet
 facet normal 0.000000 0.384014 0.923327
  outer loop
   vertex 10.000000 10.138340 8.827586
   vertex 10.000000 10.572950 8.646831
   vertex 0.000000 10.138340 8.827586
  endloop
 endfacet
 facet normal -0.000000 0.384014 0.923327
  outer loop
   vertex 0.000000 10.572950 8.646831
   vertex 0.000000 10.138340 8.827586
   vertex 10.000000 10.572950 8.646831
  endloop
 endfacet
 facet normal 0.000000 0.232048 0.972704
  outer loop
   vertex 10.000000 10.572950 8.646831
   vertex 10.000000 11.030800 8.537606
   vertex 0.000000 10.572950 8.646831
  endloop
 endfacet
 facet normal -0.000000 0.232048 0.972704
  outer loop
   vertex 0.000000 11.030800 8.537606
   vertex 0.000000 10.572950 8.646831
   vertex 10.000000 11.030800 8.537606
  endloop
 endfacet
 facet normal 0.000000 0.079893 0.996803
  outer loop
   vertex 10.000000 11.030800 8.537606
   vertex 10.000000 11.500000 8.500000
   vertex 0.000000 11.030800 8.537606
  endloop
 endfacet
 facet normal -0.000000 0.079893 0.996803
  outer loop
   vertex 0.000000 11.500000 8.500000
   vertex 0.000000 11.030800 8.537606
   vertex 10.000000 11.500000 8.500000
  endloop
 endfacet
 facet normal 0.000000 -0.079893 0.996803
  outer loop
   vertex 10.000000 11.500000 8.500000
   vertex 10.000000 11.969200 8.537606
   vertex 0.000000 11.500000 8.500000
  endloop
 endfacet
 facet normal 0.000000 -0.079893 0.996803
  outer loop
   vertex 0.000000 11.969200 8.537606
   vertex 0.000000 11.500000 8.500000
   vertex 10.000000 11.969200 8.537606
  endloop
 endfacet
 facet normal 0.000000 -0.232048 0.972704
  outer loop
   vertex 10.000000 11.969200 8.537606
   vertex 10.000000 12.427050 8.646831
   vertex 0.000000 11.969200 8.537606
  endloop
 endfacet
 facet normal 0.000000 -0.232048 0.972704
  outer loop
   vertex 0.000000 12.427050 8.646831
   vertex 0.000000 11.969200 8.537606
   vertex 10.000000 12.427050 8.646831
  endloop
 endfacet
 facet normal 0.000000 -0.384014 0.923327
  outer loop
   vertex 10.000000 12.427050 8.646831
   vertex 10.000000 12.861660 8.827586
   vertex 0.000000 12.427050 8.646831
  endloop
 endfacet
 facet normal 0.000000 -0.384014 0.923327
  outer loop
   vertex 0.000000 12.861660 8.827586
   vertex 0.000000 12.427050 8.646831
   vertex 10.000000 12.861660 8.827586
  endloop
 endfacet
 facet normal 0.000000 -0.521264 0.853395
  outer loop
   vertex 10.000000 12.861660 8.827586
   vertex 10.000000 13.263360 9.072949
   vertex 0.000000 12.861660 8.827586
  endloop
 endfacet
 facet normal 0.000000 -0.521264 0.853395
  outer loop
   vertex 0.000000 13.263360 9.072949
   vertex 0.000000 12.861660 8.827586
   vertex 10.000000 13.263360 9.072949
  endloop
 endfacet
 facet normal 0.000000 -0.650545 0.759468
  outer loop
   vertex 10.000000 13.263360 9.072949
   vertex 10.000000 13.620840 9.379160
   vertex 0.000000 13.263360 9.072949
  endloop
 endfacet
 facet normal 0.000000 -0.650545 0.759468
  outer loop
   vertex 0.000000 13.620840 9.379160
   vertex 0.000000 13.263360 9.072949
   vertex 10.000000 13.620840 9.379160
  endloop
 endfacet
 facet normal 0.000000 -0.759472 0.650540
  outer loop
   vertex 10.000000 13.620840 9.379160
   vertex 10.000000 13.927050 9.736644
   vertex 0.000000 13.620840 9.379160
  endloop
 endfacet
 facet normal 0.000000 -0.759472 0.650540
  outer loop
   vertex 0.000000 13.927050 9.736644
   vertex 0.000000 13.620840 9.379160
   vertex 10.000000 13.927050 9.736644
  endloop
 endfacet
 facet normal 0.000000 -0.853396 0.521263
  outer loop
   vertex 10.000000 13.927050 9.736644
   vertex 10.000000 14.172410 10.138340
   vertex 0.000000 13.927050 9.736644
  endloop
 endfacet
 facet normal 0.000000 -0.853396 0.521263
  outer loop
   vertex 0.000000 14.172410 10.138340
   vertex 0.000000 13.927050 9.736644
   vertex 10.000000 14.172410 10.138340
  endloop
 endfacet
 facet normal 0.000000 -0.923324 0.384023
  outer loop
   vertex 10.000000 14.172410 10.138340
   vertex 10.000000 14.353170 10.572950
   vertex 0.000000 14.172410 10.138340
  endloop
 endfacet
 facet normal 0.000000 -0.923324 0.384023
  outer loop
   vertex 0.000000 14.353170 10.572950
   vertex 0.000000 14.172410 10.138340
   vertex 10.000000 14.353170 10.572950
  endloop
 endfacet
 facet normal 0.000000 -0.972482 0.232980
  outer loop
   vertex 10.000000 14.353170 10.572950
   vertex 10.000000 14.461500 11.025130
   vertex 0.000000 14.353170 10.572950
  endloop
 endfacet
 facet normal 0.000000 -0.972482 0.232980
  outer loop
   vertex 0.000000 14.461500 11.025130
   vertex 0.000000 14.353170 10.572950
   vertex 10.000000 14.461500 11.025130
  endloop
 endfacet
 facet normal 0.000000 -0.996730 0.080809
  outer loop
   vertex 10.000000 14.461500 11.025130
   vertex 10.000000 14.500000 11.500000
   vertex 0.000000 14.461500 11.025130
  endloop
 endfacet
 facet normal 0.000000 -0.996730 0.080809
  outer loop
   vertex 0.000000 14.500000 11.500000
   vertex 0.000000 14.461500 11.025130
   vertex 10.000000 14.500000 11.500000
  endloop
 endfacet
 facet normal 1.000000 0.000000 -0.000000
  outer loop
   vertex 10.000000 11.815650 6.510478
   vertex 10.000000 12.435120 6.588450
   vertex 10.000000 11.184350 6.510478
  endloop
 endfacet
 facet normal 1.000000 -0.000000 0.000000
  outer loop
   vertex 10.000000 10.564880 6.588450
   vertex 10.000000 11.184350 6.510478
   vertex 10.000000 12.435120 6.588450
  endloop
 endfacet
 facet normal 1.000000 0.000000 -0.000000
  outer loop
   vertex 10.000000 12.435120 6.588450
   vertex 10.000000 13.045760 6.745686
   vertex 10.000000 10.564880 6.588450
  endloop
 endfacet
 facet normal 1.000000 -0.000000 0.000000
  outer loop
   vertex 10.000000 9.954243 6.745686
   vertex 10.000000 10.564880 6.588450
   vertex 10.000000 13.045760 6.745686
  endloop
 endfacet
 facet normal 1.000000 0.000000 -0.000000
  outer loop
   vertex 10.000000 13.045760 6.745686
   vertex 10.000000 13.628270 6.975590
   vertex 10.000000 9.954243 6.745686
  endloop
 endfacet
 facet normal 1.000000 -0.000000 0.000000
  outer loop
   vertex 10.000000 9.371730 6.975590
   vertex 10.000000 9.954243 6.745686
   vertex 10.000000 13.628270 6.975590
  endloop
 endfacet
 facet normal 1.000000 0.000000 -0.000000
  outer loop
   vertex 10.000000 13.628270 6.975590
   vertex 10.000000 14.178560 7.278908
   vertex 10.000000 9.371730 6.975590
  endloop
 endfacet
 facet normal 1.000000 -0.000000 0.000000
  outer loop
   vertex 10.000000 8.821445 7.278908
   vertex 10.000000 9.371730 6.975590
   vertex 10.000000 14.178560 7.278908
  endloop
 endfacet
 facet normal 1.000000 0.000000 -0.000000
  outer loop
   vertex 10.000000 14.178560 7.278908
   vertex 10.000000 14.688000 7.648250
   vertex 10.000000 8.821445 7.278908
  endloop
 endfacet
 facet normal 1.000000 -0.000000 0.000000
  outer loop
   vertex 10.000000 8.311998 7.648250
   vertex 10.000000 8.821445 7.278908
   vertex 10.000000 14.688000 7.648250
  endloop
 endfacet
 facet normal 1.000000 0.000000 -0.000000
  outer loop
   vertex 10.000000 14.688000 7.648250
   vertex 10.000000 15.143500 8.076795
   vertex 10.000000 8.311998 7.648250
  endloop
 endfacet
 facet normal 1.000000 -0.000000 0.000000
  outer loop
   vertex 10.000000 7.856499 8.076795
   vertex 10.000000 8.311998 7.648250
   vertex 10.000000 15.143500 8.076795
  endloop
 endfacet
 facet normal 1.000000 0.000000 0.000000
  outer loop
   vertex 10.000000 15.545930 8.562773
   vertex 10.000000 11.969200 8.537606
   vertex 10.000000 11.500000 8.500000
  endloop
 endfacet
 facet normal 1.000000 0.000000 0.000000
  outer loop
   vertex 10.000000 15.545930 8.562773
   vertex 10.000000 11.500000 8.500000
   vertex 10.000000 7.856499 8.076795
  endloop
 endfacet
 facet normal 1.000000 0.000000 -0.000000
  outer loop
   vertex 10.000000 15.143500 8.076795
   vertex 10.000000 15.545930 8.562773
   vertex 10.000000 7.856499 8.076795
  endloop
 endfacet
 facet normal 1.000000 0.000000 0.000000
  outer loop
   vertex 10.000000 7.856499 8.076795
   vertex 10.000000 11.500000 8.500000
   vertex 10.000000 11.030800 8.537606
  endloop
 endfacet
 facet normal 1.000000 0.000000 0.000000
  outer loop
   vertex 10.000000 7.454072 8.562773
   vertex 10.000000 7.856499 8.076795
   vertex 10.000000 11.030800 8.537606
  endloop
 endfacet
 facet normal 1.000000 0.000000 0.000000
  outer loop
   vertex 10.000000 12.427050 8.646831
   vertex 10.000000 11.969200 8.537606
   vertex 10.000000 15.545930 8.562773
  endloop
 endfacet
 facet normal 1.000000 0.000000 0.000000
  outer loop
   vertex 10.000000 11.030800 8.537606
   vertex 10.000000 10.572950 8.646831
   vertex 10.000000 7.454072 8.562773
  endloop
 endfacet
 facet normal 1.000000 0.000000 0.000000
  outer loop
   vertex 10.000000 15.880280 9.089809
   vertex 10.000000 13.263360 9.072949
   vertex 10.000000 12.861660 8.827586
  endloop
 endfacet
 facet normal 1.000000 0.000000 0.000000
  outer loop
   vertex 10.000000 15.880280 9.089809
   vertex 10.000000 12.861660 8.827586
   vertex 10.000000 12.427050 8.646831
  endloop
 endfacet
 facet normal 1.000000 0.000000 -0.000000
  outer loop
   vertex 10.000000 15.545930 8.562773
   vertex 10.000000 15.880280 9.089809
   vertex 10.000000 12.427050 8.646831
  endloop
 endfacet
 facet normal 1.000000 0.000000 0.000000
  outer loop
   vertex 10.000000 7.454072 8.562773
   vertex 10.000000 10.572950 8.646831
   vertex 10.000000 10.138340 8.827586
  endloop
 endfacet
 facet normal 1.000000 0.000000 0.000000
  outer loop
   vertex 10.000000 7.454072 8.562773
   vertex 10.000000 10.138340 8.827586
   vertex 10.000000 9.736644 9.072949
  endloop
 endfacet
 facet normal 1.000000 0.000000 0.000000
  outer loop
   vertex 10.000000 7.119719 9.089809
   vertex 10.000000 7.454072 8.562773
   vertex 10.000000 9.736644 9.072949
  endloop
 endfacet
 facet normal 1.000000 0.000000 0.000000
  outer loop
   vertex 10.000000 13.620840 9.379160
   vertex 10.000000 13.263360 9.072949
   vertex 10.000000 15.880280 9.089809
  endloop
 endfacet
 facet normal 1.000000 0.000000 0.000000
  outer loop
   vertex 10.000000 9.736644 9.072949
   vertex 10.000000 9.379160 9.379160
   vertex 10.000000 7.119719 9.089809
  endloop
 endfacet
 facet normal 1.000000 0.000000 -0.000000
  outer loop
   vertex 10.000000 15.880280 9.089809
   vertex 10.000000 16.148899 9.661016
   vertex 10.000000 13.620840 9.379160
  endloop
 endfacet
 facet normal 1.000000 0.000000 0.000000
  outer loop
   vertex 10.000000 6.851099 9.661016
   vertex 10.000000 7.119719 9.089809
   vertex 10.000000 9.379160 9.379160
  endloop
 endfacet
 facet normal 1.000000 0.000000 0.000000
  outer loop
   vertex 10.000000 13.927050 9.736644
   vertex 10.000000 13.620840 9.379160
   vertex 10.000000 16.148899 9.661016
  endloop
 endfacet
 facet normal 1.000000 0.000000 0.000000
  outer loop
   vertex 10.000000 9.379160 9.379160
   vertex 10.000000 9.072949 9.736644
   vertex 10.000000 6.851099 9.661016
  endloop
 endfacet
 facet normal 1.000000 0.000000 0.000000
  outer loop
   vertex 10.000000 16.342291 10.254350
   vertex 10.000000 14.172410 10.138340
   vertex 10.000000 13.927050 9.736644
  endloop
 endfacet
 facet normal 1.000000 0.000000 -0.000000
  outer loop
   vertex 10.000000 16.148899 9.661016
   vertex 10.000000 16.342291 10.254350
   vertex 10.000000 13.927050 9.736644
  endloop
 endfacet
 facet normal 1.000000 0.000000 0.000000
  outer loop
   vertex 10.000000 6.851099 9.661016
   vertex 10.000000 9.072949 9.736644
   vertex 10.000000 8.827586 10.138340
  endloop
 endfacet
 facet normal 1.000000 0.000000 0.000000
  outer loop
   vertex 10.000000 6.657709 10.254350
   vertex 10.000000 6.851099 9.661016
   vertex 10.000000 8.827586 10.138340
  endloop
 endfacet
 facet normal 1.000000 0.000000 0.000000
  outer loop
   vertex 10.000000 14.353170 10.572950
   vertex 10.000000 14.172410 10.138340
   vertex 10.000000 16.342291 10.254350
  endloop
 endfacet
 facet normal 1.000000 0.000000 0.000000
  outer loop
   vertex 10.000000 8.827586 10.138340
   vertex 10.000000 8.646831 10.572950
   vertex 10.000000 6.657709 10.254350
  endloop
 endfacet
 facet normal 1.000000 0.000000 -0.000000
  outer loop
   vertex 10.000000 16.342291 10.254350
   vertex 10.000000 16.458771 10.866130
   vertex 10.000000 14.353170 10.572950
  endloop
 endfacet
 facet normal 1.000000 0.000000 0.000000
  outer loop
   vertex 10.000000 6.541232 10.866130
   vertex 10.000000 6.657709 10.254350
   vertex 10.000000 8.646831 10.572950
  endloop
 endfacet
 facet normal 1.000000 0.000000 0.000000
  outer loop
   vertex 10.000000 14.461500 11.025130
   vertex 10.000000 14.353170 10.572950
   vertex 10.000000 16.458771 10.866130
  endloop
 endfacet
 facet normal 1.000000 0.000000 0.000000
  outer loop
   vertex 10.000000 8.646831 10.572950
   vertex 10.000000 8.538504 11.025130
   vertex 10.000000 6.541232 10.866130
  endloop
 endfacet
 facet normal 1.000000 0.000000 -0.000000
  outer loop
   vertex 10.000000 16.458771 10.866130
   vertex 10.000000 16.500000 11.500000
   vertex 10.000000 14.461500 11.025130
  endloop
 endfacet
 facet normal 1.000000 -0.000000 0.000000
  outer loop
   vertex 10.000000 14.500000 11.500000
   vertex 10.000000 14.461500 11.025130
   vertex 10.000000 16.500000 11.500000
  endloop
 endfacet
 facet normal 1.000000 0.000000 0.000000
  outer loop
   vertex 10.000000 6.541232 10.866130
   vertex 10.000000 8.538504 11.025130
   vertex 10.000000 8.500000 11.500000
  endloop
 endfacet
 facet normal 1.000000 -0.000000 0.000000
  outer loop
   vertex 10.000000 6.500000 11.500000
   vertex 10.000000 6.541232 10.866130
   vertex 10.000000 8.500000 11.500000
  endloop
 endfacet
 facet normal 1.000000 0.000000 -0.000000
  outer loop
   vertex 10.000000 8.500000 11.500000
   vertex 10.000000 8.538504 11.974870
   vertex 10.000000 6.500000 11.500000
  endloop
 endfacet
 facet normal 1.000000 0.000000 0.000000
  outer loop
   vertex 10.000000 16.458771 12.133870
   vertex 10.000000 14.461500 11.974870
   vertex 10.000000 14.500000 11.500000
  endloop
 endfacet
 facet normal 1.000000 0.000000 0.000000
  outer loop
   vertex 10.000000 16.500000 11.500000
   vertex 10.000000 16.458771 12.133870
   vertex 10.000000 14.500000 11.500000
  endloop
 endfacet
 facet normal 1.000000 0.000000 0.000000
  outer loop
   vertex 10.000000 6.541232 12.133870
   vertex 10.000000 6.500000 11.500000
   vertex 10.000000 8.538504 11.974870
  endloop
 endfacet
 facet normal 1.000000 0.000000 0.000000
  outer loop
   vertex 10.000000 14.353170 12.427050
   vertex 10.000000 14.461500 11.974870
   vertex 10.000000 16.458771 12.133870
  endloop
 endfacet
 facet normal 1.000000 0.000000 -0.000000
  outer loop
   vertex 10.000000 8.538504 11.974870
   vertex 10.000000 8.646831 12.427050
   vertex 10.000000 6.541232 12.133870
  endloop
 endfacet
 facet normal 1.000000 0.000000 0.000000
  outer loop
   vertex 10.000000 16.458771 12.133870
   vertex 10.000000 16.342291 12.745650
   vertex 10.000000 14.353170 12.427050
  endloop
 endfacet
 facet normal 1.000000 0.000000 0.000000
  outer loop
   vertex 10.000000 6.657709 12.745650
   vertex 10.000000 6.541232 12.133870
   vertex 10.000000 8.646831 12.427050
  endloop
 endfacet
 facet normal 1.000000 0.000000 0.000000
  outer loop
   vertex 10.000000 14.172410 12.861660
   vertex 10.000000 14.353170 12.427050
   vertex 10.000000 16.342291 12.745650
  endloop
 endfacet
 facet normal 1.000000 0.000000 -0.000000
  outer loop
   vertex 10.000000 8.646831 12.427050
   vertex 10.000000 8.827586 12.861660
   vertex 10.000000 6.657709 12.745650
  endloop
 endfacet
 facet normal 1.000000 0.000000 0.000000
  outer loop
   vertex 10.000000 16.148899 13.338980
   vertex 10.000000 13.927050 13.263360
   vertex 10.000000 14.172410 12.861660
  endloop
 endfacet
 facet normal 1.000000 0.000000 0.000000
  outer loop
   vertex 10.000000 16.342291 12.745650
   vertex 10.000000 16.148899 13.338980
   vertex 10.000000 14.172410 12.861660
  endloop
 endfacet
 facet normal 1.000000 0.000000 0.000000
  outer loop
   vertex 10.000000 6.657709 12.745650
   vertex 10.000000 8.827586 12.861660
   vertex 10.000000 9.072949 13.263360
  endloop
 endfacet
 facet normal 1.000000 0.000000 0.000000
  outer loop
   vertex 10.000000 6.851099 13.338980
   vertex 10.000000 6.657709 12.745650
   vertex 10.000000 9.072949 13.263360
  endloop
 endfacet
 facet normal 1.000000 0.000000 0.000000
  outer loop
   vertex 10.000000 13.620840 13.620840
   vertex 10.000000 13.927050 13.263360
   vertex 10.000000 16.148899 13.338980
  endloop
 endfacet
 facet normal 1.000000 0.000000 -0.000000
  outer loop
   vertex 10.000000 9.072949 13.263360
   vertex 10.000000 9.379160 13.620840
   vertex 10.000000 6.851099 13.338980
  endloop
 endfacet
 facet normal 1.000000 0.000000 0.000000
  outer loop
   vertex 10.000000 16.148899 13.338980
   vertex 10.000000 15.880280 13.910190
   vertex 10.000000 13.620840 13.620840
  endloop
 endfacet
 facet normal 1.000000 0.000000 0.000000
  outer loop
   vertex 10.000000 7.119719 13.910190
   vertex 10.000000 6.851099 13.338980
   vertex 10.000000 9.379160 13.620840
  endloop
 endfacet
 facet normal 1.000000 0.000000 0.000000
  outer loop
   vertex 10.000000 13.263360 13.927050
   vertex 10.000000 13.620840 13.620840
   vertex 10.000000 15.880280 13.910190
  endloop
 endfacet
 facet normal 1.000000 0.000000 -0.000000
  outer loop
   vertex 10.000000 9.379160 13.620840
   vertex 10.000000 9.736644 13.927050
   vertex 10.000000 7.119719 13.910190
  endloop
 endfacet
 facet normal 1.000000 0.000000 0.000000
  outer loop
   vertex 10.000000 15.545930 14.437230
   vertex 10.000000 12.427050 14.353170
   vertex 10.000000 12.861660 14.172410
  endloop
 endfacet
 facet normal 1.000000 0.000000 0.000000
  outer loop
   vertex 10.000000 15.545930 14.437230
   vertex 10.000000 12.861660 14.172410
   vertex 10.000000 13.263360 13.927050
  endloop
 endfacet
 facet normal 1.000000 0.000000 0.000000
  outer loop
   vertex 10.000000 15.880280 13.910190
   vertex 10.000000 15.545930 14.437230
   vertex 10.000000 13.263360 13.927050
  endloop
 endfacet
 facet normal 1.000000 0.000000 0.000000
  outer loop
   vertex 10.000000 7.119719 13.910190
   vertex 10.000000 9.736644 13.927050
   vertex 10.000000 10.138340 14.172410
  endloop
 endfacet
 facet normal 1.000000 0.000000 0.000000
  outer loop
   vertex 10.000000 7.119719 13.910190
   vertex 10.000000 10.138340 14.172410
   vertex 10.000000 10.572950 14.353170
  endloop
 endfacet
 facet normal 1.000000 0.000000 0.000000
  outer loop
   vertex 10.000000 7.454072 14.437230
   vertex 10.000000 7.119719 13.910190
   vertex 10.000000 10.572950 14.353170
  endloop
 endfacet
 facet normal 1.000000 0.000000 0.000000
  outer loop
   vertex 10.000000 11.969200 14.462390
   vertex 10.000000 12.427050 14.353170
   vertex 10.000000 15.545930 14.437230
  endloop
 endfacet
 facet normal 1.000000 0.000000 -0.000000
  outer loop
   vertex 10.000000 10.572950 14.353170
   vertex 10.000000 11.030800 14.462390
   vertex 10.000000 7.454072 14.437230
  endloop
 endfacet
 facet normal 1.000000 0.000000 0.000000
  outer loop
   vertex 10.000000 15.143500 14.923200
   vertex 10.000000 11.500000 14.500000
   vertex 10.000000 11.969200 14.462390
  endloop
 endfacet
 facet normal 1.000000 0.000000 0.000000
  outer loop
   vertex 10.000000 15.545930 14.437230
   vertex 10.000000 15.143500 14.923200
   vertex 10.000000 11.969200 14.462390
  endloop
 endfacet
 facet normal 1.000000 0.000000 0.000000
  outer loop
   vertex 10.000000 7.454072 14.437230
   vertex 10.000000 11.030800 14.462390
   vertex 10.000000 11.500000 14.500000
  endloop
 endfacet
 facet normal 1.000000 0.000000 0.000000
  outer loop
   vertex 10.000000 7.454072 14.437230
   vertex 10.000000 11.500000 14.500000
   vertex 10.000000 15.143500 14.923200
  endloop
 endfacet
 facet normal 1.000000 -0.000000 0.000000
  outer loop
   vertex 10.000000 7.856499 14.923200
   vertex 10.000000 7.454072 14.437230
   vertex 10.000000 15.143500 14.923200
  endloop
 endfacet
 facet normal 1.000000 0.000000 0.000000
  outer loop
   vertex 10.000000 15.143500 14.923200
   vertex 10.000000 14.688000 15.351750
   vertex 10.000000 7.856499 14.923200
  endloop
 endfacet
 facet normal 1.000000 -0.000000 0.000000
  outer loop
   vertex 10.000000 8.311998 15.351750
   vertex 10.000000 7.856499 14.923200
   vertex 10.000000 14.688000 15.351750
  endloop
 endfacet
 facet normal 1.000000 0.000000 0.000000
  outer loop
   vertex 10.000000 14.688000 15.351750
   vertex 10.000000 14.178560 15.721090
   vertex 10.000000 8.311998 15.351750
  endloop
 endfacet
 facet normal 1.000000 -0.000000 0.000000
  outer loop
   vertex 10.000000 8.821445 15.721090
   vertex 10.000000 8.311998 15.351750
   vertex 10.000000 14.178560 15.721090
  endloop
 endfacet
 facet normal 1.000000 0.000000 0.000000
  outer loop
   vertex 10.000000 14.178560 15.721090
   vertex 10.000000 13.628270 16.024410
   vertex 10.000000 8.821445 15.721090
  endloop
 endfacet
 facet normal 1.000000 -0.000000 0.000000
  outer loop
   vertex 10.000000 9.371730 16.024410
   vertex 10.000000 8.821445 15.721090
   vertex 10.000000 13.628270 16.024410
  endloop
 endfacet
 facet normal 1.000000 0.000000 0.000000
  outer loop
   vertex 10.000000 13.628270 16.024410
   vertex 10.000000 13.045760 16.254311
   vertex 10.000000 9.371730 16.024410
  endloop
 endfacet
 facet normal 1.000000 -0.000000 0.000000
  outer loop
   vertex 10.000000 9.954243 16.254311
   vertex 10.000000 9.371730 16.024410
   vertex 10.000000 13.045760 16.254311
  endloop
 endfacet
 facet normal 1.000000 0.000000 0.000000
  outer loop
   vertex 10.000000 13.045760 16.254311
   vertex 10.000000 12.435120 16.411551
   vertex 10.000000 9.954243 16.254311
  endloop
 endfacet
 facet normal 1.000000 -0.000000 0.000000
  outer loop
   vertex 10.000000 10.564880 16.411551
   vertex 10.000000 9.954243 16.254311
   vertex 10.000000 12.435120 16.411551
  endloop
 endfacet
 facet normal 1.000000 0.000000 0.000000
  outer loop
   vertex 10.000000 12.435120 16.411551
   vertex 10.000000 11.815650 16.489519
   vertex 10.000000 10.564880 16.411551
  endloop
 endfacet
 facet normal 1.000000 -0.000000 0.000000
  outer loop
   vertex 10.000000 11.184350 16.489519
   vertex 10.000000 10.564880 16.411551
   vertex 10.000000 11.815650 16.489519
  endloop
 endfacet
 facet normal -1.000000 -0.000000 -0.000000
  outer loop
   vertex 15.000000 11.815650 16.489519
   vertex 15.000000 12.435120 16.411551
   vertex 15.000000 11.184350 16.489519
  endloop
 endfacet
 facet normal -1.000000 0.000000 0.000000
  outer loop
   vertex 15.000000 10.564880 16.411551
   vertex 15.000000 11.184350 16.489519
   vertex 15.000000 12.435120 16.411551
  endloop
 endfacet
 facet normal -1.000000 -0.000000 -0.000000
  outer loop
   vertex 15.000000 12.435120 16.411551
   vertex 15.000000 13.045760 16.254311
   vertex 15.000000 10.564880 16.411551
  endloop
 endfacet
 facet normal -1.000000 0.000000 0.000000
  outer loop
   vertex 15.000000 9.954243 16.254311
   vertex 15.000000 10.564880 16.411551
   vertex 15.000000 13.045760 16.254311
  endloop
 endfacet
 facet normal -1.000000 -0.000000 -0.000000
  outer loop
   vertex 15.000000 13.045760 16.254311
   vertex 15.000000 13.628270 16.024410
   vertex 15.000000 9.954243 16.254311
  endloop
 endfacet
 facet normal -1.000000 0.000000 0.000000
  outer loop
   vertex 15.000000 9.371730 16.024410
   vertex 15.000000 9.954243 16.254311
   vertex 15.000000 13.628270 16.024410
  endloop
 endfacet
 facet normal -1.000000 -0.000000 -0.000000
  outer loop
   vertex 15.000000 13.628270 16.024410
   vertex 15.000000 14.178560 15.721090
   vertex 15.000000 9.371730 16.024410
  endloop
 endfacet
 facet normal -1.000000 0.000000 0.000000
  outer loop
   vertex 15.000000 8.821445 15.721090
   vertex 15.000000 9.371730 16.024410
   vertex 15.000000 14.178560 15.721090
  endloop
 endfacet
 facet normal -1.000000 -0.000000 -0.000000
  outer loop
   vertex 15.000000 14.178560 15.721090
   vertex 15.000000 14.688000 15.351750
   vertex 15.000000 8.821445 15.721090
  endloop
 endfacet
 facet normal -1.000000 0.000000 0.000000
  outer loop
   vertex 15.000000 8.311998 15.351750
   vertex 15.000000 8.821445 15.721090
   vertex 15.000000 14.688000 15.351750
  endloop
 endfacet
 facet normal -1.000000 -0.000000 -0.000000
  outer loop
   vertex 15.000000 14.688000 15.351750
   vertex 15.000000 15.143500 14.923200
   vertex 15.000000 8.311998 15.351750
  endloop
 endfacet
 facet normal -1.000000 0.000000 0.000000
  outer loop
   vertex 15.000000 7.856499 14.923200
   vertex 15.000000 8.311998 15.351750
   vertex 15.000000 15.143500 14.923200
  endloop
 endfacet
 facet normal -1.000000 -0.000000 -0.000000
  outer loop
   vertex 15.000000 15.143500 14.923200
   vertex 15.000000 15.545930 14.437230
   vertex 15.000000 7.856499 14.923200
  endloop
 endfacet
 facet normal -1.000000 0.000000 0.000000
  outer loop
   vertex 15.000000 7.454072 14.437230
   vertex 15.000000 7.856499 14.923200
   vertex 15.000000 15.545930 14.437230
  endloop
 endfacet
 facet normal -1.000000 -0.000000 -0.000000
  outer loop
   vertex 15.000000 15.545930 14.437230
   vertex 15.000000 15.880280 13.910190
   vertex 15.000000 7.454072 14.437230
  endloop
 endfacet
 facet normal -1.000000 0.000000 0.000000
  outer loop
   vertex 15.000000 7.119719 13.910190
   vertex 15.000000 7.454072 14.437230
   vertex 15.000000 15.880280 13.910190
  endloop
 endfacet
 facet normal -1.000000 -0.000000 -0.000000
  outer loop
   vertex 15.000000 15.880280 13.910190
   vertex 15.000000 16.148899 13.338980
   vertex 15.000000 7.119719 13.910190
  endloop
 endfacet
 facet normal -1.000000 0.000000 0.000000
  outer loop
   vertex 15.000000 6.851099 13.338980
   vertex 15.000000 7.119719 13.910190
   vertex 15.000000 16.148899 13.338980
  endloop
 endfacet
 facet normal -1.000000 -0.000000 -0.000000
  outer loop
   vertex 15.000000 16.148899 13.338980
   vertex 15.000000 16.342291 12.745650
   vertex 15.000000 6.851099 13.338980
  endloop
 endfacet
 facet normal -1.000000 0.000000 0.000000
  outer loop
   vertex 15.000000 6.657709 12.745650
   vertex 15.000000 6.851099 13.338980
   vertex 15.000000 16.342291 12.745650
  endloop
 endfacet
 facet normal -1.000000 -0.000000 -0.000000
  outer loop
   vertex 15.000000 16.342291 12.745650
   vertex 15.000000 16.458771 12.133870
   vertex 15.000000 6.657709 12.745650
  endloop
 endfacet
 facet normal -1.000000 0.000000 0.000000
  outer loop
   vertex 15.000000 6.541232 12.133870
   vertex 15.000000 6.657709 12.745650
   vertex 15.000000 16.458771 12.133870
  endloop
 endfacet
 facet normal -1.000000 -0.000000 -0.000000
  outer loop
   vertex 15.000000 16.458771 12.133870
   vertex 15.000000 16.500000 11.500000
   vertex 15.000000 6.541232 12.133870
  endloop
 endfacet
 facet normal -1.000000 0.000000 0.000000
  outer loop
   vertex 15.000000 6.500000 11.500000
   vertex 15.000000 6.541232 12.133870
   vertex 15.000000 16.500000 11.500000
  endloop
 endfacet
 facet normal -1.000000 -0.000000 0.000000
  outer loop
   vertex 15.000000 16.500000 11.500000
   vertex 15.000000 16.458771 10.866130
   vertex 15.000000 6.500000 11.500000
  endloop
 endfacet
 facet normal -1.000000 0.000000 0.000000
  outer loop
   vertex 15.000000 6.541232 10.866130
   vertex 15.000000 6.500000 11.500000
   vertex 15.000000 16.458771 10.866130
  endloop
 endfacet
 facet normal -1.000000 -0.000000 0.000000
  outer loop
   vertex 15.000000 16.458771 10.866130
   vertex 15.000000 16.342291 10.254350
   vertex 15.000000 6.541232 10.866130
  endloop
 endfacet
 facet normal -1.000000 0.000000 0.000000
  outer loop
   vertex 15.000000 6.657709 10.254350
   vertex 15.000000 6.541232 10.866130
   vertex 15.000000 16.342291 10.254350
  endloop
 endfacet
 facet normal -1.000000 -0.000000 0.000000
  outer loop
   vertex 15.000000 16.342291 10.254350
   vertex 15.000000 16.148899 9.661016
   vertex 15.000000 6.657709 10.254350
  endloop
 endfacet
 facet normal -1.000000 0.000000 0.000000
  outer loop
   vertex 15.000000 6.851099 9.661016
   vertex 15.000000 6.657709 10.254350
   vertex 15.000000 16.148899 9.661016
  endloop
 endfacet
 facet normal -1.000000 -0.000000 0.000000
  outer loop
   vertex 15.000000 16.148899 9.661016
   vertex 15.000000 15.880280 9.089809
   vertex 15.000000 6.851099 9.661016
  endloop
 endfacet
 facet normal -1.000000 0.000000 0.000000
  outer loop
   vertex 15.000000 7.119719 9.089809
   vertex 15.000000 6.851099 9.661016
   vertex 15.000000 15.880280 9.089809
  endloop
 endfacet
 facet normal -1.000000 -0.000000 0.000000
  outer loop
   vertex 15.000000 15.880280 9.089809
   vertex 15.000000 15.545930 8.562773
   vertex 15.000000 7.119719 9.089809
  endloop
 endfacet
 facet normal -1.000000 0.000000 0.000000
  outer loop
   vertex 15.000000 7.454072 8.562773
   vertex 15.000000 7.119719 9.089809
   vertex 15.000000 15.545930 8.562773
  endloop
 endfacet
 facet normal -1.000000 -0.000000 0.000000
  outer loop
   vertex 15.000000 15.545930 8.562773
   vertex 15.000000 15.143500 8.076795
   vertex 15.000000 7.454072 8.562773
  endloop
 endfacet
 facet normal -1.000000 0.000000 0.000000
  outer loop
   vertex 15.000000 7.856499 8.076795
   vertex 15.000000 7.454072 8.562773
   vertex 15.000000 15.143500 8.076795
  endloop
 endfacet
 facet normal -1.000000 -0.000000 0.000000
  outer loop
   vertex 15.000000 15.143500 8.076795
   vertex 15.000000 14.688000 7.648250
   vertex 15.000000 7.856499 8.076795
  endloop
 endfacet
 facet normal -1.000000 0.000000 0.000000
  outer loop
   vertex 15.000000 8.311998 7.648250
   vertex 15.000000 7.856499 8.076795
   vertex 15.000000 14.688000 7.648250
  endloop
 endfacet
 facet normal -1.000000 -0.000000 0.000000
  outer loop
   vertex 15.000000 14.688000 7.648250
   vertex 15.000000 14.178560 7.278908
   vertex 15.000000 8.311998 7.648250
  endloop
 endfacet
 facet normal -1.000000 0.000000 0.000000
  outer loop
   vertex 15.000000 8.821445 7.278908
   vertex 15.000000 8.311998 7.648250
   vertex 15.000000 14.178560 7.278908
  endloop
 endfacet
 facet normal -1.000000 -0.000000 0.000000
  outer loop
   vertex 15.000000 14.178560 7.278908
   vertex 15.000000 13.628270 6.975590
   vertex 15.000000 8.821445 7.278908
  endloop
 endfacet
 facet normal -1.000000 0.000000 0.000000
  outer loop
   vertex 15.000000 9.371730 6.975590
   vertex 15.000000 8.821445 7.278908
   vertex 15.000000 13.628270 6.975590
  endloop
 endfacet
 facet normal -1.000000 -0.000000 0.000000
  outer loop
   vertex 15.000000 13.628270 6.975590
   vertex 15.000000 13.045760 6.745686
   vertex 15.000000 9.371730 6.975590
  endloop
 endfacet
 facet normal -1.000000 0.000000 0.000000
  outer loop
   vertex 15.000000 9.954243 6.745686
   vertex 15.000000 9.371730 6.975590
   vertex 15.000000 13.045760 6.745686
  endloop
 endfacet
 facet normal -1.000000 -0.000000 0.000000
  outer loop
   vertex 15.000000 13.045760 6.745686
   vertex 15.000000 12.435120 6.588450
   vertex 15.000000 9.954243 6.745686
  endloop
 endfacet
 facet normal -1.000000 0.000000 0.000000
  outer loop
   vertex 15.000000 10.564880 6.588450
   vertex 15.000000 9.954243 6.745686
   vertex 15.000000 12.435120 6.588450
  endloop
 endfacet
 facet normal -1.000000 -0.000000 0.000000
  outer loop
   vertex 15.000000 12.435120 6.588450
   vertex 15.000000 11.815650 6.510478
   vertex 15.000000 10.564880 6.588450
  endloop
 endfacet
 facet normal -1.000000 0.000000 0.000000
  outer loop
   vertex 15.000000 11.184350 6.510478
   vertex 15.000000 10.564880 6.588450
   vertex 15.000000 11.815650 6.510478
  endloop
 endfacet
 facet normal -0.000000 -0.997891 -0.064907
  outer loop
   vertex 15.000000 16.500000 11.500000
   vertex 15.000000 16.458771 12.133870
   vertex 10.000000 16.500000 11.500000
  endloop
 endfacet
 facet normal 0.000000 -0.997891 -0.064907
  outer loop
   vertex 10.000000 16.458771 12.133870
   vertex 10.000000 16.500000 11.500000
   vertex 15.000000 16.458771 12.133870
  endloop
 endfacet
 facet normal -0.000000 -0.982353 -0.187035
  outer loop
   vertex 15.000000 16.458771 12.133870
   vertex 15.000000 16.342291 12.745650
   vertex 10.000000 16.458771 12.133870
  endloop
 endfacet
 facet normal 0.000000 -0.982353 -0.187035
  outer loop
   vertex 10.000000 16.342291 12.745650
   vertex 10.000000 16.458771 12.133870
   vertex 15.000000 16.342291 12.745650
  endloop
 endfacet
 facet normal -0.000000 -0.950770 -0.309897
  outer loop
   vertex 15.000000 16.342291 12.745650
   vertex 15.000000 16.148899 13.338980
   vertex 10.000000 16.342291 12.745650
  endloop
 endfacet
 facet normal 0.000000 -0.950770 -0.309897
  outer loop
   vertex 10.000000 16.148899 13.338980
   vertex 10.000000 16.342291 12.745650
   vertex 15.000000 16.148899 13.338980
  endloop
 endfacet
 facet normal -0.000000 -0.904932 -0.425557
  outer loop
   vertex 15.000000 16.148899 13.338980
   vertex 15.000000 15.880280 13.910190
   vertex 10.000000 16.148899 13.338980
  endloop
 endfacet
 facet normal 0.000000 -0.904932 -0.425557
  outer loop
   vertex 10.000000 15.880280 13.910190
   vertex 10.000000 16.148899 13.338980
   vertex 15.000000 15.880280 13.910190
  endloop
 endfacet
 facet normal -0.000000 -0.844415 -0.535689
  outer loop
   vertex 15.000000 15.880280 13.910190
   vertex 15.000000 15.545930 14.437230
   vertex 10.000000 15.880280 13.910190
  endloop
 endfacet
 facet normal 0.000000 -0.844415 -0.535689
  outer loop
   vertex 10.000000 15.545930 14.437230
   vertex 10.000000 15.880280 13.910190
   vertex 15.000000 15.545930 14.437230
  endloop
 endfacet
 facet normal -0.000000 -0.770201 -0.637801
  outer loop
   vertex 15.000000 15.545930 14.437230
   vertex 15.000000 15.143500 14.923200
   vertex 10.000000 15.545930 14.437230
  endloop
 endfacet
 facet normal 0.000000 -0.770201 -0.637801
  outer loop
   vertex 10.000000 15.143500 14.923200
   vertex 10.000000 15.545930 14.437230
   vertex 15.000000 15.143500 14.923200
  endloop
 endfacet
 facet normal -0.000000 -0.685233 -0.728324
  outer loop
   vertex 15.000000 15.143500 14.923200
   vertex 15.000000 14.688000 15.351750
   vertex 10.000000 15.143500 14.923200
  endloop
 endfacet
 facet normal 0.000000 -0.685233 -0.728324
  outer loop
   vertex 10.000000 14.688000 15.351750
   vertex 10.000000 15.143500 14.923200
   vertex 15.000000 14.688000 15.351750
  endloop
 endfacet
 facet normal -0.000000 -0.586964 -0.809613
  outer loop
   vertex 15.000000 14.688000 15.351750
   vertex 15.000000 14.178560 15.721090
   vertex 10.000000 14.688000 15.351750
  endloop
 endfacet
 facet normal 0.000000 -0.586964 -0.809613
  outer loop
   vertex 10.000000 14.178560 15.721090
   vertex 10.000000 14.688000 15.351750
   vertex 15.000000 14.178560 15.721090
  endloop
 endfacet
 facet normal -0.000000 -0.482725 -0.875772
  outer loop
   vertex 15.000000 14.178560 15.721090
   vertex 15.000000 13.628270 16.024410
   vertex 10.000000 14.178560 15.721090
  endloop
 endfacet
 facet normal 0.000000 -0.482725 -0.875772
  outer loop
   vertex 10.000000 13.628270 16.024410
   vertex 10.000000 14.178560 15.721090
   vertex 15.000000 13.628270 16.024410
  endloop
 endfacet
 facet normal -0.000000 -0.367114 -0.930176
  outer loop
   vertex 15.000000 13.628270 16.024410
   vertex 15.000000 13.045760 16.254311
   vertex 10.000000 13.628270 16.024410
  endloop
 endfacet
 facet normal 0.000000 -0.367114 -0.930176
  outer loop
   vertex 10.000000 13.045760 16.254311
   vertex 10.000000 13.628270 16.024410
   vertex 15.000000 13.045760 16.254311
  endloop
 endfacet
 facet normal -0.000000 -0.249365 -0.968409
  outer loop
   vertex 15.000000 13.045760 16.254311
   vertex 15.000000 12.435120 16.411551
   vertex 10.000000 13.045760 16.254311
  endloop
 endfacet
 facet normal 0.000000 -0.249365 -0.968409
  outer loop
   vertex 10.000000 12.435120 16.411551
   vertex 10.000000 13.045760 16.254311
   vertex 15.000000 12.435120 16.411551
  endloop
 endfacet
 facet normal -0.000000 -0.124878 -0.992172
  outer loop
   vertex 15.000000 12.435120 16.411551
   vertex 15.000000 11.815650 16.489519
   vertex 10.000000 12.435120 16.411551
  endloop
 endfacet
 facet normal 0.000000 -0.124878 -0.992172
  outer loop
   vertex 10.000000 11.815650 16.489519
   vertex 10.000000 12.435120 16.411551
   vertex 15.000000 11.815650 16.489519
  endloop
 endfacet
 facet normal -0.000000 -0.000000 -1.000000
  outer loop
   vertex 15.000000 11.815650 16.489519
   vertex 15.000000 11.184350 16.489519
   vertex 10.000000 11.815650 16.489519
  endloop
 endfacet
 facet normal 0.000000 0.000000 -1.000000
  outer loop
   vertex 10.000000 11.184350 16.489519
   vertex 10.000000 11.815650 16.489519
   vertex 15.000000 11.184350 16.489519
  endloop
 endfacet
 facet normal 0.000000 0.124878 -0.992172
  outer loop
   vertex 15.000000 11.184350 16.489519
   vertex 15.000000 10.564880 16.411551
   vertex 10.000000 11.184350 16.489519
  endloop
 endfacet
 facet normal 0.000000 0.124878 -0.992172
  outer loop
   vertex 10.000000 10.564880 16.411551
   vertex 10.000000 11.184350 16.489519
   vertex 15.000000 10.564880 16.411551
  endloop
 endfacet
 facet normal 0.000000 0.249367 -0.968409
  outer loop
   vertex 15.000000 10.564880 16.411551
   vertex 15.000000 9.954243 16.254311
   vertex 10.000000 10.564880 16.411551
  endloop
 endfacet
 facet normal 0.000000 0.249367 -0.968409
  outer loop
   vertex 10.000000 9.954243 16.254311
   vertex 10.000000 10.564880 16.411551
   vertex 15.000000 9.954243 16.254311
  endloop
 endfacet
 facet normal 0.000000 0.367113 -0.930176
  outer loop
   vertex 15.000000 9.954243 16.254311
   vertex 15.000000 9.371730 16.024410
   vertex 10.000000 9.954243 16.254311
  endloop
 endfacet
 facet normal 0.000000 0.367113 -0.930176
  outer loop
   vertex 10.000000 9.371730 16.024410
   vertex 10.000000 9.954243 16.254311
   vertex 15.000000 9.371730 16.024410
  endloop
 endfacet
 facet normal 0.000000 0.482729 -0.875770
  outer loop
   vertex 15.000000 9.371730 16.024410
   vertex 15.000000 8.821445 15.721090
   vertex 10.000000 9.371730 16.024410
  endloop
 endfacet
 facet normal 0.000000 0.482729 -0.875770
  outer loop
   vertex 10.000000 8.821445 15.721090
   vertex 10.000000 9.371730 16.024410
   vertex 15.000000 8.821445 15.721090
  endloop
 endfacet
 facet normal 0.000000 0.586958 -0.809617
  outer loop
   vertex 15.000000 8.821445 15.721090
   vertex 15.000000 8.311998 15.351750
   vertex 10.000000 8.821445 15.721090
  endloop
 endfacet
 facet normal 0.000000 0.586958 -0.809617
  outer loop
   vertex 10.000000 8.311998 15.351750
   vertex 10.000000 8.821445 15.721090
   vertex 15.000000 8.311998 15.351750
  endloop
 endfacet
 facet normal 0.000000 0.685234 -0.728323
  outer loop
   vertex 15.000000 8.311998 15.351750
   vertex 15.000000 7.856499 14.923200
   vertex 10.000000 8.311998 15.351750
  endloop
 endfacet
 facet normal 0.000000 0.685234 -0.728323
  outer loop
   vertex 10.000000 7.856499 14.923200
   vertex 10.000000 8.311998 15.351750
   vertex 15.000000 7.856499 14.923200
  endloop
 endfacet
 facet normal 0.000000 0.770203 -0.637799
  outer loop
   vertex 15.000000 7.856499 14.923200
   vertex 15.000000 7.454072 14.437230
   vertex 10.000000 7.856499 14.923200
  endloop
 endfacet
 facet normal 0.000000 0.770203 -0.637799
  outer loop
   vertex 10.000000 7.454072 14.437230
   vertex 10.000000 7.856499 14.923200
   vertex 15.000000 7.454072 14.437230
  endloop
 endfacet
 facet normal 0.000000 0.844413 -0.535693
  outer loop
   vertex 15.000000 7.454072 14.437230
   vertex 15.000000 7.119719 13.910190
   vertex 10.000000 7.454072 14.437230
  endloop
 endfacet
 facet normal 0.000000 0.844413 -0.535693
  outer loop
   vertex 10.000000 7.119719 13.910190
   vertex 10.000000 7.454072 14.437230
   vertex 15.000000 7.119719 13.910190
  endloop
 endfacet
 facet normal 0.000000 0.904931 -0.425558
  outer loop
   vertex 15.000000 7.119719 13.910190
   vertex 15.000000 6.851099 13.338980
   vertex 10.000000 7.119719 13.910190
  endloop
 endfacet
 facet normal 0.000000 0.904931 -0.425558
  outer loop
   vertex 10.000000 6.851099 13.338980
   vertex 10.000000 7.119719 13.910190
   vertex 15.000000 6.851099 13.338980
  endloop
 endfacet
 facet normal 0.000000 0.950771 -0.309894
  outer loop
   vertex 15.000000 6.851099 13.338980
   vertex 15.000000 6.657709 12.745650
   vertex 10.000000 6.851099 13.338980
  endloop
 endfacet
 facet normal 0.000000 0.950771 -0.309894
  outer loop
   vertex 10.000000 6.657709 12.745650
   vertex 10.000000 6.851099 13.338980
   vertex 15.000000 6.657709 12.745650
  endloop
 endfacet
 facet normal 0.000000 0.982354 -0.187031
  outer loop
   vertex 15.000000 6.657709 12.745650
   vertex 15.000000 6.541232 12.133870
   vertex 10.000000 6.657709 12.745650
  endloop
 endfacet
 facet normal 0.000000 0.982354 -0.187031
  outer loop
   vertex 10.000000 6.541232 12.133870
   vertex 10.000000 6.657709 12.745650
   vertex 15.000000 6.541232 12.133870
  endloop
 endfacet
 facet normal 0.000000 0.997891 -0.064911
  outer loop
   vertex 15.000000 6.541232 12.133870
   vertex 15.000000 6.500000 11.500000
   vertex 10.000000 6.541232 12.133870
  endloop
 endfacet
 facet normal 0.000000 0.997891 -0.064911
  outer loop
   vertex 10.000000 6.500000 11.500000
   vertex 10.000000 6.541232 12.133870
   vertex 15.000000 6.500000 11.500000
  endloop
 endfacet
 facet normal 0.000000 0.997891 0.064911
  outer loop
   vertex 15.000000 6.500000 11.500000
   vertex 15.000000 6.541232 10.866130
   vertex 10.000000 6.500000 11.500000
  endloop
 endfacet
 facet normal -0.000000 0.997891 0.064911
  outer loop
   vertex 10.000000 6.541232 10.866130
   vertex 10.000000 6.500000 11.500000
   vertex 15.000000 6.541232 10.866130
  endloop
 endfacet
 facet normal 0.000000 0.982354 0.187031
  outer loop
   vertex 15.000000 6.541232 10.866130
   vertex 15.000000 6.657709 10.254350
   vertex 10.000000 6.541232 10.866130
  endloop
 endfacet
 facet normal -0.000000 0.982354 0.187031
  outer loop
   vertex 10.000000 6.657709 10.254350
   vertex 10.000000 6.541232 10.866130
   vertex 15.000000 6.657709 10.254350
  endloop
 endfacet
 facet normal 0.000000 0.950772 0.309893
  outer loop
   vertex 15.000000 6.657709 10.254350
   vertex 15.000000 6.851099 9.661016
   vertex 10.000000 6.657709 10.254350
  endloop
 endfacet
 facet normal -0.000000 0.950772 0.309893
  outer loop
   vertex 10.000000 6.851099 9.661016
   vertex 10.000000 6.657709 10.254350
   vertex 15.000000 6.851099 9.661016
  endloop
 endfacet
 facet normal 0.000000 0.904931 0.425559
  outer loop
   vertex 15.000000 6.851099 9.661016
   vertex 15.000000 7.119719 9.089809
   vertex 10.000000 6.851099 9.661016
  endloop
 endfacet
 facet normal -0.000000 0.904931 0.425559
  outer loop
   vertex 10.000000 7.119719 9.089809
   vertex 10.000000 6.851099 9.661016
   vertex 15.000000 7.119719 9.089809
  endloop
 endfacet
 facet normal 0.000000 0.844411 0.535696
  outer loop
   vertex 15.000000 7.119719 9.089809
   vertex 15.000000 7.454072 8.562773
   vertex 10.000000 7.119719 9.089809
  endloop
 endfacet
 facet normal -0.000000 0.844411 0.535696
  outer loop
   vertex 10.000000 7.454072 8.562773
   vertex 10.000000 7.119719 9.089809
   vertex 15.000000 7.454072 8.562773
  endloop
 endfacet
 facet normal 0.000000 0.770209 0.637792
  outer loop
   vertex 15.000000 7.454072 8.562773
   vertex 15.000000 7.856499 8.076795
   vertex 10.000000 7.454072 8.562773
  endloop
 endfacet
 facet normal -0.000000 0.770209 0.637792
  outer loop
   vertex 10.000000 7.856499 8.076795
   vertex 10.000000 7.454072 8.562773
   vertex 15.000000 7.856499 8.076795
  endloop
 endfacet
 facet normal 0.000000 0.685229 0.728328
  outer loop
   vertex 15.000000 7.856499 8.076795
   vertex 15.000000 8.311998 7.648250
   vertex 10.000000 7.856499 8.076795
  endloop
 endfacet
 facet normal -0.000000 0.685229 0.728328
  outer loop
   vertex 10.000000 8.311998 7.648250
   vertex 10.000000 7.856499 8.076795
   vertex 15.000000 8.311998 7.648250
  endloop
 endfacet
 facet normal 0.000000 0.586960 0.809616
  outer loop
   vertex 15.000000 8.311998 7.648250
   vertex 15.000000 8.821445 7.278908
   vertex 10.000000 8.311998 7.648250
  endloop
 endfacet
 facet normal -0.000000 0.586960 0.809616
  outer loop
   vertex 10.000000 8.821445 7.278908
   vertex 10.000000 8.311998 7.648250
   vertex 15.000000 8.821445 7.278908
  endloop
 endfacet
 facet normal 0.000000 0.482726 0.875771
  outer loop
   vertex 15.000000 8.821445 7.278908
   vertex 15.000000 9.371730 6.975590
   vertex 10.000000 8.821445 7.278908
  endloop
 endfacet
 facet normal -0.000000 0.482726 0.875771
  outer loop
   vertex 10.000000 9.371730 6.975590
   vertex 10.000000 8.821445 7.278908
   vertex 15.000000 9.371730 6.975590
  endloop
 endfacet
 facet normal 0.000000 0.367118 0.930174
  outer loop
   vertex 15.000000 9.371730 6.975590
   vertex 15.000000 9.954243 6.745686
   vertex 10.000000 9.371730 6.975590
  endloop
 endfacet
 facet normal -0.000000 0.367118 0.930174
  outer loop
   vertex 10.000000 9.954243 6.745686
   vertex 10.000000 9.371730 6.975590
   vertex 15.000000 9.954243 6.745686
  endloop
 endfacet
 facet normal 0.000000 0.249361 0.968411
  outer loop
   vertex 15.000000 9.954243 6.745686
   vertex 15.000000 10.564880 6.588450
   vertex 10.000000 9.954243 6.745686
  endloop
 endfacet
 facet normal -0.000000 0.249361 0.968411
  outer loop
   vertex 10.000000 10.564880 6.588450
   vertex 10.000000 9.954243 6.745686
   vertex 15.000000 10.564880 6.588450
  endloop
 endfacet
 facet normal 0.000000 0.124883 0.992171
  outer loop
   vertex 15.000000 10.564880 6.588450
   vertex 15.000000 11.184350 6.510478
   vertex 10.000000 10.564880 6.588450
  endloop
 endfacet
 facet normal -0.000000 0.124883 0.992171
  outer loop
   vertex 10.000000 11.184350 6.510478
   vertex 10.000000 10.564880 6.588450
   vertex 15.000000 11.184350 6.510478
  endloop
 endfacet
 facet normal 0.000000 -0.000000 1.000000
  outer loop
   vertex 15.000000 11.184350 6.510478
   vertex 15.000000 11.815650 6.510478
   vertex 10.000000 11.184350 6.510478
  endloop
 endfacet
 facet normal -0.000000 0.000000 1.000000
  outer loop
   vertex 10.000000 11.815650 6.510478
   vertex 10.000000 11.184350 6.510478
   vertex 15.000000 11.815650 6.510478
  endloop
 endfacet
 facet normal 0.000000 -0.124883 0.992171
  outer loop
   vertex 15.000000 11.815650 6.510478
   vertex 15.000000 12.435120 6.588450
   vertex 10.000000 11.815650 6.510478
  endloop
 endfacet
 facet normal 0.000000 -0.124883 0.992171
  outer loop
   vertex 10.000000 12.435120 6.588450
   vertex 10.000000 11.815650 6.510478
   vertex 15.000000 12.435120 6.588450
  endloop
 endfacet
 facet normal 0.000000 -0.249360 0.968411
  outer loop
   vertex 15.000000 12.435120 6.588450
   vertex 15.000000 13.045760 6.745686
   vertex 10.000000 12.435120 6.588450
  endloop
 endfacet
 facet normal 0.000000 -0.249360 0.968411
  outer loop
   vertex 10.000000 13.045760 6.745686
   vertex 10.000000 12.435120 6.588450
   vertex 15.000000 13.045760 6.745686
  endloop
 endfacet
 facet normal 0.000000 -0.367120 0.930174
  outer loop
   vertex 15.000000 13.045760 6.745686
   vertex 15.000000 13.628270 6.975590
   vertex 10.000000 13.045760 6.745686
  endloop
 endfacet
 facet normal 0.000000 -0.367120 0.930174
  outer loop
   vertex 10.000000 13.628270 6.975590
   vertex 10.000000 13.045760 6.745686
   vertex 15.000000 13.628270 6.975590
  endloop
 endfacet
 facet normal 0.000000 -0.482723 0.875773
  outer loop
   vertex 15.000000 13.628270 6.975590
   vertex 15.000000 14.178560 7.278908
   vertex 10.000000 13.628270 6.975590
  endloop
 endfacet
 facet normal 0.000000 -0.482723 0.875773
  outer loop
   vertex 10.000000 14.178560 7.278908
   vertex 10.000000 13.628270 6.975590
   vertex 15.000000 14.178560 7.278908
  endloop
 endfacet
 facet normal 0.000000 -0.586966 0.809611
  outer loop
   vertex 15.000000 14.178560 7.278908
   vertex 15.000000 14.688000 7.648250
   vertex 10.000000 14.178560 7.278908
  endloop
 endfacet
 facet normal 0.000000 -0.586966 0.809611
  outer loop
   vertex 10.000000 14.688000 7.648250
   vertex 10.000000 14.178560 7.278908
   vertex 15.000000 14.688000 7.648250
  endloop
 endfacet
 facet normal 0.000000 -0.685227 0.728329
  outer loop
   vertex 15.000000 14.688000 7.648250
   vertex 15.000000 15.143500 8.076795
   vertex 10.000000 14.688000 7.648250
  endloop
 endfacet
 facet normal 0.000000 -0.685227 0.728329
  outer loop
   vertex 10.000000 15.143500 8.076795
   vertex 10.000000 14.688000 7.648250
   vertex 15.000000 15.143500 8.076795
  endloop
 endfacet
 facet normal 0.000000 -0.770207 0.637794
  outer loop
   vertex 15.000000 15.143500 8.076795
   vertex 15.000000 15.545930 8.562773
   vertex 10.000000 15.143500 8.076795
  endloop
 endfacet
 facet normal 0.000000 -0.770207 0.637794
  outer loop
   vertex 10.000000 15.545930 8.562773
   vertex 10.000000 15.143500 8.076795
   vertex 15.000000 15.545930 8.562773
  endloop
 endfacet
 facet normal 0.000000 -0.844413 0.535692
  outer loop
   vertex 15.000000 15.545930 8.562773
   vertex 15.000000 15.880280 9.089809
   vertex 10.000000 15.545930 8.562773
  endloop
 endfacet
 facet normal 0.000000 -0.844413 0.535692
  outer loop
   vertex 10.000000 15.880280 9.089809
   vertex 10.000000 15.545930 8.562773
   vertex 15.000000 15.880280 9.089809
  endloop
 endfacet
 facet normal 0.000000 -0.904931 0.425559
  outer loop
   vertex 15.000000 15.880280 9.089809
   vertex 15.000000 16.148899 9.661016
   vertex 10.000000 15.880280 9.089809
  endloop
 endfacet
 facet normal 0.000000 -0.904931 0.425559
  outer loop
   vertex 10.000000 16.148899 9.661016
   vertex 10.000000 15.880280 9.089809
   vertex 15.000000 16.148899 9.661016
  endloop
 endfacet
 facet normal 0.000000 -0.950771 0.309895
  outer loop
   vertex 15.000000 16.148899 9.661016
   vertex 15.000000 16.342291 10.254350
   vertex 10.000000 16.148899 9.661016
  endloop
 endfacet
 facet normal 0.000000 -0.950771 0.309895
  outer loop
   vertex 10.000000 16.342291 10.254350
   vertex 10.000000 16.148899 9.661016
   vertex 15.000000 16.342291 10.254350
  endloop
 endfacet
 facet normal 0.000000 -0.982353 0.187035
  outer loop
   vertex 15.000000 16.342291 10.254350
   vertex 15.000000 16.458771 10.866130
   vertex 10.000000 16.342291 10.254350
  endloop
 endfacet
 facet normal 0.000000 -0.982353 0.187035
  outer loop
   vertex 10.000000 16.458771 10.866130
   vertex 10.000000 16.342291 10.254350
   vertex 15.000000 16.458771 10.866130
  endloop
 endfacet
 facet normal 0.000000 -0.997891 0.064907
  outer loop
   vertex 15.000000 16.458771 10.866130
   vertex 15.000000 16.500000 11.500000
   vertex 10.000000 16.458771 10.866130
  endloop
 endfacet
 facet normal 0.000000 -0.997891 0.064907
  outer loop
   vertex 10.000000 16.500000 11.500000
   vertex 10.000000 16.458771 10.866130
   vertex 15.000000 16.500000 11.500000
  endloop
 endfacet
endsolid Head 02 (repaired)
