solid cross-plier-tough
facet normal 0.90445505177269 0.419227432640847 0.0787998670317737
outer loop
vertex 76.6348051509094 12.0375289914787 15.3034286289313
vertex 77.4631407747164 10.2229967711899 15.4494865484905
vertex 77.9681031834943 12.0375289914787 0.0
endloop
endfacet
facet normal 0.904444766845702 0.419249203548203 0.07880208785065
outer loop
vertex 77.9681031834943 12.0375289914787 0.0
vertex 77.4631407747164 10.2229967711899 15.4494865484905
vertex 78.809217219481 10.2229967711899 2.25597318603832e-014
endloop
endfacet
facet normal -0.704702425795981 0.706838051764772 -0.0614366312116976
outer loop
vertex 30.4497185146729 1.54232948166315 3.05080478444165
vertex 29.1715728752538 -2.11497486191092e-015 1.26898491714655e-014
vertex 28.9132580623295 -2.11497486191092e-015 2.91638191290569
endloop
endfacet
facet normal 0.244633137380853 -0.969381549937561 0.0213081847150819
outer loop
vertex 77.4631407747164 10.2229967711899 15.4494865484905
vertex 68.7877553590029 8.0 13.9197820316554
vertex 70.0 8.0 1.12798659301916e-014
endloop
endfacet
facet normal -0.704702425795981 0.706838051764772 -0.0614366312116976
outer loop
vertex 30.4497185146729 1.54232948166315 3.05080478444165
vertex 30.713902356917 1.54232948166315 7.04991620636974e-015
vertex 29.1715728752538 -2.11497486191092e-015 1.26898491714655e-014
endloop
endfacet
facet normal 0.244633137380853 -0.969381549937561 0.0213081847150819
outer loop
vertex 77.4631407747164 10.2229967711899 15.4494865484905
vertex 70.0 8.0 1.12798659301916e-014
vertex 78.809217219481 10.2229967711899 2.25597318603832e-014
endloop
endfacet
facet normal -0.371384268323781 -0.927950928547703 -0.0313177178138101
outer loop
vertex 4.77525141320939 -2.0 2.63265048330496
vertex -0.148787351851652 -2.11497486191092e-015 1.7644095949703
vertex 1.05748743095546e-015 -2.11497486191092e-015 4.93494134445882e-015
endloop
endfacet
facet normal -0.371204148691984 -0.92801037172996 -0.0316895874930582
outer loop
vertex 4.77525141320939 -2.0 2.63265048330496
vertex 1.05748743095546e-015 -2.11497486191092e-015 4.93494134445882e-015
vertex 5.0 -2.0 2.8199664825479e-015
endloop
endfacet
facet normal 0.921078950329377 0.381375390222755 0.0785262949117908
outer loop
vertex 28.5796037832589 -2.11497486191092e-015 6.83000006443619
vertex 29.3954452385146 -2.0 6.97385492497822
vertex 28.9132580623295 -2.11497486191092e-015 2.91638191290569
endloop
endfacet
facet normal 0.920475003050291 0.382683117126595 0.0792426692245959
outer loop
vertex 28.9132580623295 -2.11497486191092e-015 2.91638191290569
vertex 29.3954452385146 -2.0 6.97385492497822
vertex 29.738532771757 -2.0 2.98858409427524
endloop
endfacet
facet normal -0.706027124805961 0.706027124805959 -0.0552394612252857
outer loop
vertex 39.1715728752538 9.99999999999999 8.45989944764369e-015
vertex 32.8420182762071 3.67044540095322 8.45989944764369e-015
vertex 38.875205043247 9.99999999999999 3.78793934038227
endloop
endfacet
facet normal -0.705715326535397 0.706267906893451 -0.0561384145250133
outer loop
vertex 38.875205043247 9.99999999999999 3.78793934038227
vertex 32.8420182762071 3.67044540095322 8.45989944764369e-015
vertex 32.5697363103943 3.67044540095322 3.23628230804049
endloop
endfacet
facet normal 0.70510919375278 -0.706910823724239 0.0556606879837313
outer loop
vertex 40.0 8.0 1.12798659301916e-014
vertex 29.738532771757 -2.0 2.98858409427524
vertex 30.0 -2.0 1.26898491714655e-014
endloop
endfacet
facet normal -0.705400046859257 0.706365799853135 -0.0588058729107863
outer loop
vertex 32.8420182762071 3.67044540095322 8.45989944764369e-015
vertex 30.713902356917 1.54232948166315 7.04991620636974e-015
vertex 32.5697363103943 3.67044540095322 3.23628230804049
endloop
endfacet
facet normal -0.704887764823286 0.706798414456939 -0.0597431194665094
outer loop
vertex 32.5697363103943 3.67044540095322 3.23628230804049
vertex 30.713902356917 1.54232948166315 7.04991620636974e-015
vertex 30.4497185146729 1.54232948166315 3.05080478444165
endloop
endfacet
facet normal 0.705004737027948 -0.707089704008581 0.0547034848360812
outer loop
vertex 39.7004797526745 8.0 3.86014152175184
vertex 29.738532771757 -2.0 2.98858409427524
vertex 40.0 8.0 1.12798659301916e-014
endloop
endfacet
facet normal -0.920243170598475 -0.381622366339762 -0.0866999220074971
outer loop
vertex 38.427681313381 9.99999999999999 8.56648184110549
vertex 39.7004797526745 8.0 3.86014152175184
vertex 39.2435227686367 8.0 8.71033670164753
endloop
endfacet
facet normal -0.235446216391508 0.971670938886463 -0.0205101367724107
outer loop
vertex 68.3534501409731 9.99999999999999 13.8432023038543
vertex 77.9681031834943 12.0375289914787 0.0
vertex 69.5589949239317 9.99999999999999 1.69197988952874e-014
endloop
endfacet
facet normal -0.23545072854929 0.971669775762039 -0.020513441840868
outer loop
vertex 76.6348051509094 12.0375289914787 15.3034286289313
vertex 77.9681031834943 12.0375289914787 0.0
vertex 68.3534501409731 9.99999999999999 13.8432023038543
endloop
endfacet
facet normal -0.919856908683806 -0.382677327416052 -0.0861471452131734
outer loop
vertex 38.875205043247 9.99999999999999 3.78793934038227
vertex 39.7004797526745 8.0 3.86014152175184
vertex 38.427681313381 9.99999999999999 8.56648184110549
endloop
endfacet
facet normal -0.17364817766693 5.79850023276855e-015 0.984807753012208
outer loop
vertex 39.2435227686367 8.0 8.71033670164753
vertex 68.3534501409731 9.99999999999999 13.8432023038543
vertex 38.427681313381 9.99999999999999 8.56648184110549
endloop
endfacet
facet normal -0.17364817766693 5.79850023276855e-015 0.984807753012208
outer loop
vertex 68.3534501409731 9.99999999999999 13.8432023038543
vertex 39.2435227686367 8.0 8.71033670164753
vertex 68.7877553590029 8.0 13.9197820316554
endloop
endfacet
facet normal -0.17364817766693 5.79850023276855e-015 0.984807753012208
outer loop
vertex 68.3534501409731 9.99999999999999 13.8432023038543
vertex 68.7877553590029 8.0 13.9197820316554
vertex 76.6348051509094 12.0375289914787 15.3034286289313
endloop
endfacet
facet normal -0.17364817766693 5.79850023276855e-015 0.984807753012208
outer loop
vertex 76.6348051509094 12.0375289914787 15.3034286289313
vertex 68.7877553590029 8.0 13.9197820316554
vertex 77.4631407747164 10.2229967711899 15.4494865484905
endloop
endfacet
facet normal -0.173648177666931 -1.21081451800002e-015 0.984807753012208
outer loop
vertex 4.77525141320939 -2.0 2.63265048330496
vertex 28.5796037832589 -2.11497486191092e-015 6.83000006443619
vertex -0.148787351851652 -2.11497486191092e-015 1.7644095949703
endloop
endfacet
facet normal -0.173648177666931 -1.21081451800002e-015 0.984807753012208
outer loop
vertex 28.5796037832589 -2.11497486191092e-015 6.83000006443619
vertex 4.77525141320939 -2.0 2.63265048330496
vertex 29.3954452385146 -2.0 6.97385492497822
endloop
endfacet
facet normal -0.0871557427476602 9.43809901502512e-016 0.996194698091745
outer loop
vertex 29.738532771757 -2.0 2.98858409427524
vertex 30.4497185146729 1.54232948166315 3.05080478444165
vertex 28.9132580623295 -2.11497486191092e-015 2.91638191290569
endloop
endfacet
facet normal -0.0871557427476602 9.43809901502512e-016 0.996194698091745
outer loop
vertex 30.4497185146729 1.54232948166315 3.05080478444165
vertex 29.738532771757 -2.0 2.98858409427524
vertex 39.7004797526745 8.0 3.86014152175184
endloop
endfacet
facet normal -0.0871557427476602 9.43809901502512e-016 0.996194698091745
outer loop
vertex 30.4497185146729 1.54232948166315 3.05080478444165
vertex 39.7004797526745 8.0 3.86014152175184
vertex 32.5697363103943 3.67044540095322 3.23628230804049
endloop
endfacet
facet normal -0.0871557427476602 9.43809901502512e-016 0.996194698091745
outer loop
vertex 32.5697363103943 3.67044540095322 3.23628230804049
vertex 39.7004797526745 8.0 3.86014152175184
vertex 38.875205043247 9.99999999999999 3.78793934038227
endloop
endfacet
facet normal 0.0 1.0 0.0
outer loop
vertex -0.148787351851652 -2.11497486191092e-015 1.7644095949703
vertex 29.1715728752538 -2.11497486191092e-015 1.26898491714655e-014
vertex 1.05748743095546e-015 -2.11497486191092e-015 4.93494134445882e-015
endloop
endfacet
facet normal 0.0 1.0 0.0
outer loop
vertex 29.1715728752538 -2.11497486191092e-015 1.26898491714655e-014
vertex -0.148787351851652 -2.11497486191092e-015 1.7644095949703
vertex 28.9132580623295 -2.11497486191092e-015 2.91638191290569
endloop
endfacet
facet normal 0.0 1.0 0.0
outer loop
vertex 28.9132580623295 -2.11497486191092e-015 2.91638191290569
vertex -0.148787351851652 -2.11497486191092e-015 1.7644095949703
vertex 28.5796037832589 -2.11497486191092e-015 6.83000006443619
endloop
endfacet
facet normal 0.0 -1.0 0.0
outer loop
vertex 30.0 -2.0 1.26898491714655e-014
vertex 4.77525141320939 -2.0 2.63265048330496
vertex 5.0 -2.0 2.8199664825479e-015
endloop
endfacet
facet normal 0.0 -1.0 0.0
outer loop
vertex 4.77525141320939 -2.0 2.63265048330496
vertex 30.0 -2.0 1.26898491714655e-014
vertex 29.738532771757 -2.0 2.98858409427524
endloop
endfacet
facet normal 0.0 -1.0 0.0
outer loop
vertex 4.77525141320939 -2.0 2.63265048330496
vertex 29.738532771757 -2.0 2.98858409427524
vertex 29.3954452385146 -2.0 6.97385492497822
endloop
endfacet
facet normal 0.0 -1.0 0.0
outer loop
vertex 68.7877553590029 8.0 13.9197820316554
vertex 40.0 8.0 1.12798659301916e-014
vertex 70.0 8.0 1.12798659301916e-014
endloop
endfacet
facet normal 0.0 -1.0 0.0
outer loop
vertex 40.0 8.0 1.12798659301916e-014
vertex 68.7877553590029 8.0 13.9197820316554
vertex 39.7004797526745 8.0 3.86014152175184
endloop
endfacet
facet normal 0.0 -1.0 0.0
outer loop
vertex 39.7004797526745 8.0 3.86014152175184
vertex 68.7877553590029 8.0 13.9197820316554
vertex 39.2435227686367 8.0 8.71033670164753
endloop
endfacet
facet normal 0.0 1.0 0.0
outer loop
vertex 38.875205043247 9.99999999999999 3.78793934038227
vertex 69.5589949239317 9.99999999999999 1.69197988952874e-014
vertex 39.1715728752538 9.99999999999999 8.45989944764369e-015
endloop
endfacet
facet normal 0.0 1.0 0.0
outer loop
vertex 69.5589949239317 9.99999999999999 1.69197988952874e-014
vertex 38.875205043247 9.99999999999999 3.78793934038227
vertex 68.3534501409731 9.99999999999999 13.8432023038543
endloop
endfacet
facet normal 0.0 1.0 0.0
outer loop
vertex 68.3534501409731 9.99999999999999 13.8432023038543
vertex 38.875205043247 9.99999999999999 3.78793934038227
vertex 38.427681313381 9.99999999999999 8.56648184110549
endloop
endfacet
facet normal 1.91562993556799e-016 -5.4371166661967e-016 -1.0
outer loop
vertex 29.1715728752538 -2.11497486191092e-015 1.26898491714655e-014
vertex 5.0 -2.0 2.8199664825479e-015
vertex 1.05748743095546e-015 -2.11497486191092e-015 4.93494134445882e-015
endloop
endfacet
facet normal 1.91562993556799e-016 -5.4371166661967e-016 -1.0
outer loop
vertex 5.0 -2.0 2.8199664825479e-015
vertex 29.1715728752538 -2.11497486191092e-015 1.26898491714655e-014
vertex 30.0 -2.0 1.26898491714655e-014
endloop
endfacet
facet normal 1.91562993556799e-016 -5.4371166661967e-016 -1.0
outer loop
vertex 30.0 -2.0 1.26898491714655e-014
vertex 29.1715728752538 -2.11497486191092e-015 1.26898491714655e-014
vertex 30.713902356917 1.54232948166315 7.04991620636974e-015
endloop
endfacet
facet normal 1.91562993556799e-016 -5.4371166661967e-016 -1.0
outer loop
vertex 30.0 -2.0 1.26898491714655e-014
vertex 30.713902356917 1.54232948166315 7.04991620636974e-015
vertex 40.0 8.0 1.12798659301916e-014
endloop
endfacet
facet normal 1.91562993556799e-016 -5.4371166661967e-016 -1.0
outer loop
vertex 40.0 8.0 1.12798659301916e-014
vertex 30.713902356917 1.54232948166315 7.04991620636974e-015
vertex 32.8420182762071 3.67044540095322 8.45989944764369e-015
endloop
endfacet
facet normal 1.91562993556799e-016 -5.4371166661967e-016 -1.0
outer loop
vertex 40.0 8.0 1.12798659301916e-014
vertex 32.8420182762071 3.67044540095322 8.45989944764369e-015
vertex 39.1715728752538 9.99999999999999 8.45989944764369e-015
endloop
endfacet
facet normal 1.91562993556799e-016 -5.4371166661967e-016 -1.0
outer loop
vertex 40.0 8.0 1.12798659301916e-014
vertex 39.1715728752538 9.99999999999999 8.45989944764369e-015
vertex 69.5589949239317 9.99999999999999 1.69197988952874e-014
endloop
endfacet
facet normal 1.91562993556799e-016 -5.4371166661967e-016 -1.0
outer loop
vertex 40.0 8.0 1.12798659301916e-014
vertex 69.5589949239317 9.99999999999999 1.69197988952874e-014
vertex 70.0 8.0 1.12798659301916e-014
endloop
endfacet
facet normal 1.91562993556799e-016 -5.4371166661967e-016 -1.0
outer loop
vertex 70.0 8.0 1.12798659301916e-014
vertex 69.5589949239317 9.99999999999999 1.69197988952874e-014
vertex 77.9681031834943 12.0375289914787 0.0
endloop
endfacet
facet normal 1.91562993556799e-016 -5.4371166661967e-016 -1.0
outer loop
vertex 70.0 8.0 1.12798659301916e-014
vertex 77.9681031834943 12.0375289914787 0.0
vertex 78.809217219481 10.2229967711899 2.25597318603832e-014
endloop
endfacet
facet normal 0.0 0.0 -1.0
outer loop
vertex 47.287242828869 4.28264154662399 2.25597318603832e-014
vertex 39.287242828869 1.53264154662399 2.25597318603832e-014
vertex 39.287242828869 3.53264154662399 2.25597318603832e-014
endloop
endfacet
facet normal 0.0 0.0 -1.0
outer loop
vertex 39.287242828869 1.53264154662399 2.25597318603832e-014
vertex 47.287242828869 4.28264154662399 2.25597318603832e-014
vertex 47.287242828869 2.28264154662399 2.25597318603832e-014
endloop
endfacet
facet normal 0.0 0.0 -1.0
outer loop
vertex 47.287242828869 2.28264154662399 2.25597318603832e-014
vertex 47.287242828869 4.28264154662399 2.25597318603832e-014
vertex 47.804880919074 4.21449319920213 2.25597318603832e-014
endloop
endfacet
facet normal 0.0 0.0 -1.0
outer loop
vertex 47.287242828869 2.28264154662399 2.25597318603832e-014
vertex 47.804880919074 4.21449319920213 2.25597318603832e-014
vertex 47.287242828869 -2.71735845337601 2.25597318603832e-014
endloop
endfacet
facet normal 0.0 0.0 -1.0
outer loop
vertex 47.287242828869 -2.71735845337601 2.25597318603832e-014
vertex 47.804880919074 4.21449319920213 2.25597318603832e-014
vertex 47.287242828869 -4.71735845337601 2.25597318603832e-014
endloop
endfacet
facet normal 0.0 0.0 -1.0
outer loop
vertex 47.287242828869 -4.71735845337601 2.25597318603832e-014
vertex 47.804880919074 4.21449319920213 2.25597318603832e-014
vertex 47.804880919074 -4.64921010595414 2.25597318603832e-014
endloop
endfacet
facet normal 0.0 0.0 -1.0
outer loop
vertex 47.804880919074 -4.64921010595414 2.25597318603832e-014
vertex 47.804880919074 4.21449319920213 2.25597318603832e-014
vertex 48.287242828869 4.01469235419287 2.25597318603832e-014
endloop
endfacet
facet normal 0.0 0.0 -1.0
outer loop
vertex 47.804880919074 -4.64921010595414 2.25597318603832e-014
vertex 48.287242828869 4.01469235419287 2.25597318603832e-014
vertex 48.287242828869 -4.44940926094488 2.25597318603832e-014
endloop
endfacet
facet normal 0.0 0.0 -1.0
outer loop
vertex 48.287242828869 -4.44940926094488 2.25597318603832e-014
vertex 48.287242828869 4.01469235419287 2.25597318603832e-014
vertex 48.7014563912421 3.69685510899709 2.25597318603832e-014
endloop
endfacet
facet normal 0.0 0.0 -1.0
outer loop
vertex 48.287242828869 -4.44940926094488 2.25597318603832e-014
vertex 48.7014563912421 3.69685510899709 2.25597318603832e-014
vertex 48.7014563912421 -4.1315720157491 2.25597318603832e-014
endloop
endfacet
facet normal 0.0 0.0 -1.0
outer loop
vertex 48.7014563912421 -4.1315720157491 2.25597318603832e-014
vertex 48.7014563912421 3.69685510899709 2.25597318603832e-014
vertex 49.0192936364379 3.28264154662399 2.25597318603832e-014
endloop
endfacet
facet normal 0.0 0.0 -1.0
outer loop
vertex 48.7014563912421 -4.1315720157491 2.25597318603832e-014
vertex 49.0192936364379 3.28264154662399 2.25597318603832e-014
vertex 49.0192936364379 -3.71735845337601 2.25597318603832e-014
endloop
endfacet
facet normal 0.0 0.0 -1.0
outer loop
vertex 49.0192936364379 -3.71735845337601 2.25597318603832e-014
vertex 49.0192936364379 3.28264154662399 2.25597318603832e-014
vertex 49.2190944814471 2.80027963682903 2.25597318603832e-014
endloop
endfacet
facet normal 0.0 0.0 -1.0
outer loop
vertex 49.0192936364379 -3.71735845337601 2.25597318603832e-014
vertex 49.2190944814471 2.80027963682903 2.25597318603832e-014
vertex 49.2190944814471 -3.23499654358105 2.25597318603832e-014
endloop
endfacet
facet normal 0.0 0.0 -1.0
outer loop
vertex 49.2190944814471 -3.23499654358105 2.25597318603832e-014
vertex 49.2190944814471 2.80027963682903 2.25597318603832e-014
vertex 49.287242828869 2.28264154662399 2.25597318603832e-014
endloop
endfacet
facet normal 0.0 0.0 -1.0
outer loop
vertex 49.2190944814471 -3.23499654358105 2.25597318603832e-014
vertex 49.287242828869 2.28264154662399 2.25597318603832e-014
vertex 49.287242828869 -2.71735845337601 2.25597318603832e-014
endloop
endfacet
facet normal 0.0 0.0 -1.0
outer loop
vertex 47.287242828869 -2.71735845337601 2.25597318603832e-014
vertex 39.287242828869 -3.96735845337601 2.25597318603832e-014
vertex 39.287242828869 -1.96735845337601 2.25597318603832e-014
endloop
endfacet
facet normal 0.0 0.0 -1.0
outer loop
vertex 39.287242828869 -3.96735845337601 2.25597318603832e-014
vertex 47.287242828869 -2.71735845337601 2.25597318603832e-014
vertex 47.287242828869 -4.71735845337601 2.25597318603832e-014
endloop
endfacet
facet normal 0.258819045102521 -0.965925826289068 0.0
outer loop
vertex 47.804880919074 -4.64921010595414 13.0
vertex 47.287242828869 -4.71735845337601 2.25597318603832e-014
vertex 47.804880919074 -4.64921010595414 2.25597318603832e-014
endloop
endfacet
facet normal 0.130526192220052 -0.99144486137381 0.0
outer loop
vertex 47.287242828869 -4.71735845337601 2.25597318603832e-014
vertex 47.804880919074 -4.64921010595414 13.0
vertex 47.287242828869 -4.71735845337601 13.0
endloop
endfacet
facet normal -0.0933407086930583 -0.995634226059288 0.0
outer loop
vertex 47.287242828869 -4.71735845337601 13.0
vertex 39.287242828869 -3.96735845337601 2.25597318603832e-014
vertex 47.287242828869 -4.71735845337601 2.25597318603832e-014
endloop
endfacet
facet normal -0.0933407086930583 -0.995634226059288 0.0
outer loop
vertex 39.287242828869 -3.96735845337601 2.25597318603832e-014
vertex 47.287242828869 -4.71735845337601 13.0
vertex 39.287242828869 -3.96735845337601 13.0
endloop
endfacet
facet normal -1.0 0.0 0.0
outer loop
vertex 39.287242828869 -1.96735845337601 13.0
vertex 39.287242828869 -3.96735845337601 2.25597318603832e-014
vertex 39.287242828869 -3.96735845337601 13.0
endloop
endfacet
facet normal -1.0 0.0 0.0
outer loop
vertex 39.287242828869 -3.96735845337601 2.25597318603832e-014
vertex 39.287242828869 -1.96735845337601 13.0
vertex 39.287242828869 -1.96735845337601 2.25597318603832e-014
endloop
endfacet
facet normal 1.0 0.0 0.0
outer loop
vertex 49.287242828869 2.28264154662399 2.25597318603832e-014
vertex 49.287242828869 -2.71735845337601 13.0
vertex 49.287242828869 -2.71735845337601 2.25597318603832e-014
endloop
endfacet
facet normal 1.0 0.0 0.0
outer loop
vertex 49.287242828869 -2.71735845337601 13.0
vertex 49.287242828869 2.28264154662399 2.25597318603832e-014
vertex 49.287242828869 2.28264154662399 13.0
endloop
endfacet
facet normal 0.99144486137381 -0.130526192220051 0.0
outer loop
vertex 49.287242828869 -2.71735845337601 2.25597318603832e-014
vertex 49.2190944814471 -3.23499654358105 13.0
vertex 49.2190944814471 -3.23499654358105 2.25597318603832e-014
endloop
endfacet
facet normal 0.965925826289068 -0.258819045102521 0.0
outer loop
vertex 49.2190944814471 -3.23499654358105 13.0
vertex 49.287242828869 -2.71735845337601 2.25597318603832e-014
vertex 49.287242828869 -2.71735845337601 13.0
endloop
endfacet
facet normal 0.965925826289068 -0.258819045102521 0.0
outer loop
vertex 49.2190944814471 -3.23499654358105 2.25597318603832e-014
vertex 49.0192936364379 -3.71735845337601 13.0
vertex 49.0192936364379 -3.71735845337601 2.25597318603832e-014
endloop
endfacet
facet normal 0.866025403784439 -0.5 0.0
outer loop
vertex 49.0192936364379 -3.71735845337601 13.0
vertex 49.2190944814471 -3.23499654358105 2.25597318603832e-014
vertex 49.2190944814471 -3.23499654358105 13.0
endloop
endfacet
facet normal 0.866025403784439 -0.5 0.0
outer loop
vertex 49.0192936364379 -3.71735845337601 2.25597318603832e-014
vertex 48.7014563912421 -4.1315720157491 13.0
vertex 48.7014563912421 -4.1315720157491 2.25597318603832e-014
endloop
endfacet
facet normal 0.707106781186547 -0.707106781186548 0.0
outer loop
vertex 48.7014563912421 -4.1315720157491 13.0
vertex 49.0192936364379 -3.71735845337601 2.25597318603832e-014
vertex 49.0192936364379 -3.71735845337601 13.0
endloop
endfacet
facet normal 0.707106781186547 -0.707106781186548 0.0
outer loop
vertex 48.7014563912421 -4.1315720157491 13.0
vertex 48.287242828869 -4.44940926094488 2.25597318603832e-014
vertex 48.7014563912421 -4.1315720157491 2.25597318603832e-014
endloop
endfacet
facet normal 0.5 -0.866025403784439 0.0
outer loop
vertex 48.287242828869 -4.44940926094488 2.25597318603832e-014
vertex 48.7014563912421 -4.1315720157491 13.0
vertex 48.287242828869 -4.44940926094488 13.0
endloop
endfacet
facet normal 0.5 -0.866025403784439 0.0
outer loop
vertex 48.287242828869 -4.44940926094488 13.0
vertex 47.804880919074 -4.64921010595414 2.25597318603832e-014
vertex 48.287242828869 -4.44940926094488 2.25597318603832e-014
endloop
endfacet
facet normal 0.258819045102521 -0.965925826289068 0.0
outer loop
vertex 47.804880919074 -4.64921010595414 2.25597318603832e-014
vertex 48.287242828869 -4.44940926094488 13.0
vertex 47.804880919074 -4.64921010595414 13.0
endloop
endfacet
facet normal 0.707106781186548 0.707106781186547 0.0
outer loop
vertex 48.7014563912421 3.69685510899709 2.25597318603832e-014
vertex 49.0192936364379 3.28264154662399 13.0
vertex 49.0192936364379 3.28264154662399 2.25597318603832e-014
endloop
endfacet
facet normal 0.866025403784439 0.5 0.0
outer loop
vertex 49.0192936364379 3.28264154662399 13.0
vertex 48.7014563912421 3.69685510899709 2.25597318603832e-014
vertex 48.7014563912421 3.69685510899709 13.0
endloop
endfacet
facet normal 0.866025403784439 0.5 0.0
outer loop
vertex 49.0192936364379 3.28264154662399 2.25597318603832e-014
vertex 49.2190944814471 2.80027963682903 13.0
vertex 49.2190944814471 2.80027963682903 2.25597318603832e-014
endloop
endfacet
facet normal 0.965925826289068 0.258819045102521 0.0
outer loop
vertex 49.2190944814471 2.80027963682903 13.0
vertex 49.0192936364379 3.28264154662399 2.25597318603832e-014
vertex 49.0192936364379 3.28264154662399 13.0
endloop
endfacet
facet normal 0.965925826289068 0.258819045102521 0.0
outer loop
vertex 49.2190944814471 2.80027963682903 2.25597318603832e-014
vertex 49.287242828869 2.28264154662399 13.0
vertex 49.287242828869 2.28264154662399 2.25597318603832e-014
endloop
endfacet
facet normal 0.99144486137381 0.130526192220052 0.0
outer loop
vertex 49.287242828869 2.28264154662399 13.0
vertex 49.2190944814471 2.80027963682903 2.25597318603832e-014
vertex 49.2190944814471 2.80027963682903 13.0
endloop
endfacet
facet normal 0.0933407086930584 -0.995634226059288 0.0
outer loop
vertex 47.287242828869 2.28264154662399 13.0
vertex 39.287242828869 1.53264154662399 2.25597318603832e-014
vertex 47.287242828869 2.28264154662399 2.25597318603832e-014
endloop
endfacet
facet normal 0.0933407086930584 -0.995634226059288 0.0
outer loop
vertex 39.287242828869 1.53264154662399 2.25597318603832e-014
vertex 47.287242828869 2.28264154662399 13.0
vertex 39.287242828869 1.53264154662399 13.0
endloop
endfacet
facet normal -1.0 0.0 0.0
outer loop
vertex 39.287242828869 3.53264154662399 13.0
vertex 39.287242828869 1.53264154662399 2.25597318603832e-014
vertex 39.287242828869 1.53264154662399 13.0
endloop
endfacet
facet normal -1.0 0.0 0.0
outer loop
vertex 39.287242828869 1.53264154662399 2.25597318603832e-014
vertex 39.287242828869 3.53264154662399 13.0
vertex 39.287242828869 3.53264154662399 2.25597318603832e-014
endloop
endfacet
facet normal -0.0933407086930585 0.995634226059288 0.0
outer loop
vertex 39.287242828869 3.53264154662399 13.0
vertex 47.287242828869 4.28264154662399 2.25597318603832e-014
vertex 39.287242828869 3.53264154662399 2.25597318603832e-014
endloop
endfacet
facet normal -0.0933407086930585 0.995634226059288 0.0
outer loop
vertex 47.287242828869 4.28264154662399 2.25597318603832e-014
vertex 39.287242828869 3.53264154662399 13.0
vertex 47.287242828869 4.28264154662399 13.0
endloop
endfacet
facet normal 0.130526192220052 0.99144486137381 0.0
outer loop
vertex 47.287242828869 4.28264154662399 13.0
vertex 47.804880919074 4.21449319920213 2.25597318603832e-014
vertex 47.287242828869 4.28264154662399 2.25597318603832e-014
endloop
endfacet
facet normal 0.25881904510252 0.965925826289068 0.0
outer loop
vertex 47.804880919074 4.21449319920213 2.25597318603832e-014
vertex 47.287242828869 4.28264154662399 13.0
vertex 47.804880919074 4.21449319920213 13.0
endloop
endfacet
facet normal 0.25881904510252 0.965925826289068 0.0
outer loop
vertex 47.804880919074 4.21449319920213 13.0
vertex 48.287242828869 4.01469235419287 2.25597318603832e-014
vertex 47.804880919074 4.21449319920213 2.25597318603832e-014
endloop
endfacet
facet normal 0.5 0.866025403784439 0.0
outer loop
vertex 48.287242828869 4.01469235419287 2.25597318603832e-014
vertex 47.804880919074 4.21449319920213 13.0
vertex 48.287242828869 4.01469235419287 13.0
endloop
endfacet
facet normal 0.5 0.866025403784439 0.0
outer loop
vertex 48.287242828869 4.01469235419287 13.0
vertex 48.7014563912421 3.69685510899709 2.25597318603832e-014
vertex 48.287242828869 4.01469235419287 2.25597318603832e-014
endloop
endfacet
facet normal 0.707106781186548 0.707106781186547 0.0
outer loop
vertex 48.7014563912421 3.69685510899709 2.25597318603832e-014
vertex 48.287242828869 4.01469235419287 13.0
vertex 48.7014563912421 3.69685510899709 13.0
endloop
endfacet
facet normal 0.0 0.0 1.0
outer loop
vertex 47.287242828869 -4.71735845337601 13.0
vertex 39.287242828869 -1.96735845337601 13.0
vertex 39.287242828869 -3.96735845337601 13.0
endloop
endfacet
facet normal 0.0 0.0 1.0
outer loop
vertex 39.287242828869 -1.96735845337601 13.0
vertex 47.287242828869 -4.71735845337601 13.0
vertex 47.287242828869 -2.71735845337601 13.0
endloop
endfacet
facet normal 0.0 0.0 1.0
outer loop
vertex 47.287242828869 -2.71735845337601 13.0
vertex 47.287242828869 -4.71735845337601 13.0
vertex 47.804880919074 -4.64921010595414 13.0
endloop
endfacet
facet normal 0.0 0.0 1.0
outer loop
vertex 47.287242828869 -2.71735845337601 13.0
vertex 47.804880919074 -4.64921010595414 13.0
vertex 47.287242828869 2.28264154662399 13.0
endloop
endfacet
facet normal 0.0 0.0 1.0
outer loop
vertex 47.287242828869 2.28264154662399 13.0
vertex 47.804880919074 -4.64921010595414 13.0
vertex 47.287242828869 4.28264154662399 13.0
endloop
endfacet
facet normal 0.0 0.0 1.0
outer loop
vertex 47.287242828869 4.28264154662399 13.0
vertex 47.804880919074 -4.64921010595414 13.0
vertex 47.804880919074 4.21449319920213 13.0
endloop
endfacet
facet normal 0.0 0.0 1.0
outer loop
vertex 47.804880919074 4.21449319920213 13.0
vertex 47.804880919074 -4.64921010595414 13.0
vertex 48.287242828869 -4.44940926094488 13.0
endloop
endfacet
facet normal 0.0 0.0 1.0
outer loop
vertex 47.804880919074 4.21449319920213 13.0
vertex 48.287242828869 -4.44940926094488 13.0
vertex 48.287242828869 4.01469235419287 13.0
endloop
endfacet
facet normal 0.0 0.0 1.0
outer loop
vertex 48.287242828869 4.01469235419287 13.0
vertex 48.287242828869 -4.44940926094488 13.0
vertex 48.7014563912421 -4.1315720157491 13.0
endloop
endfacet
facet normal 0.0 0.0 1.0
outer loop
vertex 48.287242828869 4.01469235419287 13.0
vertex 48.7014563912421 -4.1315720157491 13.0
vertex 48.7014563912421 3.69685510899709 13.0
endloop
endfacet
facet normal 0.0 0.0 1.0
outer loop
vertex 48.7014563912421 3.69685510899709 13.0
vertex 48.7014563912421 -4.1315720157491 13.0
vertex 49.0192936364379 -3.71735845337601 13.0
endloop
endfacet
facet normal 0.0 0.0 1.0
outer loop
vertex 48.7014563912421 3.69685510899709 13.0
vertex 49.0192936364379 -3.71735845337601 13.0
vertex 49.0192936364379 3.28264154662399 13.0
endloop
endfacet
facet normal 0.0 0.0 1.0
outer loop
vertex 49.0192936364379 3.28264154662399 13.0
vertex 49.0192936364379 -3.71735845337601 13.0
vertex 49.2190944814471 -3.23499654358105 13.0
endloop
endfacet
facet normal 0.0 0.0 1.0
outer loop
vertex 49.0192936364379 3.28264154662399 13.0
vertex 49.2190944814471 -3.23499654358105 13.0
vertex 49.2190944814471 2.80027963682903 13.0
endloop
endfacet
facet normal 0.0 0.0 1.0
outer loop
vertex 49.2190944814471 2.80027963682903 13.0
vertex 49.2190944814471 -3.23499654358105 13.0
vertex 49.287242828869 -2.71735845337601 13.0
endloop
endfacet
facet normal 0.0 0.0 1.0
outer loop
vertex 49.2190944814471 2.80027963682903 13.0
vertex 49.287242828869 -2.71735845337601 13.0
vertex 49.287242828869 2.28264154662399 13.0
endloop
endfacet
facet normal 0.0 0.0 1.0
outer loop
vertex 47.287242828869 2.28264154662399 13.0
vertex 39.287242828869 3.53264154662399 13.0
vertex 39.287242828869 1.53264154662399 13.0
endloop
endfacet
facet normal 0.0 0.0 1.0
outer loop
vertex 39.287242828869 3.53264154662399 13.0
vertex 47.287242828869 2.28264154662399 13.0
vertex 47.287242828869 4.28264154662399 13.0
endloop
endfacet
facet normal 0.0933407086930583 0.995634226059288 0.0
outer loop
vertex 39.287242828869 -1.96735845337601 13.0
vertex 47.287242828869 -2.71735845337601 2.25597318603832e-014
vertex 39.287242828869 -1.96735845337601 2.25597318603832e-014
endloop
endfacet
facet normal 0.0933407086930583 0.995634226059288 0.0
outer loop
vertex 47.287242828869 -2.71735845337601 2.25597318603832e-014
vertex 39.287242828869 -1.96735845337601 13.0
vertex 47.287242828869 -2.71735845337601 13.0
endloop
endfacet
facet normal -1.0 0.0 0.0
outer loop
vertex 47.287242828869 2.28264154662399 13.0
vertex 47.287242828869 -2.71735845337601 2.25597318603832e-014
vertex 47.287242828869 -2.71735845337601 13.0
endloop
endfacet
facet normal -1.0 0.0 0.0
outer loop
vertex 47.287242828869 -2.71735845337601 2.25597318603832e-014
vertex 47.287242828869 2.28264154662399 13.0
vertex 47.287242828869 2.28264154662399 2.25597318603832e-014
endloop
endfacet
facet normal 0.90445505177269 0.419227432640847 0.0787998670317737
outer loop
vertex 75.2294973243721 16.6739345515566 15.3034286289313
vertex 76.0578329481791 14.8594023312678 15.4494865484905
vertex 76.562795356957 16.6739345515566 0.0
endloop
endfacet
facet normal 0.904444766845702 0.419249203548203 0.07880208785065
outer loop
vertex 76.562795356957 16.6739345515566 0.0
vertex 76.0578329481791 14.8594023312678 15.4494865484905
vertex 77.4039093929437 14.8594023312678 2.25597318603832e-014
endloop
endfacet
facet normal -0.704702425795981 0.706838051764772 -0.0614366312116976
outer loop
vertex 29.0444106881356 6.17873504174106 3.05080478444165
vertex 27.7662650487165 4.6364055600779 1.26898491714655e-014
vertex 27.5079502357922 4.6364055600779 2.91638191290569
endloop
endfacet
facet normal 0.244633137380853 -0.969381549937561 0.0213081847150819
outer loop
vertex 76.0578329481791 14.8594023312678 15.4494865484905
vertex 67.3824475324656 12.6364055600779 13.9197820316554
vertex 68.5946921734627 12.6364055600779 1.12798659301916e-014
endloop
endfacet
facet normal -0.704702425795981 0.706838051764772 -0.0614366312116976
outer loop
vertex 29.0444106881356 6.17873504174106 3.05080478444165
vertex 29.3085945303797 6.17873504174106 7.04991620636974e-015
vertex 27.7662650487165 4.6364055600779 1.26898491714655e-014
endloop
endfacet
facet normal 0.244633137380853 -0.969381549937561 0.0213081847150819
outer loop
vertex 76.0578329481791 14.8594023312678 15.4494865484905
vertex 68.5946921734627 12.6364055600779 1.12798659301916e-014
vertex 77.4039093929437 14.8594023312678 2.25597318603832e-014
endloop
endfacet
facet normal -0.371384268323781 -0.927950928547703 -0.0313177178138101
outer loop
vertex 3.36994358667211 2.6364055600779 2.63265048330496
vertex -1.55409517838893 4.6364055600779 1.7644095949703
vertex -1.40530782653728 4.6364055600779 4.93494134445882e-015
endloop
endfacet
facet normal -0.371204148691984 -0.92801037172996 -0.0316895874930582
outer loop
vertex 3.36994358667211 2.6364055600779 2.63265048330496
vertex -1.40530782653728 4.6364055600779 4.93494134445882e-015
vertex 3.59469217346272 2.6364055600779 2.8199664825479e-015
endloop
endfacet
facet normal 0.921078950329378 0.381375390222755 0.0785262949117908
outer loop
vertex 27.1742959567217 4.6364055600779 6.83000006443619
vertex 27.9901374119773 2.6364055600779 6.97385492497822
vertex 27.5079502357922 4.6364055600779 2.91638191290569
endloop
endfacet
facet normal 0.920475003050291 0.382683117126596 0.079242669224596
outer loop
vertex 27.5079502357922 4.6364055600779 2.91638191290569
vertex 27.9901374119773 2.6364055600779 6.97385492497822
vertex 28.3332249452198 2.6364055600779 2.98858409427524
endloop
endfacet
facet normal -0.706027124805961 0.706027124805959 -0.0552394612252857
outer loop
vertex 37.7662650487165 14.6364055600779 8.45989944764369e-015
vertex 31.4367104496698 8.30685096103112 8.45989944764369e-015
vertex 37.4698972167097 14.6364055600779 3.78793934038227
endloop
endfacet
facet normal -0.705715326535397 0.706267906893451 -0.0561384145250133
outer loop
vertex 37.4698972167097 14.6364055600779 3.78793934038227
vertex 31.4367104496698 8.30685096103112 8.45989944764369e-015
vertex 31.164428483857 8.30685096103112 3.23628230804049
endloop
endfacet
facet normal 0.70510919375278 -0.706910823724239 0.0556606879837313
outer loop
vertex 38.5946921734627 12.6364055600779 1.12798659301916e-014
vertex 28.3332249452198 2.6364055600779 2.98858409427524
vertex 28.5946921734627 2.6364055600779 1.26898491714655e-014
endloop
endfacet
facet normal -0.705400046859257 0.706365799853135 -0.0588058729107863
outer loop
vertex 31.4367104496698 8.30685096103112 8.45989944764369e-015
vertex 29.3085945303797 6.17873504174106 7.04991620636974e-015
vertex 31.164428483857 8.30685096103112 3.23628230804049
endloop
endfacet
facet normal -0.704887764823286 0.706798414456939 -0.0597431194665095
outer loop
vertex 31.164428483857 8.30685096103112 3.23628230804049
vertex 29.3085945303797 6.17873504174106 7.04991620636974e-015
vertex 29.0444106881356 6.17873504174106 3.05080478444165
endloop
endfacet
facet normal 0.705004737027948 -0.707089704008581 0.0547034848360812
outer loop
vertex 38.2951719261372 12.6364055600779 3.86014152175184
vertex 28.3332249452198 2.6364055600779 2.98858409427524
vertex 38.5946921734627 12.6364055600779 1.12798659301916e-014
endloop
endfacet
facet normal -0.920243170598475 -0.381622366339762 -0.0866999220074971
outer loop
vertex 37.0223734868437 14.6364055600779 8.56648184110549
vertex 38.2951719261372 12.6364055600779 3.86014152175184
vertex 37.8382149420994 12.6364055600779 8.71033670164753
endloop
endfacet
facet normal -0.235446216391508 0.971670938886463 -0.0205101367724107
outer loop
vertex 66.9481423144359 14.6364055600779 13.8432023038543
vertex 76.562795356957 16.6739345515566 0.0
vertex 68.1536870973944 14.6364055600779 1.69197988952874e-014
endloop
endfacet
facet normal -0.23545072854929 0.971669775762039 -0.020513441840868
outer loop
vertex 75.2294973243721 16.6739345515566 15.3034286289313
vertex 76.562795356957 16.6739345515566 0.0
vertex 66.9481423144359 14.6364055600779 13.8432023038543
endloop
endfacet
facet normal -0.919856908683806 -0.382677327416052 -0.0861471452131734
outer loop
vertex 37.4698972167097 14.6364055600779 3.78793934038227
vertex 38.2951719261372 12.6364055600779 3.86014152175184
vertex 37.0223734868437 14.6364055600779 8.56648184110549
endloop
endfacet
facet normal -0.17364817766693 5.79850023276855e-015 0.984807753012208
outer loop
vertex 37.8382149420994 12.6364055600779 8.71033670164753
vertex 66.9481423144359 14.6364055600779 13.8432023038543
vertex 37.0223734868437 14.6364055600779 8.56648184110549
endloop
endfacet
facet normal -0.17364817766693 5.79850023276855e-015 0.984807753012208
outer loop
vertex 66.9481423144359 14.6364055600779 13.8432023038543
vertex 37.8382149420994 12.6364055600779 8.71033670164753
vertex 67.3824475324656 12.6364055600779 13.9197820316554
endloop
endfacet
facet normal -0.17364817766693 5.79850023276855e-015 0.984807753012208
outer loop
vertex 66.9481423144359 14.6364055600779 13.8432023038543
vertex 67.3824475324656 12.6364055600779 13.9197820316554
vertex 75.2294973243721 16.6739345515566 15.3034286289313
endloop
endfacet
facet normal -0.17364817766693 5.79850023276855e-015 0.984807753012208
outer loop
vertex 75.2294973243721 16.6739345515566 15.3034286289313
vertex 67.3824475324656 12.6364055600779 13.9197820316554
vertex 76.0578329481791 14.8594023312678 15.4494865484905
endloop
endfacet
facet normal -0.173648177666931 -1.21081451800002e-015 0.984807753012208
outer loop
vertex 3.36994358667211 2.6364055600779 2.63265048330496
vertex 27.1742959567217 4.6364055600779 6.83000006443619
vertex -1.55409517838893 4.6364055600779 1.7644095949703
endloop
endfacet
facet normal -0.173648177666931 -1.21081451800002e-015 0.984807753012208
outer loop
vertex 27.1742959567217 4.6364055600779 6.83000006443619
vertex 3.36994358667211 2.6364055600779 2.63265048330496
vertex 27.9901374119773 2.6364055600779 6.97385492497822
endloop
endfacet
facet normal -0.0871557427476602 9.43809901502512e-016 0.996194698091745
outer loop
vertex 28.3332249452198 2.6364055600779 2.98858409427524
vertex 29.0444106881356 6.17873504174106 3.05080478444165
vertex 27.5079502357922 4.6364055600779 2.91638191290569
endloop
endfacet
facet normal -0.0871557427476602 9.43809901502512e-016 0.996194698091745
outer loop
vertex 29.0444106881356 6.17873504174106 3.05080478444165
vertex 28.3332249452198 2.6364055600779 2.98858409427524
vertex 38.2951719261372 12.6364055600779 3.86014152175184
endloop
endfacet
facet normal -0.0871557427476602 9.43809901502512e-016 0.996194698091745
outer loop
vertex 29.0444106881356 6.17873504174106 3.05080478444165
vertex 38.2951719261372 12.6364055600779 3.86014152175184
vertex 31.164428483857 8.30685096103112 3.23628230804049
endloop
endfacet
facet normal -0.0871557427476602 9.43809901502512e-016 0.996194698091745
outer loop
vertex 31.164428483857 8.30685096103112 3.23628230804049
vertex 38.2951719261372 12.6364055600779 3.86014152175184
vertex 37.4698972167097 14.6364055600779 3.78793934038227
endloop
endfacet
facet normal 0.0 1.0 0.0
outer loop
vertex -1.55409517838893 4.6364055600779 1.7644095949703
vertex 27.7662650487165 4.6364055600779 1.26898491714655e-014
vertex -1.40530782653728 4.6364055600779 4.93494134445882e-015
endloop
endfacet
facet normal 0.0 1.0 0.0
outer loop
vertex 27.7662650487165 4.6364055600779 1.26898491714655e-014
vertex -1.55409517838893 4.6364055600779 1.7644095949703
vertex 27.5079502357922 4.6364055600779 2.91638191290569
endloop
endfacet
facet normal 0.0 1.0 0.0
outer loop
vertex 27.5079502357922 4.6364055600779 2.91638191290569
vertex -1.55409517838893 4.6364055600779 1.7644095949703
vertex 27.1742959567217 4.6364055600779 6.83000006443619
endloop
endfacet
facet normal 0.0 -1.0 0.0
outer loop
vertex 28.5946921734627 2.6364055600779 1.26898491714655e-014
vertex 3.36994358667211 2.6364055600779 2.63265048330496
vertex 3.59469217346272 2.6364055600779 2.8199664825479e-015
endloop
endfacet
facet normal 0.0 -1.0 0.0
outer loop
vertex 3.36994358667211 2.6364055600779 2.63265048330496
vertex 28.5946921734627 2.6364055600779 1.26898491714655e-014
vertex 28.3332249452198 2.6364055600779 2.98858409427524
endloop
endfacet
facet normal 0.0 -1.0 0.0
outer loop
vertex 3.36994358667211 2.6364055600779 2.63265048330496
vertex 28.3332249452198 2.6364055600779 2.98858409427524
vertex 27.9901374119773 2.6364055600779 6.97385492497822
endloop
endfacet
facet normal 0.0 -1.0 0.0
outer loop
vertex 67.3824475324656 12.6364055600779 13.9197820316554
vertex 38.5946921734627 12.6364055600779 1.12798659301916e-014
vertex 68.5946921734627 12.6364055600779 1.12798659301916e-014
endloop
endfacet
facet normal 0.0 -1.0 0.0
outer loop
vertex 38.5946921734627 12.6364055600779 1.12798659301916e-014
vertex 67.3824475324656 12.6364055600779 13.9197820316554
vertex 38.2951719261372 12.6364055600779 3.86014152175184
endloop
endfacet
facet normal 0.0 -1.0 0.0
outer loop
vertex 38.2951719261372 12.6364055600779 3.86014152175184
vertex 67.3824475324656 12.6364055600779 13.9197820316554
vertex 37.8382149420994 12.6364055600779 8.71033670164753
endloop
endfacet
facet normal 0.0 1.0 0.0
outer loop
vertex 37.4698972167097 14.6364055600779 3.78793934038227
vertex 68.1536870973944 14.6364055600779 1.69197988952874e-014
vertex 37.7662650487165 14.6364055600779 8.45989944764369e-015
endloop
endfacet
facet normal 0.0 1.0 0.0
outer loop
vertex 68.1536870973944 14.6364055600779 1.69197988952874e-014
vertex 37.4698972167097 14.6364055600779 3.78793934038227
vertex 66.9481423144359 14.6364055600779 13.8432023038543
endloop
endfacet
facet normal 0.0 1.0 0.0
outer loop
vertex 66.9481423144359 14.6364055600779 13.8432023038543
vertex 37.4698972167097 14.6364055600779 3.78793934038227
vertex 37.0223734868437 14.6364055600779 8.56648184110549
endloop
endfacet
facet normal 1.91562993556799e-016 -5.4371166661967e-016 -1.0
outer loop
vertex 27.7662650487165 4.6364055600779 1.26898491714655e-014
vertex 3.59469217346272 2.6364055600779 2.8199664825479e-015
vertex -1.40530782653728 4.6364055600779 4.93494134445882e-015
endloop
endfacet
facet normal 1.91562993556799e-016 -5.4371166661967e-016 -1.0
outer loop
vertex 3.59469217346272 2.6364055600779 2.8199664825479e-015
vertex 27.7662650487165 4.6364055600779 1.26898491714655e-014
vertex 28.5946921734627 2.6364055600779 1.26898491714655e-014
endloop
endfacet
facet normal 1.91562993556799e-016 -5.4371166661967e-016 -1.0
outer loop
vertex 28.5946921734627 2.6364055600779 1.26898491714655e-014
vertex 27.7662650487165 4.6364055600779 1.26898491714655e-014
vertex 29.3085945303797 6.17873504174106 7.04991620636974e-015
endloop
endfacet
facet normal 1.91562993556799e-016 -5.4371166661967e-016 -1.0
outer loop
vertex 28.5946921734627 2.6364055600779 1.26898491714655e-014
vertex 29.3085945303797 6.17873504174106 7.04991620636974e-015
vertex 38.5946921734627 12.6364055600779 1.12798659301916e-014
endloop
endfacet
facet normal 1.91562993556799e-016 -5.4371166661967e-016 -1.0
outer loop
vertex 38.5946921734627 12.6364055600779 1.12798659301916e-014
vertex 29.3085945303797 6.17873504174106 7.04991620636974e-015
vertex 31.4367104496698 8.30685096103112 8.45989944764369e-015
endloop
endfacet
facet normal 1.91562993556799e-016 -5.4371166661967e-016 -1.0
outer loop
vertex 38.5946921734627 12.6364055600779 1.12798659301916e-014
vertex 31.4367104496698 8.30685096103112 8.45989944764369e-015
vertex 37.7662650487165 14.6364055600779 8.45989944764369e-015
endloop
endfacet
facet normal 1.91562993556799e-016 -5.4371166661967e-016 -1.0
outer loop
vertex 38.5946921734627 12.6364055600779 1.12798659301916e-014
vertex 37.7662650487165 14.6364055600779 8.45989944764369e-015
vertex 68.1536870973944 14.6364055600779 1.69197988952874e-014
endloop
endfacet
facet normal 1.91562993556799e-016 -5.4371166661967e-016 -1.0
outer loop
vertex 38.5946921734627 12.6364055600779 1.12798659301916e-014
vertex 68.1536870973944 14.6364055600779 1.69197988952874e-014
vertex 68.5946921734627 12.6364055600779 1.12798659301916e-014
endloop
endfacet
facet normal 1.91562993556799e-016 -5.4371166661967e-016 -1.0
outer loop
vertex 68.5946921734627 12.6364055600779 1.12798659301916e-014
vertex 68.1536870973944 14.6364055600779 1.69197988952874e-014
vertex 76.562795356957 16.6739345515566 0.0
endloop
endfacet
facet normal 1.91562993556799e-016 -5.4371166661967e-016 -1.0
outer loop
vertex 68.5946921734627 12.6364055600779 1.12798659301916e-014
vertex 76.562795356957 16.6739345515566 0.0
vertex 77.4039093929437 14.8594023312678 2.25597318603832e-014
endloop
endfacet
endsolid cross-plier-tough
