solid cross-plier-normal
facet normal 0.90445505177269 0.419227432640847 0.0787998670317737
outer loop
vertex 76.6348051509094 12.0375289914787 15.3034286289313
vertex 77.4631407747164 10.2229967711899 15.4494865484905
vertex 77.9681031834943 12.0375289914787 0.0
endloop
endfacet
facet normal 0.904444766845702 0.419249203548203 0.07880208785065
outer loop
vertex 77.9681031834943 12.0375289914787 0.0
vertex 77.4631407747164 10.2229967711899 15.4494865484905
vertex 78.809217219481 10.2229967711899 2.25597318603832e-014
endloop
endfacet
facet normal -0.704702425795981 0.706838051764772 -0.0614366312116976
outer loop
vertex 30.4497185146729 1.54232948166315 3.05080478444165
vertex 29.1715728752538 -2.11497486191092e-015 1.26898491714655e-014
vertex 28.9132580623295 -2.11497486191092e-015 2.91638191290569
endloop
endfacet
facet normal 0.244633137380853 -0.969381549937561 0.0213081847150819
outer loop
vertex 77.4631407747164 10.2229967711899 15.4494865484905
vertex 68.7877553590029 8.0 13.9197820316554
vertex 70.0 8.0 1.12798659301916e-014
endloop
endfacet
facet normal -0.704702425795981 0.706838051764772 -0.0614366312116976
outer loop
vertex 30.4497185146729 1.54232948166315 3.05080478444165
vertex 30.713902356917 1.54232948166315 7.04991620636974e-015
vertex 29.1715728752538 -2.11497486191092e-015 1.26898491714655e-014
endloop
endfacet
facet normal 0.244633137380853 -0.969381549937561 0.0213081847150819
outer loop
vertex 77.4631407747164 10.2229967711899 15.4494865484905
vertex 70.0 8.0 1.12798659301916e-014
vertex 78.809217219481 10.2229967711899 2.25597318603832e-014
endloop
endfacet
facet normal -0.371384268323781 -0.927950928547703 -0.0313177178138101
outer loop
vertex 4.77525141320939 -2.0 2.63265048330496
vertex -0.148787351851652 -2.11497486191092e-015 1.7644095949703
vertex 1.05748743095546e-015 -2.11497486191092e-015 4.93494134445882e-015
endloop
endfacet
facet normal -0.371204148691984 -0.92801037172996 -0.0316895874930582
outer loop
vertex 4.77525141320939 -2.0 2.63265048330496
vertex 1.05748743095546e-015 -2.11497486191092e-015 4.93494134445882e-015
vertex 5.0 -2.0 2.8199664825479e-015
endloop
endfacet
facet normal 0.921078950329378 0.381375390222755 0.0785262949117908
outer loop
vertex 28.5796037832589 -2.11497486191092e-015 6.83000006443619
vertex 29.3954452385146 -2.0 6.97385492497822
vertex 28.9132580623295 -2.11497486191092e-015 2.91638191290569
endloop
endfacet
facet normal 0.920475003050291 0.382683117126596 0.079242669224596
outer loop
vertex 28.9132580623295 -2.11497486191092e-015 2.91638191290569
vertex 29.3954452385146 -2.0 6.97385492497822
vertex 29.738532771757 -2.0 2.98858409427524
endloop
endfacet
facet normal -0.706027124805961 0.706027124805959 -0.0552394612252857
outer loop
vertex 39.1715728752538 9.99999999999999 8.45989944764369e-015
vertex 32.8420182762071 3.67044540095322 8.45989944764369e-015
vertex 38.875205043247 9.99999999999999 3.78793934038227
endloop
endfacet
facet normal -0.705715326535397 0.706267906893451 -0.0561384145250133
outer loop
vertex 38.875205043247 9.99999999999999 3.78793934038227
vertex 32.8420182762071 3.67044540095322 8.45989944764369e-015
vertex 32.5697363103943 3.67044540095322 3.23628230804049
endloop
endfacet
facet normal 0.70510919375278 -0.706910823724239 0.0556606879837313
outer loop
vertex 40.0 8.0 1.12798659301916e-014
vertex 29.738532771757 -2.0 2.98858409427524
vertex 30.0 -2.0 1.26898491714655e-014
endloop
endfacet
facet normal -0.705400046859257 0.706365799853135 -0.0588058729107863
outer loop
vertex 32.8420182762071 3.67044540095322 8.45989944764369e-015
vertex 30.713902356917 1.54232948166315 7.04991620636974e-015
vertex 32.5697363103943 3.67044540095322 3.23628230804049
endloop
endfacet
facet normal -0.704887764823286 0.706798414456939 -0.0597431194665094
outer loop
vertex 32.5697363103943 3.67044540095322 3.23628230804049
vertex 30.713902356917 1.54232948166315 7.04991620636974e-015
vertex 30.4497185146729 1.54232948166315 3.05080478444165
endloop
endfacet
facet normal 0.705004737027948 -0.707089704008581 0.0547034848360812
outer loop
vertex 39.7004797526745 8.0 3.86014152175184
vertex 29.738532771757 -2.0 2.98858409427524
vertex 40.0 8.0 1.12798659301916e-014
endloop
endfacet
facet normal -0.920243170598475 -0.381622366339762 -0.0866999220074971
outer loop
vertex 38.427681313381 9.99999999999999 8.56648184110549
vertex 39.7004797526745 8.0 3.86014152175184
vertex 39.2435227686367 8.0 8.71033670164753
endloop
endfacet
facet normal -0.235446216391508 0.971670938886463 -0.0205101367724107
outer loop
vertex 68.3534501409731 9.99999999999999 13.8432023038543
vertex 77.9681031834943 12.0375289914787 0.0
vertex 69.5589949239317 9.99999999999999 1.69197988952874e-014
endloop
endfacet
facet normal -0.23545072854929 0.971669775762039 -0.020513441840868
outer loop
vertex 76.6348051509094 12.0375289914787 15.3034286289313
vertex 77.9681031834943 12.0375289914787 0.0
vertex 68.3534501409731 9.99999999999999 13.8432023038543
endloop
endfacet
facet normal -0.919856908683806 -0.382677327416052 -0.0861471452131734
outer loop
vertex 38.875205043247 9.99999999999999 3.78793934038227
vertex 39.7004797526745 8.0 3.86014152175184
vertex 38.427681313381 9.99999999999999 8.56648184110549
endloop
endfacet
facet normal -0.173648177666929 1.81560961076596e-015 0.984807753012208
outer loop
vertex 68.7877553590029 8.0 13.9197820316554
vertex 67.0612740745431 9.99999999999999 13.615356799517
vertex 67.0612740745431 8.0 13.615356799517
endloop
endfacet
facet normal -0.173648177666929 1.81560961076596e-015 0.984807753012208
outer loop
vertex 67.0612740745431 9.99999999999999 13.615356799517
vertex 68.7877553590029 8.0 13.9197820316554
vertex 68.3534501409731 9.99999999999999 13.8432023038543
endloop
endfacet
facet normal -0.173648177666929 1.81560961076596e-015 0.984807753012208
outer loop
vertex 68.3534501409731 9.99999999999999 13.8432023038543
vertex 68.7877553590029 8.0 13.9197820316554
vertex 76.6348051509094 12.0375289914787 15.3034286289313
endloop
endfacet
facet normal -0.173648177666929 1.81560961076596e-015 0.984807753012208
outer loop
vertex 76.6348051509094 12.0375289914787 15.3034286289313
vertex 68.7877553590029 8.0 13.9197820316554
vertex 77.4631407747164 10.2229967711899 15.4494865484905
endloop
endfacet
facet normal -0.173648177666931 -1.21081451800002e-015 0.984807753012208
outer loop
vertex 4.77525141320939 -2.0 2.63265048330496
vertex 28.5796037832589 -2.11497486191092e-015 6.83000006443619
vertex -0.148787351851652 -2.11497486191092e-015 1.7644095949703
endloop
endfacet
facet normal -0.173648177666931 -1.21081451800002e-015 0.984807753012208
outer loop
vertex 28.5796037832589 -2.11497486191092e-015 6.83000006443619
vertex 4.77525141320939 -2.0 2.63265048330496
vertex 29.3954452385146 -2.0 6.97385492497822
endloop
endfacet
facet normal -0.0871557427476602 9.43809901502512e-016 0.996194698091745
outer loop
vertex 29.738532771757 -2.0 2.98858409427524
vertex 30.4497185146729 1.54232948166315 3.05080478444165
vertex 28.9132580623295 -2.11497486191092e-015 2.91638191290569
endloop
endfacet
facet normal -0.0871557427476602 9.43809901502512e-016 0.996194698091745
outer loop
vertex 30.4497185146729 1.54232948166315 3.05080478444165
vertex 29.738532771757 -2.0 2.98858409427524
vertex 39.7004797526745 8.0 3.86014152175184
endloop
endfacet
facet normal -0.0871557427476602 9.43809901502512e-016 0.996194698091745
outer loop
vertex 30.4497185146729 1.54232948166315 3.05080478444165
vertex 39.7004797526745 8.0 3.86014152175184
vertex 32.5697363103943 3.67044540095322 3.23628230804049
endloop
endfacet
facet normal -0.0871557427476602 9.43809901502512e-016 0.996194698091745
outer loop
vertex 32.5697363103943 3.67044540095322 3.23628230804049
vertex 39.7004797526745 8.0 3.86014152175184
vertex 38.875205043247 9.99999999999999 3.78793934038227
endloop
endfacet
facet normal 0.0 1.0 0.0
outer loop
vertex -0.148787351851652 -2.11497486191092e-015 1.7644095949703
vertex 29.1715728752538 -2.11497486191092e-015 1.26898491714655e-014
vertex 1.05748743095546e-015 -2.11497486191092e-015 4.93494134445882e-015
endloop
endfacet
facet normal 0.0 1.0 0.0
outer loop
vertex 29.1715728752538 -2.11497486191092e-015 1.26898491714655e-014
vertex -0.148787351851652 -2.11497486191092e-015 1.7644095949703
vertex 28.9132580623295 -2.11497486191092e-015 2.91638191290569
endloop
endfacet
facet normal 0.0 1.0 0.0
outer loop
vertex 28.9132580623295 -2.11497486191092e-015 2.91638191290569
vertex -0.148787351851652 -2.11497486191092e-015 1.7644095949703
vertex 28.5796037832589 -2.11497486191092e-015 6.83000006443619
endloop
endfacet
facet normal 0.0 -1.0 0.0
outer loop
vertex 30.0 -2.0 1.26898491714655e-014
vertex 4.77525141320939 -2.0 2.63265048330496
vertex 5.0 -2.0 2.8199664825479e-015
endloop
endfacet
facet normal 0.0 -1.0 0.0
outer loop
vertex 4.77525141320939 -2.0 2.63265048330496
vertex 30.0 -2.0 1.26898491714655e-014
vertex 29.738532771757 -2.0 2.98858409427524
endloop
endfacet
facet normal 0.0 -1.0 0.0
outer loop
vertex 4.77525141320939 -2.0 2.63265048330496
vertex 29.738532771757 -2.0 2.98858409427524
vertex 29.3954452385146 -2.0 6.97385492497822
endloop
endfacet
facet normal 0.0 -1.0 0.0
outer loop
vertex 70.0 8.0 1.12798659301916e-014
vertex 67.6540797940126 8.0 6.80837566463144
vertex 40.0 8.0 1.12798659301916e-014
endloop
endfacet
facet normal 0.0 -1.0 0.0
outer loop
vertex 67.6540797940126 8.0 6.80837566463144
vertex 70.0 8.0 1.12798659301916e-014
vertex 68.7877553590029 8.0 13.9197820316554
endloop
endfacet
facet normal 0.0 -1.0 0.0
outer loop
vertex 40.0 8.0 1.12798659301916e-014
vertex 67.6540797940126 8.0 6.80837566463144
vertex 39.7004797526745 8.0 3.86014152175184
endloop
endfacet
facet normal 0.0 -1.0 0.0
outer loop
vertex 39.7004797526745 8.0 3.86014152175184
vertex 67.6540797940126 8.0 6.80837566463144
vertex 66.1023138052405 8.0 6.67323561720163
endloop
endfacet
facet normal 0.0 -1.0 0.0
outer loop
vertex 67.6540797940126 8.0 6.80837566463144
vertex 68.7877553590029 8.0 13.9197820316554
vertex 67.0612740745431 8.0 13.615356799517
endloop
endfacet
facet normal 0.0 -1.0 0.0
outer loop
vertex 66.1023138052405 8.0 6.67323561720163
vertex 39.2435227686367 8.0 8.71033670164753
vertex 39.7004797526745 8.0 3.86014152175184
endloop
endfacet
facet normal 0.0 -1.0 0.0
outer loop
vertex 39.2435227686367 8.0 8.71033670164753
vertex 66.1023138052405 8.0 6.67323561720163
vertex 65.5213854703428 8.0 13.343832891311
endloop
endfacet
facet normal 0.0 1.0 0.0
outer loop
vertex 38.427681313381 9.99999999999999 8.56648184110549
vertex 66.1023138052405 9.99999999999999 6.67323561720163
vertex 38.875205043247 9.99999999999999 3.78793934038227
endloop
endfacet
facet normal 0.0 1.0 0.0
outer loop
vertex 66.1023138052405 9.99999999999999 6.67323561720163
vertex 38.427681313381 9.99999999999999 8.56648184110549
vertex 65.5213854703428 9.99999999999999 13.343832891311
endloop
endfacet
facet normal 0.0 1.0 0.0
outer loop
vertex 38.875205043247 9.99999999999999 3.78793934038227
vertex 69.5589949239317 9.99999999999999 1.69197988952874e-014
vertex 39.1715728752538 9.99999999999999 8.45989944764369e-015
endloop
endfacet
facet normal 0.0 1.0 0.0
outer loop
vertex 69.5589949239317 9.99999999999999 1.69197988952874e-014
vertex 38.875205043247 9.99999999999999 3.78793934038227
vertex 67.6540797940126 9.99999999999999 6.80837566463144
endloop
endfacet
facet normal 0.0 1.0 0.0
outer loop
vertex 69.5589949239317 9.99999999999999 1.69197988952874e-014
vertex 67.6540797940126 9.99999999999999 6.80837566463144
vertex 68.3534501409731 9.99999999999999 13.8432023038543
endloop
endfacet
facet normal 0.0 1.0 0.0
outer loop
vertex 67.6540797940126 9.99999999999999 6.80837566463144
vertex 38.875205043247 9.99999999999999 3.78793934038227
vertex 66.1023138052405 9.99999999999999 6.67323561720163
endloop
endfacet
facet normal 0.0 1.0 0.0
outer loop
vertex 68.3534501409731 9.99999999999999 13.8432023038543
vertex 67.6540797940126 9.99999999999999 6.80837566463144
vertex 67.0612740745431 9.99999999999999 13.615356799517
endloop
endfacet
facet normal 1.91562993556799e-016 -5.4371166661967e-016 -1.0
outer loop
vertex 29.1715728752538 -2.11497486191092e-015 1.26898491714655e-014
vertex 5.0 -2.0 2.8199664825479e-015
vertex 1.05748743095546e-015 -2.11497486191092e-015 4.93494134445882e-015
endloop
endfacet
facet normal 1.91562993556799e-016 -5.4371166661967e-016 -1.0
outer loop
vertex 5.0 -2.0 2.8199664825479e-015
vertex 29.1715728752538 -2.11497486191092e-015 1.26898491714655e-014
vertex 30.0 -2.0 1.26898491714655e-014
endloop
endfacet
facet normal 1.91562993556799e-016 -5.4371166661967e-016 -1.0
outer loop
vertex 30.0 -2.0 1.26898491714655e-014
vertex 29.1715728752538 -2.11497486191092e-015 1.26898491714655e-014
vertex 30.713902356917 1.54232948166315 7.04991620636974e-015
endloop
endfacet
facet normal 1.91562993556799e-016 -5.4371166661967e-016 -1.0
outer loop
vertex 30.0 -2.0 1.26898491714655e-014
vertex 30.713902356917 1.54232948166315 7.04991620636974e-015
vertex 40.0 8.0 1.12798659301916e-014
endloop
endfacet
facet normal 1.91562993556799e-016 -5.4371166661967e-016 -1.0
outer loop
vertex 40.0 8.0 1.12798659301916e-014
vertex 30.713902356917 1.54232948166315 7.04991620636974e-015
vertex 32.8420182762071 3.67044540095322 8.45989944764369e-015
endloop
endfacet
facet normal 1.91562993556799e-016 -5.4371166661967e-016 -1.0
outer loop
vertex 40.0 8.0 1.12798659301916e-014
vertex 32.8420182762071 3.67044540095322 8.45989944764369e-015
vertex 39.1715728752538 9.99999999999999 8.45989944764369e-015
endloop
endfacet
facet normal 1.91562993556799e-016 -5.4371166661967e-016 -1.0
outer loop
vertex 40.0 8.0 1.12798659301916e-014
vertex 39.1715728752538 9.99999999999999 8.45989944764369e-015
vertex 69.5589949239317 9.99999999999999 1.69197988952874e-014
endloop
endfacet
facet normal 1.91562993556799e-016 -5.4371166661967e-016 -1.0
outer loop
vertex 40.0 8.0 1.12798659301916e-014
vertex 69.5589949239317 9.99999999999999 1.69197988952874e-014
vertex 70.0 8.0 1.12798659301916e-014
endloop
endfacet
facet normal 1.91562993556799e-016 -5.4371166661967e-016 -1.0
outer loop
vertex 70.0 8.0 1.12798659301916e-014
vertex 69.5589949239317 9.99999999999999 1.69197988952874e-014
vertex 77.9681031834943 12.0375289914787 0.0
endloop
endfacet
facet normal 1.91562993556799e-016 -5.4371166661967e-016 -1.0
outer loop
vertex 70.0 8.0 1.12798659301916e-014
vertex 77.9681031834943 12.0375289914787 0.0
vertex 78.809217219481 10.2229967711899 2.25597318603832e-014
endloop
endfacet
facet normal 0.996229283676622 0.0 0.0867595201990208
outer loop
vertex 66.1023138052405 9.99999999999999 6.67323561720163
vertex 65.5213854703428 8.0 13.343832891311
vertex 66.1023138052405 8.0 6.67323561720163
endloop
endfacet
facet normal 0.996229283676622 0.0 0.0867595201990208
outer loop
vertex 65.5213854703428 8.0 13.343832891311
vertex 66.1023138052405 9.99999999999999 6.67323561720163
vertex 65.5213854703428 9.99999999999999 13.343832891311
endloop
endfacet
facet normal -0.0867595201990219 0.0 0.996229283676622
outer loop
vertex 67.6540797940126 8.0 6.80837566463144
vertex 66.1023138052405 9.99999999999999 6.67323561720163
vertex 66.1023138052405 8.0 6.67323561720163
endloop
endfacet
facet normal -0.0867595201990219 0.0 0.996229283676622
outer loop
vertex 66.1023138052405 9.99999999999999 6.67323561720163
vertex 67.6540797940126 8.0 6.80837566463144
vertex 67.6540797940126 9.99999999999999 6.80837566463144
endloop
endfacet
facet normal -0.996229283676622 0.0 -0.0867595201990219
outer loop
vertex 67.0612740745431 9.99999999999999 13.615356799517
vertex 67.6540797940126 8.0 6.80837566463144
vertex 67.0612740745431 8.0 13.615356799517
endloop
endfacet
facet normal -0.996229283676622 0.0 -0.0867595201990219
outer loop
vertex 67.6540797940126 8.0 6.80837566463144
vertex 67.0612740745431 9.99999999999999 13.615356799517
vertex 67.6540797940126 9.99999999999999 6.80837566463144
endloop
endfacet
facet normal -0.173648177666931 3.85276197662899e-015 0.984807753012208
outer loop
vertex 39.2435227686367 8.0 8.71033670164753
vertex 65.5213854703428 9.99999999999999 13.343832891311
vertex 38.427681313381 9.99999999999999 8.56648184110549
endloop
endfacet
facet normal -0.173648177666931 3.85276197662899e-015 0.984807753012208
outer loop
vertex 65.5213854703428 9.99999999999999 13.343832891311
vertex 39.2435227686367 8.0 8.71033670164753
vertex 65.5213854703428 8.0 13.343832891311
endloop
endfacet
facet normal 0.0 0.0 -1.0
outer loop
vertex 56.986242828869 4.28264154662399 2.25597318603832e-014
vertex 48.986242828869 1.53264154662399 2.25597318603832e-014
vertex 48.986242828869 3.53264154662399 2.25597318603832e-014
endloop
endfacet
facet normal 0.0 0.0 -1.0
outer loop
vertex 48.986242828869 1.53264154662399 2.25597318603832e-014
vertex 56.986242828869 4.28264154662399 2.25597318603832e-014
vertex 56.986242828869 2.28264154662399 2.25597318603832e-014
endloop
endfacet
facet normal 0.0 0.0 -1.0
outer loop
vertex 56.986242828869 2.28264154662399 2.25597318603832e-014
vertex 56.986242828869 4.28264154662399 2.25597318603832e-014
vertex 57.503880919074 4.21449319920213 2.25597318603832e-014
endloop
endfacet
facet normal 0.0 0.0 -1.0
outer loop
vertex 56.986242828869 2.28264154662399 2.25597318603832e-014
vertex 57.503880919074 4.21449319920213 2.25597318603832e-014
vertex 56.986242828869 -2.71735845337601 2.25597318603832e-014
endloop
endfacet
facet normal 0.0 0.0 -1.0
outer loop
vertex 56.986242828869 -2.71735845337601 2.25597318603832e-014
vertex 57.503880919074 4.21449319920213 2.25597318603832e-014
vertex 56.986242828869 -4.71735845337601 2.25597318603832e-014
endloop
endfacet
facet normal 0.0 0.0 -1.0
outer loop
vertex 56.986242828869 -4.71735845337601 2.25597318603832e-014
vertex 57.503880919074 4.21449319920213 2.25597318603832e-014
vertex 57.503880919074 -4.64921010595414 2.25597318603832e-014
endloop
endfacet
facet normal 0.0 0.0 -1.0
outer loop
vertex 57.503880919074 -4.64921010595414 2.25597318603832e-014
vertex 57.503880919074 4.21449319920213 2.25597318603832e-014
vertex 57.986242828869 4.01469235419287 2.25597318603832e-014
endloop
endfacet
facet normal 0.0 0.0 -1.0
outer loop
vertex 57.503880919074 -4.64921010595414 2.25597318603832e-014
vertex 57.986242828869 4.01469235419287 2.25597318603832e-014
vertex 57.986242828869 -4.44940926094488 2.25597318603832e-014
endloop
endfacet
facet normal 0.0 0.0 -1.0
outer loop
vertex 57.986242828869 -4.44940926094488 2.25597318603832e-014
vertex 57.986242828869 4.01469235419287 2.25597318603832e-014
vertex 58.4004563912421 3.69685510899709 2.25597318603832e-014
endloop
endfacet
facet normal 0.0 0.0 -1.0
outer loop
vertex 57.986242828869 -4.44940926094488 2.25597318603832e-014
vertex 58.4004563912421 3.69685510899709 2.25597318603832e-014
vertex 58.4004563912421 -4.1315720157491 2.25597318603832e-014
endloop
endfacet
facet normal 0.0 0.0 -1.0
outer loop
vertex 58.4004563912421 -4.1315720157491 2.25597318603832e-014
vertex 58.4004563912421 3.69685510899709 2.25597318603832e-014
vertex 58.7182936364378 3.28264154662399 2.25597318603832e-014
endloop
endfacet
facet normal 0.0 0.0 -1.0
outer loop
vertex 58.4004563912421 -4.1315720157491 2.25597318603832e-014
vertex 58.7182936364378 3.28264154662399 2.25597318603832e-014
vertex 58.7182936364378 -3.71735845337601 2.25597318603832e-014
endloop
endfacet
facet normal 0.0 0.0 -1.0
outer loop
vertex 58.7182936364378 -3.71735845337601 2.25597318603832e-014
vertex 58.7182936364378 3.28264154662399 2.25597318603832e-014
vertex 58.9180944814471 2.80027963682903 2.25597318603832e-014
endloop
endfacet
facet normal 0.0 0.0 -1.0
outer loop
vertex 58.7182936364378 -3.71735845337601 2.25597318603832e-014
vertex 58.9180944814471 2.80027963682903 2.25597318603832e-014
vertex 58.9180944814471 -3.23499654358105 2.25597318603832e-014
endloop
endfacet
facet normal 0.0 0.0 -1.0
outer loop
vertex 58.9180944814471 -3.23499654358105 2.25597318603832e-014
vertex 58.9180944814471 2.80027963682903 2.25597318603832e-014
vertex 58.986242828869 2.28264154662399 2.25597318603832e-014
endloop
endfacet
facet normal 0.0 0.0 -1.0
outer loop
vertex 58.9180944814471 -3.23499654358105 2.25597318603832e-014
vertex 58.986242828869 2.28264154662399 2.25597318603832e-014
vertex 58.986242828869 -2.71735845337601 2.25597318603832e-014
endloop
endfacet
facet normal 0.0 0.0 -1.0
outer loop
vertex 56.986242828869 -2.71735845337601 2.25597318603832e-014
vertex 48.986242828869 -3.96735845337601 2.25597318603832e-014
vertex 48.986242828869 -1.96735845337601 2.25597318603832e-014
endloop
endfacet
facet normal 0.0 0.0 -1.0
outer loop
vertex 48.986242828869 -3.96735845337601 2.25597318603832e-014
vertex 56.986242828869 -2.71735845337601 2.25597318603832e-014
vertex 56.986242828869 -4.71735845337601 2.25597318603832e-014
endloop
endfacet
facet normal 0.258819045102521 -0.965925826289068 0.0
outer loop
vertex 57.503880919074 -4.64921010595414 13.0
vertex 56.986242828869 -4.71735845337601 2.25597318603832e-014
vertex 57.503880919074 -4.64921010595414 2.25597318603832e-014
endloop
endfacet
facet normal 0.130526192220052 -0.99144486137381 0.0
outer loop
vertex 56.986242828869 -4.71735845337601 2.25597318603832e-014
vertex 57.503880919074 -4.64921010595414 13.0
vertex 56.986242828869 -4.71735845337601 13.0
endloop
endfacet
facet normal -0.0933407086930583 -0.995634226059288 0.0
outer loop
vertex 56.986242828869 -4.71735845337601 13.0
vertex 48.986242828869 -3.96735845337601 2.25597318603832e-014
vertex 56.986242828869 -4.71735845337601 2.25597318603832e-014
endloop
endfacet
facet normal -0.0933407086930583 -0.995634226059288 0.0
outer loop
vertex 48.986242828869 -3.96735845337601 2.25597318603832e-014
vertex 56.986242828869 -4.71735845337601 13.0
vertex 48.986242828869 -3.96735845337601 13.0
endloop
endfacet
facet normal -1.0 0.0 0.0
outer loop
vertex 48.986242828869 -1.96735845337601 13.0
vertex 48.986242828869 -3.96735845337601 2.25597318603832e-014
vertex 48.986242828869 -3.96735845337601 13.0
endloop
endfacet
facet normal -1.0 0.0 0.0
outer loop
vertex 48.986242828869 -3.96735845337601 2.25597318603832e-014
vertex 48.986242828869 -1.96735845337601 13.0
vertex 48.986242828869 -1.96735845337601 2.25597318603832e-014
endloop
endfacet
facet normal 1.0 0.0 0.0
outer loop
vertex 58.986242828869 2.28264154662399 2.25597318603832e-014
vertex 58.986242828869 -2.71735845337601 13.0
vertex 58.986242828869 -2.71735845337601 2.25597318603832e-014
endloop
endfacet
facet normal 1.0 0.0 0.0
outer loop
vertex 58.986242828869 -2.71735845337601 13.0
vertex 58.986242828869 2.28264154662399 2.25597318603832e-014
vertex 58.986242828869 2.28264154662399 13.0
endloop
endfacet
facet normal 0.99144486137381 -0.130526192220051 0.0
outer loop
vertex 58.986242828869 -2.71735845337601 2.25597318603832e-014
vertex 58.9180944814471 -3.23499654358105 13.0
vertex 58.9180944814471 -3.23499654358105 2.25597318603832e-014
endloop
endfacet
facet normal 0.965925826289068 -0.258819045102521 0.0
outer loop
vertex 58.9180944814471 -3.23499654358105 13.0
vertex 58.986242828869 -2.71735845337601 2.25597318603832e-014
vertex 58.986242828869 -2.71735845337601 13.0
endloop
endfacet
facet normal 0.965925826289068 -0.258819045102521 0.0
outer loop
vertex 58.9180944814471 -3.23499654358105 2.25597318603832e-014
vertex 58.7182936364378 -3.71735845337601 13.0
vertex 58.7182936364378 -3.71735845337601 2.25597318603832e-014
endloop
endfacet
facet normal 0.866025403784439 -0.5 0.0
outer loop
vertex 58.7182936364378 -3.71735845337601 13.0
vertex 58.9180944814471 -3.23499654358105 2.25597318603832e-014
vertex 58.9180944814471 -3.23499654358105 13.0
endloop
endfacet
facet normal 0.866025403784439 -0.5 0.0
outer loop
vertex 58.7182936364378 -3.71735845337601 2.25597318603832e-014
vertex 58.4004563912421 -4.1315720157491 13.0
vertex 58.4004563912421 -4.1315720157491 2.25597318603832e-014
endloop
endfacet
facet normal 0.707106781186547 -0.707106781186548 0.0
outer loop
vertex 58.4004563912421 -4.1315720157491 13.0
vertex 58.7182936364378 -3.71735845337601 2.25597318603832e-014
vertex 58.7182936364378 -3.71735845337601 13.0
endloop
endfacet
facet normal 0.707106781186547 -0.707106781186548 0.0
outer loop
vertex 58.4004563912421 -4.1315720157491 13.0
vertex 57.986242828869 -4.44940926094488 2.25597318603832e-014
vertex 58.4004563912421 -4.1315720157491 2.25597318603832e-014
endloop
endfacet
facet normal 0.5 -0.866025403784439 0.0
outer loop
vertex 57.986242828869 -4.44940926094488 2.25597318603832e-014
vertex 58.4004563912421 -4.1315720157491 13.0
vertex 57.986242828869 -4.44940926094488 13.0
endloop
endfacet
facet normal 0.5 -0.866025403784439 0.0
outer loop
vertex 57.986242828869 -4.44940926094488 13.0
vertex 57.503880919074 -4.64921010595414 2.25597318603832e-014
vertex 57.986242828869 -4.44940926094488 2.25597318603832e-014
endloop
endfacet
facet normal 0.258819045102521 -0.965925826289068 0.0
outer loop
vertex 57.503880919074 -4.64921010595414 2.25597318603832e-014
vertex 57.986242828869 -4.44940926094488 13.0
vertex 57.503880919074 -4.64921010595414 13.0
endloop
endfacet
facet normal 0.707106781186548 0.707106781186547 0.0
outer loop
vertex 58.4004563912421 3.69685510899709 2.25597318603832e-014
vertex 58.7182936364378 3.28264154662399 13.0
vertex 58.7182936364378 3.28264154662399 2.25597318603832e-014
endloop
endfacet
facet normal 0.866025403784439 0.5 0.0
outer loop
vertex 58.7182936364378 3.28264154662399 13.0
vertex 58.4004563912421 3.69685510899709 2.25597318603832e-014
vertex 58.4004563912421 3.69685510899709 13.0
endloop
endfacet
facet normal 0.866025403784439 0.5 0.0
outer loop
vertex 58.7182936364378 3.28264154662399 2.25597318603832e-014
vertex 58.9180944814471 2.80027963682903 13.0
vertex 58.9180944814471 2.80027963682903 2.25597318603832e-014
endloop
endfacet
facet normal 0.965925826289068 0.258819045102521 0.0
outer loop
vertex 58.9180944814471 2.80027963682903 13.0
vertex 58.7182936364378 3.28264154662399 2.25597318603832e-014
vertex 58.7182936364378 3.28264154662399 13.0
endloop
endfacet
facet normal 0.965925826289068 0.258819045102521 0.0
outer loop
vertex 58.9180944814471 2.80027963682903 2.25597318603832e-014
vertex 58.986242828869 2.28264154662399 13.0
vertex 58.986242828869 2.28264154662399 2.25597318603832e-014
endloop
endfacet
facet normal 0.99144486137381 0.130526192220052 0.0
outer loop
vertex 58.986242828869 2.28264154662399 13.0
vertex 58.9180944814471 2.80027963682903 2.25597318603832e-014
vertex 58.9180944814471 2.80027963682903 13.0
endloop
endfacet
facet normal 0.0933407086930584 -0.995634226059288 0.0
outer loop
vertex 56.986242828869 2.28264154662399 13.0
vertex 48.986242828869 1.53264154662399 2.25597318603832e-014
vertex 56.986242828869 2.28264154662399 2.25597318603832e-014
endloop
endfacet
facet normal 0.0933407086930584 -0.995634226059288 0.0
outer loop
vertex 48.986242828869 1.53264154662399 2.25597318603832e-014
vertex 56.986242828869 2.28264154662399 13.0
vertex 48.986242828869 1.53264154662399 13.0
endloop
endfacet
facet normal -1.0 0.0 0.0
outer loop
vertex 48.986242828869 3.53264154662399 13.0
vertex 48.986242828869 1.53264154662399 2.25597318603832e-014
vertex 48.986242828869 1.53264154662399 13.0
endloop
endfacet
facet normal -1.0 0.0 0.0
outer loop
vertex 48.986242828869 1.53264154662399 2.25597318603832e-014
vertex 48.986242828869 3.53264154662399 13.0
vertex 48.986242828869 3.53264154662399 2.25597318603832e-014
endloop
endfacet
facet normal -0.0933407086930585 0.995634226059288 0.0
outer loop
vertex 48.986242828869 3.53264154662399 13.0
vertex 56.986242828869 4.28264154662399 2.25597318603832e-014
vertex 48.986242828869 3.53264154662399 2.25597318603832e-014
endloop
endfacet
facet normal -0.0933407086930585 0.995634226059288 0.0
outer loop
vertex 56.986242828869 4.28264154662399 2.25597318603832e-014
vertex 48.986242828869 3.53264154662399 13.0
vertex 56.986242828869 4.28264154662399 13.0
endloop
endfacet
facet normal 0.130526192220052 0.99144486137381 0.0
outer loop
vertex 56.986242828869 4.28264154662399 13.0
vertex 57.503880919074 4.21449319920213 2.25597318603832e-014
vertex 56.986242828869 4.28264154662399 2.25597318603832e-014
endloop
endfacet
facet normal 0.25881904510252 0.965925826289068 0.0
outer loop
vertex 57.503880919074 4.21449319920213 2.25597318603832e-014
vertex 56.986242828869 4.28264154662399 13.0
vertex 57.503880919074 4.21449319920213 13.0
endloop
endfacet
facet normal 0.25881904510252 0.965925826289068 0.0
outer loop
vertex 57.503880919074 4.21449319920213 13.0
vertex 57.986242828869 4.01469235419287 2.25597318603832e-014
vertex 57.503880919074 4.21449319920213 2.25597318603832e-014
endloop
endfacet
facet normal 0.5 0.866025403784439 0.0
outer loop
vertex 57.986242828869 4.01469235419287 2.25597318603832e-014
vertex 57.503880919074 4.21449319920213 13.0
vertex 57.986242828869 4.01469235419287 13.0
endloop
endfacet
facet normal 0.5 0.866025403784439 0.0
outer loop
vertex 57.986242828869 4.01469235419287 13.0
vertex 58.4004563912421 3.69685510899709 2.25597318603832e-014
vertex 57.986242828869 4.01469235419287 2.25597318603832e-014
endloop
endfacet
facet normal 0.707106781186548 0.707106781186547 0.0
outer loop
vertex 58.4004563912421 3.69685510899709 2.25597318603832e-014
vertex 57.986242828869 4.01469235419287 13.0
vertex 58.4004563912421 3.69685510899709 13.0
endloop
endfacet
facet normal 0.0 0.0 1.0
outer loop
vertex 56.986242828869 -4.71735845337601 13.0
vertex 48.986242828869 -1.96735845337601 13.0
vertex 48.986242828869 -3.96735845337601 13.0
endloop
endfacet
facet normal 0.0 0.0 1.0
outer loop
vertex 48.986242828869 -1.96735845337601 13.0
vertex 56.986242828869 -4.71735845337601 13.0
vertex 56.986242828869 -2.71735845337601 13.0
endloop
endfacet
facet normal 0.0 0.0 1.0
outer loop
vertex 56.986242828869 -2.71735845337601 13.0
vertex 56.986242828869 -4.71735845337601 13.0
vertex 57.503880919074 -4.64921010595414 13.0
endloop
endfacet
facet normal 0.0 0.0 1.0
outer loop
vertex 56.986242828869 -2.71735845337601 13.0
vertex 57.503880919074 -4.64921010595414 13.0
vertex 56.986242828869 2.28264154662399 13.0
endloop
endfacet
facet normal 0.0 0.0 1.0
outer loop
vertex 56.986242828869 2.28264154662399 13.0
vertex 57.503880919074 -4.64921010595414 13.0
vertex 56.986242828869 4.28264154662399 13.0
endloop
endfacet
facet normal 0.0 0.0 1.0
outer loop
vertex 56.986242828869 4.28264154662399 13.0
vertex 57.503880919074 -4.64921010595414 13.0
vertex 57.503880919074 4.21449319920213 13.0
endloop
endfacet
facet normal 0.0 0.0 1.0
outer loop
vertex 57.503880919074 4.21449319920213 13.0
vertex 57.503880919074 -4.64921010595414 13.0
vertex 57.986242828869 -4.44940926094488 13.0
endloop
endfacet
facet normal 0.0 0.0 1.0
outer loop
vertex 57.503880919074 4.21449319920213 13.0
vertex 57.986242828869 -4.44940926094488 13.0
vertex 57.986242828869 4.01469235419287 13.0
endloop
endfacet
facet normal 0.0 0.0 1.0
outer loop
vertex 57.986242828869 4.01469235419287 13.0
vertex 57.986242828869 -4.44940926094488 13.0
vertex 58.4004563912421 -4.1315720157491 13.0
endloop
endfacet
facet normal 0.0 0.0 1.0
outer loop
vertex 57.986242828869 4.01469235419287 13.0
vertex 58.4004563912421 -4.1315720157491 13.0
vertex 58.4004563912421 3.69685510899709 13.0
endloop
endfacet
facet normal 0.0 0.0 1.0
outer loop
vertex 58.4004563912421 3.69685510899709 13.0
vertex 58.4004563912421 -4.1315720157491 13.0
vertex 58.7182936364378 -3.71735845337601 13.0
endloop
endfacet
facet normal 0.0 0.0 1.0
outer loop
vertex 58.4004563912421 3.69685510899709 13.0
vertex 58.7182936364378 -3.71735845337601 13.0
vertex 58.7182936364378 3.28264154662399 13.0
endloop
endfacet
facet normal 0.0 0.0 1.0
outer loop
vertex 58.7182936364378 3.28264154662399 13.0
vertex 58.7182936364378 -3.71735845337601 13.0
vertex 58.9180944814471 -3.23499654358105 13.0
endloop
endfacet
facet normal 0.0 0.0 1.0
outer loop
vertex 58.7182936364378 3.28264154662399 13.0
vertex 58.9180944814471 -3.23499654358105 13.0
vertex 58.9180944814471 2.80027963682903 13.0
endloop
endfacet
facet normal 0.0 0.0 1.0
outer loop
vertex 58.9180944814471 2.80027963682903 13.0
vertex 58.9180944814471 -3.23499654358105 13.0
vertex 58.986242828869 -2.71735845337601 13.0
endloop
endfacet
facet normal 0.0 0.0 1.0
outer loop
vertex 58.9180944814471 2.80027963682903 13.0
vertex 58.986242828869 -2.71735845337601 13.0
vertex 58.986242828869 2.28264154662399 13.0
endloop
endfacet
facet normal 0.0 0.0 1.0
outer loop
vertex 56.986242828869 2.28264154662399 13.0
vertex 48.986242828869 3.53264154662399 13.0
vertex 48.986242828869 1.53264154662399 13.0
endloop
endfacet
facet normal 0.0 0.0 1.0
outer loop
vertex 48.986242828869 3.53264154662399 13.0
vertex 56.986242828869 2.28264154662399 13.0
vertex 56.986242828869 4.28264154662399 13.0
endloop
endfacet
facet normal 0.0933407086930583 0.995634226059288 0.0
outer loop
vertex 48.986242828869 -1.96735845337601 13.0
vertex 56.986242828869 -2.71735845337601 2.25597318603832e-014
vertex 48.986242828869 -1.96735845337601 2.25597318603832e-014
endloop
endfacet
facet normal 0.0933407086930583 0.995634226059288 0.0
outer loop
vertex 56.986242828869 -2.71735845337601 2.25597318603832e-014
vertex 48.986242828869 -1.96735845337601 13.0
vertex 56.986242828869 -2.71735845337601 13.0
endloop
endfacet
facet normal -1.0 0.0 0.0
outer loop
vertex 56.986242828869 2.28264154662399 13.0
vertex 56.986242828869 -2.71735845337601 2.25597318603832e-014
vertex 56.986242828869 -2.71735845337601 13.0
endloop
endfacet
facet normal -1.0 0.0 0.0
outer loop
vertex 56.986242828869 -2.71735845337601 2.25597318603832e-014
vertex 56.986242828869 2.28264154662399 13.0
vertex 56.986242828869 2.28264154662399 2.25597318603832e-014
endloop
endfacet
facet normal 0.90445505177269 0.419227432640847 0.0787998670317737
outer loop
vertex 74.5492175623157 17.7436767120994 15.3034286289313
vertex 75.3775531861227 15.9291444918106 15.4494865484905
vertex 75.8825155949006 17.7436767120994 1.12798659301916e-014
endloop
endfacet
facet normal 0.904444766845702 0.419249203548203 0.07880208785065
outer loop
vertex 75.8825155949006 17.7436767120994 1.12798659301916e-014
vertex 75.3775531861227 15.9291444918106 15.4494865484905
vertex 76.7236296308873 15.9291444918106 3.38395977905748e-014
endloop
endfacet
facet normal -0.704702425795981 0.706838051764772 -0.0614366312116976
outer loop
vertex 28.3641309260792 7.24847720228385 3.05080478444166
vertex 27.0859852866601 5.70614772062069 2.39697151016571e-014
vertex 26.8276704737358 5.70614772062069 2.9163819129057
endloop
endfacet
facet normal 0.244633137380853 -0.969381549937561 0.0213081847150819
outer loop
vertex 75.3775531861227 15.9291444918106 15.4494865484905
vertex 66.7021677704092 13.7061477206207 13.9197820316555
vertex 67.9144124114063 13.7061477206207 2.25597318603832e-014
endloop
endfacet
facet normal -0.704702425795981 0.706838051764772 -0.0614366312116976
outer loop
vertex 28.3641309260792 7.24847720228385 3.05080478444166
vertex 28.6283147683233 7.24847720228385 1.83297821365613e-014
vertex 27.0859852866601 5.70614772062069 2.39697151016571e-014
endloop
endfacet
facet normal 0.244633137380853 -0.969381549937561 0.0213081847150819
outer loop
vertex 75.3775531861227 15.9291444918106 15.4494865484905
vertex 67.9144124114063 13.7061477206207 2.25597318603832e-014
vertex 76.7236296308873 15.9291444918106 3.38395977905748e-014
endloop
endfacet
facet normal -0.371384268323781 -0.927950928547703 -0.0313177178138101
outer loop
vertex 2.68966382461568 3.70614772062069 2.63265048330497
vertex -2.23437494044536 5.70614772062069 1.76440959497031
vertex -2.08558758859371 5.70614772062069 1.62148072746504e-014
endloop
endfacet
facet normal -0.371204148691984 -0.92801037172996 -0.0316895874930582
outer loop
vertex 2.68966382461568 3.70614772062069 2.63265048330497
vertex -2.08558758859371 5.70614772062069 1.62148072746504e-014
vertex 2.91441241140629 3.70614772062069 1.40998324127395e-014
endloop
endfacet
facet normal 0.921078950329378 0.381375390222755 0.0785262949117908
outer loop
vertex 26.4940161946652 5.70614772062069 6.8300000644362
vertex 27.3098576499209 3.70614772062069 6.97385492497823
vertex 26.8276704737358 5.70614772062069 2.9163819129057
endloop
endfacet
facet normal 0.920475003050291 0.382683117126596 0.079242669224596
outer loop
vertex 26.8276704737358 5.70614772062069 2.9163819129057
vertex 27.3098576499209 3.70614772062069 6.97385492497823
vertex 27.6529451831633 3.70614772062069 2.98858409427525
endloop
endfacet
facet normal -0.706027124805961 0.706027124805959 -0.0552394612252857
outer loop
vertex 37.0859852866601 15.7061477206207 1.97397653778353e-014
vertex 30.7564306876133 9.37659312157391 1.97397653778353e-014
vertex 36.7896174546532 15.7061477206207 3.78793934038228
endloop
endfacet
facet normal -0.705715326535397 0.706267906893451 -0.0561384145250133
outer loop
vertex 36.7896174546532 15.7061477206207 3.78793934038228
vertex 30.7564306876133 9.37659312157391 1.97397653778353e-014
vertex 30.4841487218006 9.37659312157391 3.2362823080405
endloop
endfacet
facet normal 0.70510919375278 -0.706910823724239 0.0556606879837313
outer loop
vertex 37.9144124114063 13.7061477206207 2.25597318603832e-014
vertex 27.6529451831633 3.70614772062069 2.98858409427525
vertex 27.9144124114063 3.70614772062069 2.39697151016571e-014
endloop
endfacet
facet normal -0.705400046859257 0.706365799853135 -0.0588058729107863
outer loop
vertex 30.7564306876133 9.37659312157391 1.97397653778353e-014
vertex 28.6283147683233 7.24847720228385 1.83297821365613e-014
vertex 30.4841487218006 9.37659312157391 3.2362823080405
endloop
endfacet
facet normal -0.704887764823286 0.706798414456939 -0.0597431194665094
outer loop
vertex 30.4841487218006 9.37659312157391 3.2362823080405
vertex 28.6283147683233 7.24847720228385 1.83297821365613e-014
vertex 28.3641309260792 7.24847720228385 3.05080478444166
endloop
endfacet
facet normal 0.705004737027948 -0.707089704008581 0.0547034848360812
outer loop
vertex 37.6148921640808 13.7061477206207 3.86014152175185
vertex 27.6529451831633 3.70614772062069 2.98858409427525
vertex 37.9144124114063 13.7061477206207 2.25597318603832e-014
endloop
endfacet
facet normal -0.920243170598475 -0.381622366339762 -0.0866999220074971
outer loop
vertex 36.3420937247873 15.7061477206207 8.5664818411055
vertex 37.6148921640808 13.7061477206207 3.86014152175185
vertex 37.1579351800429 13.7061477206207 8.71033670164755
endloop
endfacet
facet normal -0.235446216391508 0.971670938886463 -0.0205101367724107
outer loop
vertex 66.2678625523794 15.7061477206207 13.8432023038543
vertex 75.8825155949006 17.7436767120994 1.12798659301916e-014
vertex 67.473407335338 15.7061477206207 2.8199664825479e-014
endloop
endfacet
facet normal -0.23545072854929 0.971669775762039 -0.020513441840868
outer loop
vertex 74.5492175623157 17.7436767120994 15.3034286289313
vertex 75.8825155949006 17.7436767120994 1.12798659301916e-014
vertex 66.2678625523794 15.7061477206207 13.8432023038543
endloop
endfacet
facet normal -0.919856908683806 -0.382677327416052 -0.0861471452131734
outer loop
vertex 36.7896174546532 15.7061477206207 3.78793934038228
vertex 37.6148921640808 13.7061477206207 3.86014152175185
vertex 36.3420937247873 15.7061477206207 8.5664818411055
endloop
endfacet
facet normal -0.173648177666929 1.81560961076596e-015 0.984807753012208
outer loop
vertex 66.7021677704092 13.7061477206207 13.9197820316555
vertex 64.9756864859494 15.7061477206207 13.615356799517
vertex 64.9756864859494 13.7061477206207 13.615356799517
endloop
endfacet
facet normal -0.173648177666929 1.81560961076596e-015 0.984807753012208
outer loop
vertex 64.9756864859494 15.7061477206207 13.615356799517
vertex 66.7021677704092 13.7061477206207 13.9197820316555
vertex 66.2678625523794 15.7061477206207 13.8432023038543
endloop
endfacet
facet normal -0.173648177666929 1.81560961076596e-015 0.984807753012208
outer loop
vertex 66.2678625523794 15.7061477206207 13.8432023038543
vertex 66.7021677704092 13.7061477206207 13.9197820316555
vertex 74.5492175623157 17.7436767120994 15.3034286289313
endloop
endfacet
facet normal -0.173648177666929 1.81560961076596e-015 0.984807753012208
outer loop
vertex 74.5492175623157 17.7436767120994 15.3034286289313
vertex 66.7021677704092 13.7061477206207 13.9197820316555
vertex 75.3775531861227 15.9291444918106 15.4494865484905
endloop
endfacet
facet normal -0.173648177666931 -1.21081451800002e-015 0.984807753012208
outer loop
vertex 2.68966382461568 3.70614772062069 2.63265048330497
vertex 26.4940161946652 5.70614772062069 6.8300000644362
vertex -2.23437494044536 5.70614772062069 1.76440959497031
endloop
endfacet
facet normal -0.173648177666931 -1.21081451800002e-015 0.984807753012208
outer loop
vertex 26.4940161946652 5.70614772062069 6.8300000644362
vertex 2.68966382461568 3.70614772062069 2.63265048330497
vertex 27.3098576499209 3.70614772062069 6.97385492497823
endloop
endfacet
facet normal -0.0871557427476602 9.43809901502512e-016 0.996194698091745
outer loop
vertex 27.6529451831633 3.70614772062069 2.98858409427525
vertex 28.3641309260792 7.24847720228385 3.05080478444166
vertex 26.8276704737358 5.70614772062069 2.9163819129057
endloop
endfacet
facet normal -0.0871557427476602 9.43809901502512e-016 0.996194698091745
outer loop
vertex 28.3641309260792 7.24847720228385 3.05080478444166
vertex 27.6529451831633 3.70614772062069 2.98858409427525
vertex 37.6148921640808 13.7061477206207 3.86014152175185
endloop
endfacet
facet normal -0.0871557427476602 9.43809901502512e-016 0.996194698091745
outer loop
vertex 28.3641309260792 7.24847720228385 3.05080478444166
vertex 37.6148921640808 13.7061477206207 3.86014152175185
vertex 30.4841487218006 9.37659312157391 3.2362823080405
endloop
endfacet
facet normal -0.0871557427476602 9.43809901502512e-016 0.996194698091745
outer loop
vertex 30.4841487218006 9.37659312157391 3.2362823080405
vertex 37.6148921640808 13.7061477206207 3.86014152175185
vertex 36.7896174546532 15.7061477206207 3.78793934038228
endloop
endfacet
facet normal 0.0 1.0 0.0
outer loop
vertex -2.23437494044536 5.70614772062069 1.76440959497031
vertex 27.0859852866601 5.70614772062069 2.39697151016571e-014
vertex -2.08558758859371 5.70614772062069 1.62148072746504e-014
endloop
endfacet
facet normal 0.0 1.0 0.0
outer loop
vertex 27.0859852866601 5.70614772062069 2.39697151016571e-014
vertex -2.23437494044536 5.70614772062069 1.76440959497031
vertex 26.8276704737358 5.70614772062069 2.9163819129057
endloop
endfacet
facet normal 0.0 1.0 0.0
outer loop
vertex 26.8276704737358 5.70614772062069 2.9163819129057
vertex -2.23437494044536 5.70614772062069 1.76440959497031
vertex 26.4940161946652 5.70614772062069 6.8300000644362
endloop
endfacet
facet normal 0.0 -1.0 0.0
outer loop
vertex 27.9144124114063 3.70614772062069 2.39697151016571e-014
vertex 2.68966382461568 3.70614772062069 2.63265048330497
vertex 2.91441241140629 3.70614772062069 1.40998324127395e-014
endloop
endfacet
facet normal 0.0 -1.0 0.0
outer loop
vertex 2.68966382461568 3.70614772062069 2.63265048330497
vertex 27.9144124114063 3.70614772062069 2.39697151016571e-014
vertex 27.6529451831633 3.70614772062069 2.98858409427525
endloop
endfacet
facet normal 0.0 -1.0 0.0
outer loop
vertex 2.68966382461568 3.70614772062069 2.63265048330497
vertex 27.6529451831633 3.70614772062069 2.98858409427525
vertex 27.3098576499209 3.70614772062069 6.97385492497823
endloop
endfacet
facet normal 0.0 -1.0 0.0
outer loop
vertex 67.9144124114063 13.7061477206207 2.25597318603832e-014
vertex 65.5684922054188 13.7061477206207 6.80837566463145
vertex 37.9144124114063 13.7061477206207 2.25597318603832e-014
endloop
endfacet
facet normal 0.0 -1.0 0.0
outer loop
vertex 65.5684922054188 13.7061477206207 6.80837566463145
vertex 67.9144124114063 13.7061477206207 2.25597318603832e-014
vertex 66.7021677704092 13.7061477206207 13.9197820316555
endloop
endfacet
facet normal 0.0 -1.0 0.0
outer loop
vertex 37.9144124114063 13.7061477206207 2.25597318603832e-014
vertex 65.5684922054188 13.7061477206207 6.80837566463145
vertex 37.6148921640808 13.7061477206207 3.86014152175185
endloop
endfacet
facet normal 0.0 -1.0 0.0
outer loop
vertex 37.6148921640808 13.7061477206207 3.86014152175185
vertex 65.5684922054188 13.7061477206207 6.80837566463145
vertex 64.0167262166468 13.7061477206207 6.67323561720164
endloop
endfacet
facet normal 0.0 -1.0 0.0
outer loop
vertex 65.5684922054188 13.7061477206207 6.80837566463145
vertex 66.7021677704092 13.7061477206207 13.9197820316555
vertex 64.9756864859494 13.7061477206207 13.615356799517
endloop
endfacet
facet normal 0.0 -1.0 0.0
outer loop
vertex 64.0167262166468 13.7061477206207 6.67323561720164
vertex 37.1579351800429 13.7061477206207 8.71033670164755
vertex 37.6148921640808 13.7061477206207 3.86014152175185
endloop
endfacet
facet normal 0.0 -1.0 0.0
outer loop
vertex 37.1579351800429 13.7061477206207 8.71033670164755
vertex 64.0167262166468 13.7061477206207 6.67323561720164
vertex 63.4357978817491 13.7061477206207 13.343832891311
endloop
endfacet
facet normal 0.0 1.0 0.0
outer loop
vertex 36.3420937247873 15.7061477206207 8.5664818411055
vertex 64.0167262166468 15.7061477206207 6.67323561720164
vertex 36.7896174546532 15.7061477206207 3.78793934038228
endloop
endfacet
facet normal 0.0 1.0 0.0
outer loop
vertex 64.0167262166468 15.7061477206207 6.67323561720164
vertex 36.3420937247873 15.7061477206207 8.5664818411055
vertex 63.4357978817491 15.7061477206207 13.343832891311
endloop
endfacet
facet normal 0.0 1.0 0.0
outer loop
vertex 36.7896174546532 15.7061477206207 3.78793934038228
vertex 67.473407335338 15.7061477206207 2.8199664825479e-014
vertex 37.0859852866601 15.7061477206207 1.97397653778353e-014
endloop
endfacet
facet normal 0.0 1.0 0.0
outer loop
vertex 67.473407335338 15.7061477206207 2.8199664825479e-014
vertex 36.7896174546532 15.7061477206207 3.78793934038228
vertex 65.5684922054188 15.7061477206207 6.80837566463145
endloop
endfacet
facet normal 0.0 1.0 0.0
outer loop
vertex 67.473407335338 15.7061477206207 2.8199664825479e-014
vertex 65.5684922054188 15.7061477206207 6.80837566463145
vertex 66.2678625523794 15.7061477206207 13.8432023038543
endloop
endfacet
facet normal 0.0 1.0 0.0
outer loop
vertex 65.5684922054188 15.7061477206207 6.80837566463145
vertex 36.7896174546532 15.7061477206207 3.78793934038228
vertex 64.0167262166468 15.7061477206207 6.67323561720164
endloop
endfacet
facet normal 0.0 1.0 0.0
outer loop
vertex 66.2678625523794 15.7061477206207 13.8432023038543
vertex 65.5684922054188 15.7061477206207 6.80837566463145
vertex 64.9756864859494 15.7061477206207 13.615356799517
endloop
endfacet
facet normal 1.91562993556799e-016 -5.4371166661967e-016 -1.0
outer loop
vertex 27.0859852866601 5.70614772062069 2.39697151016571e-014
vertex 2.91441241140629 3.70614772062069 1.40998324127395e-014
vertex -2.08558758859371 5.70614772062069 1.62148072746504e-014
endloop
endfacet
facet normal 1.91562993556799e-016 -5.4371166661967e-016 -1.0
outer loop
vertex 2.91441241140629 3.70614772062069 1.40998324127395e-014
vertex 27.0859852866601 5.70614772062069 2.39697151016571e-014
vertex 27.9144124114063 3.70614772062069 2.39697151016571e-014
endloop
endfacet
facet normal 1.91562993556799e-016 -5.4371166661967e-016 -1.0
outer loop
vertex 27.9144124114063 3.70614772062069 2.39697151016571e-014
vertex 27.0859852866601 5.70614772062069 2.39697151016571e-014
vertex 28.6283147683233 7.24847720228385 1.83297821365613e-014
endloop
endfacet
facet normal 1.91562993556799e-016 -5.4371166661967e-016 -1.0
outer loop
vertex 27.9144124114063 3.70614772062069 2.39697151016571e-014
vertex 28.6283147683233 7.24847720228385 1.83297821365613e-014
vertex 37.9144124114063 13.7061477206207 2.25597318603832e-014
endloop
endfacet
facet normal 1.91562993556799e-016 -5.4371166661967e-016 -1.0
outer loop
vertex 37.9144124114063 13.7061477206207 2.25597318603832e-014
vertex 28.6283147683233 7.24847720228385 1.83297821365613e-014
vertex 30.7564306876133 9.37659312157391 1.97397653778353e-014
endloop
endfacet
facet normal 1.91562993556799e-016 -5.4371166661967e-016 -1.0
outer loop
vertex 37.9144124114063 13.7061477206207 2.25597318603832e-014
vertex 30.7564306876133 9.37659312157391 1.97397653778353e-014
vertex 37.0859852866601 15.7061477206207 1.97397653778353e-014
endloop
endfacet
facet normal 1.91562993556799e-016 -5.4371166661967e-016 -1.0
outer loop
vertex 37.9144124114063 13.7061477206207 2.25597318603832e-014
vertex 37.0859852866601 15.7061477206207 1.97397653778353e-014
vertex 67.473407335338 15.7061477206207 2.8199664825479e-014
endloop
endfacet
facet normal 1.91562993556799e-016 -5.4371166661967e-016 -1.0
outer loop
vertex 37.9144124114063 13.7061477206207 2.25597318603832e-014
vertex 67.473407335338 15.7061477206207 2.8199664825479e-014
vertex 67.9144124114063 13.7061477206207 2.25597318603832e-014
endloop
endfacet
facet normal 1.91562993556799e-016 -5.4371166661967e-016 -1.0
outer loop
vertex 67.9144124114063 13.7061477206207 2.25597318603832e-014
vertex 67.473407335338 15.7061477206207 2.8199664825479e-014
vertex 75.8825155949006 17.7436767120994 1.12798659301916e-014
endloop
endfacet
facet normal 1.91562993556799e-016 -5.4371166661967e-016 -1.0
outer loop
vertex 67.9144124114063 13.7061477206207 2.25597318603832e-014
vertex 75.8825155949006 17.7436767120994 1.12798659301916e-014
vertex 76.7236296308873 15.9291444918106 3.38395977905748e-014
endloop
endfacet
facet normal 0.996229283676622 0.0 0.0867595201990208
outer loop
vertex 64.0167262166468 15.7061477206207 6.67323561720164
vertex 63.4357978817491 13.7061477206207 13.343832891311
vertex 64.0167262166468 13.7061477206207 6.67323561720164
endloop
endfacet
facet normal 0.996229283676622 0.0 0.0867595201990208
outer loop
vertex 63.4357978817491 13.7061477206207 13.343832891311
vertex 64.0167262166468 15.7061477206207 6.67323561720164
vertex 63.4357978817491 15.7061477206207 13.343832891311
endloop
endfacet
facet normal -0.0867595201990219 0.0 0.996229283676622
outer loop
vertex 65.5684922054188 13.7061477206207 6.80837566463145
vertex 64.0167262166468 15.7061477206207 6.67323561720164
vertex 64.0167262166468 13.7061477206207 6.67323561720164
endloop
endfacet
facet normal -0.0867595201990219 0.0 0.996229283676622
outer loop
vertex 64.0167262166468 15.7061477206207 6.67323561720164
vertex 65.5684922054188 13.7061477206207 6.80837566463145
vertex 65.5684922054188 15.7061477206207 6.80837566463145
endloop
endfacet
facet normal -0.996229283676622 0.0 -0.0867595201990219
outer loop
vertex 64.9756864859494 15.7061477206207 13.615356799517
vertex 65.5684922054188 13.7061477206207 6.80837566463145
vertex 64.9756864859494 13.7061477206207 13.615356799517
endloop
endfacet
facet normal -0.996229283676622 0.0 -0.0867595201990219
outer loop
vertex 65.5684922054188 13.7061477206207 6.80837566463145
vertex 64.9756864859494 15.7061477206207 13.615356799517
vertex 65.5684922054188 15.7061477206207 6.80837566463145
endloop
endfacet
facet normal -0.173648177666931 3.85276197662899e-015 0.984807753012208
outer loop
vertex 37.1579351800429 13.7061477206207 8.71033670164755
vertex 63.4357978817491 15.7061477206207 13.343832891311
vertex 36.3420937247873 15.7061477206207 8.5664818411055
endloop
endfacet
facet normal -0.173648177666931 3.85276197662899e-015 0.984807753012208
outer loop
vertex 63.4357978817491 15.7061477206207 13.343832891311
vertex 37.1579351800429 13.7061477206207 8.71033670164755
vertex 63.4357978817491 13.7061477206207 13.343832891311
endloop
endfacet
endsolid cross-plier-normal
