solid OpenSCAD_Model
  facet normal -1 0 0
    outer loop
      vertex -2 -2 0
      vertex -2 -2 20
      vertex -2 9 0
    endloop
  endfacet
  facet normal -1 0 0
    outer loop
      vertex -2 9 0
      vertex -2 -2 20
      vertex -2 9 20
    endloop
  endfacet
  facet normal 0 -1 0
    outer loop
      vertex -2 -2 20
      vertex -2 -2 0
      vertex 18 -2 0
    endloop
  endfacet
  facet normal 0 -1 0
    outer loop
      vertex 18 -2 20
      vertex -2 -2 20
      vertex 18 -2 0
    endloop
  endfacet
  facet normal 0 0 -1
    outer loop
      vertex 16 0 0
      vertex 18 -2 0
      vertex 0 0 0
    endloop
  endfacet
  facet normal 0 0 -1
    outer loop
      vertex 16 7 0
      vertex -2 9 0
      vertex 18 9 0
    endloop
  endfacet
  facet normal 0 0 -1
    outer loop
      vertex -2 -2 0
      vertex -2 9 0
      vertex 0 7 0
    endloop
  endfacet
  facet normal 0 0 -1
    outer loop
      vertex -2 -2 0
      vertex 0 7 0
      vertex 0 0 0
    endloop
  endfacet
  facet normal 0 0 -1
    outer loop
      vertex -2 -2 0
      vertex 0 0 0
      vertex 18 -2 0
    endloop
  endfacet
  facet normal 0 0 -1
    outer loop
      vertex 18 -2 0
      vertex 16 0 0
      vertex 18 9 0
    endloop
  endfacet
  facet normal 0 0 -1
    outer loop
      vertex 16 0 0
      vertex 16 7 0
      vertex 18 9 0
    endloop
  endfacet
  facet normal 0 0 -1
    outer loop
      vertex 0 7 0
      vertex -2 9 0
      vertex 16 7 0
    endloop
  endfacet
  facet normal 0 1 0
    outer loop
      vertex -2 9 0
      vertex -2 9 20
      vertex 18 9 0
    endloop
  endfacet
  facet normal 0 1 0
    outer loop
      vertex 18 9 0
      vertex -2 9 20
      vertex 18 9 20
    endloop
  endfacet
  facet normal 0 0 1
    outer loop
      vertex 0 1.77636e-15 20
      vertex -2 -2 20
      vertex 18 -2 20
    endloop
  endfacet
  facet normal 0 0 1
    outer loop
      vertex -2 9 20
      vertex -2 -2 20
      vertex 0 1.77636e-15 20
    endloop
  endfacet
  facet normal 0 0 1
    outer loop
      vertex 0 5 20
      vertex 15 5 20
      vertex -2 9 20
    endloop
  endfacet
  facet normal 0 0 1
    outer loop
      vertex -2 9 20
      vertex 0 1.77636e-15 20
      vertex 0 5 20
    endloop
  endfacet
  facet normal 0 0 1
    outer loop
      vertex 18 9 20
      vertex 15 5 20
      vertex 18 -2 20
    endloop
  endfacet
  facet normal 0 0 1
    outer loop
      vertex 18 9 20
      vertex -2 9 20
      vertex 15 5 20
    endloop
  endfacet
  facet normal 0 0 1
    outer loop
      vertex 15 5 20
      vertex 15 1.77636e-15 20
      vertex 18 -2 20
    endloop
  endfacet
  facet normal 0 0 1
    outer loop
      vertex 15 1.77636e-15 20
      vertex 0 1.77636e-15 20
      vertex 18 -2 20
    endloop
  endfacet
  facet normal 1 0 0
    outer loop
      vertex 18 -2 20
      vertex 18 -2 0
      vertex 18 9 0
    endloop
  endfacet
  facet normal 1 0 0
    outer loop
      vertex 18 9 20
      vertex 18 -2 20
      vertex 18 9 0
    endloop
  endfacet
  facet normal 1 0 0
    outer loop
      vertex 0 7 0
      vertex 0 7 17
      vertex 0 0 17
    endloop
  endfacet
  facet normal 1 0 0
    outer loop
      vertex 0 0 0
      vertex 0 7 0
      vertex 0 0 17
    endloop
  endfacet
  facet normal 0 -1 0
    outer loop
      vertex 16 7 0
      vertex 16 7 17
      vertex 0 7 17
    endloop
  endfacet
  facet normal 0 -1 0
    outer loop
      vertex 0 7 0
      vertex 16 7 0
      vertex 0 7 17
    endloop
  endfacet
  facet normal -1 0 0
    outer loop
      vertex 16 7 17
      vertex 16 7 0
      vertex 16 0 17
    endloop
  endfacet
  facet normal -1 0 0
    outer loop
      vertex 16 0 17
      vertex 16 7 0
      vertex 16 0 0
    endloop
  endfacet
  facet normal 0 1 0
    outer loop
      vertex 16 0 17
      vertex 16 0 0
      vertex 0 0 17
    endloop
  endfacet
  facet normal 0 1 0
    outer loop
      vertex 0 0 17
      vertex 16 0 0
      vertex 0 0 0
    endloop
  endfacet
  facet normal -1 0 0
    outer loop
      vertex 0 0 28
      vertex 0 5 28
      vertex 0 1.77636e-15 20
    endloop
  endfacet
  facet normal -1 0 0
    outer loop
      vertex 0 1.77636e-15 20
      vertex 0 5 28
      vertex 0 5 20
    endloop
  endfacet
  facet normal 0 -1 -2.22045e-16
    outer loop
      vertex 2.84157 0 28
      vertex 0 0 28
      vertex 0 1.77636e-15 20
    endloop
  endfacet
  facet normal 0 -1 -2.22045e-16
    outer loop
      vertex 2.84157 2.19864e-16 27.0098
      vertex 2.84157 0 28
      vertex 0 1.77636e-15 20
    endloop
  endfacet
  facet normal 0 -1 -2.22045e-16
    outer loop
      vertex 15 0 28
      vertex 12.2625 0 28
      vertex 15 1.77636e-15 20
    endloop
  endfacet
  facet normal 0 -1 -2.22045e-16
    outer loop
      vertex 12.2625 0 28
      vertex 11.8508 4.30119e-16 26.0629
      vertex 15 1.77636e-15 20
    endloop
  endfacet
  facet normal 0 -1 -2.22045e-16
    outer loop
      vertex 11.8508 4.30119e-16 26.0629
      vertex 10.6867 7.85866e-16 24.4608
      vertex 15 1.77636e-15 20
    endloop
  endfacet
  facet normal 0 -1 -2.22045e-16
    outer loop
      vertex 15 1.77636e-15 20
      vertex 8.97169 1.00573e-15 23.4706
      vertex 0 1.77636e-15 20
    endloop
  endfacet
  facet normal 0 -1 -2.22045e-16
    outer loop
      vertex 8.97169 1.00573e-15 23.4706
      vertex 7.00218 1.05169e-15 23.2636
      vertex 0 1.77636e-15 20
    endloop
  endfacet
  facet normal 0 -1 -2.22045e-16
    outer loop
      vertex 7.00218 1.05169e-15 23.2636
      vertex 5.11875 9.15811e-16 23.8756
      vertex 0 1.77636e-15 20
    endloop
  endfacet
  facet normal 0 -1 -2.22045e-16
    outer loop
      vertex 5.11875 9.15811e-16 23.8756
      vertex 3.64706 6.21575e-16 25.2007
      vertex 0 1.77636e-15 20
    endloop
  endfacet
  facet normal 0 -1 -2.22045e-16
    outer loop
      vertex 3.64706 6.21575e-16 25.2007
      vertex 2.84157 2.19864e-16 27.0098
      vertex 0 1.77636e-15 20
    endloop
  endfacet
  facet normal 0 -1 -2.22045e-16
    outer loop
      vertex 10.6867 7.85866e-16 24.4608
      vertex 8.97169 1.00573e-15 23.4706
      vertex 15 1.77636e-15 20
    endloop
  endfacet
  facet normal 1 0 0
    outer loop
      vertex 15 5 28
      vertex 15 0 28
      vertex 15 1.77636e-15 20
    endloop
  endfacet
  facet normal 1 0 0
    outer loop
      vertex 15 5 20
      vertex 15 5 28
      vertex 15 1.77636e-15 20
    endloop
  endfacet
  facet normal 0 1 2.22045e-16
    outer loop
      vertex 0 5 28
      vertex 2.84157 5 28
      vertex 0 5 20
    endloop
  endfacet
  facet normal 0 1 2.22045e-16
    outer loop
      vertex 0 5 20
      vertex 2.84157 5 28
      vertex 2.84157 5 27.0098
    endloop
  endfacet
  facet normal 0 1 2.22045e-16
    outer loop
      vertex 0 5 20
      vertex 2.84157 5 27.0098
      vertex 3.64706 5 25.2007
    endloop
  endfacet
  facet normal 0 1 2.22045e-16
    outer loop
      vertex 3.64706 5 25.2007
      vertex 5.11875 5 23.8756
      vertex 0 5 20
    endloop
  endfacet
  facet normal 0 1 2.22045e-16
    outer loop
      vertex 5.11875 5 23.8756
      vertex 7.00218 5 23.2636
      vertex 0 5 20
    endloop
  endfacet
  facet normal 0 1 2.22045e-16
    outer loop
      vertex 7.00218 5 23.2636
      vertex 8.97169 5 23.4706
      vertex 0 5 20
    endloop
  endfacet
  facet normal 0 1 2.22045e-16
    outer loop
      vertex 8.97169 5 23.4706
      vertex 15 5 20
      vertex 0 5 20
    endloop
  endfacet
  facet normal 0 1 2.22045e-16
    outer loop
      vertex 11.8508 5 26.0629
      vertex 12.2625 5 28
      vertex 15 5 28
    endloop
  endfacet
  facet normal 0 1 2.22045e-16
    outer loop
      vertex 11.8508 5 26.0629
      vertex 15 5 28
      vertex 10.6867 5 24.4608
    endloop
  endfacet
  facet normal 0 1 2.22045e-16
    outer loop
      vertex 10.6867 5 24.4608
      vertex 15 5 28
      vertex 15 5 20
    endloop
  endfacet
  facet normal 0 1 2.22045e-16
    outer loop
      vertex 10.6867 5 24.4608
      vertex 15 5 20
      vertex 8.97169 5 23.4706
    endloop
  endfacet
  facet normal 0 0 -1
    outer loop
      vertex 16 7 17
      vertex 16 0 17
      vertex 0 7 17
    endloop
  endfacet
  facet normal 0 0 -1
    outer loop
      vertex 0 7 17
      vertex 16 0 17
      vertex 0 0 17
    endloop
  endfacet
  facet normal 0 -2.22045e-16 1
    outer loop
      vertex 0 5 28
      vertex 0 0 28
      vertex 2.84157 0 28
    endloop
  endfacet
  facet normal 0 -2.22045e-16 1
    outer loop
      vertex 2.84157 5 28
      vertex 0 5 28
      vertex 2.84157 0 28
    endloop
  endfacet
  facet normal 1 0 0
    outer loop
      vertex 2.84157 2.19864e-16 27.0098
      vertex 2.84157 5 27.0098
      vertex 2.84157 5 28
    endloop
  endfacet
  facet normal 1 0 0
    outer loop
      vertex 2.84157 0 28
      vertex 2.84157 2.19864e-16 27.0098
      vertex 2.84157 5 28
    endloop
  endfacet
  facet normal 0.913545 -9.03137e-17 0.406737
    outer loop
      vertex 3.64706 6.21575e-16 25.2007
      vertex 3.64706 5 25.2007
      vertex 2.84157 5 27.0098
    endloop
  endfacet
  facet normal 0.913545 -9.03137e-17 0.406737
    outer loop
      vertex 2.84157 2.19864e-16 27.0098
      vertex 3.64706 6.21575e-16 25.2007
      vertex 2.84157 5 27.0098
    endloop
  endfacet
  facet normal 0.669131 -1.65011e-16 0.743145
    outer loop
      vertex 5.11875 9.15811e-16 23.8756
      vertex 5.11875 5 23.8756
      vertex 3.64706 5 25.2007
    endloop
  endfacet
  facet normal 0.669131 -1.65011e-16 0.743145
    outer loop
      vertex 3.64706 6.21575e-16 25.2007
      vertex 5.11875 9.15811e-16 23.8756
      vertex 3.64706 5 25.2007
    endloop
  endfacet
  facet normal 0.309017 -2.11177e-16 0.951056
    outer loop
      vertex 7.00218 1.05169e-15 23.2636
      vertex 7.00218 5 23.2636
      vertex 5.11875 5 23.8756
    endloop
  endfacet
  facet normal 0.309017 -2.11177e-16 0.951056
    outer loop
      vertex 5.11875 9.15811e-16 23.8756
      vertex 7.00218 1.05169e-15 23.2636
      vertex 5.11875 5 23.8756
    endloop
  endfacet
  facet normal -0.104529 -2.20828e-16 0.994522
    outer loop
      vertex 8.97169 1.00573e-15 23.4706
      vertex 8.97169 5 23.4706
      vertex 7.00218 5 23.2636
    endloop
  endfacet
  facet normal -0.104529 -2.20828e-16 0.994522
    outer loop
      vertex 7.00218 1.05169e-15 23.2636
      vertex 8.97169 1.00573e-15 23.4706
      vertex 7.00218 5 23.2636
    endloop
  endfacet
  facet normal -0.5 -1.92296e-16 0.866025
    outer loop
      vertex 10.6867 7.85866e-16 24.4608
      vertex 10.6867 5 24.4608
      vertex 8.97169 5 23.4706
    endloop
  endfacet
  facet normal -0.5 -1.92296e-16 0.866025
    outer loop
      vertex 8.97169 1.00573e-15 23.4706
      vertex 10.6867 7.85866e-16 24.4608
      vertex 8.97169 5 23.4706
    endloop
  endfacet
  facet normal -0.809017 -1.30514e-16 0.587785
    outer loop
      vertex 11.8508 5 26.0629
      vertex 10.6867 5 24.4608
      vertex 11.8508 4.30119e-16 26.0629
    endloop
  endfacet
  facet normal -0.809017 -1.30514e-16 0.587785
    outer loop
      vertex 11.8508 4.30119e-16 26.0629
      vertex 10.6867 5 24.4608
      vertex 10.6867 7.85866e-16 24.4608
    endloop
  endfacet
  facet normal -0.978148 -4.61657e-17 0.207912
    outer loop
      vertex 12.2625 5 28
      vertex 11.8508 5 26.0629
      vertex 12.2625 0 28
    endloop
  endfacet
  facet normal -0.978148 -4.61657e-17 0.207912
    outer loop
      vertex 12.2625 0 28
      vertex 11.8508 5 26.0629
      vertex 11.8508 4.30119e-16 26.0629
    endloop
  endfacet
  facet normal 0 -2.22045e-16 1
    outer loop
      vertex 12.2625 5 28
      vertex 12.2625 0 28
      vertex 15 0 28
    endloop
  endfacet
  facet normal 0 -2.22045e-16 1
    outer loop
      vertex 15 5 28
      vertex 12.2625 5 28
      vertex 15 0 28
    endloop
  endfacet
endsolid OpenSCAD_Model
