solid OpenSCAD_Model
  facet normal 0 -1 0
    outer loop
      vertex -73.612 -42.5 5
      vertex -73.612 -42.5 0
      vertex 73.612 -42.5 0
    endloop
  endfacet
  facet normal 0 -1 0
    outer loop
      vertex 73.612 -42.5 5
      vertex -73.612 -42.5 5
      vertex 73.612 -42.5 0
    endloop
  endfacet
  facet normal 0 0 -1
    outer loop
      vertex 5 47.4397 0
      vertex -5.77349 75 0
      vertex 73.612 -42.5 0
    endloop
  endfacet
  facet normal 0 0 -1
    outer loop
      vertex 73.612 -42.5 0
      vertex -5.77349 75 0
      vertex -7.5 85 0
    endloop
  endfacet
  facet normal 0 0 -1
    outer loop
      vertex -5.77349 75 0
      vertex -7.5 75 0
      vertex -7.5 85 0
    endloop
  endfacet
  facet normal 0 0 -1
    outer loop
      vertex -4.65843 84.9902 0
      vertex -7.5 85 0
      vertex -4.65406 85 0
    endloop
  endfacet
  facet normal 0 0 -1
    outer loop
      vertex -4.65843 83.0098 0
      vertex -7.5 85 0
      vertex -4.65843 84.9902 0
    endloop
  endfacet
  facet normal 0 0 -1
    outer loop
      vertex 7.5 75 0
      vertex 4.7625 84 0
      vertex 4.54994 85 0
    endloop
  endfacet
  facet normal 0 0 -1
    outer loop
      vertex -3.85294 81.2007 0
      vertex -7.5 85 0
      vertex -4.65843 83.0098 0
    endloop
  endfacet
  facet normal 0 0 -1
    outer loop
      vertex 73.612 -42.5 0
      vertex -7.5 85 0
      vertex -3.85294 81.2007 0
    endloop
  endfacet
  facet normal 0 0 -1
    outer loop
      vertex -0.497817 79.2636 0
      vertex 73.612 -42.5 0
      vertex -2.38125 79.8756 0
    endloop
  endfacet
  facet normal 0 0 -1
    outer loop
      vertex 7.5 75 0
      vertex 4.54994 85 0
      vertex 7.5 85 0
    endloop
  endfacet
  facet normal 0 0 -1
    outer loop
      vertex 7.5 75 0
      vertex 4.35076 82.0629 0
      vertex 4.7625 84 0
    endloop
  endfacet
  facet normal 0 0 -1
    outer loop
      vertex 73.612 -42.5 0
      vertex -0.497817 79.2636 0
      vertex 1.47169 79.4706 0
    endloop
  endfacet
  facet normal 0 0 -1
    outer loop
      vertex -48.584 -28.05 0
      vertex -5.77349 75 0
      vertex -5 47.4397 0
    endloop
  endfacet
  facet normal 0 0 -1
    outer loop
      vertex 5.77349 75 0
      vertex 3.18673 80.4608 0
      vertex 7.5 75 0
    endloop
  endfacet
  facet normal 0 0 -1
    outer loop
      vertex 3.18673 80.4608 0
      vertex 4.35076 82.0629 0
      vertex 7.5 75 0
    endloop
  endfacet
  facet normal 0 0 -1
    outer loop
      vertex 1.47169 79.4706 0
      vertex 3.18673 80.4608 0
      vertex 5.77349 75 0
    endloop
  endfacet
  facet normal 0 0 -1
    outer loop
      vertex 1.47169 79.4706 0
      vertex 5.77349 75 0
      vertex 73.612 -42.5 0
    endloop
  endfacet
  facet normal 0 0 -1
    outer loop
      vertex -73.612 -42.5 0
      vertex -5.77349 75 0
      vertex -48.584 -28.05 0
    endloop
  endfacet
  facet normal 0 0 -1
    outer loop
      vertex -73.612 -42.5 0
      vertex -48.584 -28.05 0
      vertex 73.612 -42.5 0
    endloop
  endfacet
  facet normal 0 0 -1
    outer loop
      vertex 5 47.4397 0
      vertex 73.612 -42.5 0
      vertex 48.584 -28.05 0
    endloop
  endfacet
  facet normal 0 0 -1
    outer loop
      vertex -48.584 -28.05 0
      vertex -5 -28.05 0
      vertex 73.612 -42.5 0
    endloop
  endfacet
  facet normal 0 0 -1
    outer loop
      vertex -5 47.4397 0
      vertex -5.77349 75 0
      vertex 5 47.4397 0
    endloop
  endfacet
  facet normal 0 0 -1
    outer loop
      vertex 5 -28.05 0
      vertex -5 47.4397 0
      vertex 5 47.4397 0
    endloop
  endfacet
  facet normal 0 0 -1
    outer loop
      vertex -5 -28.05 0
      vertex -5 47.4397 0
      vertex 5 -28.05 0
    endloop
  endfacet
  facet normal 0 0 -1
    outer loop
      vertex -5 -28.05 0
      vertex 5 -28.05 0
      vertex 73.612 -42.5 0
    endloop
  endfacet
  facet normal 0 0 -1
    outer loop
      vertex 5 -28.05 0
      vertex 48.584 -28.05 0
      vertex 73.612 -42.5 0
    endloop
  endfacet
  facet normal 0 0 -1
    outer loop
      vertex -2.38125 79.8756 0
      vertex 73.612 -42.5 0
      vertex -3.85294 81.2007 0
    endloop
  endfacet
  facet normal -0.866026 0.499999 0
    outer loop
      vertex -73.612 -42.5 0
      vertex -73.612 -42.5 5
      vertex -5.77349 75 0
    endloop
  endfacet
  facet normal -0.866026 0.499999 0
    outer loop
      vertex -5.77349 75 0
      vertex -73.612 -42.5 5
      vertex -5.77349 75 5
    endloop
  endfacet
  facet normal 0 0 1
    outer loop
      vertex -5 -28.05 5
      vertex -73.612 -42.5 5
      vertex 73.612 -42.5 5
    endloop
  endfacet
  facet normal 0 0 1
    outer loop
      vertex 3.18673 80.4608 5
      vertex -5.77349 75 5
      vertex 5.77349 75 5
    endloop
  endfacet
  facet normal 0 0 1
    outer loop
      vertex 5.77349 75 5
      vertex -5.77349 75 5
      vertex 73.612 -42.5 5
    endloop
  endfacet
  facet normal 0 0 1
    outer loop
      vertex 7.5 85 5
      vertex 5.77349 75 5
      vertex 7.5 75 5
    endloop
  endfacet
  facet normal 0 0 1
    outer loop
      vertex 1.47169 79.4706 5
      vertex -0.497817 79.2636 5
      vertex -5.77349 75 5
    endloop
  endfacet
  facet normal 0 0 1
    outer loop
      vertex 4.54994 85 5
      vertex 4.7625 84 5
      vertex 7.5 85 5
    endloop
  endfacet
  facet normal 0 0 1
    outer loop
      vertex -7.5 85 5
      vertex -4.65843 84.9902 5
      vertex -4.65406 85 5
    endloop
  endfacet
  facet normal 0 0 1
    outer loop
      vertex 7.5 85 5
      vertex 4.35076 82.0629 5
      vertex 5.77349 75 5
    endloop
  endfacet
  facet normal 0 0 1
    outer loop
      vertex 4.35076 82.0629 5
      vertex 3.18673 80.4608 5
      vertex 5.77349 75 5
    endloop
  endfacet
  facet normal 0 0 1
    outer loop
      vertex 1.47169 79.4706 5
      vertex -5.77349 75 5
      vertex 3.18673 80.4608 5
    endloop
  endfacet
  facet normal 0 0 1
    outer loop
      vertex -0.497817 79.2636 5
      vertex -2.38125 79.8756 5
      vertex -5.77349 75 5
    endloop
  endfacet
  facet normal 0 0 1
    outer loop
      vertex -7.5 85 5
      vertex -4.65843 83.0098 5
      vertex -4.65843 84.9902 5
    endloop
  endfacet
  facet normal 0 0 1
    outer loop
      vertex -3.85294 81.2007 5
      vertex -5.77349 75 5
      vertex -2.38125 79.8756 5
    endloop
  endfacet
  facet normal 0 0 1
    outer loop
      vertex -48.584 -28.05 5
      vertex -5 47.4397 5
      vertex -5.77349 75 5
    endloop
  endfacet
  facet normal 0 0 1
    outer loop
      vertex 5 -28.05 5
      vertex 5 47.4397 5
      vertex -5 47.4397 5
    endloop
  endfacet
  facet normal 0 0 1
    outer loop
      vertex -4.65843 83.0098 5
      vertex -7.5 75 5
      vertex -3.85294 81.2007 5
    endloop
  endfacet
  facet normal 0 0 1
    outer loop
      vertex 5 -28.05 5
      vertex -5 -28.05 5
      vertex 73.612 -42.5 5
    endloop
  endfacet
  facet normal 0 0 1
    outer loop
      vertex -48.584 -28.05 5
      vertex -73.612 -42.5 5
      vertex -5 -28.05 5
    endloop
  endfacet
  facet normal 0 0 1
    outer loop
      vertex -5.77349 75 5
      vertex -73.612 -42.5 5
      vertex -48.584 -28.05 5
    endloop
  endfacet
  facet normal 0 0 1
    outer loop
      vertex 5 47.4397 5
      vertex 48.584 -28.05 5
      vertex 73.612 -42.5 5
    endloop
  endfacet
  facet normal 0 0 1
    outer loop
      vertex 48.584 -28.05 5
      vertex 5 -28.05 5
      vertex 73.612 -42.5 5
    endloop
  endfacet
  facet normal 0 0 1
    outer loop
      vertex -5 47.4397 5
      vertex -5 -28.05 5
      vertex 5 -28.05 5
    endloop
  endfacet
  facet normal 0 0 1
    outer loop
      vertex -5.77349 75 5
      vertex 5 47.4397 5
      vertex 73.612 -42.5 5
    endloop
  endfacet
  facet normal 0 0 1
    outer loop
      vertex -5.77349 75 5
      vertex -5 47.4397 5
      vertex 5 47.4397 5
    endloop
  endfacet
  facet normal 0 0 1
    outer loop
      vertex -7.5 75 5
      vertex -5.77349 75 5
      vertex -3.85294 81.2007 5
    endloop
  endfacet
  facet normal 0 0 1
    outer loop
      vertex 4.7625 84 5
      vertex 4.35076 82.0629 5
      vertex 7.5 85 5
    endloop
  endfacet
  facet normal 0 0 1
    outer loop
      vertex -7.5 85 5
      vertex -7.5 75 5
      vertex -4.65843 83.0098 5
    endloop
  endfacet
  facet normal 0.866026 0.499999 0
    outer loop
      vertex 73.612 -42.5 0
      vertex 5.77349 75 0
      vertex 5.77349 75 5
    endloop
  endfacet
  facet normal 0.866026 0.499999 0
    outer loop
      vertex 73.612 -42.5 5
      vertex 73.612 -42.5 0
      vertex 5.77349 75 5
    endloop
  endfacet
  facet normal 0 -1 0
    outer loop
      vertex 5.77349 75 5
      vertex 5.77349 75 0
      vertex 7.5 75 0
    endloop
  endfacet
  facet normal 0 -1 0
    outer loop
      vertex 7.5 75 5
      vertex 5.77349 75 5
      vertex 7.5 75 0
    endloop
  endfacet
  facet normal 1 0 0
    outer loop
      vertex 7.5 75 5
      vertex 7.5 75 0
      vertex 7.5 85 0
    endloop
  endfacet
  facet normal 1 0 0
    outer loop
      vertex 7.5 85 5
      vertex 7.5 75 5
      vertex 7.5 85 0
    endloop
  endfacet
  facet normal 0 1 0
    outer loop
      vertex 4.54994 85 0
      vertex 4.54994 85 5
      vertex 7.5 85 0
    endloop
  endfacet
  facet normal 0 1 0
    outer loop
      vertex 7.5 85 0
      vertex 4.54994 85 5
      vertex 7.5 85 5
    endloop
  endfacet
  facet normal -0.978148 -0.207912 0
    outer loop
      vertex 4.7625 84 5
      vertex 4.54994 85 5
      vertex 4.7625 84 0
    endloop
  endfacet
  facet normal -0.978148 -0.207912 0
    outer loop
      vertex 4.7625 84 0
      vertex 4.54994 85 5
      vertex 4.54994 85 0
    endloop
  endfacet
  facet normal -0.978148 0.207912 0
    outer loop
      vertex 4.7625 84 5
      vertex 4.7625 84 0
      vertex 4.35076 82.0629 5
    endloop
  endfacet
  facet normal -0.978148 0.207912 0
    outer loop
      vertex 4.35076 82.0629 5
      vertex 4.7625 84 0
      vertex 4.35076 82.0629 0
    endloop
  endfacet
  facet normal -0.809017 0.587785 0
    outer loop
      vertex 4.35076 82.0629 5
      vertex 4.35076 82.0629 0
      vertex 3.18673 80.4608 5
    endloop
  endfacet
  facet normal -0.809017 0.587785 0
    outer loop
      vertex 3.18673 80.4608 5
      vertex 4.35076 82.0629 0
      vertex 3.18673 80.4608 0
    endloop
  endfacet
  facet normal -0.5 0.866025 0
    outer loop
      vertex 3.18673 80.4608 5
      vertex 3.18673 80.4608 0
      vertex 1.47169 79.4706 5
    endloop
  endfacet
  facet normal -0.5 0.866025 0
    outer loop
      vertex 1.47169 79.4706 5
      vertex 3.18673 80.4608 0
      vertex 1.47169 79.4706 0
    endloop
  endfacet
  facet normal -0.104529 0.994522 0
    outer loop
      vertex 1.47169 79.4706 5
      vertex 1.47169 79.4706 0
      vertex -0.497817 79.2636 5
    endloop
  endfacet
  facet normal -0.104529 0.994522 0
    outer loop
      vertex -0.497817 79.2636 5
      vertex 1.47169 79.4706 0
      vertex -0.497817 79.2636 0
    endloop
  endfacet
  facet normal 0.309017 0.951056 0
    outer loop
      vertex -0.497817 79.2636 5
      vertex -0.497817 79.2636 0
      vertex -2.38125 79.8756 5
    endloop
  endfacet
  facet normal 0.309017 0.951056 0
    outer loop
      vertex -2.38125 79.8756 5
      vertex -0.497817 79.2636 0
      vertex -2.38125 79.8756 0
    endloop
  endfacet
  facet normal 0.669131 0.743145 0
    outer loop
      vertex -2.38125 79.8756 5
      vertex -2.38125 79.8756 0
      vertex -3.85294 81.2007 5
    endloop
  endfacet
  facet normal 0.669131 0.743145 0
    outer loop
      vertex -3.85294 81.2007 5
      vertex -2.38125 79.8756 0
      vertex -3.85294 81.2007 0
    endloop
  endfacet
  facet normal 0.913545 0.406737 0
    outer loop
      vertex -4.65843 83.0098 5
      vertex -3.85294 81.2007 5
      vertex -3.85294 81.2007 0
    endloop
  endfacet
  facet normal 0.913545 0.406737 0
    outer loop
      vertex -4.65843 83.0098 0
      vertex -4.65843 83.0098 5
      vertex -3.85294 81.2007 0
    endloop
  endfacet
  facet normal 1 0 0
    outer loop
      vertex -4.65843 84.9902 0
      vertex -4.65843 84.9902 5
      vertex -4.65843 83.0098 5
    endloop
  endfacet
  facet normal 1 0 0
    outer loop
      vertex -4.65843 83.0098 0
      vertex -4.65843 84.9902 0
      vertex -4.65843 83.0098 5
    endloop
  endfacet
  facet normal 0.913545 -0.406737 0
    outer loop
      vertex -4.65406 85 0
      vertex -4.65406 85 5
      vertex -4.65843 84.9902 5
    endloop
  endfacet
  facet normal 0.913545 -0.406737 0
    outer loop
      vertex -4.65843 84.9902 0
      vertex -4.65406 85 0
      vertex -4.65843 84.9902 5
    endloop
  endfacet
  facet normal 0 1 0
    outer loop
      vertex -7.5 85 0
      vertex -7.5 85 5
      vertex -4.65406 85 0
    endloop
  endfacet
  facet normal 0 1 0
    outer loop
      vertex -4.65406 85 0
      vertex -7.5 85 5
      vertex -4.65406 85 5
    endloop
  endfacet
  facet normal -1 0 0
    outer loop
      vertex -7.5 75 0
      vertex -7.5 75 5
      vertex -7.5 85 0
    endloop
  endfacet
  facet normal -1 0 0
    outer loop
      vertex -7.5 85 0
      vertex -7.5 75 5
      vertex -7.5 85 5
    endloop
  endfacet
  facet normal 0 -1 0
    outer loop
      vertex -7.5 75 5
      vertex -7.5 75 0
      vertex -5.77349 75 0
    endloop
  endfacet
  facet normal 0 -1 0
    outer loop
      vertex -5.77349 75 5
      vertex -7.5 75 5
      vertex -5.77349 75 0
    endloop
  endfacet
  facet normal 0 1 0
    outer loop
      vertex -48.584 -28.05 0
      vertex -48.584 -28.05 5
      vertex -5 -28.05 0
    endloop
  endfacet
  facet normal 0 1 0
    outer loop
      vertex -5 -28.05 0
      vertex -48.584 -28.05 5
      vertex -5 -28.05 5
    endloop
  endfacet
  facet normal 0.866026 -0.5 0
    outer loop
      vertex -48.584 -28.05 5
      vertex -48.584 -28.05 0
      vertex -5 47.4397 0
    endloop
  endfacet
  facet normal 0.866026 -0.5 0
    outer loop
      vertex -5 47.4397 5
      vertex -48.584 -28.05 5
      vertex -5 47.4397 0
    endloop
  endfacet
  facet normal -1 0 0
    outer loop
      vertex -5 -28.05 0
      vertex -5 -28.05 5
      vertex -5 47.4397 0
    endloop
  endfacet
  facet normal -1 0 0
    outer loop
      vertex -5 47.4397 0
      vertex -5 -28.05 5
      vertex -5 47.4397 5
    endloop
  endfacet
  facet normal 1 0 0
    outer loop
      vertex 5 -28.05 5
      vertex 5 -28.05 0
      vertex 5 47.4397 0
    endloop
  endfacet
  facet normal 1 0 0
    outer loop
      vertex 5 47.4397 5
      vertex 5 -28.05 5
      vertex 5 47.4397 0
    endloop
  endfacet
  facet normal -0.866026 -0.5 0
    outer loop
      vertex 5 47.4397 0
      vertex 48.584 -28.05 0
      vertex 5 47.4397 5
    endloop
  endfacet
  facet normal -0.866026 -0.5 0
    outer loop
      vertex 5 47.4397 5
      vertex 48.584 -28.05 0
      vertex 48.584 -28.05 5
    endloop
  endfacet
  facet normal 0 1 0
    outer loop
      vertex 5 -28.05 0
      vertex 5 -28.05 5
      vertex 48.584 -28.05 0
    endloop
  endfacet
  facet normal 0 1 0
    outer loop
      vertex 48.584 -28.05 0
      vertex 5 -28.05 5
      vertex 48.584 -28.05 5
    endloop
  endfacet
endsolid OpenSCAD_Model
