solid stacking box
facet normal 0.0 -1.0 0.0
outer loop
vertex 619.305838120443 79.5417365962238 3.00000000000002
vertex 618.805838120443 79.5417365962238 4.00000000000002
vertex 618.305838120443 79.5417365962238 3.00000000000002
endloop
endfacet
facet normal 0.0 -1.0 0.0
outer loop
vertex 618.805838120443 79.5417365962238 4.00000000000002
vertex 619.305838120443 79.5417365962238 3.00000000000002
vertex 619.305838120443 79.5417365962238 7.00000000000005
endloop
endfacet
facet normal 0.0 -1.0 0.0
outer loop
vertex 618.805838120443 79.5417365962238 4.00000000000002
vertex 619.305838120443 79.5417365962238 7.00000000000005
vertex 618.305838120443 79.5417365962238 5.00000000000005
endloop
endfacet
facet normal 0.0 -1.0 0.0
outer loop
vertex 618.305838120443 79.5417365962238 5.00000000000005
vertex 619.305838120443 79.5417365962238 7.00000000000005
vertex 618.805838120443 79.5417365962238 6.00000000000004
endloop
endfacet
facet normal 0.0 -1.0 0.0
outer loop
vertex 618.805838120443 79.5417365962238 6.00000000000004
vertex 619.305838120443 79.5417365962238 7.00000000000005
vertex 618.305838120443 79.5417365962238 7.00000000000005
endloop
endfacet
facet normal 1.0 -0.0 -0.0
outer loop
vertex 619.305838120443 75.0417365962238 3.00000000000002
vertex 619.305838120443 71.1881832056305 7.00000000000005
vertex 619.305838120443 71.1881832056305 3.00000000000002
endloop
endfacet
facet normal 1.0 -0.0 -0.0
outer loop
vertex 619.305838120443 71.1881832056305 7.00000000000005
vertex 619.305838120443 75.0417365962238 3.00000000000002
vertex 619.305838120443 75.0417365962238 7.00000000000005
endloop
endfacet
facet normal 0.707106781186547 -0.707106781186547 0.0
outer loop
vertex 619.305838120443 71.1881832056305 3.00000000000002
vertex 617.305838120443 69.1881832056305 7.00000000000005
vertex 617.305838120443 69.1881832056305 3.00000000000002
endloop
endfacet
facet normal 0.707106781186547 -0.707106781186547 0.0
outer loop
vertex 617.305838120443 69.1881832056305 7.00000000000005
vertex 619.305838120443 71.1881832056305 3.00000000000002
vertex 619.305838120443 71.1881832056305 7.00000000000005
endloop
endfacet
facet normal 1.0 -0.0 -0.0
outer loop
vertex 619.305838120443 83.7136298150372 3.00000000000002
vertex 619.305838120443 79.5417365962238 7.00000000000005
vertex 619.305838120443 79.5417365962238 3.00000000000002
endloop
endfacet
facet normal 1.0 -0.0 -0.0
outer loop
vertex 619.305838120443 79.5417365962238 7.00000000000005
vertex 619.305838120443 83.7136298150372 3.00000000000002
vertex 619.305838120443 83.7136298150372 7.00000000000005
endloop
endfacet
facet normal 0.0 -1.0 0.0
outer loop
vertex 619.305838120443 25.645289986817 3.00000000000002
vertex 618.805838120443 25.645289986817 4.00000000000002
vertex 618.305838120443 25.645289986817 3.00000000000002
endloop
endfacet
facet normal 0.0 -1.0 0.0
outer loop
vertex 618.805838120443 25.645289986817 4.00000000000002
vertex 619.305838120443 25.645289986817 3.00000000000002
vertex 619.305838120443 25.645289986817 7.00000000000005
endloop
endfacet
facet normal 0.0 -1.0 0.0
outer loop
vertex 618.805838120443 25.645289986817 4.00000000000002
vertex 619.305838120443 25.645289986817 7.00000000000005
vertex 618.305838120443 25.645289986817 5.00000000000005
endloop
endfacet
facet normal 0.0 -1.0 0.0
outer loop
vertex 618.305838120443 25.645289986817 5.00000000000005
vertex 619.305838120443 25.645289986817 7.00000000000005
vertex 618.805838120443 25.645289986817 6.00000000000004
endloop
endfacet
facet normal 0.0 -1.0 0.0
outer loop
vertex 618.805838120443 25.645289986817 6.00000000000004
vertex 619.305838120443 25.645289986817 7.00000000000005
vertex 618.305838120443 25.645289986817 7.00000000000005
endloop
endfacet
facet normal 1.0 -0.0 -0.0
outer loop
vertex 619.305838120443 21.145289986817 3.00000000000002
vertex 619.305838120443 13.2917365962238 7.00000000000005
vertex 619.305838120443 13.2917365962238 3.00000000000002
endloop
endfacet
facet normal 1.0 -0.0 -0.0
outer loop
vertex 619.305838120443 13.2917365962238 7.00000000000005
vertex 619.305838120443 21.145289986817 3.00000000000002
vertex 619.305838120443 21.145289986817 7.00000000000005
endloop
endfacet
facet normal 1.0 -0.0 -0.0
outer loop
vertex 617.305838120443 69.1881832056305 3.00000000000002
vertex 617.305838120443 35.3952899868171 7.00000000000005
vertex 617.305838120443 35.3952899868171 3.00000000000002
endloop
endfacet
facet normal 1.0 -0.0 -0.0
outer loop
vertex 617.305838120443 35.3952899868171 7.00000000000005
vertex 617.305838120443 69.1881832056305 3.00000000000002
vertex 617.305838120443 69.1881832056305 7.00000000000005
endloop
endfacet
facet normal 0.707106781186545 0.70710678118655 -0.0
outer loop
vertex 617.305838120443 35.3952899868171 7.00000000000005
vertex 619.305838120443 33.3952899868171 3.00000000000002
vertex 617.305838120443 35.3952899868171 3.00000000000002
endloop
endfacet
facet normal 0.707106781186545 0.70710678118655 -0.0
outer loop
vertex 619.305838120443 33.3952899868171 3.00000000000002
vertex 617.305838120443 35.3952899868171 7.00000000000005
vertex 619.305838120443 33.3952899868171 7.00000000000005
endloop
endfacet
facet normal 1.0 -0.0 -0.0
outer loop
vertex 619.305838120443 33.3952899868171 3.00000000000002
vertex 619.305838120443 25.645289986817 7.00000000000005
vertex 619.305838120443 25.645289986817 3.00000000000002
endloop
endfacet
facet normal 1.0 -0.0 -0.0
outer loop
vertex 619.305838120443 25.645289986817 7.00000000000005
vertex 619.305838120443 33.3952899868171 3.00000000000002
vertex 619.305838120443 33.3952899868171 7.00000000000005
endloop
endfacet
facet normal -0.707106781186547 0.707106781186547 -0.0
outer loop
vertex 625.055838120443 35.3952899868171 7.00000000000005
vertex 623.055838120443 33.3952899868171 3.00000000000002
vertex 623.055838120443 33.3952899868171 7.00000000000005
endloop
endfacet
facet normal -0.707106781186547 0.707106781186547 -0.0
outer loop
vertex 623.055838120443 33.3952899868171 3.00000000000002
vertex 625.055838120443 35.3952899868171 7.00000000000005
vertex 625.055838120443 35.3952899868171 3.00000000000002
endloop
endfacet
facet normal -1.0 0.0 0.0
outer loop
vertex 625.055838120443 69.1881832056305 7.00000000000005
vertex 625.055838120443 35.3952899868171 3.00000000000002
vertex 625.055838120443 35.3952899868171 7.00000000000005
endloop
endfacet
facet normal -1.0 0.0 0.0
outer loop
vertex 625.055838120443 35.3952899868171 3.00000000000002
vertex 625.055838120443 69.1881832056305 7.00000000000005
vertex 625.055838120443 69.1881832056305 3.00000000000002
endloop
endfacet
facet normal -1.0 0.0 0.0
outer loop
vertex 623.055838120443 33.3952899868171 7.00000000000005
vertex 623.055838120443 25.645289986817 3.00000000000002
vertex 623.055838120443 25.645289986817 7.00000000000005
endloop
endfacet
facet normal -1.0 0.0 0.0
outer loop
vertex 623.055838120443 25.645289986817 3.00000000000002
vertex 623.055838120443 33.3952899868171 7.00000000000005
vertex 623.055838120443 33.3952899868171 3.00000000000002
endloop
endfacet
facet normal 0.0 -1.0 0.0
outer loop
vertex 623.555838120443 25.645289986817 4.00000000000002
vertex 623.055838120443 25.645289986817 3.00000000000002
vertex 624.055838120443 25.645289986817 3.00000000000002
endloop
endfacet
facet normal 0.0 -1.0 0.0
outer loop
vertex 623.055838120443 25.645289986817 3.00000000000002
vertex 623.555838120443 25.645289986817 4.00000000000002
vertex 623.055838120443 25.645289986817 7.00000000000005
endloop
endfacet
facet normal 0.0 -1.0 0.0
outer loop
vertex 623.055838120443 25.645289986817 7.00000000000005
vertex 623.555838120443 25.645289986817 4.00000000000002
vertex 623.555838120443 25.645289986817 6.00000000000004
endloop
endfacet
facet normal 0.0 -1.0 0.0
outer loop
vertex 623.555838120443 25.645289986817 6.00000000000004
vertex 623.555838120443 25.645289986817 4.00000000000002
vertex 624.055838120443 25.645289986817 5.00000000000004
endloop
endfacet
facet normal 0.0 -1.0 0.0
outer loop
vertex 623.055838120443 25.645289986817 7.00000000000005
vertex 623.555838120443 25.645289986817 6.00000000000004
vertex 624.055838120443 25.645289986817 7.00000000000005
endloop
endfacet
facet normal 2.23054521071936e-048 -4.95551260538764e-033 1.0
outer loop
vertex 624.055838120443 21.145289986817 3.00000000000002
vertex 623.055838120443 25.645289986817 3.00000000000002
vertex 623.055838120443 21.145289986817 3.00000000000002
endloop
endfacet
facet normal 2.23054521071936e-048 -4.95551260538764e-033 1.0
outer loop
vertex 623.055838120443 25.645289986817 3.00000000000002
vertex 624.055838120443 21.145289986817 3.00000000000002
vertex 624.055838120443 25.645289986817 3.00000000000002
endloop
endfacet
facet normal 2.23054521071936e-048 -4.95551260538764e-033 1.0
outer loop
vertex 624.055838120443 75.0417365962238 3.00000000000002
vertex 623.055838120443 79.5417365962238 3.00000000000002
vertex 623.055838120443 75.0417365962238 3.00000000000002
endloop
endfacet
facet normal 2.23054521071936e-048 -4.95551260538764e-033 1.0
outer loop
vertex 623.055838120443 79.5417365962238 3.00000000000002
vertex 624.055838120443 75.0417365962238 3.00000000000002
vertex 624.055838120443 79.5417365962238 3.00000000000002
endloop
endfacet
facet normal 2.23054521071936e-048 -4.95551260538764e-033 1.0
outer loop
vertex 619.305838120443 33.3952899868171 3.00000000000002
vertex 617.305838120443 69.1881832056305 3.00000000000002
vertex 617.305838120443 35.3952899868171 3.00000000000002
endloop
endfacet
facet normal 2.23054521071936e-048 -4.95551260538764e-033 1.0
outer loop
vertex 617.305838120443 69.1881832056305 3.00000000000002
vertex 619.305838120443 33.3952899868171 3.00000000000002
vertex 619.305838120443 71.1881832056305 3.00000000000002
endloop
endfacet
facet normal 2.23054521071936e-048 -4.95551260538764e-033 1.0
outer loop
vertex 619.305838120443 71.1881832056305 3.00000000000002
vertex 619.305838120443 33.3952899868171 3.00000000000002
vertex 619.305838120443 35.395289986817 3.00000000000002
endloop
endfacet
facet normal 2.23054521071936e-048 -4.95551260538764e-033 1.0
outer loop
vertex 619.305838120443 71.1881832056305 3.00000000000002
vertex 619.305838120443 35.395289986817 3.00000000000002
vertex 619.305838120443 69.1881832056306 3.00000000000002
endloop
endfacet
facet normal 2.23054521071936e-048 -4.95551260538764e-033 1.0
outer loop
vertex 619.305838120443 71.1881832056305 3.00000000000002
vertex 619.305838120443 69.1881832056306 3.00000000000002
vertex 621.159391511036 71.0417365962238 3.00000000000002
endloop
endfacet
facet normal 2.23054521071936e-048 -4.95551260538764e-033 1.0
outer loop
vertex 619.305838120443 71.1881832056305 3.00000000000002
vertex 621.159391511036 71.0417365962238 3.00000000000002
vertex 619.305838120443 75.0417365962238 3.00000000000002
endloop
endfacet
facet normal 2.23054521071936e-048 -4.95551260538764e-033 1.0
outer loop
vertex 619.305838120443 75.0417365962238 3.00000000000002
vertex 621.159391511036 71.0417365962238 3.00000000000002
vertex 619.305838120443 79.5417365962238 3.00000000000002
endloop
endfacet
facet normal 2.23054521071936e-048 -4.95551260538764e-033 1.0
outer loop
vertex 619.305838120443 79.5417365962238 3.00000000000002
vertex 621.159391511036 71.0417365962238 3.00000000000002
vertex 619.305838120443 83.7136298150372 3.00000000000002
endloop
endfacet
facet normal 2.23054521071936e-048 -4.95551260538764e-033 1.0
outer loop
vertex 619.305838120443 83.7136298150372 3.00000000000002
vertex 621.159391511036 71.0417365962238 3.00000000000002
vertex 623.055838120443 83.7136298150372 3.00000000000002
endloop
endfacet
facet normal 2.23054521071936e-048 -4.95551260538764e-033 1.0
outer loop
vertex 623.055838120443 83.7136298150372 3.00000000000002
vertex 621.159391511036 71.0417365962238 3.00000000000002
vertex 621.20228472985 71.0417365962238 3.00000000000002
endloop
endfacet
facet normal 2.23054521071936e-048 -4.95551260538764e-033 1.0
outer loop
vertex 623.055838120443 83.7136298150372 3.00000000000002
vertex 621.20228472985 71.0417365962238 3.00000000000002
vertex 623.055838120443 69.1881832056306 3.00000000000002
endloop
endfacet
facet normal 2.23054521071936e-048 -4.95551260538764e-033 1.0
outer loop
vertex 623.055838120443 83.7136298150372 3.00000000000002
vertex 623.055838120443 69.1881832056306 3.00000000000002
vertex 623.055838120443 71.1881832056305 3.00000000000002
endloop
endfacet
facet normal 2.23054521071936e-048 -4.95551260538764e-033 1.0
outer loop
vertex 623.055838120443 83.7136298150372 3.00000000000002
vertex 623.055838120443 71.1881832056305 3.00000000000002
vertex 623.055838120443 75.0417365962238 3.00000000000002
endloop
endfacet
facet normal 2.23054521071936e-048 -4.95551260538764e-033 1.0
outer loop
vertex 623.055838120443 83.7136298150372 3.00000000000002
vertex 623.055838120443 75.0417365962238 3.00000000000002
vertex 623.055838120443 79.5417365962238 3.00000000000002
endloop
endfacet
facet normal 2.23054521071936e-048 -4.95551260538764e-033 1.0
outer loop
vertex 623.055838120443 13.2917365962238 3.00000000000002
vertex 619.305838120443 21.145289986817 3.00000000000002
vertex 619.305838120443 13.2917365962238 3.00000000000002
endloop
endfacet
facet normal 2.23054521071936e-048 -4.95551260538764e-033 1.0
outer loop
vertex 619.305838120443 21.145289986817 3.00000000000002
vertex 623.055838120443 13.2917365962238 3.00000000000002
vertex 619.305838120443 25.645289986817 3.00000000000002
endloop
endfacet
facet normal 2.23054521071936e-048 -4.95551260538764e-033 1.0
outer loop
vertex 619.305838120443 25.645289986817 3.00000000000002
vertex 623.055838120443 13.2917365962238 3.00000000000002
vertex 619.305838120443 33.3952899868171 3.00000000000002
endloop
endfacet
facet normal 2.23054521071936e-048 -4.95551260538764e-033 1.0
outer loop
vertex 619.305838120443 33.3952899868171 3.00000000000002
vertex 623.055838120443 13.2917365962238 3.00000000000002
vertex 619.305838120443 35.395289986817 3.00000000000002
endloop
endfacet
facet normal 2.23054521071936e-048 -4.95551260538764e-033 1.0
outer loop
vertex 619.305838120443 35.395289986817 3.00000000000002
vertex 623.055838120443 13.2917365962238 3.00000000000002
vertex 621.159391511036 33.5417365962238 3.00000000000002
endloop
endfacet
facet normal 2.23054521071936e-048 -4.95551260538764e-033 1.0
outer loop
vertex 621.159391511036 33.5417365962238 3.00000000000002
vertex 623.055838120443 13.2917365962238 3.00000000000002
vertex 621.20228472985 33.5417365962238 3.00000000000002
endloop
endfacet
facet normal 2.23054521071936e-048 -4.95551260538764e-033 1.0
outer loop
vertex 621.20228472985 33.5417365962238 3.00000000000002
vertex 623.055838120443 13.2917365962238 3.00000000000002
vertex 623.055838120443 35.395289986817 3.00000000000002
endloop
endfacet
facet normal 2.23054521071936e-048 -4.95551260538764e-033 1.0
outer loop
vertex 623.055838120443 35.395289986817 3.00000000000002
vertex 623.055838120443 13.2917365962238 3.00000000000002
vertex 623.055838120443 21.145289986817 3.00000000000002
endloop
endfacet
facet normal 2.23054521071936e-048 -4.95551260538764e-033 1.0
outer loop
vertex 623.055838120443 35.395289986817 3.00000000000002
vertex 623.055838120443 21.145289986817 3.00000000000002
vertex 623.055838120443 25.645289986817 3.00000000000002
endloop
endfacet
facet normal 2.23054521071936e-048 -4.95551260538764e-033 1.0
outer loop
vertex 623.055838120443 35.395289986817 3.00000000000002
vertex 623.055838120443 25.645289986817 3.00000000000002
vertex 623.055838120443 33.3952899868171 3.00000000000002
endloop
endfacet
facet normal 2.23054521071936e-048 -4.95551260538764e-033 1.0
outer loop
vertex 623.055838120443 35.395289986817 3.00000000000002
vertex 623.055838120443 33.3952899868171 3.00000000000002
vertex 625.055838120443 35.3952899868171 3.00000000000002
endloop
endfacet
facet normal 2.23054521071936e-048 -4.95551260538764e-033 1.0
outer loop
vertex 623.055838120443 35.395289986817 3.00000000000002
vertex 625.055838120443 35.3952899868171 3.00000000000002
vertex 623.055838120443 69.1881832056306 3.00000000000002
endloop
endfacet
facet normal 2.23054521071936e-048 -4.95551260538764e-033 1.0
outer loop
vertex 623.055838120443 69.1881832056306 3.00000000000002
vertex 625.055838120443 35.3952899868171 3.00000000000002
vertex 623.055838120443 71.1881832056305 3.00000000000002
endloop
endfacet
facet normal 2.23054521071936e-048 -4.95551260538764e-033 1.0
outer loop
vertex 623.055838120443 71.1881832056305 3.00000000000002
vertex 625.055838120443 35.3952899868171 3.00000000000002
vertex 625.055838120443 69.1881832056305 3.00000000000002
endloop
endfacet
facet normal 2.23054521071936e-048 -4.95551260538764e-033 1.0
outer loop
vertex 619.305838120443 75.0417365962238 3.00000000000002
vertex 618.305838120443 79.5417365962238 3.00000000000002
vertex 618.305838120443 75.0417365962238 3.00000000000002
endloop
endfacet
facet normal 2.23054521071936e-048 -4.95551260538764e-033 1.0
outer loop
vertex 618.305838120443 79.5417365962238 3.00000000000002
vertex 619.305838120443 75.0417365962238 3.00000000000002
vertex 619.305838120443 79.5417365962238 3.00000000000002
endloop
endfacet
facet normal 2.23054521071936e-048 -4.95551260538764e-033 1.0
outer loop
vertex 619.305838120443 21.145289986817 3.00000000000002
vertex 618.305838120443 25.645289986817 3.00000000000002
vertex 618.305838120443 21.145289986817 3.00000000000002
endloop
endfacet
facet normal 2.23054521071936e-048 -4.95551260538764e-033 1.0
outer loop
vertex 618.305838120443 25.645289986817 3.00000000000002
vertex 619.305838120443 21.145289986817 3.00000000000002
vertex 619.305838120443 25.645289986817 3.00000000000002
endloop
endfacet
facet normal 0.0 -1.0 0.0
outer loop
vertex 623.555838120443 79.5417365962238 4.00000000000002
vertex 623.055838120443 79.5417365962238 3.00000000000002
vertex 624.055838120443 79.5417365962238 3.00000000000002
endloop
endfacet
facet normal 0.0 -1.0 0.0
outer loop
vertex 623.055838120443 79.5417365962238 3.00000000000002
vertex 623.555838120443 79.5417365962238 4.00000000000002
vertex 623.055838120443 79.5417365962238 7.00000000000005
endloop
endfacet
facet normal 0.0 -1.0 0.0
outer loop
vertex 623.055838120443 79.5417365962238 7.00000000000005
vertex 623.555838120443 79.5417365962238 4.00000000000002
vertex 623.555838120443 79.5417365962238 6.00000000000004
endloop
endfacet
facet normal 0.0 -1.0 0.0
outer loop
vertex 623.555838120443 79.5417365962238 6.00000000000004
vertex 623.555838120443 79.5417365962238 4.00000000000002
vertex 624.055838120443 79.5417365962238 5.00000000000004
endloop
endfacet
facet normal 0.0 -1.0 0.0
outer loop
vertex 623.055838120443 79.5417365962238 7.00000000000005
vertex 623.555838120443 79.5417365962238 6.00000000000004
vertex 624.055838120443 79.5417365962238 7.00000000000005
endloop
endfacet
facet normal -1.0 0.0 0.0
outer loop
vertex 623.055838120443 21.145289986817 7.00000000000005
vertex 623.055838120443 13.2917365962238 3.00000000000002
vertex 623.055838120443 13.2917365962238 7.00000000000005
endloop
endfacet
facet normal -1.0 0.0 0.0
outer loop
vertex 623.055838120443 13.2917365962238 3.00000000000002
vertex 623.055838120443 21.145289986817 7.00000000000005
vertex 623.055838120443 21.145289986817 3.00000000000002
endloop
endfacet
facet normal -0.707106781186545 -0.70710678118655 0.0
outer loop
vertex 625.055838120443 69.1881832056305 7.00000000000005
vertex 623.055838120443 71.1881832056305 3.00000000000002
vertex 625.055838120443 69.1881832056305 3.00000000000002
endloop
endfacet
facet normal -0.707106781186545 -0.70710678118655 0.0
outer loop
vertex 623.055838120443 71.1881832056305 3.00000000000002
vertex 625.055838120443 69.1881832056305 7.00000000000005
vertex 623.055838120443 71.1881832056305 7.00000000000005
endloop
endfacet
facet normal -1.0 0.0 0.0
outer loop
vertex 623.055838120443 75.0417365962238 7.00000000000005
vertex 623.055838120443 71.1881832056305 3.00000000000002
vertex 623.055838120443 71.1881832056305 7.00000000000005
endloop
endfacet
facet normal -1.0 0.0 0.0
outer loop
vertex 623.055838120443 71.1881832056305 3.00000000000002
vertex 623.055838120443 75.0417365962238 7.00000000000005
vertex 623.055838120443 75.0417365962238 3.00000000000002
endloop
endfacet
facet normal -1.0 0.0 0.0
outer loop
vertex 623.055838120443 83.7136298150372 7.00000000000005
vertex 623.055838120443 79.5417365962238 3.00000000000002
vertex 623.055838120443 79.5417365962238 7.00000000000005
endloop
endfacet
facet normal -1.0 0.0 0.0
outer loop
vertex 623.055838120443 79.5417365962238 3.00000000000002
vertex 623.055838120443 83.7136298150372 7.00000000000005
vertex 623.055838120443 83.7136298150372 3.00000000000002
endloop
endfacet
facet normal -0.894427190999899 0.0 -0.447213595499991
outer loop
vertex 623.555838120443 79.5417365962238 4.00000000000002
vertex 624.055838120443 75.0417365962238 3.00000000000002
vertex 623.555838120443 75.0417365962238 4.00000000000002
endloop
endfacet
facet normal -0.894427190999899 0.0 -0.447213595499991
outer loop
vertex 624.055838120443 75.0417365962238 3.00000000000002
vertex 623.555838120443 79.5417365962238 4.00000000000002
vertex 624.055838120443 79.5417365962238 3.00000000000002
endloop
endfacet
facet normal -0.0 1.0 -0.0
outer loop
vertex 623.055838120443 75.0417365962238 3.00000000000002
vertex 623.555838120443 75.0417365962238 4.00000000000002
vertex 624.055838120443 75.0417365962238 3.00000000000002
endloop
endfacet
facet normal -0.0 1.0 -0.0
outer loop
vertex 623.555838120443 75.0417365962238 4.00000000000002
vertex 623.055838120443 75.0417365962238 3.00000000000002
vertex 623.055838120443 75.0417365962238 7.00000000000005
endloop
endfacet
facet normal -0.0 1.0 -0.0
outer loop
vertex 623.555838120443 75.0417365962238 4.00000000000002
vertex 623.055838120443 75.0417365962238 7.00000000000005
vertex 623.555838120443 75.0417365962238 6.00000000000004
endloop
endfacet
facet normal -0.0 1.0 -0.0
outer loop
vertex 623.555838120443 75.0417365962238 4.00000000000002
vertex 623.555838120443 75.0417365962238 6.00000000000004
vertex 624.055838120443 75.0417365962238 5.00000000000004
endloop
endfacet
facet normal -0.0 1.0 -0.0
outer loop
vertex 623.555838120443 75.0417365962238 6.00000000000004
vertex 623.055838120443 75.0417365962238 7.00000000000005
vertex 624.055838120443 75.0417365962238 7.00000000000005
endloop
endfacet
facet normal -0.894427190999901 0.0 0.447213595499987
outer loop
vertex 624.055838120443 79.5417365962238 7.00000000000005
vertex 623.555838120443 75.0417365962238 6.00000000000004
vertex 624.055838120443 75.0417365962238 7.00000000000005
endloop
endfacet
facet normal -0.894427190999901 0.0 0.447213595499987
outer loop
vertex 623.555838120443 75.0417365962238 6.00000000000004
vertex 624.055838120443 79.5417365962238 7.00000000000005
vertex 623.555838120443 79.5417365962238 6.00000000000004
endloop
endfacet
facet normal -0.894427190999899 0.0 -0.447213595499991
outer loop
vertex 623.555838120443 79.5417365962238 6.00000000000004
vertex 624.055838120443 75.0417365962238 5.00000000000004
vertex 623.555838120443 75.0417365962238 6.00000000000004
endloop
endfacet
facet normal -0.894427190999899 0.0 -0.447213595499991
outer loop
vertex 624.055838120443 75.0417365962238 5.00000000000004
vertex 623.555838120443 79.5417365962238 6.00000000000004
vertex 624.055838120443 79.5417365962238 5.00000000000004
endloop
endfacet
facet normal -0.0 1.0 -0.0
outer loop
vertex 623.055838120443 21.145289986817 3.00000000000002
vertex 623.555838120443 21.145289986817 4.00000000000002
vertex 624.055838120443 21.145289986817 3.00000000000002
endloop
endfacet
facet normal -0.0 1.0 -0.0
outer loop
vertex 623.555838120443 21.145289986817 4.00000000000002
vertex 623.055838120443 21.145289986817 3.00000000000002
vertex 623.055838120443 21.145289986817 7.00000000000005
endloop
endfacet
facet normal -0.0 1.0 -0.0
outer loop
vertex 623.555838120443 21.145289986817 4.00000000000002
vertex 623.055838120443 21.145289986817 7.00000000000005
vertex 623.555838120443 21.145289986817 6.00000000000004
endloop
endfacet
facet normal -0.0 1.0 -0.0
outer loop
vertex 623.555838120443 21.145289986817 4.00000000000002
vertex 623.555838120443 21.145289986817 6.00000000000004
vertex 624.055838120443 21.145289986817 5.00000000000004
endloop
endfacet
facet normal -0.0 1.0 -0.0
outer loop
vertex 623.555838120443 21.145289986817 6.00000000000004
vertex 623.055838120443 21.145289986817 7.00000000000005
vertex 624.055838120443 21.145289986817 7.00000000000005
endloop
endfacet
facet normal -0.894427190999901 0.0 0.447213595499987
outer loop
vertex 624.055838120443 25.645289986817 7.00000000000005
vertex 623.555838120443 21.145289986817 6.00000000000004
vertex 624.055838120443 21.145289986817 7.00000000000005
endloop
endfacet
facet normal -0.894427190999901 0.0 0.447213595499987
outer loop
vertex 623.555838120443 21.145289986817 6.00000000000004
vertex 624.055838120443 25.645289986817 7.00000000000005
vertex 623.555838120443 25.645289986817 6.00000000000004
endloop
endfacet
facet normal -0.894427190999901 0.0 0.447213595499988
outer loop
vertex 624.055838120443 79.5417365962238 5.00000000000004
vertex 623.555838120443 75.0417365962238 4.00000000000002
vertex 624.055838120443 75.0417365962238 5.00000000000004
endloop
endfacet
facet normal -0.894427190999901 0.0 0.447213595499988
outer loop
vertex 623.555838120443 75.0417365962238 4.00000000000002
vertex 624.055838120443 79.5417365962238 5.00000000000004
vertex 623.555838120443 79.5417365962238 4.00000000000002
endloop
endfacet
facet normal -0.894427190999899 0.0 -0.447213595499991
outer loop
vertex 623.555838120443 25.645289986817 4.00000000000002
vertex 624.055838120443 21.145289986817 3.00000000000002
vertex 623.555838120443 21.145289986817 4.00000000000002
endloop
endfacet
facet normal -0.894427190999899 0.0 -0.447213595499991
outer loop
vertex 624.055838120443 21.145289986817 3.00000000000002
vertex 623.555838120443 25.645289986817 4.00000000000002
vertex 624.055838120443 25.645289986817 3.00000000000002
endloop
endfacet
facet normal -0.894427190999899 0.0 -0.447213595499991
outer loop
vertex 623.555838120443 25.645289986817 6.00000000000004
vertex 624.055838120443 21.145289986817 5.00000000000004
vertex 623.555838120443 21.145289986817 6.00000000000004
endloop
endfacet
facet normal -0.894427190999899 0.0 -0.447213595499991
outer loop
vertex 624.055838120443 21.145289986817 5.00000000000004
vertex 623.555838120443 25.645289986817 6.00000000000004
vertex 624.055838120443 25.645289986817 5.00000000000004
endloop
endfacet
facet normal -0.894427190999901 0.0 0.447213595499988
outer loop
vertex 624.055838120443 25.645289986817 5.00000000000004
vertex 623.555838120443 21.145289986817 4.00000000000002
vertex 624.055838120443 21.145289986817 5.00000000000004
endloop
endfacet
facet normal -0.894427190999901 0.0 0.447213595499988
outer loop
vertex 623.555838120443 21.145289986817 4.00000000000002
vertex 624.055838120443 25.645289986817 5.00000000000004
vertex 623.555838120443 25.645289986817 4.00000000000002
endloop
endfacet
facet normal 0.894427190999936 -0.0 0.447213595499918
outer loop
vertex 618.805838120443 25.645289986817 4.00000000000002
vertex 618.305838120443 21.145289986817 5.00000000000005
vertex 618.805838120443 21.145289986817 4.00000000000002
endloop
endfacet
facet normal 0.894427190999936 -0.0 0.447213595499918
outer loop
vertex 618.305838120443 21.145289986817 5.00000000000005
vertex 618.805838120443 25.645289986817 4.00000000000002
vertex 618.305838120443 25.645289986817 5.00000000000005
endloop
endfacet
facet normal -0.0 1.0 -0.0
outer loop
vertex 618.805838120443 21.145289986817 4.00000000000002
vertex 619.305838120443 21.145289986817 3.00000000000002
vertex 618.305838120443 21.145289986817 3.00000000000002
endloop
endfacet
facet normal -0.0 1.0 -0.0
outer loop
vertex 619.305838120443 21.145289986817 3.00000000000002
vertex 618.805838120443 21.145289986817 4.00000000000002
vertex 619.305838120443 21.145289986817 7.00000000000005
endloop
endfacet
facet normal -0.0 1.0 -0.0
outer loop
vertex 619.305838120443 21.145289986817 7.00000000000005
vertex 618.805838120443 21.145289986817 4.00000000000002
vertex 618.305838120443 21.145289986817 5.00000000000005
endloop
endfacet
facet normal -0.0 1.0 -0.0
outer loop
vertex 619.305838120443 21.145289986817 7.00000000000005
vertex 618.305838120443 21.145289986817 5.00000000000005
vertex 618.805838120443 21.145289986817 6.00000000000004
endloop
endfacet
facet normal -0.0 1.0 -0.0
outer loop
vertex 619.305838120443 21.145289986817 7.00000000000005
vertex 618.805838120443 21.145289986817 6.00000000000004
vertex 618.305838120443 21.145289986817 7.00000000000005
endloop
endfacet
facet normal 0.894427190999935 -0.0 0.447213595499921
outer loop
vertex 618.805838120443 25.645289986817 6.00000000000004
vertex 618.305838120443 21.145289986817 7.00000000000005
vertex 618.805838120443 21.145289986817 6.00000000000004
endloop
endfacet
facet normal 0.894427190999935 -0.0 0.447213595499921
outer loop
vertex 618.305838120443 21.145289986817 7.00000000000005
vertex 618.805838120443 25.645289986817 6.00000000000004
vertex 618.305838120443 25.645289986817 7.00000000000005
endloop
endfacet
facet normal -0.0 1.0 -0.0
outer loop
vertex 618.805838120443 75.0417365962238 4.00000000000002
vertex 619.305838120443 75.0417365962238 3.00000000000002
vertex 618.305838120443 75.0417365962238 3.00000000000002
endloop
endfacet
facet normal -0.0 1.0 -0.0
outer loop
vertex 619.305838120443 75.0417365962238 3.00000000000002
vertex 618.805838120443 75.0417365962238 4.00000000000002
vertex 619.305838120443 75.0417365962238 7.00000000000005
endloop
endfacet
facet normal -0.0 1.0 -0.0
outer loop
vertex 619.305838120443 75.0417365962238 7.00000000000005
vertex 618.805838120443 75.0417365962238 4.00000000000002
vertex 618.305838120443 75.0417365962238 5.00000000000005
endloop
endfacet
facet normal -0.0 1.0 -0.0
outer loop
vertex 619.305838120443 75.0417365962238 7.00000000000005
vertex 618.305838120443 75.0417365962238 5.00000000000005
vertex 618.805838120443 75.0417365962238 6.00000000000004
endloop
endfacet
facet normal -0.0 1.0 -0.0
outer loop
vertex 619.305838120443 75.0417365962238 7.00000000000005
vertex 618.805838120443 75.0417365962238 6.00000000000004
vertex 618.305838120443 75.0417365962238 7.00000000000005
endloop
endfacet
facet normal 0.89442719099993 -0.0 -0.447213595499929
outer loop
vertex 618.305838120443 25.645289986817 5.00000000000005
vertex 618.805838120443 21.145289986817 6.00000000000004
vertex 618.305838120443 21.145289986817 5.00000000000005
endloop
endfacet
facet normal 0.89442719099993 -0.0 -0.447213595499929
outer loop
vertex 618.805838120443 21.145289986817 6.00000000000004
vertex 618.305838120443 25.645289986817 5.00000000000005
vertex 618.805838120443 25.645289986817 6.00000000000004
endloop
endfacet
facet normal 0.894427190999932 -0.0 -0.447213595499925
outer loop
vertex 618.305838120443 25.645289986817 3.00000000000002
vertex 618.805838120443 21.145289986817 4.00000000000002
vertex 618.305838120443 21.145289986817 3.00000000000002
endloop
endfacet
facet normal 0.894427190999932 -0.0 -0.447213595499925
outer loop
vertex 618.805838120443 21.145289986817 4.00000000000002
vertex 618.305838120443 25.645289986817 3.00000000000002
vertex 618.805838120443 25.645289986817 4.00000000000002
endloop
endfacet
facet normal 0.894427190999935 -0.0 0.447213595499921
outer loop
vertex 618.805838120443 79.5417365962238 6.00000000000004
vertex 618.305838120443 75.0417365962238 7.00000000000005
vertex 618.805838120443 75.0417365962238 6.00000000000004
endloop
endfacet
facet normal 0.894427190999935 -0.0 0.447213595499921
outer loop
vertex 618.305838120443 75.0417365962238 7.00000000000005
vertex 618.805838120443 79.5417365962238 6.00000000000004
vertex 618.305838120443 79.5417365962238 7.00000000000005
endloop
endfacet
facet normal 0.89442719099993 -0.0 -0.447213595499929
outer loop
vertex 618.305838120443 79.5417365962238 5.00000000000005
vertex 618.805838120443 75.0417365962238 6.00000000000004
vertex 618.305838120443 75.0417365962238 5.00000000000005
endloop
endfacet
facet normal 0.89442719099993 -0.0 -0.447213595499929
outer loop
vertex 618.805838120443 75.0417365962238 6.00000000000004
vertex 618.305838120443 79.5417365962238 5.00000000000005
vertex 618.805838120443 79.5417365962238 6.00000000000004
endloop
endfacet
facet normal 0.894427190999932 -0.0 -0.447213595499925
outer loop
vertex 618.305838120443 79.5417365962238 3.00000000000002
vertex 618.805838120443 75.0417365962238 4.00000000000002
vertex 618.305838120443 75.0417365962238 3.00000000000002
endloop
endfacet
facet normal 0.894427190999932 -0.0 -0.447213595499925
outer loop
vertex 618.805838120443 75.0417365962238 4.00000000000002
vertex 618.305838120443 79.5417365962238 3.00000000000002
vertex 618.805838120443 79.5417365962238 4.00000000000002
endloop
endfacet
facet normal 0.894427190999936 -0.0 0.447213595499918
outer loop
vertex 618.805838120443 79.5417365962238 4.00000000000002
vertex 618.305838120443 75.0417365962238 5.00000000000005
vertex 618.805838120443 75.0417365962238 4.00000000000002
endloop
endfacet
facet normal 0.894427190999936 -0.0 0.447213595499918
outer loop
vertex 618.305838120443 75.0417365962238 5.00000000000005
vertex 618.805838120443 79.5417365962238 4.00000000000002
vertex 618.305838120443 79.5417365962238 5.00000000000005
endloop
endfacet
facet normal 1.0 -0.0 -0.0
outer loop
vertex 625.305838120443 83.7136298150372 1.00000000000002
vertex 625.305838120443 71.2917365962238 7.00000000000004
vertex 625.305838120443 71.2917365962238 1.00000000000001
endloop
endfacet
facet normal 1.0 -0.0 -0.0
outer loop
vertex 625.305838120443 71.2917365962238 7.00000000000004
vertex 625.305838120443 83.7136298150372 1.00000000000002
vertex 625.305838120443 83.7136298150372 7.00000000000005
endloop
endfacet
facet normal -5.91850987038573e-033 -3.06242551822474e-017 -1.0
outer loop
vertex 627.305838120443 69.2917365962238 1.00000000000001
vertex 625.305838120443 33.2917365962238 1.00000000000001
vertex 625.305838120443 71.2917365962238 1.00000000000001
endloop
endfacet
facet normal -5.91850987038573e-033 -3.06242551822474e-017 -1.0
outer loop
vertex 625.305838120443 33.2917365962238 1.00000000000001
vertex 627.305838120443 69.2917365962238 1.00000000000001
vertex 627.305838120443 35.2917365962238 1.00000000000001
endloop
endfacet
facet normal -5.91850987038573e-033 -3.06242551822474e-017 -1.0
outer loop
vertex 625.305838120443 83.7136298150372 1.00000000000002
vertex 617.055838120443 71.2917365962238 1.00000000000001
vertex 617.055838120443 83.7136298150372 1.00000000000002
endloop
endfacet
facet normal -5.91850987038573e-033 -3.06242551822474e-017 -1.0
outer loop
vertex 617.055838120443 71.2917365962238 1.00000000000001
vertex 625.305838120443 83.7136298150372 1.00000000000002
vertex 617.055838120443 33.2917365962238 1.00000000000001
endloop
endfacet
facet normal -5.91850987038573e-033 -3.06242551822474e-017 -1.0
outer loop
vertex 617.055838120443 33.2917365962238 1.00000000000001
vertex 625.305838120443 83.7136298150372 1.00000000000002
vertex 617.055838120443 13.2917365962238 1.00000000000001
endloop
endfacet
facet normal -5.91850987038573e-033 -3.06242551822474e-017 -1.0
outer loop
vertex 617.055838120443 13.2917365962238 1.00000000000001
vertex 625.305838120443 83.7136298150372 1.00000000000002
vertex 625.305838120443 13.2917365962238 1.00000000000001
endloop
endfacet
facet normal -5.91850987038573e-033 -3.06242551822474e-017 -1.0
outer loop
vertex 625.305838120443 13.2917365962238 1.00000000000001
vertex 625.305838120443 83.7136298150372 1.00000000000002
vertex 625.305838120443 71.2917365962238 1.00000000000001
endloop
endfacet
facet normal -5.91850987038573e-033 -3.06242551822474e-017 -1.0
outer loop
vertex 625.305838120443 13.2917365962238 1.00000000000001
vertex 625.305838120443 71.2917365962238 1.00000000000001
vertex 625.305838120443 33.2917365962238 1.00000000000001
endloop
endfacet
facet normal -5.91850987038573e-033 -3.06242551822474e-017 -1.0
outer loop
vertex 617.055838120443 71.2917365962238 1.00000000000001
vertex 615.055838120443 35.2917365962238 1.00000000000001
vertex 615.055838120443 69.2917365962238 1.00000000000001
endloop
endfacet
facet normal -5.91850987038573e-033 -3.06242551822474e-017 -1.0
outer loop
vertex 615.055838120443 35.2917365962238 1.00000000000001
vertex 617.055838120443 71.2917365962238 1.00000000000001
vertex 617.055838120443 33.2917365962238 1.00000000000001
endloop
endfacet
facet normal -2.87045884530489e-015 -2.99885921970627e-017 1.0
outer loop
vertex 617.055838120443 33.2917365962238 7.00000000000004
vertex 615.055838120443 69.2917365962238 7.00000000000004
vertex 615.055838120443 35.2917365962238 7.00000000000004
endloop
endfacet
facet normal -2.87045884530489e-015 -2.99885921970627e-017 1.0
outer loop
vertex 615.055838120443 69.2917365962238 7.00000000000004
vertex 617.055838120443 33.2917365962238 7.00000000000004
vertex 617.055838120443 71.2917365962238 7.00000000000004
endloop
endfacet
facet normal -2.87045884530489e-015 -2.99885921970627e-017 1.0
outer loop
vertex 617.055838120443 13.2917365962238 7.00000000000004
vertex 618.305838120443 21.145289986817 7.00000000000005
vertex 617.055838120443 33.2917365962238 7.00000000000004
endloop
endfacet
facet normal -2.87045884530489e-015 -2.99885921970627e-017 1.0
outer loop
vertex 618.305838120443 21.145289986817 7.00000000000005
vertex 617.055838120443 13.2917365962238 7.00000000000004
vertex 619.305838120443 13.2917365962238 7.00000000000005
endloop
endfacet
facet normal -2.87045884530489e-015 -2.99885921970627e-017 1.0
outer loop
vertex 617.055838120443 33.2917365962238 7.00000000000004
vertex 618.305838120443 21.145289986817 7.00000000000005
vertex 617.305838120443 35.3952899868171 7.00000000000005
endloop
endfacet
facet normal -2.87045884530489e-015 -2.99885921970627e-017 1.0
outer loop
vertex 617.055838120443 33.2917365962238 7.00000000000004
vertex 617.305838120443 35.3952899868171 7.00000000000005
vertex 617.055838120443 71.2917365962238 7.00000000000004
endloop
endfacet
facet normal -2.87045884530489e-015 -2.99885921970627e-017 1.0
outer loop
vertex 617.055838120443 71.2917365962238 7.00000000000004
vertex 617.305838120443 35.3952899868171 7.00000000000005
vertex 617.055838120443 83.7136298150372 7.00000000000005
endloop
endfacet
facet normal -2.87045884530489e-015 -2.99885921970627e-017 1.0
outer loop
vertex 618.305838120443 21.145289986817 7.00000000000005
vertex 619.305838120443 13.2917365962238 7.00000000000005
vertex 619.305838120443 21.145289986817 7.00000000000005
endloop
endfacet
facet normal -2.87045884530489e-015 -2.99885921970627e-017 1.0
outer loop
vertex 617.305838120443 35.3952899868171 7.00000000000005
vertex 618.305838120443 25.645289986817 7.00000000000005
vertex 619.305838120443 33.3952899868171 7.00000000000005
endloop
endfacet
facet normal -2.87045884530489e-015 -2.99885921970627e-017 1.0
outer loop
vertex 618.305838120443 25.645289986817 7.00000000000005
vertex 617.305838120443 35.3952899868171 7.00000000000005
vertex 618.305838120443 21.145289986817 7.00000000000005
endloop
endfacet
facet normal -2.87045884530489e-015 -2.99885921970627e-017 1.0
outer loop
vertex 619.305838120443 33.3952899868171 7.00000000000005
vertex 618.305838120443 25.645289986817 7.00000000000005
vertex 619.305838120443 25.645289986817 7.00000000000005
endloop
endfacet
facet normal -2.87045884530489e-015 -2.99885921970627e-017 1.0
outer loop
vertex 619.305838120443 71.1881832056305 7.00000000000005
vertex 618.305838120443 75.0417365962238 7.00000000000005
vertex 617.305838120443 69.1881832056305 7.00000000000005
endloop
endfacet
facet normal -2.87045884530489e-015 -2.99885921970627e-017 1.0
outer loop
vertex 618.305838120443 75.0417365962238 7.00000000000005
vertex 619.305838120443 71.1881832056305 7.00000000000005
vertex 619.305838120443 75.0417365962238 7.00000000000005
endloop
endfacet
facet normal -2.87045884530489e-015 -2.99885921970627e-017 1.0
outer loop
vertex 617.055838120443 83.7136298150372 7.00000000000005
vertex 618.305838120443 79.5417365962238 7.00000000000005
vertex 619.305838120443 83.7136298150372 7.00000000000005
endloop
endfacet
facet normal -2.87045884530489e-015 -2.99885921970627e-017 1.0
outer loop
vertex 618.305838120443 79.5417365962238 7.00000000000005
vertex 617.055838120443 83.7136298150372 7.00000000000005
vertex 617.305838120443 69.1881832056305 7.00000000000005
endloop
endfacet
facet normal -2.87045884530489e-015 -2.99885921970627e-017 1.0
outer loop
vertex 617.305838120443 69.1881832056305 7.00000000000005
vertex 617.055838120443 83.7136298150372 7.00000000000005
vertex 617.305838120443 35.3952899868171 7.00000000000005
endloop
endfacet
facet normal -2.87045884530489e-015 -2.99885921970627e-017 1.0
outer loop
vertex 618.305838120443 79.5417365962238 7.00000000000005
vertex 617.305838120443 69.1881832056305 7.00000000000005
vertex 618.305838120443 75.0417365962238 7.00000000000005
endloop
endfacet
facet normal -2.87045884530489e-015 -2.99885921970627e-017 1.0
outer loop
vertex 619.305838120443 83.7136298150372 7.00000000000005
vertex 618.305838120443 79.5417365962238 7.00000000000005
vertex 619.305838120443 79.5417365962238 7.00000000000005
endloop
endfacet
facet normal -0.0 1.0 -0.0
outer loop
vertex 617.055838120443 83.7136298150372 1.00000000000002
vertex 619.305838120443 83.7136298150372 3.00000000000002
vertex 625.305838120443 83.7136298150372 1.00000000000002
endloop
endfacet
facet normal -0.0 1.0 -0.0
outer loop
vertex 619.305838120443 83.7136298150372 3.00000000000002
vertex 617.055838120443 83.7136298150372 1.00000000000002
vertex 617.055838120443 83.7136298150372 7.00000000000005
endloop
endfacet
facet normal -0.0 1.0 -0.0
outer loop
vertex 619.305838120443 83.7136298150372 3.00000000000002
vertex 617.055838120443 83.7136298150372 7.00000000000005
vertex 619.305838120443 83.7136298150372 7.00000000000005
endloop
endfacet
facet normal -0.0 1.0 -0.0
outer loop
vertex 625.305838120443 83.7136298150372 1.00000000000002
vertex 623.055838120443 83.7136298150372 3.00000000000002
vertex 625.305838120443 83.7136298150372 7.00000000000005
endloop
endfacet
facet normal -0.0 1.0 -0.0
outer loop
vertex 623.055838120443 83.7136298150372 3.00000000000002
vertex 625.305838120443 83.7136298150372 1.00000000000002
vertex 619.305838120443 83.7136298150372 3.00000000000002
endloop
endfacet
facet normal -0.0 1.0 -0.0
outer loop
vertex 625.305838120443 83.7136298150372 7.00000000000005
vertex 623.055838120443 83.7136298150372 3.00000000000002
vertex 623.055838120443 83.7136298150372 7.00000000000005
endloop
endfacet
facet normal -0.0 -0.0 1.0
outer loop
vertex 621.159391511036 33.5417365962238 7.00000000000005
vertex 619.305838120443 69.1881832056306 7.00000000000005
vertex 619.305838120443 35.395289986817 7.00000000000005
endloop
endfacet
facet normal -0.0 -0.0 1.0
outer loop
vertex 619.305838120443 69.1881832056306 7.00000000000005
vertex 621.159391511036 33.5417365962238 7.00000000000005
vertex 621.159391511036 71.0417365962238 7.00000000000005
endloop
endfacet
facet normal -0.0 -0.0 1.0
outer loop
vertex 621.159391511036 71.0417365962238 7.00000000000005
vertex 621.159391511036 33.5417365962238 7.00000000000005
vertex 621.20228472985 71.0417365962238 7.00000000000005
endloop
endfacet
facet normal -0.0 -0.0 1.0
outer loop
vertex 621.20228472985 71.0417365962238 7.00000000000005
vertex 621.159391511036 33.5417365962238 7.00000000000005
vertex 621.20228472985 33.5417365962238 7.00000000000005
endloop
endfacet
facet normal -0.0 -0.0 1.0
outer loop
vertex 621.20228472985 71.0417365962238 7.00000000000005
vertex 621.20228472985 33.5417365962238 7.00000000000005
vertex 623.055838120443 35.395289986817 7.00000000000005
endloop
endfacet
facet normal -0.0 -0.0 1.0
outer loop
vertex 621.20228472985 71.0417365962238 7.00000000000005
vertex 623.055838120443 35.395289986817 7.00000000000005
vertex 623.055838120443 69.1881832056306 7.00000000000005
endloop
endfacet
facet normal 2.87045884530489e-015 -2.99885921970627e-017 1.0
outer loop
vertex 625.055838120443 69.1881832056305 7.00000000000005
vertex 623.055838120443 75.0417365962238 7.00000000000005
vertex 623.055838120443 71.1881832056305 7.00000000000005
endloop
endfacet
facet normal 2.87045884530489e-015 -2.99885921970627e-017 1.0
outer loop
vertex 623.055838120443 75.0417365962238 7.00000000000005
vertex 625.055838120443 69.1881832056305 7.00000000000005
vertex 624.055838120443 75.0417365962238 7.00000000000005
endloop
endfacet
facet normal 2.87045884530489e-015 -2.99885921970627e-017 1.0
outer loop
vertex 624.055838120443 75.0417365962238 7.00000000000005
vertex 625.055838120443 69.1881832056305 7.00000000000005
vertex 624.055838120443 79.5417365962238 7.00000000000005
endloop
endfacet
facet normal 2.87045884530489e-015 -2.99885921970627e-017 1.0
outer loop
vertex 625.305838120443 13.2917365962238 7.00000000000004
vertex 623.055838120443 21.145289986817 7.00000000000005
vertex 623.055838120443 13.2917365962238 7.00000000000005
endloop
endfacet
facet normal 2.87045884530489e-015 -2.99885921970627e-017 1.0
outer loop
vertex 623.055838120443 21.145289986817 7.00000000000005
vertex 625.305838120443 13.2917365962238 7.00000000000004
vertex 624.055838120443 21.145289986817 7.00000000000005
endloop
endfacet
facet normal 2.87045884530489e-015 -2.99885921970627e-017 1.0
outer loop
vertex 624.055838120443 21.145289986817 7.00000000000005
vertex 625.305838120443 13.2917365962238 7.00000000000004
vertex 624.055838120443 25.645289986817 7.00000000000005
endloop
endfacet
facet normal 2.87045884530489e-015 -2.99885921970627e-017 1.0
outer loop
vertex 624.055838120443 25.645289986817 7.00000000000005
vertex 625.305838120443 13.2917365962238 7.00000000000004
vertex 625.055838120443 35.3952899868171 7.00000000000005
endloop
endfacet
facet normal 2.87045884530489e-015 -2.99885921970627e-017 1.0
outer loop
vertex 625.055838120443 35.3952899868171 7.00000000000005
vertex 625.305838120443 13.2917365962238 7.00000000000004
vertex 625.055838120443 69.1881832056305 7.00000000000005
endloop
endfacet
facet normal 2.87045884530489e-015 -2.99885921970627e-017 1.0
outer loop
vertex 627.305838120443 35.2917365962238 7.00000000000004
vertex 625.305838120443 71.2917365962238 7.00000000000004
vertex 625.305838120443 33.2917365962238 7.00000000000004
endloop
endfacet
facet normal 2.87045884530489e-015 -2.99885921970627e-017 1.0
outer loop
vertex 625.305838120443 71.2917365962238 7.00000000000004
vertex 627.305838120443 35.2917365962238 7.00000000000004
vertex 627.305838120443 69.2917365962238 7.00000000000004
endloop
endfacet
facet normal 2.87045884530489e-015 -2.99885921970627e-017 1.0
outer loop
vertex 624.055838120443 79.5417365962238 7.00000000000005
vertex 623.055838120443 83.7136298150372 7.00000000000005
vertex 623.055838120443 79.5417365962238 7.00000000000005
endloop
endfacet
facet normal 2.87045884530489e-015 -2.99885921970627e-017 1.0
outer loop
vertex 623.055838120443 83.7136298150372 7.00000000000005
vertex 624.055838120443 79.5417365962238 7.00000000000005
vertex 625.305838120443 83.7136298150372 7.00000000000005
endloop
endfacet
facet normal 2.87045884530489e-015 -2.99885921970627e-017 1.0
outer loop
vertex 625.305838120443 83.7136298150372 7.00000000000005
vertex 624.055838120443 79.5417365962238 7.00000000000005
vertex 625.055838120443 69.1881832056305 7.00000000000005
endloop
endfacet
facet normal 2.87045884530489e-015 -2.99885921970627e-017 1.0
outer loop
vertex 625.305838120443 83.7136298150372 7.00000000000005
vertex 625.055838120443 69.1881832056305 7.00000000000005
vertex 625.305838120443 13.2917365962238 7.00000000000004
endloop
endfacet
facet normal 2.87045884530489e-015 -2.99885921970627e-017 1.0
outer loop
vertex 625.305838120443 83.7136298150372 7.00000000000005
vertex 625.305838120443 13.2917365962238 7.00000000000004
vertex 625.305838120443 33.2917365962238 7.00000000000004
endloop
endfacet
facet normal 2.87045884530489e-015 -2.99885921970627e-017 1.0
outer loop
vertex 625.305838120443 83.7136298150372 7.00000000000005
vertex 625.305838120443 33.2917365962238 7.00000000000004
vertex 625.305838120443 71.2917365962238 7.00000000000004
endloop
endfacet
facet normal 2.87045884530489e-015 -2.99885921970627e-017 1.0
outer loop
vertex 624.055838120443 25.645289986817 7.00000000000005
vertex 623.055838120443 33.3952899868171 7.00000000000005
vertex 623.055838120443 25.645289986817 7.00000000000005
endloop
endfacet
facet normal 2.87045884530489e-015 -2.99885921970627e-017 1.0
outer loop
vertex 623.055838120443 33.3952899868171 7.00000000000005
vertex 624.055838120443 25.645289986817 7.00000000000005
vertex 625.055838120443 35.3952899868171 7.00000000000005
endloop
endfacet
facet normal 1.0 -0.0 -0.0
outer loop
vertex 623.055838120443 69.1881832056306 3.00000000000002
vertex 623.055838120443 35.395289986817 7.00000000000005
vertex 623.055838120443 35.395289986817 3.00000000000002
endloop
endfacet
facet normal 1.0 -0.0 -0.0
outer loop
vertex 623.055838120443 35.395289986817 7.00000000000005
vertex 623.055838120443 69.1881832056306 3.00000000000002
vertex 623.055838120443 69.1881832056306 7.00000000000005
endloop
endfacet
facet normal 0.707106781186554 0.707106781186541 -0.0
outer loop
vertex 621.20228472985 71.0417365962238 3.00000000000002
vertex 623.055838120443 69.1881832056306 7.00000000000005
vertex 623.055838120443 69.1881832056306 3.00000000000002
endloop
endfacet
facet normal 0.707106781186554 0.707106781186541 -0.0
outer loop
vertex 623.055838120443 69.1881832056306 7.00000000000005
vertex 621.20228472985 71.0417365962238 3.00000000000002
vertex 621.20228472985 71.0417365962238 7.00000000000005
endloop
endfacet
facet normal 0.707106781186554 -0.707106781186541 -0.0
outer loop
vertex 623.055838120443 35.395289986817 3.00000000000002
vertex 621.20228472985 33.5417365962238 7.00000000000005
vertex 621.20228472985 33.5417365962238 3.00000000000002
endloop
endfacet
facet normal 0.707106781186554 -0.707106781186541 -0.0
outer loop
vertex 621.20228472985 33.5417365962238 7.00000000000005
vertex 623.055838120443 35.395289986817 3.00000000000002
vertex 623.055838120443 35.395289986817 7.00000000000005
endloop
endfacet
facet normal 0.0 -1.0 0.0
outer loop
vertex 621.20228472985 33.5417365962238 7.00000000000005
vertex 621.159391511036 33.5417365962238 3.00000000000002
vertex 621.20228472985 33.5417365962238 3.00000000000002
endloop
endfacet
facet normal 0.0 -1.0 0.0
outer loop
vertex 621.159391511036 33.5417365962238 3.00000000000002
vertex 621.20228472985 33.5417365962238 7.00000000000005
vertex 621.159391511036 33.5417365962238 7.00000000000005
endloop
endfacet
facet normal -0.0 1.0 -0.0
outer loop
vertex 621.159391511036 71.0417365962238 7.00000000000005
vertex 621.20228472985 71.0417365962238 3.00000000000002
vertex 621.159391511036 71.0417365962238 3.00000000000002
endloop
endfacet
facet normal -0.0 1.0 -0.0
outer loop
vertex 621.20228472985 71.0417365962238 3.00000000000002
vertex 621.159391511036 71.0417365962238 7.00000000000005
vertex 621.20228472985 71.0417365962238 7.00000000000005
endloop
endfacet
facet normal -1.0 0.0 0.0
outer loop
vertex 619.305838120443 69.1881832056306 7.00000000000005
vertex 619.305838120443 35.395289986817 3.00000000000002
vertex 619.305838120443 35.395289986817 7.00000000000005
endloop
endfacet
facet normal -1.0 0.0 0.0
outer loop
vertex 619.305838120443 35.395289986817 3.00000000000002
vertex 619.305838120443 69.1881832056306 7.00000000000005
vertex 619.305838120443 69.1881832056306 3.00000000000002
endloop
endfacet
facet normal -0.707106781186554 0.707106781186541 0.0
outer loop
vertex 621.159391511036 71.0417365962238 7.00000000000005
vertex 619.305838120443 69.1881832056306 3.00000000000002
vertex 619.305838120443 69.1881832056306 7.00000000000005
endloop
endfacet
facet normal -0.707106781186554 0.707106781186541 0.0
outer loop
vertex 619.305838120443 69.1881832056306 3.00000000000002
vertex 621.159391511036 71.0417365962238 7.00000000000005
vertex 621.159391511036 71.0417365962238 3.00000000000002
endloop
endfacet
facet normal 1.0 -0.0 -0.0
outer loop
vertex 627.305838120443 69.2917365962238 1.00000000000001
vertex 627.305838120443 35.2917365962238 7.00000000000004
vertex 627.305838120443 35.2917365962238 1.00000000000001
endloop
endfacet
facet normal 1.0 -0.0 -0.0
outer loop
vertex 627.305838120443 35.2917365962238 7.00000000000004
vertex 627.305838120443 69.2917365962238 1.00000000000001
vertex 627.305838120443 69.2917365962238 7.00000000000004
endloop
endfacet
facet normal -1.0 0.0 0.0
outer loop
vertex 615.055838120443 69.2917365962238 7.00000000000004
vertex 615.055838120443 35.2917365962238 1.00000000000001
vertex 615.055838120443 35.2917365962238 7.00000000000004
endloop
endfacet
facet normal -1.0 0.0 0.0
outer loop
vertex 615.055838120443 35.2917365962238 1.00000000000001
vertex 615.055838120443 69.2917365962238 7.00000000000004
vertex 615.055838120443 69.2917365962238 1.00000000000001
endloop
endfacet
facet normal -0.707106781186545 0.70710678118655 -0.0
outer loop
vertex 615.055838120443 69.2917365962238 7.00000000000004
vertex 617.055838120443 71.2917365962238 1.00000000000001
vertex 615.055838120443 69.2917365962238 1.00000000000001
endloop
endfacet
facet normal -0.707106781186545 0.70710678118655 -0.0
outer loop
vertex 617.055838120443 71.2917365962238 1.00000000000001
vertex 615.055838120443 69.2917365962238 7.00000000000004
vertex 617.055838120443 71.2917365962238 7.00000000000004
endloop
endfacet
facet normal -0.707106781186545 -0.707106781186549 0.0
outer loop
vertex 617.055838120443 33.2917365962238 7.00000000000004
vertex 615.055838120443 35.2917365962238 1.00000000000001
vertex 617.055838120443 33.2917365962238 1.00000000000001
endloop
endfacet
facet normal -0.707106781186545 -0.707106781186549 0.0
outer loop
vertex 615.055838120443 35.2917365962238 1.00000000000001
vertex 617.055838120443 33.2917365962238 7.00000000000004
vertex 615.055838120443 35.2917365962238 7.00000000000004
endloop
endfacet
facet normal -1.0 0.0 0.0
outer loop
vertex 617.055838120443 83.7136298150372 7.00000000000005
vertex 617.055838120443 71.2917365962238 1.00000000000001
vertex 617.055838120443 71.2917365962238 7.00000000000004
endloop
endfacet
facet normal -1.0 0.0 0.0
outer loop
vertex 617.055838120443 71.2917365962238 1.00000000000001
vertex 617.055838120443 83.7136298150372 7.00000000000005
vertex 617.055838120443 83.7136298150372 1.00000000000002
endloop
endfacet
facet normal 0.707106781186545 0.70710678118655 -0.0
outer loop
vertex 625.305838120443 71.2917365962238 7.00000000000004
vertex 627.305838120443 69.2917365962238 1.00000000000001
vertex 625.305838120443 71.2917365962238 1.00000000000001
endloop
endfacet
facet normal 0.707106781186545 0.70710678118655 -0.0
outer loop
vertex 627.305838120443 69.2917365962238 1.00000000000001
vertex 625.305838120443 71.2917365962238 7.00000000000004
vertex 627.305838120443 69.2917365962238 7.00000000000004
endloop
endfacet
facet normal 1.0 -0.0 -0.0
outer loop
vertex 625.305838120443 33.2917365962238 1.00000000000001
vertex 625.305838120443 13.2917365962238 7.00000000000004
vertex 625.305838120443 13.2917365962238 1.00000000000001
endloop
endfacet
facet normal 1.0 -0.0 -0.0
outer loop
vertex 625.305838120443 13.2917365962238 7.00000000000004
vertex 625.305838120443 33.2917365962238 1.00000000000001
vertex 625.305838120443 33.2917365962238 7.00000000000004
endloop
endfacet
facet normal -1.0 0.0 0.0
outer loop
vertex 617.055838120443 33.2917365962238 7.00000000000004
vertex 617.055838120443 13.2917365962238 1.00000000000001
vertex 617.055838120443 13.2917365962238 7.00000000000004
endloop
endfacet
facet normal -1.0 0.0 0.0
outer loop
vertex 617.055838120443 13.2917365962238 1.00000000000001
vertex 617.055838120443 33.2917365962238 7.00000000000004
vertex 617.055838120443 33.2917365962238 1.00000000000001
endloop
endfacet
facet normal 0.707106781186545 -0.707106781186549 0.0
outer loop
vertex 627.305838120443 35.2917365962238 7.00000000000004
vertex 625.305838120443 33.2917365962238 1.00000000000001
vertex 627.305838120443 35.2917365962238 1.00000000000001
endloop
endfacet
facet normal 0.707106781186545 -0.707106781186549 0.0
outer loop
vertex 625.305838120443 33.2917365962238 1.00000000000001
vertex 627.305838120443 35.2917365962238 7.00000000000004
vertex 625.305838120443 33.2917365962238 7.00000000000004
endloop
endfacet
facet normal 0.0 -1.0 0.0
outer loop
vertex 617.055838120443 13.2917365962238 1.00000000000001
vertex 619.305838120443 13.2917365962238 3.00000000000002
vertex 617.055838120443 13.2917365962238 7.00000000000004
endloop
endfacet
facet normal 0.0 -1.0 0.0
outer loop
vertex 619.305838120443 13.2917365962238 3.00000000000002
vertex 617.055838120443 13.2917365962238 1.00000000000001
vertex 623.055838120443 13.2917365962238 3.00000000000002
endloop
endfacet
facet normal 0.0 -1.0 0.0
outer loop
vertex 617.055838120443 13.2917365962238 7.00000000000004
vertex 619.305838120443 13.2917365962238 3.00000000000002
vertex 619.305838120443 13.2917365962238 7.00000000000005
endloop
endfacet
facet normal 0.0 -1.0 0.0
outer loop
vertex 625.305838120443 13.2917365962238 1.00000000000001
vertex 623.055838120443 13.2917365962238 3.00000000000002
vertex 617.055838120443 13.2917365962238 1.00000000000001
endloop
endfacet
facet normal 0.0 -1.0 0.0
outer loop
vertex 623.055838120443 13.2917365962238 3.00000000000002
vertex 625.305838120443 13.2917365962238 1.00000000000001
vertex 625.305838120443 13.2917365962238 7.00000000000004
endloop
endfacet
facet normal 0.0 -1.0 0.0
outer loop
vertex 623.055838120443 13.2917365962238 3.00000000000002
vertex 625.305838120443 13.2917365962238 7.00000000000004
vertex 623.055838120443 13.2917365962238 7.00000000000005
endloop
endfacet
facet normal -0.707106781186537 -0.707106781186558 0.0
outer loop
vertex 621.159391511036 33.5417365962238 7.00000000000005
vertex 619.305838120443 35.395289986817 3.00000000000002
vertex 621.159391511036 33.5417365962238 3.00000000000002
endloop
endfacet
facet normal -0.707106781186537 -0.707106781186558 0.0
outer loop
vertex 619.305838120443 35.395289986817 3.00000000000002
vertex 621.159391511036 33.5417365962238 7.00000000000005
vertex 619.305838120443 35.395289986817 7.00000000000005
endloop
endfacet
endsolid stacking box
