solid stacking box
facet normal 0.707106781186545 0.70710678118655 -0.0
outer loop
vertex 440.058838120443 71.2917365962238 41.0
vertex 442.058838120443 69.2917365962238 2.0
vertex 440.058838120443 71.2917365962238 2.0
endloop
endfacet
facet normal 0.707106781186545 0.70710678118655 -0.0
outer loop
vertex 442.058838120443 69.2917365962238 2.0
vertex 440.058838120443 71.2917365962238 41.0
vertex 442.058838120443 69.2917365962238 41.0
endloop
endfacet
facet normal -0.707106781186546 -0.70710678118655 0.0
outer loop
vertex 440.058838120443 69.2917365962238 38.0
vertex 438.058838120443 71.2917365962238 5.77529135625809e-015
vertex 440.058838120443 69.2917365962238 5.77529135625809e-015
endloop
endfacet
facet normal -0.707106781186546 -0.70710678118655 0.0
outer loop
vertex 438.058838120443 71.2917365962238 5.77529135625809e-015
vertex 440.058838120443 69.2917365962238 38.0
vertex 438.058838120443 71.2917365962238 38.0
endloop
endfacet
facet normal -1.0 0.0 0.0
outer loop
vertex 436.058838120443 33.2917365962238 45.0
vertex 436.058838120443 13.2917365962238 40.0
vertex 436.058838120443 13.2917365962238 45.0
endloop
endfacet
facet normal -1.0 0.0 0.0
outer loop
vertex 436.058838120443 13.2917365962238 40.0
vertex 436.058838120443 33.2917365962238 45.0
vertex 436.058838120443 33.2917365962238 40.0
endloop
endfacet
facet normal 0.0 -1.0 0.0
outer loop
vertex 440.058838120443 13.2917365962238 41.0
vertex 438.058838120443 13.2917365962238 38.0
vertex 440.058838120443 13.2917365962238 38.0
endloop
endfacet
facet normal 0.0 -1.0 0.0
outer loop
vertex 438.058838120443 13.2917365962238 38.0
vertex 440.058838120443 13.2917365962238 41.0
vertex 436.058838120443 13.2917365962238 40.0
endloop
endfacet
facet normal 0.0 -1.0 0.0
outer loop
vertex 436.058838120443 13.2917365962238 40.0
vertex 440.058838120443 13.2917365962238 41.0
vertex 437.558838120443 13.2917365962238 41.0
endloop
endfacet
facet normal 0.0 -1.0 0.0
outer loop
vertex 436.058838120443 13.2917365962238 40.0
vertex 437.558838120443 13.2917365962238 41.0
vertex 436.058838120443 13.2917365962238 45.0
endloop
endfacet
facet normal 0.0 -1.0 0.0
outer loop
vertex 436.058838120443 13.2917365962238 45.0
vertex 437.558838120443 13.2917365962238 41.0
vertex 437.558838120443 13.2917365962238 45.0
endloop
endfacet
facet normal -0.0 1.0 -0.0
outer loop
vertex 436.058838120443 85.2917365962238 45.0
vertex 450.058838120443 85.2917365962238 40.0
vertex 436.058838120443 85.2917365962238 40.0
endloop
endfacet
facet normal -0.0 1.0 -0.0
outer loop
vertex 450.058838120443 85.2917365962238 40.0
vertex 436.058838120443 85.2917365962238 45.0
vertex 450.058838120443 85.2917365962238 45.0
endloop
endfacet
facet normal 0.0 -1.0 0.0
outer loop
vertex 473.851731339257 81.7917365962238 45.0
vertex 452.265944901629 81.7917365962238 41.0
vertex 473.851731339257 81.7917365962238 41.0
endloop
endfacet
facet normal 0.0 -1.0 0.0
outer loop
vertex 452.265944901629 81.7917365962238 41.0
vertex 473.851731339257 81.7917365962238 45.0
vertex 452.265944901629 81.7917365962238 45.0
endloop
endfacet
facet normal -0.707106781186548 0.0 -0.707106781186548
outer loop
vertex 436.058838120443 85.2917365962238 40.0
vertex 438.058838120443 71.2917365962238 38.0
vertex 436.058838120443 71.2917365962238 40.0
endloop
endfacet
facet normal -0.707106781186548 0.0 -0.707106781186548
outer loop
vertex 438.058838120443 71.2917365962238 38.0
vertex 436.058838120443 85.2917365962238 40.0
vertex 438.058838120443 83.2917365962238 38.0
endloop
endfacet
facet normal -0.577350269189625 0.577350269189626 -0.577350269189626
outer loop
vertex 436.058838120443 33.2917365962238 40.0
vertex 440.058838120443 35.2917365962238 38.0
vertex 438.058838120443 33.2917365962238 38.0
endloop
endfacet
facet normal -0.577350269189625 0.577350269189626 -0.577350269189626
outer loop
vertex 440.058838120443 35.2917365962238 38.0
vertex 436.058838120443 33.2917365962238 40.0
vertex 438.058838120443 35.2917365962238 40.0
endloop
endfacet
facet normal 0.707106781186547 0.707106781186548 5.40185925981329e-017
outer loop
vertex 486.058838120443 35.2917365962238 38.0
vertex 488.058838120443 33.2917365962238 5.77529135625809e-015
vertex 486.058838120443 35.2917365962238 5.77529135625809e-015
endloop
endfacet
facet normal 0.707106781186547 0.707106781186548 5.40185925981329e-017
outer loop
vertex 488.058838120443 33.2917365962238 5.77529135625809e-015
vertex 486.058838120443 35.2917365962238 38.0
vertex 488.058838120443 33.2917365962238 38.0
endloop
endfacet
facet normal -9.2582947433445e-017 0.707106781186549 -0.707106781186546
outer loop
vertex 452.058838120443 83.2917365962238 40.0
vertex 474.058838120443 81.2917365962238 38.0
vertex 452.058838120443 81.2917365962238 38.0
endloop
endfacet
facet normal -9.2582947433445e-017 0.707106781186549 -0.707106781186546
outer loop
vertex 474.058838120443 81.2917365962238 38.0
vertex 452.058838120443 83.2917365962238 40.0
vertex 474.058838120443 83.2917365962238 40.0
endloop
endfacet
facet normal -1.0 0.0 0.0
outer loop
vertex 440.058838120443 69.2917365962238 38.0
vertex 440.058838120443 35.2917365962238 5.77529135625809e-015
vertex 440.058838120443 35.2917365962238 38.0
endloop
endfacet
facet normal -1.0 0.0 0.0
outer loop
vertex 440.058838120443 35.2917365962238 5.77529135625809e-015
vertex 440.058838120443 69.2917365962238 38.0
vertex 440.058838120443 69.2917365962238 5.77529135625809e-015
endloop
endfacet
facet normal -0.707106781186547 0.707106781186548 5.40185925981329e-017
outer loop
vertex 438.058838120443 33.2917365962238 38.0
vertex 440.058838120443 35.2917365962238 5.77529135625809e-015
vertex 438.058838120443 33.2917365962238 5.77529135625809e-015
endloop
endfacet
facet normal -0.707106781186547 0.707106781186548 5.40185925981329e-017
outer loop
vertex 440.058838120443 35.2917365962238 5.77529135625809e-015
vertex 438.058838120443 33.2917365962238 38.0
vertex 440.058838120443 35.2917365962238 38.0
endloop
endfacet
facet normal -0.707106781186546 0.707106781186549 -0.0
outer loop
vertex 436.058838120443 33.2917365962238 45.0
vertex 438.058838120443 35.2917365962238 40.0
vertex 436.058838120443 33.2917365962238 40.0
endloop
endfacet
facet normal -0.707106781186546 0.707106781186549 -0.0
outer loop
vertex 438.058838120443 35.2917365962238 40.0
vertex 436.058838120443 33.2917365962238 45.0
vertex 438.058838120443 35.2917365962238 45.0
endloop
endfacet
facet normal 0.707106781186545 -0.70710678118655 0.0
outer loop
vertex 476.058838120443 81.2917365962238 41.0
vertex 474.058838120443 79.2917365962238 2.0
vertex 476.058838120443 81.2917365962238 2.0
endloop
endfacet
facet normal 0.707106781186545 -0.70710678118655 0.0
outer loop
vertex 474.058838120443 79.2917365962238 2.0
vertex 476.058838120443 81.2917365962238 41.0
vertex 474.058838120443 79.2917365962238 41.0
endloop
endfacet
facet normal -0.707106781186548 0.707106781186548 0.0
outer loop
vertex 476.058838120443 85.2917365962238 45.0
vertex 474.058838120443 83.2917365962238 40.0
vertex 474.058838120443 83.2917365962238 45.0
endloop
endfacet
facet normal -0.707106781186548 0.707106781186548 0.0
outer loop
vertex 474.058838120443 83.2917365962238 40.0
vertex 476.058838120443 85.2917365962238 45.0
vertex 476.058838120443 85.2917365962238 40.0
endloop
endfacet
facet normal -0.707106781186548 0.0 -0.707106781186548
outer loop
vertex 436.058838120443 33.2917365962238 40.0
vertex 438.058838120443 13.2917365962238 38.0
vertex 436.058838120443 13.2917365962238 40.0
endloop
endfacet
facet normal -0.707106781186548 0.0 -0.707106781186548
outer loop
vertex 438.058838120443 13.2917365962238 38.0
vertex 436.058838120443 33.2917365962238 40.0
vertex 438.058838120443 33.2917365962238 38.0
endloop
endfacet
facet normal -0.577350269189625 -0.577350269189628 -0.577350269189625
outer loop
vertex 438.058838120443 69.2917365962238 40.0
vertex 438.058838120443 71.2917365962238 38.0
vertex 440.058838120443 69.2917365962238 38.0
endloop
endfacet
facet normal -0.577350269189625 -0.577350269189628 -0.577350269189625
outer loop
vertex 438.058838120443 71.2917365962238 38.0
vertex 438.058838120443 69.2917365962238 40.0
vertex 436.058838120443 71.2917365962238 40.0
endloop
endfacet
facet normal -0.0 1.0 -0.0
outer loop
vertex 452.058838120443 81.2917365962238 38.0
vertex 474.058838120443 81.2917365962238 0.0
vertex 452.058838120443 81.2917365962238 0.0
endloop
endfacet
facet normal -0.0 1.0 -0.0
outer loop
vertex 474.058838120443 81.2917365962238 0.0
vertex 452.058838120443 81.2917365962238 38.0
vertex 474.058838120443 81.2917365962238 38.0
endloop
endfacet
facet normal 0.707106781186546 -0.707106781186549 0.0
outer loop
vertex 442.058838120443 35.2917365962238 41.0
vertex 440.058838120443 33.2917365962238 2.0
vertex 442.058838120443 35.2917365962238 2.0
endloop
endfacet
facet normal 0.707106781186546 -0.707106781186549 0.0
outer loop
vertex 440.058838120443 33.2917365962238 2.0
vertex 442.058838120443 35.2917365962238 41.0
vertex 440.058838120443 33.2917365962238 41.0
endloop
endfacet
facet normal -0.0 1.0 -0.0
outer loop
vertex 452.058838120443 83.2917365962238 40.0
vertex 474.058838120443 83.2917365962238 45.0
vertex 474.058838120443 83.2917365962238 40.0
endloop
endfacet
facet normal -0.0 1.0 -0.0
outer loop
vertex 474.058838120443 83.2917365962238 45.0
vertex 452.058838120443 83.2917365962238 40.0
vertex 452.058838120443 83.2917365962238 45.0
endloop
endfacet
facet normal 0.577350269189624 -0.577350269189628 -0.577350269189626
outer loop
vertex 490.058838120443 71.2917365962238 40.0
vertex 486.058838120443 69.2917365962238 38.0
vertex 488.058838120443 71.2917365962238 38.0
endloop
endfacet
facet normal 0.577350269189624 -0.577350269189628 -0.577350269189626
outer loop
vertex 486.058838120443 69.2917365962238 38.0
vertex 490.058838120443 71.2917365962238 40.0
vertex 488.058838120443 69.2917365962238 40.0
endloop
endfacet
facet normal 4.0412580851778e-033 -2.99903171540723e-017 -1.0
outer loop
vertex 450.058838120443 83.2917365962238 0.0
vertex 438.058838120443 71.2917365962238 5.77529135625809e-015
vertex 438.058838120443 83.2917365962238 0.0
endloop
endfacet
facet normal 4.0412580851778e-033 -2.99903171540723e-017 -1.0
outer loop
vertex 438.058838120443 71.2917365962238 5.77529135625809e-015
vertex 450.058838120443 83.2917365962238 0.0
vertex 440.058838120443 69.2917365962238 5.77529135625809e-015
endloop
endfacet
facet normal 4.0412580851778e-033 -2.99903171540723e-017 -1.0
outer loop
vertex 440.058838120443 69.2917365962238 5.77529135625809e-015
vertex 450.058838120443 83.2917365962238 0.0
vertex 440.058838120443 35.2917365962238 5.77529135625809e-015
endloop
endfacet
facet normal 4.0412580851778e-033 -2.99903171540723e-017 -1.0
outer loop
vertex 488.058838120443 83.2917365962238 0.0
vertex 486.058838120443 69.2917365962238 5.77529135625809e-015
vertex 476.058838120443 83.2917365962238 0.0
endloop
endfacet
facet normal 4.0412580851778e-033 -2.99903171540723e-017 -1.0
outer loop
vertex 486.058838120443 69.2917365962238 5.77529135625809e-015
vertex 488.058838120443 83.2917365962238 0.0
vertex 488.058838120443 71.2917365962238 5.77529135625809e-015
endloop
endfacet
facet normal 4.0412580851778e-033 -2.99903171540723e-017 -1.0
outer loop
vertex 440.058838120443 35.2917365962238 5.77529135625809e-015
vertex 438.058838120443 13.2917365962238 1.57618209396765e-016
vertex 438.058838120443 33.2917365962238 5.77529135625809e-015
endloop
endfacet
facet normal 4.0412580851778e-033 -2.99903171540723e-017 -1.0
outer loop
vertex 438.058838120443 13.2917365962238 1.57618209396765e-016
vertex 440.058838120443 35.2917365962238 5.77529135625809e-015
vertex 488.058838120443 13.2917365962238 1.57618209396766e-016
endloop
endfacet
facet normal 4.0412580851778e-033 -2.99903171540723e-017 -1.0
outer loop
vertex 488.058838120443 13.2917365962238 1.57618209396766e-016
vertex 440.058838120443 35.2917365962238 5.77529135625809e-015
vertex 450.058838120443 83.2917365962238 0.0
endloop
endfacet
facet normal 4.0412580851778e-033 -2.99903171540723e-017 -1.0
outer loop
vertex 488.058838120443 13.2917365962238 1.57618209396766e-016
vertex 450.058838120443 83.2917365962238 0.0
vertex 452.058838120443 81.2917365962238 0.0
endloop
endfacet
facet normal 4.0412580851778e-033 -2.99903171540723e-017 -1.0
outer loop
vertex 488.058838120443 13.2917365962238 1.57618209396766e-016
vertex 452.058838120443 81.2917365962238 0.0
vertex 474.058838120443 81.2917365962238 0.0
endloop
endfacet
facet normal 4.0412580851778e-033 -2.99903171540723e-017 -1.0
outer loop
vertex 488.058838120443 13.2917365962238 1.57618209396766e-016
vertex 474.058838120443 81.2917365962238 0.0
vertex 476.058838120443 83.2917365962238 0.0
endloop
endfacet
facet normal 4.0412580851778e-033 -2.99903171540723e-017 -1.0
outer loop
vertex 488.058838120443 13.2917365962238 1.57618209396766e-016
vertex 476.058838120443 83.2917365962238 0.0
vertex 486.058838120443 35.2917365962238 5.77529135625809e-015
endloop
endfacet
facet normal 4.0412580851778e-033 -2.99903171540723e-017 -1.0
outer loop
vertex 486.058838120443 35.2917365962238 5.77529135625809e-015
vertex 476.058838120443 83.2917365962238 0.0
vertex 486.058838120443 69.2917365962238 5.77529135625809e-015
endloop
endfacet
facet normal 4.0412580851778e-033 -2.99903171540723e-017 -1.0
outer loop
vertex 488.058838120443 13.2917365962238 1.57618209396766e-016
vertex 486.058838120443 35.2917365962238 5.77529135625809e-015
vertex 488.058838120443 33.2917365962238 5.77529135625809e-015
endloop
endfacet
facet normal 0.707106781186548 0.707106781186548 -0.0
outer loop
vertex 450.058838120443 85.2917365962238 40.0
vertex 452.058838120443 83.2917365962238 45.0
vertex 452.058838120443 83.2917365962238 40.0
endloop
endfacet
facet normal 0.707106781186548 0.707106781186548 -0.0
outer loop
vertex 452.058838120443 83.2917365962238 45.0
vertex 450.058838120443 85.2917365962238 40.0
vertex 450.058838120443 85.2917365962238 45.0
endloop
endfacet
facet normal -1.0 0.0 0.0
outer loop
vertex 436.058838120443 85.2917365962238 45.0
vertex 436.058838120443 71.2917365962238 40.0
vertex 436.058838120443 71.2917365962238 45.0
endloop
endfacet
facet normal -1.0 0.0 0.0
outer loop
vertex 436.058838120443 71.2917365962238 40.0
vertex 436.058838120443 85.2917365962238 45.0
vertex 436.058838120443 85.2917365962238 40.0
endloop
endfacet
facet normal 0.707106781186545 0.70710678118655 -0.0
outer loop
vertex 450.058838120443 83.2917365962238 38.0
vertex 452.058838120443 81.2917365962238 0.0
vertex 450.058838120443 83.2917365962238 0.0
endloop
endfacet
facet normal 0.707106781186545 0.70710678118655 -0.0
outer loop
vertex 452.058838120443 81.2917365962238 0.0
vertex 450.058838120443 83.2917365962238 38.0
vertex 452.058838120443 81.2917365962238 38.0
endloop
endfacet
facet normal -1.0 0.0 0.0
outer loop
vertex 438.058838120443 83.2917365962238 38.0
vertex 438.058838120443 71.2917365962238 5.77529135625809e-015
vertex 438.058838120443 71.2917365962238 38.0
endloop
endfacet
facet normal -1.0 0.0 0.0
outer loop
vertex 438.058838120443 71.2917365962238 5.77529135625809e-015
vertex 438.058838120443 83.2917365962238 38.0
vertex 438.058838120443 75.0417365962238 3.25000000000002
endloop
endfacet
facet normal -1.0 0.0 0.0
outer loop
vertex 438.058838120443 75.0417365962238 3.25000000000002
vertex 438.058838120443 83.2917365962238 38.0
vertex 438.058838120443 79.5417365962238 3.25000000000002
endloop
endfacet
facet normal -1.0 0.0 0.0
outer loop
vertex 438.058838120443 79.5417365962238 3.25000000000002
vertex 438.058838120443 83.2917365962238 38.0
vertex 438.058838120443 79.5417365962238 0.750000000000019
endloop
endfacet
facet normal -1.0 0.0 0.0
outer loop
vertex 438.058838120443 71.2917365962238 5.77529135625809e-015
vertex 438.058838120443 75.0417365962238 0.750000000000019
vertex 438.058838120443 83.2917365962238 0.0
endloop
endfacet
facet normal -1.0 0.0 0.0
outer loop
vertex 438.058838120443 75.0417365962238 0.750000000000019
vertex 438.058838120443 71.2917365962238 5.77529135625809e-015
vertex 438.058838120443 75.0417365962238 3.25000000000002
endloop
endfacet
facet normal -1.0 0.0 0.0
outer loop
vertex 438.058838120443 83.2917365962238 0.0
vertex 438.058838120443 75.0417365962238 0.750000000000019
vertex 438.058838120443 79.5417365962238 0.750000000000019
endloop
endfacet
facet normal -1.0 0.0 0.0
outer loop
vertex 438.058838120443 83.2917365962238 0.0
vertex 438.058838120443 79.5417365962238 0.750000000000019
vertex 438.058838120443 83.2917365962238 38.0
endloop
endfacet
facet normal 0.0 -1.0 0.0
outer loop
vertex 474.058838120443 79.2917365962238 41.0
vertex 452.058838120443 79.2917365962238 2.0
vertex 474.058838120443 79.2917365962238 2.0
endloop
endfacet
facet normal 0.0 -1.0 0.0
outer loop
vertex 452.058838120443 79.2917365962238 2.0
vertex 474.058838120443 79.2917365962238 41.0
vertex 452.058838120443 79.2917365962238 41.0
endloop
endfacet
facet normal -1.26435988585011e-031 -2.6471938265054e-032 1.0
outer loop
vertex 437.558838120443 13.2917365962238 45.0
vertex 436.058838120443 33.2917365962238 45.0
vertex 436.058838120443 13.2917365962238 45.0
endloop
endfacet
facet normal -1.26435988585011e-031 -2.6471938265054e-032 1.0
outer loop
vertex 436.058838120443 33.2917365962238 45.0
vertex 437.558838120443 13.2917365962238 45.0
vertex 437.558838120443 33.4988433774103 45.0
endloop
endfacet
facet normal -1.26435988585011e-031 -2.6471938265054e-032 1.0
outer loop
vertex 436.058838120443 33.2917365962238 45.0
vertex 437.558838120443 33.4988433774103 45.0
vertex 438.058838120443 35.2917365962238 45.0
endloop
endfacet
facet normal -1.26435988585011e-031 -2.6471938265054e-032 1.0
outer loop
vertex 438.058838120443 35.2917365962238 45.0
vertex 437.558838120443 33.4988433774103 45.0
vertex 439.558838120443 35.4988433774103 45.0
endloop
endfacet
facet normal -1.26435988585011e-031 -2.6471938265054e-032 1.0
outer loop
vertex 438.058838120443 35.2917365962238 45.0
vertex 439.558838120443 35.4988433774103 45.0
vertex 438.058838120443 69.2917365962238 45.0
endloop
endfacet
facet normal -1.26435988585011e-031 -2.6471938265054e-032 1.0
outer loop
vertex 436.058838120443 71.2917365962238 45.0
vertex 437.558838120443 71.0846298150372 45.0
vertex 436.058838120443 85.2917365962238 45.0
endloop
endfacet
facet normal -1.26435988585011e-031 -2.6471938265054e-032 1.0
outer loop
vertex 437.558838120443 71.0846298150372 45.0
vertex 436.058838120443 71.2917365962238 45.0
vertex 438.058838120443 69.2917365962238 45.0
endloop
endfacet
facet normal -1.26435988585011e-031 -2.6471938265054e-032 1.0
outer loop
vertex 437.558838120443 71.0846298150372 45.0
vertex 438.058838120443 69.2917365962238 45.0
vertex 439.558838120443 69.0846298150372 45.0
endloop
endfacet
facet normal -1.26435988585011e-031 -2.6471938265054e-032 1.0
outer loop
vertex 439.558838120443 69.0846298150372 45.0
vertex 438.058838120443 69.2917365962238 45.0
vertex 439.558838120443 35.4988433774103 45.0
endloop
endfacet
facet normal -1.26435988585011e-031 -2.6471938265054e-032 1.0
outer loop
vertex 490.058838120443 13.2917365962238 45.0
vertex 488.558838120443 33.4988433774103 45.0
vertex 488.558838120443 13.2917365962238 45.0
endloop
endfacet
facet normal -1.26435988585011e-031 -2.6471938265054e-032 1.0
outer loop
vertex 486.558838120443 35.4988433774103 45.0
vertex 488.058838120443 35.2917365962238 45.0
vertex 486.558838120443 69.0846298150372 45.0
endloop
endfacet
facet normal -1.26435988585011e-031 -2.6471938265054e-032 1.0
outer loop
vertex 488.058838120443 35.2917365962238 45.0
vertex 486.558838120443 35.4988433774103 45.0
vertex 488.558838120443 33.4988433774103 45.0
endloop
endfacet
facet normal -1.26435988585011e-031 -2.6471938265054e-032 1.0
outer loop
vertex 488.058838120443 35.2917365962238 45.0
vertex 488.558838120443 33.4988433774103 45.0
vertex 490.058838120443 33.2917365962238 45.0
endloop
endfacet
facet normal -1.26435988585011e-031 -2.6471938265054e-032 1.0
outer loop
vertex 490.058838120443 33.2917365962238 45.0
vertex 488.558838120443 33.4988433774103 45.0
vertex 490.058838120443 13.2917365962238 45.0
endloop
endfacet
facet normal -1.26435988585011e-031 -2.6471938265054e-032 1.0
outer loop
vertex 486.558838120443 69.0846298150372 45.0
vertex 488.058838120443 69.2917365962238 45.0
vertex 488.558838120443 71.0846298150372 45.0
endloop
endfacet
facet normal -1.26435988585011e-031 -2.6471938265054e-032 1.0
outer loop
vertex 488.058838120443 69.2917365962238 45.0
vertex 486.558838120443 69.0846298150372 45.0
vertex 488.058838120443 35.2917365962238 45.0
endloop
endfacet
facet normal -1.26435988585011e-031 -2.6471938265054e-032 1.0
outer loop
vertex 488.558838120443 71.0846298150372 45.0
vertex 488.058838120443 69.2917365962238 45.0
vertex 490.058838120443 71.2917365962238 45.0
endloop
endfacet
facet normal -1.26435988585011e-031 -2.6471938265054e-032 1.0
outer loop
vertex 488.558838120443 71.0846298150372 45.0
vertex 490.058838120443 71.2917365962238 45.0
vertex 488.558838120443 83.7917365962238 45.0
endloop
endfacet
facet normal -1.26435988585011e-031 -2.6471938265054e-032 1.0
outer loop
vertex 436.058838120443 85.2917365962238 45.0
vertex 437.558838120443 83.7917365962238 45.0
vertex 450.058838120443 85.2917365962238 45.0
endloop
endfacet
facet normal -1.26435988585011e-031 -2.6471938265054e-032 1.0
outer loop
vertex 437.558838120443 83.7917365962238 45.0
vertex 436.058838120443 85.2917365962238 45.0
vertex 437.558838120443 71.0846298150372 45.0
endloop
endfacet
facet normal -1.26435988585011e-031 -2.6471938265054e-032 1.0
outer loop
vertex 450.058838120443 85.2917365962238 45.0
vertex 437.558838120443 83.7917365962238 45.0
vertex 450.265944901629 83.7917365962238 45.0
endloop
endfacet
facet normal -1.26435988585011e-031 -2.6471938265054e-032 1.0
outer loop
vertex 450.058838120443 85.2917365962238 45.0
vertex 450.265944901629 83.7917365962238 45.0
vertex 452.058838120443 83.2917365962238 45.0
endloop
endfacet
facet normal -1.26435988585011e-031 -2.6471938265054e-032 1.0
outer loop
vertex 452.058838120443 83.2917365962238 45.0
vertex 450.265944901629 83.7917365962238 45.0
vertex 452.265944901629 81.7917365962238 45.0
endloop
endfacet
facet normal -1.26435988585011e-031 -2.6471938265054e-032 1.0
outer loop
vertex 452.058838120443 83.2917365962238 45.0
vertex 452.265944901629 81.7917365962238 45.0
vertex 474.058838120443 83.2917365962238 45.0
endloop
endfacet
facet normal -1.26435988585011e-031 -2.6471938265054e-032 1.0
outer loop
vertex 474.058838120443 83.2917365962238 45.0
vertex 452.265944901629 81.7917365962238 45.0
vertex 473.851731339257 81.7917365962238 45.0
endloop
endfacet
facet normal -1.26435988585011e-031 -2.6471938265054e-032 1.0
outer loop
vertex 474.058838120443 83.2917365962238 45.0
vertex 473.851731339257 81.7917365962238 45.0
vertex 475.851731339257 83.7917365962238 45.0
endloop
endfacet
facet normal -1.26435988585011e-031 -2.6471938265054e-032 1.0
outer loop
vertex 474.058838120443 83.2917365962238 45.0
vertex 475.851731339257 83.7917365962238 45.0
vertex 476.058838120443 85.2917365962238 45.0
endloop
endfacet
facet normal -1.26435988585011e-031 -2.6471938265054e-032 1.0
outer loop
vertex 476.058838120443 85.2917365962238 45.0
vertex 475.851731339257 83.7917365962238 45.0
vertex 488.558838120443 83.7917365962238 45.0
endloop
endfacet
facet normal -1.26435988585011e-031 -2.6471938265054e-032 1.0
outer loop
vertex 476.058838120443 85.2917365962238 45.0
vertex 488.558838120443 83.7917365962238 45.0
vertex 490.058838120443 85.2917365962238 45.0
endloop
endfacet
facet normal -1.26435988585011e-031 -2.6471938265054e-032 1.0
outer loop
vertex 490.058838120443 85.2917365962238 45.0
vertex 488.558838120443 83.7917365962238 45.0
vertex 490.058838120443 71.2917365962238 45.0
endloop
endfacet
facet normal -0.707106781186545 -0.70710678118655 0.0
outer loop
vertex 452.058838120443 79.2917365962238 41.0
vertex 450.058838120443 81.2917365962238 2.0
vertex 452.058838120443 79.2917365962238 2.0
endloop
endfacet
facet normal -0.707106781186545 -0.70710678118655 0.0
outer loop
vertex 450.058838120443 81.2917365962238 2.0
vertex 452.058838120443 79.2917365962238 41.0
vertex 450.058838120443 81.2917365962238 41.0
endloop
endfacet
facet normal 0.707106781186545 0.70710678118655 -0.0
outer loop
vertex 437.558838120443 71.0846298150372 45.0
vertex 439.558838120443 69.0846298150372 41.0
vertex 437.558838120443 71.0846298150372 41.0
endloop
endfacet
facet normal 0.707106781186545 0.70710678118655 -0.0
outer loop
vertex 439.558838120443 69.0846298150372 41.0
vertex 437.558838120443 71.0846298150372 45.0
vertex 439.558838120443 69.0846298150372 45.0
endloop
endfacet
facet normal -0.707106781186539 -1.02446608499801e-017 -0.707106781186556
outer loop
vertex 439.308838120443 79.5417365962238 2.00000000000002
vertex 438.058838120443 75.0417365962238 3.25000000000002
vertex 438.058838120443 79.5417365962238 3.25000000000002
endloop
endfacet
facet normal -0.707106781186539 -1.02446608499801e-017 -0.707106781186556
outer loop
vertex 438.058838120443 75.0417365962238 3.25000000000002
vertex 439.308838120443 79.5417365962238 2.00000000000002
vertex 439.308838120443 75.0417365962238 2.00000000000002
endloop
endfacet
facet normal 1.0 -0.0 -0.0
outer loop
vertex 439.558838120443 69.0846298150372 41.0
vertex 439.558838120443 35.4988433774103 45.0
vertex 439.558838120443 35.4988433774103 41.0
endloop
endfacet
facet normal 1.0 -0.0 -0.0
outer loop
vertex 439.558838120443 35.4988433774103 45.0
vertex 439.558838120443 69.0846298150372 41.0
vertex 439.558838120443 69.0846298150372 45.0
endloop
endfacet
facet normal -0.0 1.0 -0.0
outer loop
vertex 438.058838120443 21.145289986817 3.25
vertex 439.308838120443 21.145289986817 2.0
vertex 438.058838120443 21.145289986817 0.750000000000004
endloop
endfacet
facet normal 0.0 0.707106781186548 -0.707106781186548
outer loop
vertex 436.058838120443 85.2917365962238 40.0
vertex 450.058838120443 83.2917365962238 38.0
vertex 438.058838120443 83.2917365962238 38.0
endloop
endfacet
facet normal 0.0 0.707106781186548 -0.707106781186548
outer loop
vertex 450.058838120443 83.2917365962238 38.0
vertex 436.058838120443 85.2917365962238 40.0
vertex 450.058838120443 85.2917365962238 40.0
endloop
endfacet
facet normal -9.24046617001275e-015 1.0 -3.75765265480309e-046
outer loop
vertex 438.058838120443 75.0417365962238 3.25000000000002
vertex 439.308838120443 75.0417365962238 2.00000000000002
vertex 438.058838120443 75.0417365962238 0.750000000000019
endloop
endfacet
facet normal 0.0 -1.0 0.0
outer loop
vertex 450.265944901629 83.7917365962238 45.0
vertex 437.558838120443 83.7917365962238 41.0
vertex 450.265944901629 83.7917365962238 41.0
endloop
endfacet
facet normal 0.0 -1.0 0.0
outer loop
vertex 437.558838120443 83.7917365962238 41.0
vertex 450.265944901629 83.7917365962238 45.0
vertex 437.558838120443 83.7917365962238 45.0
endloop
endfacet
facet normal 0.707106781186547 -0.707106781186549 0.0
outer loop
vertex 439.558838120443 35.4988433774103 45.0
vertex 437.558838120443 33.4988433774103 41.0
vertex 439.558838120443 35.4988433774103 41.0
endloop
endfacet
facet normal 0.707106781186547 -0.707106781186549 0.0
outer loop
vertex 437.558838120443 33.4988433774103 41.0
vertex 439.558838120443 35.4988433774103 45.0
vertex 437.558838120443 33.4988433774103 45.0
endloop
endfacet
facet normal 0.0 -1.0 0.0
outer loop
vertex 450.058838120443 81.2917365962238 41.0
vertex 440.058838120443 81.2917365962238 2.0
vertex 450.058838120443 81.2917365962238 2.0
endloop
endfacet
facet normal 0.0 -1.0 0.0
outer loop
vertex 440.058838120443 81.2917365962238 2.0
vertex 450.058838120443 81.2917365962238 41.0
vertex 440.058838120443 81.2917365962238 41.0
endloop
endfacet
facet normal -0.707106781186539 -0.0 0.707106781186556
outer loop
vertex 439.308838120443 21.145289986817 2.0
vertex 438.058838120443 25.645289986817 0.750000000000004
vertex 438.058838120443 21.145289986817 0.750000000000004
endloop
endfacet
facet normal -0.707106781186539 -0.0 0.707106781186556
outer loop
vertex 438.058838120443 25.645289986817 0.750000000000004
vertex 439.308838120443 21.145289986817 2.0
vertex 439.308838120443 25.645289986817 2.0
endloop
endfacet
facet normal -0.70710678118654 -1.02446608499798e-017 0.707106781186555
outer loop
vertex 439.308838120443 75.0417365962238 2.00000000000002
vertex 438.058838120443 79.5417365962238 0.750000000000019
vertex 438.058838120443 75.0417365962238 0.750000000000019
endloop
endfacet
facet normal -0.70710678118654 -1.02446608499798e-017 0.707106781186555
outer loop
vertex 438.058838120443 79.5417365962238 0.750000000000019
vertex 439.308838120443 75.0417365962238 2.00000000000002
vertex 439.308838120443 79.5417365962238 2.00000000000002
endloop
endfacet
facet normal 0.0 -1.0 0.0
outer loop
vertex 438.058838120443 79.5417365962238 3.25000000000002
vertex 438.058838120443 79.5417365962238 0.750000000000019
vertex 439.308838120443 79.5417365962238 2.00000000000002
endloop
endfacet
facet normal 1.0 -0.0 -0.0
outer loop
vertex 437.558838120443 71.0846298150372 41.0
vertex 437.558838120443 75.2917365962238 42.0
vertex 437.558838120443 71.0846298150372 45.0
endloop
endfacet
facet normal 1.0 -0.0 -0.0
outer loop
vertex 437.558838120443 75.2917365962238 42.0
vertex 437.558838120443 71.0846298150372 41.0
vertex 437.558838120443 83.7917365962238 41.0
endloop
endfacet
facet normal 1.0 -0.0 -0.0
outer loop
vertex 437.558838120443 75.2917365962238 42.0
vertex 437.558838120443 83.7917365962238 41.0
vertex 437.558838120443 79.2917365962238 42.0
endloop
endfacet
facet normal 1.0 -0.0 -0.0
outer loop
vertex 437.558838120443 79.2917365962238 42.0
vertex 437.558838120443 83.7917365962238 41.0
vertex 437.558838120443 79.2917365962238 44.0
endloop
endfacet
facet normal 1.0 -0.0 -0.0
outer loop
vertex 437.558838120443 71.0846298150372 45.0
vertex 437.558838120443 75.2917365962238 44.0
vertex 437.558838120443 83.7917365962238 45.0
endloop
endfacet
facet normal 1.0 -0.0 -0.0
outer loop
vertex 437.558838120443 75.2917365962238 44.0
vertex 437.558838120443 71.0846298150372 45.0
vertex 437.558838120443 75.2917365962238 42.0
endloop
endfacet
facet normal 1.0 -0.0 -0.0
outer loop
vertex 437.558838120443 83.7917365962238 45.0
vertex 437.558838120443 75.2917365962238 44.0
vertex 437.558838120443 79.2917365962238 44.0
endloop
endfacet
facet normal 1.0 -0.0 -0.0
outer loop
vertex 437.558838120443 83.7917365962238 45.0
vertex 437.558838120443 79.2917365962238 44.0
vertex 437.558838120443 83.7917365962238 41.0
endloop
endfacet
facet normal 1.15505827125151e-014 -1.0 -2.09018338895933e-031
outer loop
vertex 437.558838120443 75.2917365962238 44.0
vertex 437.558838120443 75.2917365962238 42.0
vertex 438.558838120443 75.2917365962238 43.0
endloop
endfacet
facet normal 0.0 -1.0 0.0
outer loop
vertex 437.558838120443 21.395289986817 44.0
vertex 437.558838120443 21.395289986817 42.0
vertex 438.558838120443 21.395289986817 43.0
endloop
endfacet
facet normal 1.0 -0.0 -0.0
outer loop
vertex 440.058838120443 81.2917365962238 2.0
vertex 440.058838120443 71.2917365962238 41.0
vertex 440.058838120443 71.2917365962238 2.0
endloop
endfacet
facet normal 1.0 -0.0 -0.0
outer loop
vertex 440.058838120443 71.2917365962238 41.0
vertex 440.058838120443 81.2917365962238 2.0
vertex 440.058838120443 81.2917365962238 41.0
endloop
endfacet
facet normal 1.0 -0.0 -0.0
outer loop
vertex 437.558838120443 13.2917365962238 41.0
vertex 437.558838120443 21.395289986817 42.0
vertex 437.558838120443 13.2917365962238 45.0
endloop
endfacet
facet normal 1.0 -0.0 -0.0
outer loop
vertex 437.558838120443 21.395289986817 42.0
vertex 437.558838120443 13.2917365962238 41.0
vertex 437.558838120443 33.4988433774103 41.0
endloop
endfacet
facet normal 1.0 -0.0 -0.0
outer loop
vertex 437.558838120443 21.395289986817 42.0
vertex 437.558838120443 33.4988433774103 41.0
vertex 437.558838120443 25.395289986817 42.0
endloop
endfacet
facet normal 1.0 -0.0 -0.0
outer loop
vertex 437.558838120443 25.395289986817 42.0
vertex 437.558838120443 33.4988433774103 41.0
vertex 437.558838120443 25.395289986817 44.0
endloop
endfacet
facet normal 1.0 -0.0 -0.0
outer loop
vertex 437.558838120443 13.2917365962238 45.0
vertex 437.558838120443 21.395289986817 44.0
vertex 437.558838120443 33.4988433774103 45.0
endloop
endfacet
facet normal 1.0 -0.0 -0.0
outer loop
vertex 437.558838120443 21.395289986817 44.0
vertex 437.558838120443 13.2917365962238 45.0
vertex 437.558838120443 21.395289986817 42.0
endloop
endfacet
facet normal 1.0 -0.0 -0.0
outer loop
vertex 437.558838120443 33.4988433774103 45.0
vertex 437.558838120443 21.395289986817 44.0
vertex 437.558838120443 25.395289986817 44.0
endloop
endfacet
facet normal 1.0 -0.0 -0.0
outer loop
vertex 437.558838120443 33.4988433774103 45.0
vertex 437.558838120443 25.395289986817 44.0
vertex 437.558838120443 33.4988433774103 41.0
endloop
endfacet
facet normal 0.707106781186515 -1.13815610100619e-029 -0.70710678118658
outer loop
vertex 438.558838120443 25.395289986817 43.0
vertex 437.558838120443 21.395289986817 42.0
vertex 437.558838120443 25.395289986817 42.0
endloop
endfacet
facet normal 0.707106781186515 -1.13815610100619e-029 -0.70710678118658
outer loop
vertex 437.558838120443 21.395289986817 42.0
vertex 438.558838120443 25.395289986817 43.0
vertex 438.558838120443 21.395289986817 43.0
endloop
endfacet
facet normal 0.0 -1.0 0.0
outer loop
vertex 438.058838120443 25.645289986817 3.25
vertex 438.058838120443 25.645289986817 0.750000000000004
vertex 439.308838120443 25.645289986817 2.0
endloop
endfacet
facet normal -0.0 1.0 -0.0
outer loop
vertex 437.558838120443 79.2917365962238 44.0
vertex 438.558838120443 79.2917365962238 43.0
vertex 437.558838120443 79.2917365962238 42.0
endloop
endfacet
facet normal -0.707106781186545 -0.70710678118655 0.0
outer loop
vertex 438.058838120443 69.2917365962238 45.0
vertex 436.058838120443 71.2917365962238 40.0
vertex 438.058838120443 69.2917365962238 40.0
endloop
endfacet
facet normal -0.707106781186545 -0.70710678118655 0.0
outer loop
vertex 436.058838120443 71.2917365962238 40.0
vertex 438.058838120443 69.2917365962238 45.0
vertex 436.058838120443 71.2917365962238 45.0
endloop
endfacet
facet normal 0.707106781186515 -1.13815610100619e-029 0.70710678118658
outer loop
vertex 438.558838120443 21.395289986817 43.0
vertex 437.558838120443 25.395289986817 44.0
vertex 437.558838120443 21.395289986817 44.0
endloop
endfacet
facet normal 0.707106781186515 -1.13815610100619e-029 0.70710678118658
outer loop
vertex 437.558838120443 25.395289986817 44.0
vertex 438.558838120443 21.395289986817 43.0
vertex 438.558838120443 25.395289986817 43.0
endloop
endfacet
facet normal -0.707106781186545 -0.70710678118655 0.0
outer loop
vertex 452.265944901629 81.7917365962238 45.0
vertex 450.265944901629 83.7917365962238 41.0
vertex 452.265944901629 81.7917365962238 41.0
endloop
endfacet
facet normal -0.707106781186545 -0.70710678118655 0.0
outer loop
vertex 450.265944901629 83.7917365962238 41.0
vertex 452.265944901629 81.7917365962238 45.0
vertex 450.265944901629 83.7917365962238 45.0
endloop
endfacet
facet normal 1.0 -0.0 -0.0
outer loop
vertex 442.058838120443 69.2917365962238 2.0
vertex 442.058838120443 35.2917365962238 41.0
vertex 442.058838120443 35.2917365962238 2.0
endloop
endfacet
facet normal 1.0 -0.0 -0.0
outer loop
vertex 442.058838120443 35.2917365962238 41.0
vertex 442.058838120443 69.2917365962238 2.0
vertex 442.058838120443 69.2917365962238 41.0
endloop
endfacet
facet normal 0.707106781186515 2.39499692912265e-029 0.70710678118658
outer loop
vertex 438.558838120443 75.2917365962238 43.0
vertex 437.558838120443 79.2917365962238 44.0
vertex 437.558838120443 75.2917365962238 44.0
endloop
endfacet
facet normal 0.707106781186515 2.39499692912265e-029 0.70710678118658
outer loop
vertex 437.558838120443 79.2917365962238 44.0
vertex 438.558838120443 75.2917365962238 43.0
vertex 438.558838120443 79.2917365962238 43.0
endloop
endfacet
facet normal -1.0 0.0 0.0
outer loop
vertex 438.058838120443 69.2917365962238 45.0
vertex 438.058838120443 35.2917365962238 40.0
vertex 438.058838120443 35.2917365962238 45.0
endloop
endfacet
facet normal -1.0 0.0 0.0
outer loop
vertex 438.058838120443 35.2917365962238 40.0
vertex 438.058838120443 69.2917365962238 45.0
vertex 438.058838120443 69.2917365962238 40.0
endloop
endfacet
facet normal 0.577350269189625 0.577350269189627 -0.577350269189625
outer loop
vertex 450.058838120443 85.2917365962238 40.0
vertex 452.058838120443 81.2917365962238 38.0
vertex 450.058838120443 83.2917365962238 38.0
endloop
endfacet
facet normal 0.577350269189625 0.577350269189627 -0.577350269189625
outer loop
vertex 452.058838120443 81.2917365962238 38.0
vertex 450.058838120443 85.2917365962238 40.0
vertex 452.058838120443 83.2917365962238 40.0
endloop
endfacet
facet normal 0.707106781186515 2.39499692912265e-029 -0.70710678118658
outer loop
vertex 438.558838120443 79.2917365962238 43.0
vertex 437.558838120443 75.2917365962238 42.0
vertex 437.558838120443 79.2917365962238 42.0
endloop
endfacet
facet normal 0.707106781186515 2.39499692912265e-029 -0.70710678118658
outer loop
vertex 437.558838120443 75.2917365962238 42.0
vertex 438.558838120443 79.2917365962238 43.0
vertex 438.558838120443 75.2917365962238 43.0
endloop
endfacet
facet normal 5.77529135625754e-015 1.0 -1.04509169447967e-031
outer loop
vertex 437.558838120443 25.395289986817 44.0
vertex 438.558838120443 25.395289986817 43.0
vertex 437.558838120443 25.395289986817 42.0
endloop
endfacet
facet normal -0.70710678118654 0.0 -0.707106781186555
outer loop
vertex 439.308838120443 25.645289986817 2.0
vertex 438.058838120443 21.145289986817 3.25
vertex 438.058838120443 25.645289986817 3.25
endloop
endfacet
facet normal -0.70710678118654 0.0 -0.707106781186555
outer loop
vertex 438.058838120443 21.145289986817 3.25
vertex 439.308838120443 25.645289986817 2.0
vertex 439.308838120443 21.145289986817 2.0
endloop
endfacet
facet normal -0.0 1.0 -0.0
outer loop
vertex 438.058838120443 83.2917365962238 38.0
vertex 450.058838120443 83.2917365962238 0.0
vertex 438.058838120443 83.2917365962238 0.0
endloop
endfacet
facet normal -0.0 1.0 -0.0
outer loop
vertex 450.058838120443 83.2917365962238 0.0
vertex 438.058838120443 83.2917365962238 38.0
vertex 450.058838120443 83.2917365962238 38.0
endloop
endfacet
facet normal -0.707106781186548 0.0 -0.707106781186548
outer loop
vertex 438.058838120443 69.2917365962238 40.0
vertex 440.058838120443 35.2917365962238 38.0
vertex 438.058838120443 35.2917365962238 40.0
endloop
endfacet
facet normal -0.707106781186548 0.0 -0.707106781186548
outer loop
vertex 440.058838120443 35.2917365962238 38.0
vertex 438.058838120443 69.2917365962238 40.0
vertex 440.058838120443 69.2917365962238 38.0
endloop
endfacet
facet normal 0.707106781186553 -5.75541653052107e-030 0.707106781186542
outer loop
vertex 488.058838120443 79.5417365962238 0.750000000000019
vertex 486.808838120443 75.0417365962238 2.00000000000002
vertex 488.058838120443 75.0417365962238 0.750000000000019
endloop
endfacet
facet normal 0.707106781186553 -5.75541653052107e-030 0.707106781186542
outer loop
vertex 486.808838120443 75.0417365962238 2.00000000000002
vertex 488.058838120443 79.5417365962238 0.750000000000019
vertex 486.808838120443 79.5417365962238 2.00000000000002
endloop
endfacet
facet normal -0.577350269189625 0.577350269189626 -0.577350269189626
outer loop
vertex 474.058838120443 83.2917365962238 40.0
vertex 476.058838120443 83.2917365962238 38.0
vertex 474.058838120443 81.2917365962238 38.0
endloop
endfacet
facet normal -0.577350269189625 0.577350269189626 -0.577350269189626
outer loop
vertex 476.058838120443 83.2917365962238 38.0
vertex 474.058838120443 83.2917365962238 40.0
vertex 476.058838120443 85.2917365962238 40.0
endloop
endfacet
facet normal -1.0 0.0 0.0
outer loop
vertex 488.558838120443 13.2917365962238 45.0
vertex 488.558838120443 21.395289986817 44.0
vertex 488.558838120443 13.2917365962238 41.0
endloop
endfacet
facet normal -1.0 0.0 0.0
outer loop
vertex 488.558838120443 21.395289986817 44.0
vertex 488.558838120443 13.2917365962238 45.0
vertex 488.558838120443 33.4988433774103 45.0
endloop
endfacet
facet normal -1.0 0.0 0.0
outer loop
vertex 488.558838120443 21.395289986817 44.0
vertex 488.558838120443 33.4988433774103 45.0
vertex 488.558838120443 25.395289986817 44.0
endloop
endfacet
facet normal -1.0 0.0 0.0
outer loop
vertex 488.558838120443 25.395289986817 44.0
vertex 488.558838120443 33.4988433774103 45.0
vertex 488.558838120443 25.395289986817 42.0
endloop
endfacet
facet normal -1.0 0.0 0.0
outer loop
vertex 488.558838120443 13.2917365962238 41.0
vertex 488.558838120443 21.395289986817 42.0
vertex 488.558838120443 33.4988433774103 41.0
endloop
endfacet
facet normal -1.0 0.0 0.0
outer loop
vertex 488.558838120443 21.395289986817 42.0
vertex 488.558838120443 13.2917365962238 41.0
vertex 488.558838120443 21.395289986817 44.0
endloop
endfacet
facet normal -1.0 0.0 0.0
outer loop
vertex 488.558838120443 33.4988433774103 41.0
vertex 488.558838120443 21.395289986817 42.0
vertex 488.558838120443 25.395289986817 42.0
endloop
endfacet
facet normal -1.0 0.0 0.0
outer loop
vertex 488.558838120443 33.4988433774103 41.0
vertex 488.558838120443 25.395289986817 42.0
vertex 488.558838120443 33.4988433774103 45.0
endloop
endfacet
facet normal 0.0 -1.0 0.0
outer loop
vertex 488.558838120443 83.7917365962238 45.0
vertex 475.851731339257 83.7917365962238 41.0
vertex 488.558838120443 83.7917365962238 41.0
endloop
endfacet
facet normal 0.0 -1.0 0.0
outer loop
vertex 475.851731339257 83.7917365962238 41.0
vertex 488.558838120443 83.7917365962238 45.0
vertex 475.851731339257 83.7917365962238 45.0
endloop
endfacet
facet normal -6.93034962750969e-015 -1.0 2.31011654250323e-015
outer loop
vertex 488.558838120443 75.2917365962238 44.0
vertex 487.558838120443 75.2917365962238 43.0
vertex 488.558838120443 75.2917365962238 42.0
endloop
endfacet
facet normal 5.54427970200785e-015 1.0 -1.84809323400259e-015
outer loop
vertex 488.058838120443 75.0417365962238 3.25000000000002
vertex 488.058838120443 75.0417365962238 0.750000000000019
vertex 486.808838120443 75.0417365962238 2.00000000000002
endloop
endfacet
facet normal 0.707106781186553 -1.02446608499696e-017 0.707106781186542
outer loop
vertex 488.058838120443 25.645289986817 0.750000000000004
vertex 486.808838120443 21.145289986817 2.0
vertex 488.058838120443 21.145289986817 0.750000000000004
endloop
endfacet
facet normal 0.707106781186553 -1.02446608499696e-017 0.707106781186542
outer loop
vertex 486.808838120443 21.145289986817 2.0
vertex 488.058838120443 25.645289986817 0.750000000000004
vertex 486.808838120443 25.645289986817 2.0
endloop
endfacet
facet normal 0.707106781186545 -0.70710678118655 8.29817528847726e-018
outer loop
vertex 490.058838120443 71.2917365962238 45.0
vertex 488.058838120443 69.2917365962238 40.0
vertex 490.058838120443 71.2917365962238 40.0
endloop
endfacet
facet normal 0.707106781186545 -0.70710678118655 8.29817528847726e-018
outer loop
vertex 488.058838120443 69.2917365962238 40.0
vertex 490.058838120443 71.2917365962238 45.0
vertex 488.058838120443 69.2917365962238 45.0
endloop
endfacet
facet normal 0.0 1.0 0.0
outer loop
vertex 488.558838120443 79.2917365962238 44.0
vertex 488.558838120443 79.2917365962238 42.0
vertex 487.558838120443 79.2917365962238 43.0
endloop
endfacet
facet normal -2.88764567812904e-015 1.0 0.0
outer loop
vertex 488.558838120443 25.395289986817 44.0
vertex 488.558838120443 25.395289986817 42.0
vertex 487.558838120443 25.395289986817 43.0
endloop
endfacet
facet normal -0.707106781186548 -2.35847855155059e-029 0.707106781186548
outer loop
vertex 488.558838120443 79.2917365962238 44.0
vertex 487.558838120443 75.2917365962238 43.0
vertex 488.558838120443 75.2917365962238 44.0
endloop
endfacet
facet normal -0.707106781186548 -2.35847855155059e-029 0.707106781186548
outer loop
vertex 487.558838120443 75.2917365962238 43.0
vertex 488.558838120443 79.2917365962238 44.0
vertex 487.558838120443 79.2917365962238 43.0
endloop
endfacet
facet normal 0.0 1.0 0.0
outer loop
vertex 488.058838120443 21.145289986817 3.25
vertex 488.058838120443 21.145289986817 0.750000000000004
vertex 486.808838120443 21.145289986817 2.0
endloop
endfacet
facet normal 0.707106781186553 -1.02446608499798e-017 -0.707106781186542
outer loop
vertex 486.808838120443 75.0417365962238 2.00000000000002
vertex 488.058838120443 79.5417365962238 3.25000000000002
vertex 488.058838120443 75.0417365962238 3.25000000000002
endloop
endfacet
facet normal 0.707106781186553 -1.02446608499798e-017 -0.707106781186542
outer loop
vertex 488.058838120443 79.5417365962238 3.25000000000002
vertex 486.808838120443 75.0417365962238 2.00000000000002
vertex 486.808838120443 79.5417365962238 2.00000000000002
endloop
endfacet
facet normal -0.707106781186548 -6.48294944414202e-018 -0.707106781186548
outer loop
vertex 487.558838120443 25.395289986817 43.0
vertex 488.558838120443 21.395289986817 42.0
vertex 487.558838120443 21.395289986817 43.0
endloop
endfacet
facet normal -0.707106781186548 -6.48294944414202e-018 -0.707106781186548
outer loop
vertex 488.558838120443 21.395289986817 42.0
vertex 487.558838120443 25.395289986817 43.0
vertex 488.558838120443 25.395289986817 42.0
endloop
endfacet
facet normal -0.707106781186548 0.0 -0.707106781186548
outer loop
vertex 487.558838120443 75.2917365962238 43.0
vertex 488.558838120443 79.2917365962238 42.0
vertex 488.558838120443 75.2917365962238 42.0
endloop
endfacet
facet normal -0.707106781186548 0.0 -0.707106781186548
outer loop
vertex 488.558838120443 79.2917365962238 42.0
vertex 487.558838120443 75.2917365962238 43.0
vertex 487.558838120443 79.2917365962238 43.0
endloop
endfacet
facet normal -0.707106781186545 0.70710678118655 0.0
outer loop
vertex 486.558838120443 69.0846298150372 45.0
vertex 488.558838120443 71.0846298150372 41.0
vertex 486.558838120443 69.0846298150372 41.0
endloop
endfacet
facet normal -0.707106781186545 0.70710678118655 0.0
outer loop
vertex 488.558838120443 71.0846298150372 41.0
vertex 486.558838120443 69.0846298150372 45.0
vertex 488.558838120443 71.0846298150372 45.0
endloop
endfacet
facet normal 0.0 -1.0 0.0
outer loop
vertex 488.558838120443 21.395289986817 44.0
vertex 487.558838120443 21.395289986817 43.0
vertex 488.558838120443 21.395289986817 42.0
endloop
endfacet
facet normal 0.0 0.707106781186547 -0.707106781186549
outer loop
vertex 490.058838120443 85.2917365962238 40.0
vertex 476.058838120443 83.2917365962238 38.0
vertex 476.058838120443 85.2917365962238 40.0
endloop
endfacet
facet normal 0.0 0.707106781186547 -0.707106781186549
outer loop
vertex 476.058838120443 83.2917365962238 38.0
vertex 490.058838120443 85.2917365962238 40.0
vertex 488.058838120443 83.2917365962238 38.0
endloop
endfacet
facet normal -0.707106781186548 0.0 0.707106781186548
outer loop
vertex 488.558838120443 25.395289986817 44.0
vertex 487.558838120443 21.395289986817 43.0
vertex 488.558838120443 21.395289986817 44.0
endloop
endfacet
facet normal -0.707106781186548 0.0 0.707106781186548
outer loop
vertex 487.558838120443 21.395289986817 43.0
vertex 488.558838120443 25.395289986817 44.0
vertex 487.558838120443 25.395289986817 43.0
endloop
endfacet
facet normal -0.707106781186547 -0.707106781186549 0.0
outer loop
vertex 488.558838120443 33.4988433774103 45.0
vertex 486.558838120443 35.4988433774103 41.0
vertex 488.558838120443 33.4988433774103 41.0
endloop
endfacet
facet normal -0.707106781186547 -0.707106781186549 0.0
outer loop
vertex 486.558838120443 35.4988433774103 41.0
vertex 488.558838120443 33.4988433774103 45.0
vertex 486.558838120443 35.4988433774103 45.0
endloop
endfacet
facet normal 9.98065218131863e-034 -4.71497684496828e-018 1.0
outer loop
vertex 440.058838120443 13.2917365962238 41.0
vertex 437.558838120443 33.4988433774103 41.0
vertex 437.558838120443 13.2917365962238 41.0
endloop
endfacet
facet normal 9.98065218131863e-034 -4.71497684496828e-018 1.0
outer loop
vertex 437.558838120443 33.4988433774103 41.0
vertex 440.058838120443 13.2917365962238 41.0
vertex 439.558838120443 35.4988433774103 41.0
endloop
endfacet
facet normal 9.98065218131863e-034 -4.71497684496828e-018 1.0
outer loop
vertex 439.558838120443 35.4988433774103 41.0
vertex 440.058838120443 13.2917365962238 41.0
vertex 439.558838120443 69.0846298150372 41.0
endloop
endfacet
facet normal 9.98065218131863e-034 -4.71497684496828e-018 1.0
outer loop
vertex 442.058838120443 35.2917365962238 41.0
vertex 440.058838120443 71.2917365962238 41.0
vertex 440.058838120443 33.2917365962238 41.0
endloop
endfacet
facet normal 9.98065218131863e-034 -4.71497684496828e-018 1.0
outer loop
vertex 440.058838120443 71.2917365962238 41.0
vertex 442.058838120443 35.2917365962238 41.0
vertex 442.058838120443 69.2917365962238 41.0
endloop
endfacet
facet normal 9.98065218131863e-034 -4.71497684496828e-018 1.0
outer loop
vertex 488.558838120443 13.2917365962238 41.0
vertex 486.058838120443 33.2917365962238 41.0
vertex 486.058838120443 13.2917365962238 41.0
endloop
endfacet
facet normal 9.98065218131863e-034 -4.71497684496828e-018 1.0
outer loop
vertex 486.058838120443 33.2917365962238 41.0
vertex 488.558838120443 13.2917365962238 41.0
vertex 486.558838120443 35.4988433774103 41.0
endloop
endfacet
facet normal 9.98065218131863e-034 -4.71497684496828e-018 1.0
outer loop
vertex 486.058838120443 33.2917365962238 41.0
vertex 486.558838120443 35.4988433774103 41.0
vertex 486.058838120443 71.2917365962238 41.0
endloop
endfacet
facet normal 9.98065218131863e-034 -4.71497684496828e-018 1.0
outer loop
vertex 486.058838120443 71.2917365962238 41.0
vertex 486.558838120443 35.4988433774103 41.0
vertex 486.058838120443 81.2917365962238 41.0
endloop
endfacet
facet normal 9.98065218131863e-034 -4.71497684496828e-018 1.0
outer loop
vertex 486.558838120443 35.4988433774103 41.0
vertex 488.558838120443 13.2917365962238 41.0
vertex 488.558838120443 33.4988433774103 41.0
endloop
endfacet
facet normal 9.98065218131863e-034 -4.71497684496828e-018 1.0
outer loop
vertex 439.558838120443 69.0846298150372 41.0
vertex 437.558838120443 83.7917365962238 41.0
vertex 437.558838120443 71.0846298150372 41.0
endloop
endfacet
facet normal 9.98065218131863e-034 -4.71497684496828e-018 1.0
outer loop
vertex 437.558838120443 83.7917365962238 41.0
vertex 439.558838120443 69.0846298150372 41.0
vertex 440.058838120443 81.2917365962238 41.0
endloop
endfacet
facet normal 9.98065218131863e-034 -4.71497684496828e-018 1.0
outer loop
vertex 437.558838120443 83.7917365962238 41.0
vertex 440.058838120443 81.2917365962238 41.0
vertex 450.265944901629 83.7917365962238 41.0
endloop
endfacet
facet normal 9.98065218131863e-034 -4.71497684496828e-018 1.0
outer loop
vertex 440.058838120443 81.2917365962238 41.0
vertex 439.558838120443 69.0846298150372 41.0
vertex 440.058838120443 13.2917365962238 41.0
endloop
endfacet
facet normal 9.98065218131863e-034 -4.71497684496828e-018 1.0
outer loop
vertex 440.058838120443 81.2917365962238 41.0
vertex 440.058838120443 13.2917365962238 41.0
vertex 440.058838120443 33.2917365962238 41.0
endloop
endfacet
facet normal 9.98065218131863e-034 -4.71497684496828e-018 1.0
outer loop
vertex 440.058838120443 81.2917365962238 41.0
vertex 440.058838120443 33.2917365962238 41.0
vertex 440.058838120443 71.2917365962238 41.0
endloop
endfacet
facet normal 9.98065218131863e-034 -4.71497684496828e-018 1.0
outer loop
vertex 450.265944901629 83.7917365962238 41.0
vertex 440.058838120443 81.2917365962238 41.0
vertex 450.058838120443 81.2917365962238 41.0
endloop
endfacet
facet normal 9.98065218131863e-034 -4.71497684496828e-018 1.0
outer loop
vertex 450.265944901629 83.7917365962238 41.0
vertex 450.058838120443 81.2917365962238 41.0
vertex 452.058838120443 79.2917365962238 41.0
endloop
endfacet
facet normal 9.98065218131863e-034 -4.71497684496828e-018 1.0
outer loop
vertex 450.265944901629 83.7917365962238 41.0
vertex 452.058838120443 79.2917365962238 41.0
vertex 452.265944901629 81.7917365962238 41.0
endloop
endfacet
facet normal 9.98065218131863e-034 -4.71497684496828e-018 1.0
outer loop
vertex 452.265944901629 81.7917365962238 41.0
vertex 452.058838120443 79.2917365962238 41.0
vertex 474.058838120443 79.2917365962238 41.0
endloop
endfacet
facet normal 9.98065218131863e-034 -4.71497684496828e-018 1.0
outer loop
vertex 452.265944901629 81.7917365962238 41.0
vertex 474.058838120443 79.2917365962238 41.0
vertex 473.851731339257 81.7917365962238 41.0
endloop
endfacet
facet normal 9.98065218131863e-034 -4.71497684496828e-018 1.0
outer loop
vertex 473.851731339257 81.7917365962238 41.0
vertex 474.058838120443 79.2917365962238 41.0
vertex 475.851731339257 83.7917365962238 41.0
endloop
endfacet
facet normal 9.98065218131863e-034 -4.71497684496828e-018 1.0
outer loop
vertex 475.851731339257 83.7917365962238 41.0
vertex 474.058838120443 79.2917365962238 41.0
vertex 476.058838120443 81.2917365962238 41.0
endloop
endfacet
facet normal 9.98065218131863e-034 -4.71497684496828e-018 1.0
outer loop
vertex 475.851731339257 83.7917365962238 41.0
vertex 476.058838120443 81.2917365962238 41.0
vertex 488.558838120443 83.7917365962238 41.0
endloop
endfacet
facet normal 9.98065218131863e-034 -4.71497684496828e-018 1.0
outer loop
vertex 488.558838120443 83.7917365962238 41.0
vertex 476.058838120443 81.2917365962238 41.0
vertex 486.058838120443 81.2917365962238 41.0
endloop
endfacet
facet normal 9.98065218131863e-034 -4.71497684496828e-018 1.0
outer loop
vertex 488.558838120443 83.7917365962238 41.0
vertex 486.058838120443 81.2917365962238 41.0
vertex 486.558838120443 69.0846298150372 41.0
endloop
endfacet
facet normal 9.98065218131863e-034 -4.71497684496828e-018 1.0
outer loop
vertex 486.558838120443 69.0846298150372 41.0
vertex 486.058838120443 81.2917365962238 41.0
vertex 486.558838120443 35.4988433774103 41.0
endloop
endfacet
facet normal 9.98065218131863e-034 -4.71497684496828e-018 1.0
outer loop
vertex 488.558838120443 83.7917365962238 41.0
vertex 486.558838120443 69.0846298150372 41.0
vertex 488.558838120443 71.0846298150372 41.0
endloop
endfacet
facet normal 9.98065218131863e-034 -4.71497684496828e-018 1.0
outer loop
vertex 486.058838120443 33.2917365962238 41.0
vertex 484.058838120443 69.2917365962238 41.0
vertex 484.058838120443 35.2917365962238 41.0
endloop
endfacet
facet normal 9.98065218131863e-034 -4.71497684496828e-018 1.0
outer loop
vertex 484.058838120443 69.2917365962238 41.0
vertex 486.058838120443 33.2917365962238 41.0
vertex 486.058838120443 71.2917365962238 41.0
endloop
endfacet
facet normal 1.0 0.0 0.0
outer loop
vertex 488.058838120443 71.2917365962238 5.77529135625809e-015
vertex 488.058838120443 75.0417365962238 0.750000000000019
vertex 488.058838120443 71.2917365962238 38.0
endloop
endfacet
facet normal 1.0 0.0 0.0
outer loop
vertex 488.058838120443 75.0417365962238 0.750000000000019
vertex 488.058838120443 71.2917365962238 5.77529135625809e-015
vertex 488.058838120443 83.2917365962238 0.0
endloop
endfacet
facet normal 1.0 0.0 0.0
outer loop
vertex 488.058838120443 75.0417365962238 0.750000000000019
vertex 488.058838120443 83.2917365962238 0.0
vertex 488.058838120443 79.5417365962238 0.750000000000019
endloop
endfacet
facet normal 1.0 0.0 0.0
outer loop
vertex 488.058838120443 79.5417365962238 0.750000000000019
vertex 488.058838120443 83.2917365962238 0.0
vertex 488.058838120443 79.5417365962238 3.25000000000002
endloop
endfacet
facet normal 1.0 0.0 0.0
outer loop
vertex 488.058838120443 71.2917365962238 38.0
vertex 488.058838120443 75.0417365962238 3.25000000000002
vertex 488.058838120443 83.2917365962238 38.0
endloop
endfacet
facet normal 1.0 0.0 0.0
outer loop
vertex 488.058838120443 75.0417365962238 3.25000000000002
vertex 488.058838120443 71.2917365962238 38.0
vertex 488.058838120443 75.0417365962238 0.750000000000019
endloop
endfacet
facet normal 1.0 0.0 0.0
outer loop
vertex 488.058838120443 83.2917365962238 38.0
vertex 488.058838120443 75.0417365962238 3.25000000000002
vertex 488.058838120443 79.5417365962238 3.25000000000002
endloop
endfacet
facet normal 1.0 0.0 0.0
outer loop
vertex 488.058838120443 83.2917365962238 38.0
vertex 488.058838120443 79.5417365962238 3.25000000000002
vertex 488.058838120443 83.2917365962238 0.0
endloop
endfacet
facet normal 0.577350269189625 0.577350269189626 -0.577350269189627
outer loop
vertex 488.058838120443 35.2917365962238 40.0
vertex 488.058838120443 33.2917365962238 38.0
vertex 486.058838120443 35.2917365962238 38.0
endloop
endfacet
facet normal 0.577350269189625 0.577350269189626 -0.577350269189627
outer loop
vertex 488.058838120443 33.2917365962238 38.0
vertex 488.058838120443 35.2917365962238 40.0
vertex 490.058838120443 33.2917365962238 40.0
endloop
endfacet
facet normal 1.0 0.0 0.0
outer loop
vertex 486.058838120443 69.2917365962238 5.77529135625809e-015
vertex 486.058838120443 35.2917365962238 38.0
vertex 486.058838120443 35.2917365962238 5.77529135625809e-015
endloop
endfacet
facet normal 1.0 0.0 0.0
outer loop
vertex 486.058838120443 35.2917365962238 38.0
vertex 486.058838120443 69.2917365962238 5.77529135625809e-015
vertex 486.058838120443 69.2917365962238 38.0
endloop
endfacet
facet normal -1.0 0.0 0.0
outer loop
vertex 486.058838120443 81.2917365962238 41.0
vertex 486.058838120443 71.2917365962238 2.0
vertex 486.058838120443 71.2917365962238 41.0
endloop
endfacet
facet normal -1.0 0.0 0.0
outer loop
vertex 486.058838120443 71.2917365962238 2.0
vertex 486.058838120443 81.2917365962238 41.0
vertex 486.058838120443 81.2917365962238 2.0
endloop
endfacet
facet normal 1.0 0.0 0.0
outer loop
vertex 488.058838120443 69.2917365962238 40.0
vertex 488.058838120443 35.2917365962238 45.0
vertex 488.058838120443 35.2917365962238 40.0
endloop
endfacet
facet normal 1.0 0.0 0.0
outer loop
vertex 488.058838120443 35.2917365962238 45.0
vertex 488.058838120443 69.2917365962238 40.0
vertex 488.058838120443 69.2917365962238 45.0
endloop
endfacet
facet normal -1.0 0.0 0.0
outer loop
vertex 484.058838120443 69.2917365962238 41.0
vertex 484.058838120443 35.2917365962238 2.0
vertex 484.058838120443 35.2917365962238 41.0
endloop
endfacet
facet normal -1.0 0.0 0.0
outer loop
vertex 484.058838120443 35.2917365962238 2.0
vertex 484.058838120443 69.2917365962238 41.0
vertex 484.058838120443 69.2917365962238 2.0
endloop
endfacet
facet normal -0.707106781186555 -0.70710678118654 0.0
outer loop
vertex 484.058838120443 35.2917365962238 41.0
vertex 486.058838120443 33.2917365962238 2.0
vertex 486.058838120443 33.2917365962238 41.0
endloop
endfacet
facet normal -0.707106781186555 -0.70710678118654 0.0
outer loop
vertex 486.058838120443 33.2917365962238 2.0
vertex 484.058838120443 35.2917365962238 41.0
vertex 484.058838120443 35.2917365962238 2.0
endloop
endfacet
facet normal -1.0 0.0 0.0
outer loop
vertex 488.558838120443 71.0846298150372 45.0
vertex 488.558838120443 75.2917365962238 44.0
vertex 488.558838120443 71.0846298150372 41.0
endloop
endfacet
facet normal -1.0 0.0 0.0
outer loop
vertex 488.558838120443 75.2917365962238 44.0
vertex 488.558838120443 71.0846298150372 45.0
vertex 488.558838120443 83.7917365962238 45.0
endloop
endfacet
facet normal -1.0 0.0 0.0
outer loop
vertex 488.558838120443 75.2917365962238 44.0
vertex 488.558838120443 83.7917365962238 45.0
vertex 488.558838120443 79.2917365962238 44.0
endloop
endfacet
facet normal -1.0 0.0 0.0
outer loop
vertex 488.558838120443 79.2917365962238 44.0
vertex 488.558838120443 83.7917365962238 45.0
vertex 488.558838120443 79.2917365962238 42.0
endloop
endfacet
facet normal -1.0 0.0 0.0
outer loop
vertex 488.558838120443 71.0846298150372 41.0
vertex 488.558838120443 75.2917365962238 42.0
vertex 488.558838120443 83.7917365962238 41.0
endloop
endfacet
facet normal -1.0 0.0 0.0
outer loop
vertex 488.558838120443 75.2917365962238 42.0
vertex 488.558838120443 71.0846298150372 41.0
vertex 488.558838120443 75.2917365962238 44.0
endloop
endfacet
facet normal -1.0 0.0 0.0
outer loop
vertex 488.558838120443 83.7917365962238 41.0
vertex 488.558838120443 75.2917365962238 42.0
vertex 488.558838120443 79.2917365962238 42.0
endloop
endfacet
facet normal -1.0 0.0 0.0
outer loop
vertex 488.558838120443 83.7917365962238 41.0
vertex 488.558838120443 79.2917365962238 42.0
vertex 488.558838120443 83.7917365962238 45.0
endloop
endfacet
facet normal -0.707106781186545 0.70710678118655 0.0
outer loop
vertex 474.058838120443 81.2917365962238 38.0
vertex 476.058838120443 83.2917365962238 0.0
vertex 474.058838120443 81.2917365962238 0.0
endloop
endfacet
facet normal -0.707106781186545 0.70710678118655 0.0
outer loop
vertex 476.058838120443 83.2917365962238 0.0
vertex 474.058838120443 81.2917365962238 38.0
vertex 476.058838120443 83.2917365962238 38.0
endloop
endfacet
facet normal 0.707106781186546 1.2172792524132e-033 -0.707106781186549
outer loop
vertex 490.058838120443 33.2917365962238 40.0
vertex 488.058838120443 13.2917365962238 38.0
vertex 488.058838120443 33.2917365962238 38.0
endloop
endfacet
facet normal 0.707106781186546 1.2172792524132e-033 -0.707106781186549
outer loop
vertex 488.058838120443 13.2917365962238 38.0
vertex 490.058838120443 33.2917365962238 40.0
vertex 490.058838120443 13.2917365962238 40.0
endloop
endfacet
facet normal 0.0 -1.0 0.0
outer loop
vertex 488.058838120443 79.5417365962238 3.25000000000002
vertex 486.808838120443 79.5417365962238 2.00000000000002
vertex 488.058838120443 79.5417365962238 0.750000000000019
endloop
endfacet
facet normal 0.707106781186547 2.04021043989371e-032 -0.707106781186549
outer loop
vertex 488.058838120443 69.2917365962238 40.0
vertex 486.058838120443 35.2917365962238 38.0
vertex 486.058838120443 69.2917365962238 38.0
endloop
endfacet
facet normal 0.707106781186547 2.04021043989371e-032 -0.707106781186549
outer loop
vertex 486.058838120443 35.2917365962238 38.0
vertex 488.058838120443 69.2917365962238 40.0
vertex 488.058838120443 35.2917365962238 40.0
endloop
endfacet
facet normal 0.707106781186545 -0.70710678118655 0.0
outer loop
vertex 475.851731339257 83.7917365962238 45.0
vertex 473.851731339257 81.7917365962238 41.0
vertex 475.851731339257 83.7917365962238 41.0
endloop
endfacet
facet normal 0.707106781186545 -0.70710678118655 0.0
outer loop
vertex 473.851731339257 81.7917365962238 41.0
vertex 475.851731339257 83.7917365962238 45.0
vertex 473.851731339257 81.7917365962238 45.0
endloop
endfacet
facet normal -1.0 0.0 0.0
outer loop
vertex 486.558838120443 69.0846298150372 45.0
vertex 486.558838120443 35.4988433774103 41.0
vertex 486.558838120443 35.4988433774103 45.0
endloop
endfacet
facet normal -1.0 0.0 0.0
outer loop
vertex 486.558838120443 35.4988433774103 41.0
vertex 486.558838120443 69.0846298150372 45.0
vertex 486.558838120443 69.0846298150372 41.0
endloop
endfacet
facet normal 0.0 -1.0 0.0
outer loop
vertex 490.058838120443 13.2917365962238 40.0
vertex 486.058838120443 13.2917365962238 38.0
vertex 488.058838120443 13.2917365962238 38.0
endloop
endfacet
facet normal 0.0 -1.0 0.0
outer loop
vertex 486.058838120443 13.2917365962238 38.0
vertex 490.058838120443 13.2917365962238 40.0
vertex 486.058838120443 13.2917365962238 41.0
endloop
endfacet
facet normal 0.0 -1.0 0.0
outer loop
vertex 486.058838120443 13.2917365962238 41.0
vertex 490.058838120443 13.2917365962238 40.0
vertex 488.558838120443 13.2917365962238 41.0
endloop
endfacet
facet normal 0.0 -1.0 0.0
outer loop
vertex 488.558838120443 13.2917365962238 41.0
vertex 490.058838120443 13.2917365962238 40.0
vertex 490.058838120443 13.2917365962238 45.0
endloop
endfacet
facet normal 0.0 -1.0 0.0
outer loop
vertex 488.558838120443 13.2917365962238 41.0
vertex 490.058838120443 13.2917365962238 45.0
vertex 488.558838120443 13.2917365962238 45.0
endloop
endfacet
facet normal 0.0 -1.0 0.0
outer loop
vertex 488.058838120443 25.645289986817 3.25
vertex 486.808838120443 25.645289986817 2.0
vertex 488.058838120443 25.645289986817 0.750000000000004
endloop
endfacet
facet normal 1.0 0.0 0.0
outer loop
vertex 490.058838120443 33.2917365962238 40.0
vertex 490.058838120443 13.2917365962238 45.0
vertex 490.058838120443 13.2917365962238 40.0
endloop
endfacet
facet normal 1.0 0.0 0.0
outer loop
vertex 490.058838120443 13.2917365962238 45.0
vertex 490.058838120443 33.2917365962238 40.0
vertex 490.058838120443 33.2917365962238 45.0
endloop
endfacet
facet normal 0.0 1.0 0.0
outer loop
vertex 476.058838120443 83.2917365962238 38.0
vertex 488.058838120443 83.2917365962238 0.0
vertex 476.058838120443 83.2917365962238 0.0
endloop
endfacet
facet normal 0.0 1.0 0.0
outer loop
vertex 488.058838120443 83.2917365962238 0.0
vertex 476.058838120443 83.2917365962238 38.0
vertex 488.058838120443 83.2917365962238 38.0
endloop
endfacet
facet normal 0.0 -1.0 0.0
outer loop
vertex 486.058838120443 81.2917365962238 41.0
vertex 476.058838120443 81.2917365962238 2.0
vertex 486.058838120443 81.2917365962238 2.0
endloop
endfacet
facet normal 0.0 -1.0 0.0
outer loop
vertex 476.058838120443 81.2917365962238 2.0
vertex 486.058838120443 81.2917365962238 41.0
vertex 476.058838120443 81.2917365962238 41.0
endloop
endfacet
facet normal 2.14619346895615e-016 2.76002723121739e-016 1.0
outer loop
vertex 442.058838120443 69.2917365962238 2.0
vertex 440.058838120443 81.2917365962238 2.0
vertex 440.058838120443 71.2917365962238 2.0
endloop
endfacet
facet normal 2.14619346895615e-016 2.76002723121739e-016 1.0
outer loop
vertex 440.058838120443 81.2917365962238 2.0
vertex 442.058838120443 69.2917365962238 2.0
vertex 450.058838120443 81.2917365962238 2.0
endloop
endfacet
facet normal 2.14619346895615e-016 2.76002723121739e-016 1.0
outer loop
vertex 440.058838120443 14.1201637209704 2.00000000000006
vertex 442.058838120443 35.2917365962238 2.0
vertex 440.058838120443 33.2917365962238 2.0
endloop
endfacet
facet normal 2.14619346895615e-016 2.76002723121739e-016 1.0
outer loop
vertex 442.058838120443 35.2917365962238 2.0
vertex 440.058838120443 14.1201637209704 2.00000000000006
vertex 486.058838120443 14.12016372097 2.0
endloop
endfacet
facet normal 2.14619346895615e-016 2.76002723121739e-016 1.0
outer loop
vertex 442.058838120443 35.2917365962238 2.0
vertex 486.058838120443 14.12016372097 2.0
vertex 442.058838120443 69.2917365962238 2.0
endloop
endfacet
facet normal 2.14619346895615e-016 2.76002723121739e-016 1.0
outer loop
vertex 442.058838120443 69.2917365962238 2.0
vertex 486.058838120443 14.12016372097 2.0
vertex 450.058838120443 81.2917365962238 2.0
endloop
endfacet
facet normal 2.14619346895615e-016 2.76002723121739e-016 1.0
outer loop
vertex 450.058838120443 81.2917365962238 2.0
vertex 486.058838120443 14.12016372097 2.0
vertex 452.058838120443 79.2917365962238 2.0
endloop
endfacet
facet normal 2.14619346895615e-016 2.76002723121739e-016 1.0
outer loop
vertex 452.058838120443 79.2917365962238 2.0
vertex 486.058838120443 14.12016372097 2.0
vertex 474.058838120443 79.2917365962238 2.0
endloop
endfacet
facet normal 2.14619346895615e-016 2.76002723121739e-016 1.0
outer loop
vertex 474.058838120443 79.2917365962238 2.0
vertex 486.058838120443 14.12016372097 2.0
vertex 476.058838120443 81.2917365962238 2.0
endloop
endfacet
facet normal 2.14619346895615e-016 2.76002723121739e-016 1.0
outer loop
vertex 476.058838120443 81.2917365962238 2.0
vertex 486.058838120443 14.12016372097 2.0
vertex 484.058838120443 35.2917365962238 2.0
endloop
endfacet
facet normal 2.14619346895615e-016 2.76002723121739e-016 1.0
outer loop
vertex 484.058838120443 35.2917365962238 2.0
vertex 486.058838120443 14.12016372097 2.0
vertex 486.058838120443 33.2917365962238 2.0
endloop
endfacet
facet normal 2.14619346895615e-016 2.76002723121739e-016 1.0
outer loop
vertex 476.058838120443 81.2917365962238 2.0
vertex 484.058838120443 69.2917365962238 2.0
vertex 486.058838120443 81.2917365962238 2.0
endloop
endfacet
facet normal 2.14619346895615e-016 2.76002723121739e-016 1.0
outer loop
vertex 484.058838120443 69.2917365962238 2.0
vertex 476.058838120443 81.2917365962238 2.0
vertex 484.058838120443 35.2917365962238 2.0
endloop
endfacet
facet normal 2.14619346895615e-016 2.76002723121739e-016 1.0
outer loop
vertex 486.058838120443 81.2917365962238 2.0
vertex 484.058838120443 69.2917365962238 2.0
vertex 486.058838120443 71.2917365962238 2.0
endloop
endfacet
facet normal 1.0 0.0 0.0
outer loop
vertex 490.058838120443 85.2917365962238 40.0
vertex 490.058838120443 71.2917365962238 45.0
vertex 490.058838120443 71.2917365962238 40.0
endloop
endfacet
facet normal 1.0 0.0 0.0
outer loop
vertex 490.058838120443 71.2917365962238 45.0
vertex 490.058838120443 85.2917365962238 40.0
vertex 490.058838120443 85.2917365962238 45.0
endloop
endfacet
facet normal 0.707106781186553 -1.02446608499696e-017 -0.707106781186542
outer loop
vertex 486.808838120443 25.645289986817 2.0
vertex 488.058838120443 21.145289986817 3.25
vertex 486.808838120443 21.145289986817 2.0
endloop
endfacet
facet normal 0.707106781186553 -1.02446608499696e-017 -0.707106781186542
outer loop
vertex 488.058838120443 21.145289986817 3.25
vertex 486.808838120443 25.645289986817 2.0
vertex 488.058838120443 25.645289986817 3.25
endloop
endfacet
facet normal 0.707106781186547 0.707106781186549 -9.43393307406852e-031
outer loop
vertex 488.058838120443 35.2917365962238 45.0
vertex 490.058838120443 33.2917365962238 40.0
vertex 488.058838120443 35.2917365962238 40.0
endloop
endfacet
facet normal 0.707106781186547 0.707106781186549 -9.43393307406852e-031
outer loop
vertex 490.058838120443 33.2917365962238 40.0
vertex 488.058838120443 35.2917365962238 45.0
vertex 490.058838120443 33.2917365962238 45.0
endloop
endfacet
facet normal 0.707106781186546 -0.70710678118655 -1.14933175740712e-018
outer loop
vertex 488.058838120443 71.2917365962238 38.0
vertex 486.058838120443 69.2917365962238 5.77529135625809e-015
vertex 488.058838120443 71.2917365962238 5.77529135625809e-015
endloop
endfacet
facet normal 0.707106781186546 -0.70710678118655 -1.14933175740712e-018
outer loop
vertex 486.058838120443 69.2917365962238 5.77529135625809e-015
vertex 488.058838120443 71.2917365962238 38.0
vertex 486.058838120443 69.2917365962238 38.0
endloop
endfacet
facet normal -0.707106781186554 0.707106781186541 0.0
outer loop
vertex 486.058838120443 71.2917365962238 41.0
vertex 484.058838120443 69.2917365962238 2.0
vertex 484.058838120443 69.2917365962238 41.0
endloop
endfacet
facet normal -0.707106781186554 0.707106781186541 0.0
outer loop
vertex 484.058838120443 69.2917365962238 2.0
vertex 486.058838120443 71.2917365962238 41.0
vertex 486.058838120443 71.2917365962238 2.0
endloop
endfacet
facet normal 0.707106781186547 -1.6123936434041e-018 -0.707106781186549
outer loop
vertex 490.058838120443 85.2917365962238 40.0
vertex 488.058838120443 71.2917365962238 38.0
vertex 488.058838120443 83.2917365962238 38.0
endloop
endfacet
facet normal 0.707106781186547 -1.6123936434041e-018 -0.707106781186549
outer loop
vertex 488.058838120443 71.2917365962238 38.0
vertex 490.058838120443 85.2917365962238 40.0
vertex 490.058838120443 71.2917365962238 40.0
endloop
endfacet
facet normal 0.0 1.0 0.0
outer loop
vertex 476.058838120443 85.2917365962238 45.0
vertex 490.058838120443 85.2917365962238 40.0
vertex 476.058838120443 85.2917365962238 40.0
endloop
endfacet
facet normal 0.0 1.0 0.0
outer loop
vertex 490.058838120443 85.2917365962238 40.0
vertex 476.058838120443 85.2917365962238 45.0
vertex 490.058838120443 85.2917365962238 45.0
endloop
endfacet
facet normal -1.0 2.11352421440086e-015 -1.63982274801524e-016
outer loop
vertex 438.058838120443 13.2917365962238 38.0
vertex 438.058838120443 4.32536519319169 8.96637140303263
vertex 438.058838120443 4.32536519319169 18.0
endloop
endfacet
facet normal -1.0 2.11352421440086e-015 -1.63982274801524e-016
outer loop
vertex 438.058838120443 4.32536519319169 8.96637140303263
vertex 438.058838120443 13.2917365962238 38.0
vertex 438.058838120443 13.2917365962238 1.57618209396765e-016
endloop
endfacet
facet normal -1.0 2.11352421440086e-015 -1.63982274801524e-016
outer loop
vertex 438.058838120443 13.2917365962238 1.57618209396765e-016
vertex 438.058838120443 13.2917365962238 38.0
vertex 438.058838120443 33.2917365962238 38.0
endloop
endfacet
facet normal -1.0 2.11352421440086e-015 -1.63982274801524e-016
outer loop
vertex 438.058838120443 13.2917365962238 1.57618209396765e-016
vertex 438.058838120443 33.2917365962238 38.0
vertex 438.058838120443 21.145289986817 3.25
endloop
endfacet
facet normal -1.0 2.11352421440086e-015 -1.63982274801524e-016
outer loop
vertex 438.058838120443 21.145289986817 3.25
vertex 438.058838120443 33.2917365962238 38.0
vertex 438.058838120443 25.645289986817 3.25
endloop
endfacet
facet normal -1.0 2.11352421440086e-015 -1.63982274801524e-016
outer loop
vertex 438.058838120443 25.645289986817 3.25
vertex 438.058838120443 33.2917365962238 38.0
vertex 438.058838120443 25.645289986817 0.750000000000004
endloop
endfacet
facet normal -1.0 2.11352421440086e-015 -1.63982274801524e-016
outer loop
vertex 438.058838120443 13.2917365962238 1.57618209396765e-016
vertex 438.058838120443 21.145289986817 0.750000000000004
vertex 438.058838120443 33.2917365962238 5.77529135625809e-015
endloop
endfacet
facet normal -1.0 2.11352421440086e-015 -1.63982274801524e-016
outer loop
vertex 438.058838120443 21.145289986817 0.750000000000004
vertex 438.058838120443 13.2917365962238 1.57618209396765e-016
vertex 438.058838120443 21.145289986817 3.25
endloop
endfacet
facet normal -1.0 2.11352421440086e-015 -1.63982274801524e-016
outer loop
vertex 438.058838120443 33.2917365962238 5.77529135625809e-015
vertex 438.058838120443 21.145289986817 0.750000000000004
vertex 438.058838120443 25.645289986817 0.750000000000004
endloop
endfacet
facet normal -1.0 2.11352421440086e-015 -1.63982274801524e-016
outer loop
vertex 438.058838120443 33.2917365962238 5.77529135625809e-015
vertex 438.058838120443 25.645289986817 0.750000000000004
vertex 438.058838120443 33.2917365962238 38.0
endloop
endfacet
facet normal 1.0 -0.0 -0.0
outer loop
vertex 488.058838120443 13.2917365962238 1.57618209396766e-016
vertex 488.058838120443 4.3253651931912 18.0
vertex 488.058838120443 4.3253651931912 8.96637140303257
endloop
endfacet
facet normal 1.0 -0.0 -0.0
outer loop
vertex 488.058838120443 4.3253651931912 18.0
vertex 488.058838120443 13.2917365962238 1.57618209396766e-016
vertex 488.058838120443 13.2917365962238 38.0
endloop
endfacet
facet normal 1.0 -0.0 -0.0
outer loop
vertex 488.058838120443 13.2917365962238 38.0
vertex 488.058838120443 13.2917365962238 1.57618209396766e-016
vertex 488.058838120443 21.145289986817 0.750000000000004
endloop
endfacet
facet normal 1.0 -0.0 -0.0
outer loop
vertex 488.058838120443 21.145289986817 0.750000000000004
vertex 488.058838120443 13.2917365962238 1.57618209396766e-016
vertex 488.058838120443 33.2917365962238 5.77529135625809e-015
endloop
endfacet
facet normal 1.0 -0.0 -0.0
outer loop
vertex 488.058838120443 21.145289986817 0.750000000000004
vertex 488.058838120443 33.2917365962238 5.77529135625809e-015
vertex 488.058838120443 25.645289986817 0.750000000000004
endloop
endfacet
facet normal 1.0 -0.0 -0.0
outer loop
vertex 488.058838120443 25.645289986817 0.750000000000004
vertex 488.058838120443 33.2917365962238 5.77529135625809e-015
vertex 488.058838120443 25.645289986817 3.25
endloop
endfacet
facet normal 1.0 -0.0 -0.0
outer loop
vertex 488.058838120443 25.645289986817 3.25
vertex 488.058838120443 33.2917365962238 5.77529135625809e-015
vertex 488.058838120443 33.2917365962238 38.0
endloop
endfacet
facet normal 1.0 -0.0 -0.0
outer loop
vertex 488.058838120443 13.2917365962238 38.0
vertex 488.058838120443 21.145289986817 3.25
vertex 488.058838120443 33.2917365962238 38.0
endloop
endfacet
facet normal 1.0 -0.0 -0.0
outer loop
vertex 488.058838120443 21.145289986817 3.25
vertex 488.058838120443 13.2917365962238 38.0
vertex 488.058838120443 21.145289986817 0.750000000000004
endloop
endfacet
facet normal 1.0 -0.0 -0.0
outer loop
vertex 488.058838120443 33.2917365962238 38.0
vertex 488.058838120443 21.145289986817 3.25
vertex 488.058838120443 25.645289986817 3.25
endloop
endfacet
facet normal 4.63905688179088e-017 -0.912494777373416 0.409088353862878
outer loop
vertex 488.058838120443 13.2917365962238 38.0
vertex 486.058838120443 4.3253651931912 18.0
vertex 488.058838120443 4.3253651931912 18.0
endloop
endfacet
facet normal 4.63905688179088e-017 -0.912494777373416 0.409088353862878
outer loop
vertex 486.058838120443 4.3253651931912 18.0
vertex 488.058838120443 13.2917365962238 38.0
vertex 486.058838120443 13.2917365962238 38.0
endloop
endfacet
facet normal 7.98967349766607e-015 0.707106781186548 0.707106781186547
outer loop
vertex 440.058838120443 14.1201637209704 2.00000000000006
vertex 486.058838120443 6.3253651931912 9.79479852777877
vertex 486.058838120443 14.12016372097 2.0
endloop
endfacet
facet normal 7.98967349766607e-015 0.707106781186548 0.707106781186547
outer loop
vertex 486.058838120443 6.3253651931912 9.79479852777877
vertex 440.058838120443 14.1201637209704 2.00000000000006
vertex 440.058838120443 6.32536519319166 9.79479852777883
endloop
endfacet
facet normal 7.36271321186608e-016 4.1228909567727e-030 1.0
outer loop
vertex 486.058838120443 4.3253651931912 18.0
vertex 440.058838120443 6.32536519319166 18.0
vertex 440.058838120443 4.32536519319166 18.0
endloop
endfacet
facet normal 7.36271321186608e-016 4.1228909567727e-030 1.0
outer loop
vertex 440.058838120443 6.32536519319166 18.0
vertex 486.058838120443 4.3253651931912 18.0
vertex 486.058838120443 6.3253651931912 18.0
endloop
endfacet
facet normal -1.0 2.82920995830058e-015 6.62836099680796e-016
outer loop
vertex 486.058838120443 33.2917365962238 41.0
vertex 486.058838120443 13.2917365962238 38.0
vertex 486.058838120443 13.2917365962238 41.0
endloop
endfacet
facet normal -1.0 2.82920995830058e-015 6.62836099680796e-016
outer loop
vertex 486.058838120443 13.2917365962238 38.0
vertex 486.058838120443 33.2917365962238 41.0
vertex 486.058838120443 14.12016372097 2.0
endloop
endfacet
facet normal -1.0 2.82920995830058e-015 6.62836099680796e-016
outer loop
vertex 486.058838120443 14.12016372097 2.0
vertex 486.058838120443 33.2917365962238 41.0
vertex 486.058838120443 33.2917365962238 2.0
endloop
endfacet
facet normal -1.0 2.82920995830058e-015 6.62836099680796e-016
outer loop
vertex 486.058838120443 13.2917365962238 38.0
vertex 486.058838120443 6.3253651931912 18.0
vertex 486.058838120443 4.3253651931912 18.0
endloop
endfacet
facet normal -1.0 2.82920995830058e-015 6.62836099680796e-016
outer loop
vertex 486.058838120443 6.3253651931912 18.0
vertex 486.058838120443 13.2917365962238 38.0
vertex 486.058838120443 6.3253651931912 9.79479852777877
endloop
endfacet
facet normal -1.0 2.82920995830058e-015 6.62836099680796e-016
outer loop
vertex 486.058838120443 6.3253651931912 9.79479852777877
vertex 486.058838120443 13.2917365962238 38.0
vertex 486.058838120443 14.12016372097 2.0
endloop
endfacet
facet normal 1.01717057922974e-014 1.0 -5.2247062918441e-031
outer loop
vertex 440.058838120443 6.32536519319166 9.79479852777883
vertex 486.058838120443 6.3253651931912 18.0
vertex 486.058838120443 6.3253651931912 9.79479852777877
endloop
endfacet
facet normal 1.01717057922974e-014 1.0 -5.2247062918441e-031
outer loop
vertex 486.058838120443 6.3253651931912 18.0
vertex 440.058838120443 6.32536519319166 9.79479852777883
vertex 440.058838120443 6.32536519319166 18.0
endloop
endfacet
facet normal -3.91408332006984e-015 -0.707106781186559 -0.707106781186536
outer loop
vertex 488.058838120443 13.2917365962238 1.57618209396766e-016
vertex 438.058838120443 4.32536519319169 8.96637140303263
vertex 438.058838120443 13.2917365962238 1.57618209396765e-016
endloop
endfacet
facet normal -3.91408332006984e-015 -0.707106781186559 -0.707106781186536
outer loop
vertex 438.058838120443 4.32536519319169 8.96637140303263
vertex 488.058838120443 13.2917365962238 1.57618209396766e-016
vertex 488.058838120443 4.3253651931912 8.96637140303257
endloop
endfacet
facet normal -9.93754286280241e-015 -1.0 -1.01890071085349e-015
outer loop
vertex 488.058838120443 4.3253651931912 18.0
vertex 438.058838120443 4.32536519319169 8.96637140303263
vertex 488.058838120443 4.3253651931912 8.96637140303257
endloop
endfacet
facet normal -9.93754286280241e-015 -1.0 -1.01890071085349e-015
outer loop
vertex 438.058838120443 4.32536519319169 8.96637140303263
vertex 488.058838120443 4.3253651931912 18.0
vertex 486.058838120443 4.3253651931912 18.0
endloop
endfacet
facet normal -9.93754286280241e-015 -1.0 -1.01890071085349e-015
outer loop
vertex 438.058838120443 4.32536519319169 8.96637140303263
vertex 486.058838120443 4.3253651931912 18.0
vertex 438.058838120443 4.32536519319169 18.0
endloop
endfacet
facet normal -9.93754286280241e-015 -1.0 -1.01890071085349e-015
outer loop
vertex 438.058838120443 4.32536519319169 18.0
vertex 486.058838120443 4.3253651931912 18.0
vertex 440.058838120443 4.32536519319166 18.0
endloop
endfacet
facet normal -8.46017027287485e-015 -0.912494777373424 0.409088353862861
outer loop
vertex 440.058838120443 13.2917365962238 38.0
vertex 438.058838120443 4.32536519319169 18.0
vertex 440.058838120443 4.32536519319166 18.0
endloop
endfacet
facet normal -8.46017027287485e-015 -0.912494777373424 0.409088353862861
outer loop
vertex 438.058838120443 4.32536519319169 18.0
vertex 440.058838120443 13.2917365962238 38.0
vertex 438.058838120443 13.2917365962238 38.0
endloop
endfacet
facet normal 1.0 -2.70974893994433e-015 1.08831990429763e-015
outer loop
vertex 440.058838120443 14.1201637209704 2.00000000000006
vertex 440.058838120443 6.32536519319166 18.0
vertex 440.058838120443 6.32536519319166 9.79479852777883
endloop
endfacet
facet normal 1.0 -2.70974893994433e-015 1.08831990429763e-015
outer loop
vertex 440.058838120443 6.32536519319166 18.0
vertex 440.058838120443 14.1201637209704 2.00000000000006
vertex 440.058838120443 13.2917365962238 38.0
endloop
endfacet
facet normal 1.0 -2.70974893994433e-015 1.08831990429763e-015
outer loop
vertex 440.058838120443 13.2917365962238 38.0
vertex 440.058838120443 14.1201637209704 2.00000000000006
vertex 440.058838120443 13.2917365962238 41.0
endloop
endfacet
facet normal 1.0 -2.70974893994433e-015 1.08831990429763e-015
outer loop
vertex 440.058838120443 13.2917365962238 41.0
vertex 440.058838120443 14.1201637209704 2.00000000000006
vertex 440.058838120443 33.2917365962238 41.0
endloop
endfacet
facet normal 1.0 -2.70974893994433e-015 1.08831990429763e-015
outer loop
vertex 440.058838120443 33.2917365962238 41.0
vertex 440.058838120443 14.1201637209704 2.00000000000006
vertex 440.058838120443 33.2917365962238 2.0
endloop
endfacet
facet normal 1.0 -2.70974893994433e-015 1.08831990429763e-015
outer loop
vertex 440.058838120443 13.2917365962238 38.0
vertex 440.058838120443 4.32536519319166 18.0
vertex 440.058838120443 6.32536519319166 18.0
endloop
endfacet
endsolid stacking box
