solid stacking box
facet normal -0.0 1.0 -0.0
outer loop
vertex 184.578381817048 48.7426829921143 3.00000000000002
vertex 187.078381817048 48.7426829921143 1.00000000000001
vertex 184.578381817048 48.7426829921143 1.00000000000001
endloop
endfacet
facet normal -0.0 1.0 -0.0
outer loop
vertex 187.078381817048 48.7426829921143 1.00000000000001
vertex 184.578381817048 48.7426829921143 3.00000000000002
vertex 187.078381817048 48.7426829921143 3.00000000000002
endloop
endfacet
facet normal -0.0 1.0 -0.0
outer loop
vertex 239.078381817048 54.4926829921143 6.00000000000003
vertex 239.078381817048 54.4926829921143 4.00000000000003
vertex 238.078381817049 54.4926829921143 5.00000000000003
endloop
endfacet
facet normal 0.0 -1.0 0.0
outer loop
vertex 239.078381817048 50.9926829921143 6.00000000000003
vertex 238.078381817049 50.9926829921143 5.00000000000003
vertex 239.078381817048 50.9926829921143 4.00000000000003
endloop
endfacet
facet normal 0.0 -1.0 0.0
outer loop
vertex 240.828381817048 48.9926829921143 3.50000000000001
vertex 239.078381817048 48.9926829921143 1.00000000000002
vertex 240.828381817048 48.9926829921143 1.00000000000001
endloop
endfacet
facet normal 0.0 -1.0 0.0
outer loop
vertex 239.078381817048 48.9926829921143 1.00000000000002
vertex 240.828381817048 48.9926829921143 3.50000000000001
vertex 239.078381817048 48.9926829921143 3.50000000000002
endloop
endfacet
facet normal -0.707106781186579 0.0 -0.707106781186516
outer loop
vertex 238.078381817049 54.4926829921143 5.00000000000003
vertex 239.078381817048 50.9926829921143 4.00000000000003
vertex 238.078381817049 50.9926829921143 5.00000000000003
endloop
endfacet
facet normal -0.707106781186579 0.0 -0.707106781186516
outer loop
vertex 239.078381817048 50.9926829921143 4.00000000000003
vertex 238.078381817049 54.4926829921143 5.00000000000003
vertex 239.078381817048 54.4926829921143 4.00000000000003
endloop
endfacet
facet normal -0.707106781186579 -8.46752580456976e-018 0.707106781186516
outer loop
vertex 239.078381817048 54.4926829921143 6.00000000000003
vertex 238.078381817049 50.9926829921143 5.00000000000003
vertex 239.078381817048 50.9926829921143 6.00000000000003
endloop
endfacet
facet normal -0.707106781186579 -8.46752580456976e-018 0.707106781186516
outer loop
vertex 238.078381817049 50.9926829921143 5.00000000000003
vertex 239.078381817048 54.4926829921143 6.00000000000003
vertex 238.078381817049 54.4926829921143 5.00000000000003
endloop
endfacet
facet normal -0.0 -0.0 1.0
outer loop
vertex 184.578381817048 40.7426829921143 7.00000000000002
vertex 181.828381817048 64.7426829921142 7.00000000000002
vertex 181.828381817048 40.7426829921143 7.00000000000002
endloop
endfacet
facet normal -0.0 -0.0 1.0
outer loop
vertex 181.828381817048 64.7426829921142 7.00000000000002
vertex 184.578381817048 40.7426829921143 7.00000000000002
vertex 183.578381817048 50.7426829921142 7.00000000000002
endloop
endfacet
facet normal -0.0 -0.0 1.0
outer loop
vertex 183.578381817048 50.7426829921142 7.00000000000002
vertex 184.578381817048 40.7426829921143 7.00000000000002
vertex 184.578381817048 50.7426829921142 7.00000000000002
endloop
endfacet
facet normal -0.0 -0.0 1.0
outer loop
vertex 181.828381817048 64.7426829921142 7.00000000000002
vertex 183.578381817048 54.7426829921142 7.00000000000002
vertex 184.578381817048 64.7426829921142 7.00000000000002
endloop
endfacet
facet normal -0.0 -0.0 1.0
outer loop
vertex 183.578381817048 54.7426829921142 7.00000000000002
vertex 181.828381817048 64.7426829921142 7.00000000000002
vertex 183.578381817048 50.7426829921142 7.00000000000002
endloop
endfacet
facet normal -0.0 -0.0 1.0
outer loop
vertex 184.578381817048 64.7426829921142 7.00000000000002
vertex 183.578381817048 54.7426829921142 7.00000000000002
vertex 184.578381817048 54.7426829921142 7.00000000000002
endloop
endfacet
facet normal 1.0 -0.0 -0.0
outer loop
vertex 184.578381817048 56.7626758692009 1.00000000000001
vertex 184.578381817048 48.7426829921143 3.00000000000002
vertex 184.578381817048 48.7426829921143 1.00000000000001
endloop
endfacet
facet normal 1.0 -0.0 -0.0
outer loop
vertex 184.578381817048 48.7426829921143 3.00000000000002
vertex 184.578381817048 56.7626758692009 1.00000000000001
vertex 184.578381817048 50.7426829921142 3.75000000000002
endloop
endfacet
facet normal 1.0 -0.0 -0.0
outer loop
vertex 184.578381817048 50.7426829921142 3.75000000000002
vertex 184.578381817048 56.7626758692009 1.00000000000001
vertex 184.578381817048 54.7426829921142 3.75000000000002
endloop
endfacet
facet normal 1.0 -0.0 -0.0
outer loop
vertex 184.578381817048 54.7426829921142 3.75000000000002
vertex 184.578381817048 56.7626758692009 1.00000000000001
vertex 184.578381817048 54.7426829921142 7.00000000000002
endloop
endfacet
facet normal 1.0 -0.0 -0.0
outer loop
vertex 184.578381817048 54.7426829921142 7.00000000000002
vertex 184.578381817048 56.7626758692009 1.00000000000001
vertex 184.578381817048 56.7626758692009 3.00000000000002
endloop
endfacet
facet normal 1.0 -0.0 -0.0
outer loop
vertex 184.578381817048 54.7426829921142 7.00000000000002
vertex 184.578381817048 56.7626758692009 3.00000000000002
vertex 184.578381817048 64.7426829921142 7.00000000000002
endloop
endfacet
facet normal 1.0 -0.0 -0.0
outer loop
vertex 184.578381817048 64.7426829921142 7.00000000000002
vertex 184.578381817048 56.7626758692009 3.00000000000002
vertex 184.578381817048 64.7426829921142 3.00000000000002
endloop
endfacet
facet normal 1.0 -0.0 -0.0
outer loop
vertex 184.578381817048 48.7426829921143 3.00000000000002
vertex 184.578381817048 40.7426829921143 7.00000000000002
vertex 184.578381817048 40.7426829921143 3.00000000000002
endloop
endfacet
facet normal 1.0 -0.0 -0.0
outer loop
vertex 184.578381817048 40.7426829921143 7.00000000000002
vertex 184.578381817048 48.7426829921143 3.00000000000002
vertex 184.578381817048 50.7426829921142 7.00000000000002
endloop
endfacet
facet normal 1.0 -0.0 -0.0
outer loop
vertex 184.578381817048 50.7426829921142 7.00000000000002
vertex 184.578381817048 48.7426829921143 3.00000000000002
vertex 184.578381817048 50.7426829921142 3.75000000000002
endloop
endfacet
facet normal 1.59046562440507e-015 1.0 1.85477040746947e-017
outer loop
vertex 184.078381817048 50.7426829921142 4.37500000000002
vertex 184.578381817048 50.7426829921142 3.75000000000002
vertex 183.578381817048 50.7426829921142 3.75000000000002
endloop
endfacet
facet normal 1.59046562440507e-015 1.0 1.85477040746947e-017
outer loop
vertex 184.578381817048 50.7426829921142 3.75000000000002
vertex 184.078381817048 50.7426829921142 4.37500000000002
vertex 184.578381817048 50.7426829921142 7.00000000000002
endloop
endfacet
facet normal 1.59046562440507e-015 1.0 1.85477040746947e-017
outer loop
vertex 184.578381817048 50.7426829921142 7.00000000000002
vertex 184.078381817048 50.7426829921142 4.37500000000002
vertex 184.078381817048 50.7426829921142 5.62500000000002
endloop
endfacet
facet normal 1.59046562440507e-015 1.0 1.85477040746947e-017
outer loop
vertex 184.078381817048 50.7426829921142 5.62500000000002
vertex 184.078381817048 50.7426829921142 4.37500000000002
vertex 183.578381817048 50.7426829921142 5.00000000000002
endloop
endfacet
facet normal 1.59046562440507e-015 1.0 1.85477040746947e-017
outer loop
vertex 184.578381817048 50.7426829921142 7.00000000000002
vertex 184.078381817048 50.7426829921142 5.62500000000002
vertex 183.578381817048 50.7426829921142 7.00000000000002
endloop
endfacet
facet normal 0.0 -1.0 0.0
outer loop
vertex 184.578381817048 54.7426829921142 3.75000000000002
vertex 184.078381817048 54.7426829921142 4.37500000000002
vertex 183.578381817048 54.7426829921142 3.75000000000002
endloop
endfacet
facet normal 0.0 -1.0 0.0
outer loop
vertex 184.078381817048 54.7426829921142 4.37500000000002
vertex 184.578381817048 54.7426829921142 3.75000000000002
vertex 184.578381817048 54.7426829921142 7.00000000000002
endloop
endfacet
facet normal 0.0 -1.0 0.0
outer loop
vertex 184.078381817048 54.7426829921142 4.37500000000002
vertex 184.578381817048 54.7426829921142 7.00000000000002
vertex 184.078381817048 54.7426829921142 5.62500000000002
endloop
endfacet
facet normal 0.0 -1.0 0.0
outer loop
vertex 184.078381817048 54.7426829921142 4.37500000000002
vertex 184.078381817048 54.7426829921142 5.62500000000002
vertex 183.578381817048 54.7426829921142 5.00000000000002
endloop
endfacet
facet normal 0.0 -1.0 0.0
outer loop
vertex 184.078381817048 54.7426829921142 5.62500000000002
vertex 184.578381817048 54.7426829921142 7.00000000000002
vertex 183.578381817048 54.7426829921142 7.00000000000002
endloop
endfacet
facet normal 0.780868809443029 -2.86368800234866e-018 0.624695047554426
outer loop
vertex 184.078381817048 54.7426829921142 4.37500000000002
vertex 183.578381817048 50.7426829921142 5.00000000000002
vertex 184.078381817048 50.7426829921142 4.37500000000002
endloop
endfacet
facet normal 0.780868809443029 -2.86368800234866e-018 0.624695047554426
outer loop
vertex 183.578381817048 50.7426829921142 5.00000000000002
vertex 184.078381817048 54.7426829921142 4.37500000000002
vertex 183.578381817048 54.7426829921142 5.00000000000002
endloop
endfacet
facet normal 0.939793423488437 -4.69979158694208e-018 0.341743063086705
outer loop
vertex 184.078381817048 50.7426829921142 5.62500000000002
vertex 183.578381817048 54.7426829921142 7.00000000000002
vertex 183.578381817048 50.7426829921142 7.00000000000002
endloop
endfacet
facet normal 0.939793423488437 -4.69979158694208e-018 0.341743063086705
outer loop
vertex 183.578381817048 54.7426829921142 7.00000000000002
vertex 184.078381817048 50.7426829921142 5.62500000000002
vertex 184.078381817048 54.7426829921142 5.62500000000002
endloop
endfacet
facet normal -0.0 -0.0 1.0
outer loop
vertex 184.578381817048 50.7426829921142 3.75000000000002
vertex 183.578381817048 54.7426829921142 3.75000000000002
vertex 183.578381817048 50.7426829921142 3.75000000000002
endloop
endfacet
facet normal -0.0 -0.0 1.0
outer loop
vertex 183.578381817048 54.7426829921142 3.75000000000002
vertex 184.578381817048 50.7426829921142 3.75000000000002
vertex 184.578381817048 54.7426829921142 3.75000000000002
endloop
endfacet
facet normal 0.780868809443029 -2.14776600174156e-018 -0.624695047554426
outer loop
vertex 183.578381817048 54.7426829921142 3.75000000000002
vertex 184.078381817048 50.7426829921142 4.37500000000002
vertex 183.578381817048 50.7426829921142 3.75000000000002
endloop
endfacet
facet normal 0.780868809443029 -2.14776600174156e-018 -0.624695047554426
outer loop
vertex 184.078381817048 50.7426829921142 4.37500000000002
vertex 183.578381817048 54.7426829921142 3.75000000000002
vertex 184.078381817048 54.7426829921142 4.37500000000002
endloop
endfacet
facet normal 0.780868809443029 -2.86368800232261e-018 -0.624695047554426
outer loop
vertex 183.578381817048 54.7426829921142 5.00000000000002
vertex 184.078381817048 50.7426829921142 5.62500000000002
vertex 183.578381817048 50.7426829921142 5.00000000000002
endloop
endfacet
facet normal 0.780868809443029 -2.86368800232261e-018 -0.624695047554426
outer loop
vertex 184.078381817048 50.7426829921142 5.62500000000002
vertex 183.578381817048 54.7426829921142 5.00000000000002
vertex 184.078381817048 54.7426829921142 5.62500000000002
endloop
endfacet
facet normal 1.0 -0.0 -0.0
outer loop
vertex 237.578381817048 34.2426829921143 1.00000000000001
vertex 237.578381817048 13.7426829921142 7.00000000000002
vertex 237.578381817048 13.7426829921142 1.00000000000001
endloop
endfacet
facet normal 1.0 -0.0 -0.0
outer loop
vertex 237.578381817048 13.7426829921142 7.00000000000002
vertex 237.578381817048 34.2426829921143 1.00000000000001
vertex 237.578381817048 34.2426829921143 7.00000000000002
endloop
endfacet
facet normal -1.0 0.0 0.0
outer loop
vertex 236.078381817049 13.7426829921142 7.00000000000002
vertex 236.078381817049 21.8457897733007 6.00000000000002
vertex 236.078381817049 13.7426829921142 3.00000000000002
endloop
endfacet
facet normal -1.0 0.0 0.0
outer loop
vertex 236.078381817049 21.8457897733007 6.00000000000002
vertex 236.078381817049 13.7426829921142 7.00000000000002
vertex 236.078381817049 33.9497897733008 7.00000000000002
endloop
endfacet
facet normal -1.0 0.0 0.0
outer loop
vertex 236.078381817049 21.8457897733007 6.00000000000002
vertex 236.078381817049 33.9497897733008 7.00000000000002
vertex 236.078381817049 25.8457897733008 6.00000000000002
endloop
endfacet
facet normal -1.0 0.0 0.0
outer loop
vertex 236.078381817049 25.8457897733008 6.00000000000002
vertex 236.078381817049 33.9497897733008 7.00000000000002
vertex 236.078381817049 25.8457897733008 4.00000000000002
endloop
endfacet
facet normal -1.0 0.0 0.0
outer loop
vertex 236.078381817049 13.7426829921142 3.00000000000002
vertex 236.078381817049 21.8457897733007 4.00000000000002
vertex 236.078381817049 33.9497897733008 3.00000000000002
endloop
endfacet
facet normal -1.0 0.0 0.0
outer loop
vertex 236.078381817049 21.8457897733007 4.00000000000002
vertex 236.078381817049 13.7426829921142 3.00000000000002
vertex 236.078381817049 21.8457897733007 6.00000000000002
endloop
endfacet
facet normal -1.0 0.0 0.0
outer loop
vertex 236.078381817049 33.9497897733008 3.00000000000002
vertex 236.078381817049 21.8457897733007 4.00000000000002
vertex 236.078381817049 25.8457897733008 4.00000000000002
endloop
endfacet
facet normal -1.0 0.0 0.0
outer loop
vertex 236.078381817049 33.9497897733008 3.00000000000002
vertex 236.078381817049 25.8457897733008 4.00000000000002
vertex 236.078381817049 33.9497897733008 7.00000000000002
endloop
endfacet
facet normal -0.0 1.0 -0.0
outer loop
vertex 223.578381817048 85.7426829921142 7.00000000000002
vertex 237.578381817048 85.7426829921142 1.00000000000001
vertex 223.578381817048 85.7426829921142 1.00000000000001
endloop
endfacet
facet normal -0.0 1.0 -0.0
outer loop
vertex 237.578381817048 85.7426829921142 1.00000000000001
vertex 223.578381817048 85.7426829921142 7.00000000000002
vertex 237.578381817048 85.7426829921142 7.00000000000002
endloop
endfacet
facet normal -6.60033297858109e-015 0.0 -1.0
outer loop
vertex 240.828381817048 48.9926829921143 3.50000000000001
vertex 239.078381817048 40.4926829921143 3.50000000000002
vertex 239.078381817048 48.9926829921143 3.50000000000002
endloop
endfacet
facet normal -6.60033297858109e-015 0.0 -1.0
outer loop
vertex 239.078381817048 40.4926829921143 3.50000000000002
vertex 240.828381817048 48.9926829921143 3.50000000000001
vertex 240.828381817048 40.4926829921143 3.50000000000001
endloop
endfacet
facet normal -1.0 0.0 0.0
outer loop
vertex 239.078381817048 40.4926829921143 7.00000000000003
vertex 239.078381817048 50.9926829921143 6.00000000000003
vertex 239.078381817048 40.4926829921143 3.50000000000002
endloop
endfacet
facet normal -1.0 0.0 0.0
outer loop
vertex 239.078381817048 50.9926829921143 6.00000000000003
vertex 239.078381817048 40.4926829921143 7.00000000000003
vertex 239.078381817048 64.9926829921142 7.00000000000003
endloop
endfacet
facet normal -1.0 0.0 0.0
outer loop
vertex 239.078381817048 40.4926829921143 3.50000000000002
vertex 239.078381817048 50.9926829921143 6.00000000000003
vertex 239.078381817048 48.9926829921143 3.50000000000002
endloop
endfacet
facet normal -1.0 0.0 0.0
outer loop
vertex 239.078381817048 48.9926829921143 3.50000000000002
vertex 239.078381817048 50.9926829921143 6.00000000000003
vertex 239.078381817048 48.9926829921143 1.00000000000002
endloop
endfacet
facet normal -1.0 0.0 0.0
outer loop
vertex 239.078381817048 50.9926829921143 6.00000000000003
vertex 239.078381817048 64.9926829921142 7.00000000000003
vertex 239.078381817048 54.4926829921143 6.00000000000003
endloop
endfacet
facet normal -1.0 0.0 0.0
outer loop
vertex 239.078381817048 54.4926829921143 6.00000000000003
vertex 239.078381817048 64.9926829921142 7.00000000000003
vertex 239.078381817048 54.4926829921143 4.00000000000003
endloop
endfacet
facet normal -1.0 0.0 0.0
outer loop
vertex 239.078381817048 54.4926829921143 4.00000000000003
vertex 239.078381817048 64.9926829921142 7.00000000000003
vertex 239.078381817048 56.4926829921143 3.50000000000002
endloop
endfacet
facet normal -1.0 0.0 0.0
outer loop
vertex 239.078381817048 56.4926829921143 3.50000000000002
vertex 239.078381817048 64.9926829921142 7.00000000000003
vertex 239.078381817048 64.9926829921142 3.50000000000002
endloop
endfacet
facet normal -1.0 0.0 0.0
outer loop
vertex 239.078381817048 48.9926829921143 1.00000000000002
vertex 239.078381817048 50.9926829921143 4.00000000000003
vertex 239.078381817048 56.4926829921143 1.00000000000002
endloop
endfacet
facet normal -1.0 0.0 0.0
outer loop
vertex 239.078381817048 50.9926829921143 4.00000000000003
vertex 239.078381817048 48.9926829921143 1.00000000000002
vertex 239.078381817048 50.9926829921143 6.00000000000003
endloop
endfacet
facet normal -1.0 0.0 0.0
outer loop
vertex 239.078381817048 56.4926829921143 1.00000000000002
vertex 239.078381817048 50.9926829921143 4.00000000000003
vertex 239.078381817048 54.4926829921143 4.00000000000003
endloop
endfacet
facet normal -1.0 0.0 0.0
outer loop
vertex 239.078381817048 56.4926829921143 1.00000000000002
vertex 239.078381817048 54.4926829921143 4.00000000000003
vertex 239.078381817048 56.4926829921143 3.50000000000002
endloop
endfacet
facet normal 0.0 -1.0 0.0
outer loop
vertex 239.078381817048 64.9926829921142 1.00000000000002
vertex 235.828381817049 64.9926829921142 7.00000000000002
vertex 235.828381817049 64.9926829921142 1.00000000000001
endloop
endfacet
facet normal 0.0 -1.0 0.0
outer loop
vertex 235.828381817049 64.9926829921142 7.00000000000002
vertex 239.078381817048 64.9926829921142 1.00000000000002
vertex 239.078381817048 64.9926829921142 3.50000000000002
endloop
endfacet
facet normal 0.0 -1.0 0.0
outer loop
vertex 235.828381817049 64.9926829921142 7.00000000000002
vertex 239.078381817048 64.9926829921142 3.50000000000002
vertex 239.078381817048 64.9926829921142 7.00000000000003
endloop
endfacet
facet normal 0.707106781186548 0.707106781186548 -0.0
outer loop
vertex 197.578381817049 85.7426829921142 1.00000000000001
vertex 199.578381817049 83.7426829921142 7.00000000000002
vertex 199.578381817049 83.7426829921142 1.00000000000001
endloop
endfacet
facet normal 0.707106781186548 0.707106781186548 -0.0
outer loop
vertex 199.578381817049 83.7426829921142 7.00000000000002
vertex 197.578381817049 85.7426829921142 1.00000000000001
vertex 197.578381817049 85.7426829921142 7.00000000000002
endloop
endfacet
facet normal -0.707106781186556 0.707106781186539 3.27567120627381e-031
outer loop
vertex 223.578381817048 85.7426829921142 7.00000000000002
vertex 221.578381817048 83.7426829921142 1.00000000000001
vertex 221.578381817048 83.7426829921142 7.00000000000002
endloop
endfacet
facet normal -0.707106781186556 0.707106781186539 3.27567120627381e-031
outer loop
vertex 221.578381817048 83.7426829921142 1.00000000000001
vertex 223.578381817048 85.7426829921142 7.00000000000002
vertex 223.578381817048 85.7426829921142 1.00000000000001
endloop
endfacet
facet normal -0.0 1.0 -0.0
outer loop
vertex 235.828381817049 40.4926829921143 7.00000000000002
vertex 239.078381817048 40.4926829921143 1.00000000000002
vertex 235.828381817049 40.4926829921143 1.00000000000001
endloop
endfacet
facet normal -0.0 1.0 -0.0
outer loop
vertex 239.078381817048 40.4926829921143 1.00000000000002
vertex 235.828381817049 40.4926829921143 7.00000000000002
vertex 239.078381817048 40.4926829921143 3.50000000000002
endloop
endfacet
facet normal -0.0 1.0 -0.0
outer loop
vertex 239.078381817048 40.4926829921143 3.50000000000002
vertex 235.828381817049 40.4926829921143 7.00000000000002
vertex 239.078381817048 40.4926829921143 7.00000000000003
endloop
endfacet
facet normal -1.0 0.0 0.0
outer loop
vertex 183.578381817048 33.7426829921142 7.00000000000002
vertex 183.578381817048 13.7426829921142 1.00000000000001
vertex 183.578381817048 13.7426829921142 7.00000000000002
endloop
endfacet
facet normal -1.0 0.0 0.0
outer loop
vertex 183.578381817048 13.7426829921142 1.00000000000001
vertex 183.578381817048 33.7426829921142 7.00000000000002
vertex 183.578381817048 33.7426829921142 1.00000000000001
endloop
endfacet
facet normal -0.0 1.0 -0.0
outer loop
vertex 239.078381817048 40.4926829921143 1.00000000000002
vertex 240.828381817048 40.4926829921143 3.50000000000001
vertex 240.828381817048 40.4926829921143 1.00000000000001
endloop
endfacet
facet normal -0.0 1.0 -0.0
outer loop
vertex 240.828381817048 40.4926829921143 3.50000000000001
vertex 239.078381817048 40.4926829921143 1.00000000000002
vertex 239.078381817048 40.4926829921143 3.50000000000002
endloop
endfacet
facet normal 0.0 -1.0 0.0
outer loop
vertex 197.785488598235 84.2426829921142 7.00000000000002
vertex 185.078381817048 84.2426829921142 3.00000000000002
vertex 197.785488598235 84.2426829921142 3.00000000000002
endloop
endfacet
facet normal 0.0 -1.0 0.0
outer loop
vertex 185.078381817048 84.2426829921142 3.00000000000002
vertex 197.785488598235 84.2426829921142 7.00000000000002
vertex 185.078381817048 84.2426829921142 7.00000000000002
endloop
endfacet
facet normal -0.0 1.0 -0.0
outer loop
vertex 181.828381817048 64.7426829921142 1.00000000000001
vertex 184.578381817048 64.7426829921142 3.00000000000002
vertex 187.078381817048 64.7426829921142 1.00000000000001
endloop
endfacet
facet normal -0.0 1.0 -0.0
outer loop
vertex 184.578381817048 64.7426829921142 3.00000000000002
vertex 181.828381817048 64.7426829921142 1.00000000000001
vertex 181.828381817048 64.7426829921142 7.00000000000002
endloop
endfacet
facet normal -0.0 1.0 -0.0
outer loop
vertex 184.578381817048 64.7426829921142 3.00000000000002
vertex 181.828381817048 64.7426829921142 7.00000000000002
vertex 184.578381817048 64.7426829921142 7.00000000000002
endloop
endfacet
facet normal -0.0 1.0 -0.0
outer loop
vertex 187.078381817048 64.7426829921142 3.00000000000002
vertex 187.078381817048 64.7426829921142 1.00000000000001
vertex 184.578381817048 64.7426829921142 3.00000000000002
endloop
endfacet
facet normal 0.0 -1.0 0.0
outer loop
vertex 221.371275035862 82.2426829921142 7.00000000000002
vertex 199.785488598235 82.2426829921142 3.00000000000002
vertex 221.371275035862 82.2426829921142 3.00000000000002
endloop
endfacet
facet normal 0.0 -1.0 0.0
outer loop
vertex 199.785488598235 82.2426829921142 3.00000000000002
vertex 221.371275035862 82.2426829921142 7.00000000000002
vertex 199.785488598235 82.2426829921142 7.00000000000002
endloop
endfacet
facet normal -1.0 0.0 0.0
outer loop
vertex 234.078381817049 69.5355762109277 7.00000000000002
vertex 234.078381817049 35.9497897733008 3.00000000000002
vertex 234.078381817049 35.9497897733008 7.00000000000002
endloop
endfacet
facet normal -1.0 0.0 0.0
outer loop
vertex 234.078381817049 35.9497897733008 3.00000000000002
vertex 234.078381817049 69.5355762109277 7.00000000000002
vertex 234.078381817049 69.5355762109277 3.00000000000002
endloop
endfacet
facet normal 0.0 -1.0 0.0
outer loop
vertex 237.578381817048 13.7426829921142 1.00000000000001
vertex 236.078381817049 13.7426829921142 3.00000000000002
vertex 183.578381817048 13.7426829921142 1.00000000000001
endloop
endfacet
facet normal 0.0 -1.0 0.0
outer loop
vertex 236.078381817049 13.7426829921142 3.00000000000002
vertex 237.578381817048 13.7426829921142 1.00000000000001
vertex 237.578381817048 13.7426829921142 7.00000000000002
endloop
endfacet
facet normal 0.0 -1.0 0.0
outer loop
vertex 236.078381817049 13.7426829921142 3.00000000000002
vertex 237.578381817048 13.7426829921142 7.00000000000002
vertex 236.078381817049 13.7426829921142 7.00000000000002
endloop
endfacet
facet normal 0.0 -1.0 0.0
outer loop
vertex 183.578381817048 13.7426829921142 1.00000000000001
vertex 185.078381817048 13.7426829921142 3.00000000000002
vertex 183.578381817048 13.7426829921142 7.00000000000002
endloop
endfacet
facet normal 0.0 -1.0 0.0
outer loop
vertex 185.078381817048 13.7426829921142 3.00000000000002
vertex 183.578381817048 13.7426829921142 1.00000000000001
vertex 236.078381817049 13.7426829921142 3.00000000000002
endloop
endfacet
facet normal 0.0 -1.0 0.0
outer loop
vertex 183.578381817048 13.7426829921142 7.00000000000002
vertex 185.078381817048 13.7426829921142 3.00000000000002
vertex 185.078381817048 13.7426829921142 7.00000000000002
endloop
endfacet
facet normal 0.0 -1.0 0.0
outer loop
vertex 185.078381817048 75.7426829921142 6.00000000000002
vertex 185.078381817048 75.7426829921142 4.00000000000002
vertex 186.078381817048 75.7426829921142 5.00000000000002
endloop
endfacet
facet normal 0.707106781186547 0.0 -0.707106781186549
outer loop
vertex 186.078381817048 79.7426829921142 5.00000000000002
vertex 185.078381817048 75.7426829921142 4.00000000000002
vertex 185.078381817048 79.7426829921142 4.00000000000002
endloop
endfacet
facet normal 0.707106781186547 0.0 -0.707106781186549
outer loop
vertex 185.078381817048 75.7426829921142 4.00000000000002
vertex 186.078381817048 79.7426829921142 5.00000000000002
vertex 186.078381817048 75.7426829921142 5.00000000000002
endloop
endfacet
facet normal -0.0 1.0 -0.0
outer loop
vertex 183.578381817048 85.7426829921142 7.00000000000002
vertex 197.578381817049 85.7426829921142 1.00000000000001
vertex 183.578381817048 85.7426829921142 1.00000000000001
endloop
endfacet
facet normal -0.0 1.0 -0.0
outer loop
vertex 197.578381817049 85.7426829921142 1.00000000000001
vertex 183.578381817048 85.7426829921142 7.00000000000002
vertex 197.578381817049 85.7426829921142 7.00000000000002
endloop
endfacet
facet normal 5.64794234894433e-031 7.2191141953226e-017 1.0
outer loop
vertex 185.078381817048 13.7426829921142 7.00000000000002
vertex 183.578381817048 33.7426829921142 7.00000000000002
vertex 183.578381817048 13.7426829921142 7.00000000000002
endloop
endfacet
facet normal 5.64794234894433e-031 7.2191141953226e-017 1.0
outer loop
vertex 183.578381817048 33.7426829921142 7.00000000000002
vertex 185.078381817048 13.7426829921142 7.00000000000002
vertex 185.078381817048 33.7426829921142 7.00000000000002
endloop
endfacet
facet normal -0.707106781186548 -0.707106781186548 0.0
outer loop
vertex 234.078381817049 35.9497897733008 7.00000000000002
vertex 236.078381817049 33.9497897733008 3.00000000000002
vertex 236.078381817049 33.9497897733008 7.00000000000002
endloop
endfacet
facet normal -0.707106781186548 -0.707106781186548 0.0
outer loop
vertex 236.078381817049 33.9497897733008 3.00000000000002
vertex 234.078381817049 35.9497897733008 7.00000000000002
vertex 234.078381817049 35.9497897733008 3.00000000000002
endloop
endfacet
facet normal -0.0 1.0 -0.0
outer loop
vertex 236.078381817049 79.7426829921142 6.00000000000002
vertex 236.078381817049 79.7426829921142 4.00000000000002
vertex 235.078381817049 79.7426829921142 5.00000000000002
endloop
endfacet
facet normal -1.0 0.0 0.0
outer loop
vertex 187.078381817048 56.7626758692009 3.00000000000002
vertex 187.078381817048 48.7426829921143 1.00000000000001
vertex 187.078381817048 48.7426829921143 3.00000000000002
endloop
endfacet
facet normal -1.0 0.0 0.0
outer loop
vertex 187.078381817048 48.7426829921143 1.00000000000001
vertex 187.078381817048 56.7626758692009 3.00000000000002
vertex 187.078381817048 56.7626758692009 1.00000000000001
endloop
endfacet
facet normal 0.707106781186556 -0.707106781186539 -2.21107806423483e-030
outer loop
vertex 223.371275035862 84.2426829921142 3.00000000000002
vertex 221.371275035862 82.2426829921142 7.00000000000002
vertex 221.371275035862 82.2426829921142 3.00000000000002
endloop
endfacet
facet normal 0.707106781186556 -0.707106781186539 -2.21107806423483e-030
outer loop
vertex 221.371275035862 82.2426829921142 7.00000000000002
vertex 223.371275035862 84.2426829921142 3.00000000000002
vertex 223.371275035862 84.2426829921142 7.00000000000002
endloop
endfacet
facet normal -0.0 1.0 -0.0
outer loop
vertex 239.078381817048 56.4926829921143 1.00000000000002
vertex 240.828381817048 56.4926829921143 3.50000000000001
vertex 240.828381817048 56.4926829921143 1.00000000000001
endloop
endfacet
facet normal -0.0 1.0 -0.0
outer loop
vertex 240.828381817048 56.4926829921143 3.50000000000001
vertex 239.078381817048 56.4926829921143 1.00000000000002
vertex 239.078381817048 56.4926829921143 3.50000000000002
endloop
endfacet
facet normal -0.0 1.0 -0.0
outer loop
vertex 185.078381817048 25.8466829921142 6.00000000000002
vertex 186.078381817048 25.8466829921142 5.00000000000002
vertex 185.078381817048 25.8466829921142 4.00000000000002
endloop
endfacet
facet normal 0.0 -1.0 0.0
outer loop
vertex 187.078381817048 40.7426829921143 3.00000000000002
vertex 181.828381817048 40.7426829921143 1.00000000000001
vertex 187.078381817048 40.7426829921143 1.00000000000001
endloop
endfacet
facet normal 0.0 -1.0 0.0
outer loop
vertex 181.828381817048 40.7426829921143 1.00000000000001
vertex 187.078381817048 40.7426829921143 3.00000000000002
vertex 184.578381817048 40.7426829921143 3.00000000000002
endloop
endfacet
facet normal 0.0 -1.0 0.0
outer loop
vertex 181.828381817048 40.7426829921143 1.00000000000001
vertex 184.578381817048 40.7426829921143 3.00000000000002
vertex 181.828381817048 40.7426829921143 7.00000000000002
endloop
endfacet
facet normal 0.0 -1.0 0.0
outer loop
vertex 181.828381817048 40.7426829921143 7.00000000000002
vertex 184.578381817048 40.7426829921143 3.00000000000002
vertex 184.578381817048 40.7426829921143 7.00000000000002
endloop
endfacet
facet normal -1.0 0.0 0.0
outer loop
vertex 236.078381817049 71.5355762109277 7.00000000000002
vertex 236.078381817049 75.7426829921142 6.00000000000002
vertex 236.078381817049 71.5355762109277 3.00000000000002
endloop
endfacet
facet normal -1.0 0.0 0.0
outer loop
vertex 236.078381817049 75.7426829921142 6.00000000000002
vertex 236.078381817049 71.5355762109277 7.00000000000002
vertex 236.078381817049 84.2426829921142 7.00000000000002
endloop
endfacet
facet normal -1.0 0.0 0.0
outer loop
vertex 236.078381817049 75.7426829921142 6.00000000000002
vertex 236.078381817049 84.2426829921142 7.00000000000002
vertex 236.078381817049 79.7426829921142 6.00000000000002
endloop
endfacet
facet normal -1.0 0.0 0.0
outer loop
vertex 236.078381817049 79.7426829921142 6.00000000000002
vertex 236.078381817049 84.2426829921142 7.00000000000002
vertex 236.078381817049 79.7426829921142 4.00000000000002
endloop
endfacet
facet normal -1.0 0.0 0.0
outer loop
vertex 236.078381817049 71.5355762109277 3.00000000000002
vertex 236.078381817049 75.7426829921142 4.00000000000002
vertex 236.078381817049 84.2426829921142 3.00000000000002
endloop
endfacet
facet normal -1.0 0.0 0.0
outer loop
vertex 236.078381817049 75.7426829921142 4.00000000000002
vertex 236.078381817049 71.5355762109277 3.00000000000002
vertex 236.078381817049 75.7426829921142 6.00000000000002
endloop
endfacet
facet normal -1.0 0.0 0.0
outer loop
vertex 236.078381817049 84.2426829921142 3.00000000000002
vertex 236.078381817049 75.7426829921142 4.00000000000002
vertex 236.078381817049 79.7426829921142 4.00000000000002
endloop
endfacet
facet normal -1.0 0.0 0.0
outer loop
vertex 236.078381817049 84.2426829921142 3.00000000000002
vertex 236.078381817049 79.7426829921142 4.00000000000002
vertex 236.078381817049 84.2426829921142 7.00000000000002
endloop
endfacet
facet normal -0.707106781186564 -0.707106781186531 0.0
outer loop
vertex 197.785488598235 84.2426829921142 7.00000000000002
vertex 199.785488598235 82.2426829921142 3.00000000000002
vertex 199.785488598235 82.2426829921142 7.00000000000002
endloop
endfacet
facet normal -0.707106781186564 -0.707106781186531 0.0
outer loop
vertex 199.785488598235 82.2426829921142 3.00000000000002
vertex 197.785488598235 84.2426829921142 7.00000000000002
vertex 197.785488598235 84.2426829921142 3.00000000000002
endloop
endfacet
facet normal 1.0 -0.0 -0.0
outer loop
vertex 185.078381817048 13.7426829921142 3.00000000000002
vertex 185.078381817048 21.8466829921142 4.00000000000002
vertex 185.078381817048 13.7426829921142 7.00000000000002
endloop
endfacet
facet normal 1.0 -0.0 -0.0
outer loop
vertex 185.078381817048 21.8466829921142 4.00000000000002
vertex 185.078381817048 13.7426829921142 3.00000000000002
vertex 185.078381817048 33.7426829921142 3.00000000000002
endloop
endfacet
facet normal 1.0 -0.0 -0.0
outer loop
vertex 185.078381817048 21.8466829921142 4.00000000000002
vertex 185.078381817048 33.7426829921142 3.00000000000002
vertex 185.078381817048 25.8466829921142 4.00000000000002
endloop
endfacet
facet normal 1.0 -0.0 -0.0
outer loop
vertex 185.078381817048 25.8466829921142 4.00000000000002
vertex 185.078381817048 33.7426829921142 3.00000000000002
vertex 185.078381817048 25.8466829921142 6.00000000000002
endloop
endfacet
facet normal 1.0 -0.0 -0.0
outer loop
vertex 185.078381817048 13.7426829921142 7.00000000000002
vertex 185.078381817048 21.8466829921142 6.00000000000002
vertex 185.078381817048 33.7426829921142 7.00000000000002
endloop
endfacet
facet normal 1.0 -0.0 -0.0
outer loop
vertex 185.078381817048 21.8466829921142 6.00000000000002
vertex 185.078381817048 13.7426829921142 7.00000000000002
vertex 185.078381817048 21.8466829921142 4.00000000000002
endloop
endfacet
facet normal 1.0 -0.0 -0.0
outer loop
vertex 185.078381817048 33.7426829921142 7.00000000000002
vertex 185.078381817048 21.8466829921142 6.00000000000002
vertex 185.078381817048 25.8466829921142 6.00000000000002
endloop
endfacet
facet normal 1.0 -0.0 -0.0
outer loop
vertex 185.078381817048 33.7426829921142 7.00000000000002
vertex 185.078381817048 25.8466829921142 6.00000000000002
vertex 185.078381817048 33.7426829921142 3.00000000000002
endloop
endfacet
facet normal -0.707106781186579 0.0 -0.707106781186516
outer loop
vertex 235.078381817049 79.7426829921142 5.00000000000002
vertex 236.078381817049 75.7426829921142 4.00000000000002
vertex 235.078381817049 75.7426829921142 5.00000000000002
endloop
endfacet
facet normal -0.707106781186579 0.0 -0.707106781186516
outer loop
vertex 236.078381817049 75.7426829921142 4.00000000000002
vertex 235.078381817049 79.7426829921142 5.00000000000002
vertex 236.078381817049 79.7426829921142 4.00000000000002
endloop
endfacet
facet normal -0.0 1.0 -0.0
outer loop
vertex 236.078381817049 25.8457897733008 6.00000000000002
vertex 236.078381817049 25.8457897733008 4.00000000000002
vertex 235.078381817049 25.8457897733008 5.00000000000002
endloop
endfacet
facet normal 0.707106781186546 -6.48294944412456e-018 0.707106781186549
outer loop
vertex 186.078381817048 21.8466829921142 5.00000000000002
vertex 185.078381817048 25.8466829921142 6.00000000000002
vertex 185.078381817048 21.8466829921142 6.00000000000002
endloop
endfacet
facet normal 0.707106781186546 -6.48294944412456e-018 0.707106781186549
outer loop
vertex 185.078381817048 25.8466829921142 6.00000000000002
vertex 186.078381817048 21.8466829921142 5.00000000000002
vertex 186.078381817048 25.8466829921142 5.00000000000002
endloop
endfacet
facet normal -0.707106781186579 0.0 -0.707106781186516
outer loop
vertex 235.078381817049 25.8457897733008 5.00000000000002
vertex 236.078381817049 21.8457897733007 4.00000000000002
vertex 235.078381817049 21.8457897733007 5.00000000000002
endloop
endfacet
facet normal -0.707106781186579 0.0 -0.707106781186516
outer loop
vertex 236.078381817049 21.8457897733007 4.00000000000002
vertex 235.078381817049 25.8457897733008 5.00000000000002
vertex 236.078381817049 25.8457897733008 4.00000000000002
endloop
endfacet
facet normal 0.707106781186547 0.0 -0.707106781186549
outer loop
vertex 186.078381817048 25.8466829921142 5.00000000000002
vertex 185.078381817048 21.8466829921142 4.00000000000002
vertex 185.078381817048 25.8466829921142 4.00000000000002
endloop
endfacet
facet normal 0.707106781186547 0.0 -0.707106781186549
outer loop
vertex 185.078381817048 21.8466829921142 4.00000000000002
vertex 186.078381817048 25.8466829921142 5.00000000000002
vertex 186.078381817048 21.8466829921142 5.00000000000002
endloop
endfacet
facet normal 0.0 -1.0 0.0
outer loop
vertex 240.828381817048 64.9926829921142 3.50000000000001
vertex 239.078381817048 64.9926829921142 1.00000000000002
vertex 240.828381817048 64.9926829921142 1.00000000000001
endloop
endfacet
facet normal 0.0 -1.0 0.0
outer loop
vertex 239.078381817048 64.9926829921142 1.00000000000002
vertex 240.828381817048 64.9926829921142 3.50000000000001
vertex 239.078381817048 64.9926829921142 3.50000000000002
endloop
endfacet
facet normal 2.62175581630176e-017 -8.63324140392695e-018 -1.0
outer loop
vertex 197.578381817049 85.7426829921142 1.00000000000001
vertex 183.578381817048 71.7426829921142 1.00000000000001
vertex 183.578381817048 85.7426829921142 1.00000000000001
endloop
endfacet
facet normal 2.62175581630176e-017 -8.63324140392695e-018 -1.0
outer loop
vertex 183.578381817048 71.7426829921142 1.00000000000001
vertex 197.578381817049 85.7426829921142 1.00000000000001
vertex 185.078381817048 71.7426829921143 1.00000000000001
endloop
endfacet
facet normal 2.62175581630176e-017 -8.63324140392695e-018 -1.0
outer loop
vertex 185.078381817048 71.7426829921143 1.00000000000001
vertex 197.578381817049 85.7426829921142 1.00000000000001
vertex 187.078381817048 69.7426829921143 1.00000000000001
endloop
endfacet
facet normal 2.62175581630176e-017 -8.63324140392695e-018 -1.0
outer loop
vertex 187.078381817048 69.7426829921143 1.00000000000001
vertex 197.578381817049 85.7426829921142 1.00000000000001
vertex 187.078381817048 64.7426829921142 1.00000000000001
endloop
endfacet
facet normal 2.62175581630176e-017 -8.63324140392695e-018 -1.0
outer loop
vertex 187.078381817048 64.7426829921142 1.00000000000001
vertex 197.578381817049 85.7426829921142 1.00000000000001
vertex 187.078381817048 56.7626758692009 1.00000000000001
endloop
endfacet
facet normal 2.62175581630176e-017 -8.63324140392695e-018 -1.0
outer loop
vertex 187.078381817048 56.7626758692009 1.00000000000001
vertex 197.578381817049 85.7426829921142 1.00000000000001
vertex 187.078381817048 48.7426829921143 1.00000000000001
endloop
endfacet
facet normal 2.62175581630176e-017 -8.63324140392695e-018 -1.0
outer loop
vertex 187.078381817048 48.7426829921143 1.00000000000001
vertex 197.578381817049 85.7426829921142 1.00000000000001
vertex 187.078381817048 40.7426829921143 1.00000000000001
endloop
endfacet
facet normal 2.62175581630176e-017 -8.63324140392695e-018 -1.0
outer loop
vertex 187.078381817048 40.7426829921143 1.00000000000001
vertex 197.578381817049 85.7426829921142 1.00000000000001
vertex 187.078381817048 35.7426829921142 1.00000000000001
endloop
endfacet
facet normal 2.62175581630176e-017 -8.63324140392695e-018 -1.0
outer loop
vertex 237.578381817048 85.7426829921142 1.00000000000001
vertex 235.828381817049 64.9926829921142 1.00000000000001
vertex 223.578381817048 85.7426829921142 1.00000000000001
endloop
endfacet
facet normal 2.62175581630176e-017 -8.63324140392695e-018 -1.0
outer loop
vertex 235.828381817049 64.9926829921142 1.00000000000001
vertex 237.578381817048 85.7426829921142 1.00000000000001
vertex 237.578381817048 71.2426829921142 1.00000000000001
endloop
endfacet
facet normal 2.62175581630176e-017 -8.63324140392695e-018 -1.0
outer loop
vertex 235.828381817049 64.9926829921142 1.00000000000001
vertex 237.578381817048 71.2426829921142 1.00000000000001
vertex 239.078381817048 64.9926829921142 1.00000000000002
endloop
endfacet
facet normal 2.62175581630176e-017 -8.63324140392695e-018 -1.0
outer loop
vertex 239.078381817048 64.9926829921142 1.00000000000002
vertex 237.578381817048 71.2426829921142 1.00000000000001
vertex 239.078381817048 71.2426829921142 1.00000000000001
endloop
endfacet
facet normal 2.62175581630176e-017 -8.63324140392695e-018 -1.0
outer loop
vertex 239.078381817048 64.9926829921142 1.00000000000002
vertex 239.078381817048 71.2426829921142 1.00000000000001
vertex 240.828381817048 69.4926829921143 1.00000000000001
endloop
endfacet
facet normal 2.62175581630176e-017 -8.63324140392695e-018 -1.0
outer loop
vertex 239.078381817048 64.9926829921142 1.00000000000002
vertex 240.828381817048 69.4926829921143 1.00000000000001
vertex 240.828381817048 64.9926829921142 1.00000000000001
endloop
endfacet
facet normal 2.62175581630176e-017 -8.63324140392695e-018 -1.0
outer loop
vertex 239.078381817048 40.4926829921143 1.00000000000002
vertex 237.578381817048 34.2426829921143 1.00000000000001
vertex 235.828381817049 40.4926829921143 1.00000000000001
endloop
endfacet
facet normal 2.62175581630176e-017 -8.63324140392695e-018 -1.0
outer loop
vertex 237.578381817048 34.2426829921143 1.00000000000001
vertex 239.078381817048 40.4926829921143 1.00000000000002
vertex 239.078381817048 34.2426829921143 1.00000000000001
endloop
endfacet
facet normal 2.62175581630176e-017 -8.63324140392695e-018 -1.0
outer loop
vertex 239.078381817048 34.2426829921143 1.00000000000001
vertex 239.078381817048 40.4926829921143 1.00000000000002
vertex 240.828381817048 40.4926829921143 1.00000000000001
endloop
endfacet
facet normal 2.62175581630176e-017 -8.63324140392695e-018 -1.0
outer loop
vertex 239.078381817048 34.2426829921143 1.00000000000001
vertex 240.828381817048 40.4926829921143 1.00000000000001
vertex 240.828381817048 35.9926829921142 1.00000000000001
endloop
endfacet
facet normal 2.62175581630176e-017 -8.63324140392695e-018 -1.0
outer loop
vertex 185.078381817048 33.7426829921142 1.00000000000001
vertex 183.578381817048 13.7426829921142 1.00000000000001
vertex 183.578381817048 33.7426829921142 1.00000000000001
endloop
endfacet
facet normal 2.62175581630176e-017 -8.63324140392695e-018 -1.0
outer loop
vertex 183.578381817048 13.7426829921142 1.00000000000001
vertex 185.078381817048 33.7426829921142 1.00000000000001
vertex 237.578381817048 13.7426829921142 1.00000000000001
endloop
endfacet
facet normal 2.62175581630176e-017 -8.63324140392695e-018 -1.0
outer loop
vertex 237.578381817048 13.7426829921142 1.00000000000001
vertex 185.078381817048 33.7426829921142 1.00000000000001
vertex 187.078381817048 35.7426829921142 1.00000000000001
endloop
endfacet
facet normal 2.62175581630176e-017 -8.63324140392695e-018 -1.0
outer loop
vertex 237.578381817048 13.7426829921142 1.00000000000001
vertex 187.078381817048 35.7426829921142 1.00000000000001
vertex 197.578381817049 85.7426829921142 1.00000000000001
endloop
endfacet
facet normal 2.62175581630176e-017 -8.63324140392695e-018 -1.0
outer loop
vertex 237.578381817048 13.7426829921142 1.00000000000001
vertex 197.578381817049 85.7426829921142 1.00000000000001
vertex 199.578381817049 83.7426829921142 1.00000000000001
endloop
endfacet
facet normal 2.62175581630176e-017 -8.63324140392695e-018 -1.0
outer loop
vertex 237.578381817048 13.7426829921142 1.00000000000001
vertex 199.578381817049 83.7426829921142 1.00000000000001
vertex 221.578381817048 83.7426829921142 1.00000000000001
endloop
endfacet
facet normal 2.62175581630176e-017 -8.63324140392695e-018 -1.0
outer loop
vertex 237.578381817048 13.7426829921142 1.00000000000001
vertex 221.578381817048 83.7426829921142 1.00000000000001
vertex 223.578381817048 85.7426829921142 1.00000000000001
endloop
endfacet
facet normal 2.62175581630176e-017 -8.63324140392695e-018 -1.0
outer loop
vertex 237.578381817048 13.7426829921142 1.00000000000001
vertex 223.578381817048 85.7426829921142 1.00000000000001
vertex 235.828381817049 40.4926829921143 1.00000000000001
endloop
endfacet
facet normal 2.62175581630176e-017 -8.63324140392695e-018 -1.0
outer loop
vertex 235.828381817049 40.4926829921143 1.00000000000001
vertex 223.578381817048 85.7426829921142 1.00000000000001
vertex 235.828381817049 64.9926829921142 1.00000000000001
endloop
endfacet
facet normal 2.62175581630176e-017 -8.63324140392695e-018 -1.0
outer loop
vertex 237.578381817048 13.7426829921142 1.00000000000001
vertex 235.828381817049 40.4926829921143 1.00000000000001
vertex 237.578381817048 34.2426829921143 1.00000000000001
endloop
endfacet
facet normal 2.62175581630176e-017 -8.63324140392695e-018 -1.0
outer loop
vertex 181.828381817048 40.7426829921143 1.00000000000001
vertex 184.578381817048 48.7426829921143 1.00000000000001
vertex 187.078381817048 40.7426829921143 1.00000000000001
endloop
endfacet
facet normal 2.62175581630176e-017 -8.63324140392695e-018 -1.0
outer loop
vertex 184.578381817048 48.7426829921143 1.00000000000001
vertex 181.828381817048 40.7426829921143 1.00000000000001
vertex 184.578381817048 56.7626758692009 1.00000000000001
endloop
endfacet
facet normal 2.62175581630176e-017 -8.63324140392695e-018 -1.0
outer loop
vertex 187.078381817048 40.7426829921143 1.00000000000001
vertex 184.578381817048 48.7426829921143 1.00000000000001
vertex 187.078381817048 48.7426829921143 1.00000000000001
endloop
endfacet
facet normal 2.62175581630176e-017 -8.63324140392695e-018 -1.0
outer loop
vertex 181.828381817048 64.7426829921142 1.00000000000001
vertex 184.578381817048 56.7626758692009 1.00000000000001
vertex 181.828381817048 40.7426829921143 1.00000000000001
endloop
endfacet
facet normal 2.62175581630176e-017 -8.63324140392695e-018 -1.0
outer loop
vertex 184.578381817048 56.7626758692009 1.00000000000001
vertex 181.828381817048 64.7426829921142 1.00000000000001
vertex 187.078381817048 64.7426829921142 1.00000000000001
endloop
endfacet
facet normal 2.62175581630176e-017 -8.63324140392695e-018 -1.0
outer loop
vertex 184.578381817048 56.7626758692009 1.00000000000001
vertex 187.078381817048 64.7426829921142 1.00000000000001
vertex 187.078381817048 56.7626758692009 1.00000000000001
endloop
endfacet
facet normal -0.707106781186543 0.707106781186552 -1.29658988882476e-017
outer loop
vertex 234.078381817049 69.5355762109277 7.00000000000002
vertex 236.078381817049 71.5355762109277 3.00000000000002
vertex 234.078381817049 69.5355762109277 3.00000000000002
endloop
endfacet
facet normal -0.707106781186543 0.707106781186552 -1.29658988882476e-017
outer loop
vertex 236.078381817049 71.5355762109277 3.00000000000002
vertex 234.078381817049 69.5355762109277 7.00000000000002
vertex 236.078381817049 71.5355762109277 7.00000000000002
endloop
endfacet
facet normal 0.707106781186546 -0.0 0.707106781186549
outer loop
vertex 186.078381817048 75.7426829921142 5.00000000000002
vertex 185.078381817048 79.7426829921142 6.00000000000002
vertex 185.078381817048 75.7426829921142 6.00000000000002
endloop
endfacet
facet normal 0.707106781186546 -0.0 0.707106781186549
outer loop
vertex 185.078381817048 79.7426829921142 6.00000000000002
vertex 186.078381817048 75.7426829921142 5.00000000000002
vertex 186.078381817048 79.7426829921142 5.00000000000002
endloop
endfacet
facet normal 0.0 -1.0 0.0
outer loop
vertex 236.078381817049 84.2426829921142 7.00000000000002
vertex 223.371275035862 84.2426829921142 3.00000000000002
vertex 236.078381817049 84.2426829921142 3.00000000000002
endloop
endfacet
facet normal 0.0 -1.0 0.0
outer loop
vertex 223.371275035862 84.2426829921142 3.00000000000002
vertex 236.078381817049 84.2426829921142 7.00000000000002
vertex 223.371275035862 84.2426829921142 7.00000000000002
endloop
endfacet
facet normal 1.0 -0.0 -0.0
outer loop
vertex 237.578381817048 85.7426829921142 1.00000000000001
vertex 237.578381817048 71.2426829921142 7.00000000000002
vertex 237.578381817048 71.2426829921142 1.00000000000001
endloop
endfacet
facet normal 1.0 -0.0 -0.0
outer loop
vertex 237.578381817048 71.2426829921142 7.00000000000002
vertex 237.578381817048 85.7426829921142 1.00000000000001
vertex 237.578381817048 85.7426829921142 7.00000000000002
endloop
endfacet
facet normal -5.42202465498599e-031 -1.0 1.15505827125161e-014
outer loop
vertex 187.078381817048 56.7626758692009 1.00000000000001
vertex 184.578381817048 56.7626758692009 3.00000000000002
vertex 184.578381817048 56.7626758692009 1.00000000000001
endloop
endfacet
facet normal -5.42202465498599e-031 -1.0 1.15505827125161e-014
outer loop
vertex 184.578381817048 56.7626758692009 3.00000000000002
vertex 187.078381817048 56.7626758692009 1.00000000000001
vertex 187.078381817048 56.7626758692009 3.00000000000002
endloop
endfacet
facet normal -6.60033297858109e-015 0.0 -1.0
outer loop
vertex 240.828381817048 64.9926829921142 3.50000000000001
vertex 239.078381817048 56.4926829921143 3.50000000000002
vertex 239.078381817048 64.9926829921142 3.50000000000002
endloop
endfacet
facet normal -6.60033297858109e-015 0.0 -1.0
outer loop
vertex 239.078381817048 56.4926829921143 3.50000000000002
vertex 240.828381817048 64.9926829921142 3.50000000000001
vertex 240.828381817048 56.4926829921143 3.50000000000001
endloop
endfacet
facet normal -1.0 0.0 0.0
outer loop
vertex 181.828381817048 64.7426829921142 7.00000000000002
vertex 181.828381817048 40.7426829921143 1.00000000000001
vertex 181.828381817048 40.7426829921143 7.00000000000002
endloop
endfacet
facet normal -1.0 0.0 0.0
outer loop
vertex 181.828381817048 40.7426829921143 1.00000000000001
vertex 181.828381817048 64.7426829921142 7.00000000000002
vertex 181.828381817048 64.7426829921142 1.00000000000001
endloop
endfacet
facet normal -0.0 1.0 -0.0
outer loop
vertex 185.078381817048 79.7426829921142 6.00000000000002
vertex 186.078381817048 79.7426829921142 5.00000000000002
vertex 185.078381817048 79.7426829921142 4.00000000000002
endloop
endfacet
facet normal -6.60033297858109e-015 2.40637139844087e-017 -1.0
outer loop
vertex 240.828381817048 56.4926829921143 1.00000000000001
vertex 239.078381817048 48.9926829921143 1.00000000000002
vertex 239.078381817048 56.4926829921143 1.00000000000002
endloop
endfacet
facet normal -6.60033297858109e-015 2.40637139844087e-017 -1.0
outer loop
vertex 239.078381817048 48.9926829921143 1.00000000000002
vertex 240.828381817048 56.4926829921143 1.00000000000001
vertex 240.828381817048 48.9926829921143 1.00000000000001
endloop
endfacet
facet normal -1.0 0.0 0.0
outer loop
vertex 183.578381817048 85.7426829921142 7.00000000000002
vertex 183.578381817048 71.7426829921142 1.00000000000001
vertex 183.578381817048 71.7426829921142 7.00000000000002
endloop
endfacet
facet normal -1.0 0.0 0.0
outer loop
vertex 183.578381817048 71.7426829921142 1.00000000000001
vertex 183.578381817048 85.7426829921142 7.00000000000002
vertex 183.578381817048 85.7426829921142 1.00000000000001
endloop
endfacet
facet normal -0.707106781186579 0.0 0.707106781186516
outer loop
vertex 236.078381817049 79.7426829921142 6.00000000000002
vertex 235.078381817049 75.7426829921142 5.00000000000002
vertex 236.078381817049 75.7426829921142 6.00000000000002
endloop
endfacet
facet normal -0.707106781186579 0.0 0.707106781186516
outer loop
vertex 235.078381817049 75.7426829921142 5.00000000000002
vertex 236.078381817049 79.7426829921142 6.00000000000002
vertex 235.078381817049 79.7426829921142 5.00000000000002
endloop
endfacet
facet normal -1.97485560232244e-017 -5.68047875839063e-018 1.0
outer loop
vertex 237.578381817048 13.7426829921142 7.00000000000002
vertex 236.078381817049 33.9497897733008 7.00000000000002
vertex 236.078381817049 13.7426829921142 7.00000000000002
endloop
endfacet
facet normal -1.97485560232244e-017 -5.68047875839063e-018 1.0
outer loop
vertex 236.078381817049 33.9497897733008 7.00000000000002
vertex 234.078381817049 69.5355762109277 7.00000000000002
vertex 234.078381817049 35.9497897733008 7.00000000000002
endloop
endfacet
facet normal -1.97485560232244e-017 -5.68047875839063e-018 1.0
outer loop
vertex 234.078381817049 69.5355762109277 7.00000000000002
vertex 236.078381817049 33.9497897733008 7.00000000000002
vertex 235.828381817049 40.4926829921143 7.00000000000002
endloop
endfacet
facet normal -1.97485560232244e-017 -5.68047875839063e-018 1.0
outer loop
vertex 235.828381817049 40.4926829921143 7.00000000000002
vertex 236.078381817049 33.9497897733008 7.00000000000002
vertex 239.078381817048 40.4926829921143 7.00000000000003
endloop
endfacet
facet normal -1.97485560232244e-017 -5.68047875839063e-018 1.0
outer loop
vertex 239.078381817048 40.4926829921143 7.00000000000003
vertex 236.078381817049 33.9497897733008 7.00000000000002
vertex 237.578381817048 34.2426829921143 7.00000000000002
endloop
endfacet
facet normal -1.97485560232244e-017 -5.68047875839063e-018 1.0
outer loop
vertex 237.578381817048 34.2426829921143 7.00000000000002
vertex 236.078381817049 33.9497897733008 7.00000000000002
vertex 237.578381817048 13.7426829921142 7.00000000000002
endloop
endfacet
facet normal -1.97485560232244e-017 -5.68047875839063e-018 1.0
outer loop
vertex 239.078381817048 40.4926829921143 7.00000000000003
vertex 237.578381817048 34.2426829921143 7.00000000000002
vertex 239.078381817048 34.2426829921143 7.00000000000002
endloop
endfacet
facet normal -1.97485560232244e-017 -5.68047875839063e-018 1.0
outer loop
vertex 239.078381817048 40.4926829921143 7.00000000000003
vertex 239.078381817048 34.2426829921143 7.00000000000002
vertex 240.828381817048 35.9926829921142 7.00000000000002
endloop
endfacet
facet normal -1.97485560232244e-017 -5.68047875839063e-018 1.0
outer loop
vertex 239.078381817048 40.4926829921143 7.00000000000003
vertex 240.828381817048 35.9926829921142 7.00000000000002
vertex 239.078381817048 64.9926829921142 7.00000000000003
endloop
endfacet
facet normal -1.97485560232244e-017 -5.68047875839063e-018 1.0
outer loop
vertex 239.078381817048 64.9926829921142 7.00000000000003
vertex 240.828381817048 35.9926829921142 7.00000000000002
vertex 239.078381817048 71.2426829921142 7.00000000000003
endloop
endfacet
facet normal -1.97485560232244e-017 -5.68047875839063e-018 1.0
outer loop
vertex 239.078381817048 71.2426829921142 7.00000000000003
vertex 240.828381817048 35.9926829921142 7.00000000000002
vertex 240.828381817048 69.4926829921143 7.00000000000002
endloop
endfacet
facet normal -1.97485560232244e-017 -5.68047875839063e-018 1.0
outer loop
vertex 234.078381817049 69.5355762109277 7.00000000000002
vertex 235.828381817049 64.9926829921142 7.00000000000002
vertex 236.078381817049 71.5355762109277 7.00000000000002
endloop
endfacet
facet normal -1.97485560232244e-017 -5.68047875839063e-018 1.0
outer loop
vertex 235.828381817049 64.9926829921142 7.00000000000002
vertex 234.078381817049 69.5355762109277 7.00000000000002
vertex 235.828381817049 40.4926829921143 7.00000000000002
endloop
endfacet
facet normal -1.97485560232244e-017 -5.68047875839063e-018 1.0
outer loop
vertex 236.078381817049 71.5355762109277 7.00000000000002
vertex 235.828381817049 64.9926829921142 7.00000000000002
vertex 239.078381817048 64.9926829921142 7.00000000000003
endloop
endfacet
facet normal -1.97485560232244e-017 -5.68047875839063e-018 1.0
outer loop
vertex 236.078381817049 71.5355762109277 7.00000000000002
vertex 239.078381817048 64.9926829921142 7.00000000000003
vertex 237.578381817048 71.2426829921142 7.00000000000002
endloop
endfacet
facet normal -1.97485560232244e-017 -5.68047875839063e-018 1.0
outer loop
vertex 236.078381817049 71.5355762109277 7.00000000000002
vertex 237.578381817048 71.2426829921142 7.00000000000002
vertex 236.078381817049 84.2426829921142 7.00000000000002
endloop
endfacet
facet normal -1.97485560232244e-017 -5.68047875839063e-018 1.0
outer loop
vertex 237.578381817048 71.2426829921142 7.00000000000002
vertex 239.078381817048 64.9926829921142 7.00000000000003
vertex 239.078381817048 71.2426829921142 7.00000000000003
endloop
endfacet
facet normal -1.97485560232244e-017 -5.68047875839063e-018 1.0
outer loop
vertex 185.078381817048 71.7426829921143 7.00000000000002
vertex 183.578381817048 85.7426829921142 7.00000000000002
vertex 183.578381817048 71.7426829921142 7.00000000000002
endloop
endfacet
facet normal -1.97485560232244e-017 -5.68047875839063e-018 1.0
outer loop
vertex 183.578381817048 85.7426829921142 7.00000000000002
vertex 185.078381817048 71.7426829921143 7.00000000000002
vertex 185.078381817048 84.2426829921142 7.00000000000002
endloop
endfacet
facet normal -1.97485560232244e-017 -5.68047875839063e-018 1.0
outer loop
vertex 183.578381817048 85.7426829921142 7.00000000000002
vertex 185.078381817048 84.2426829921142 7.00000000000002
vertex 197.578381817049 85.7426829921142 7.00000000000002
endloop
endfacet
facet normal -1.97485560232244e-017 -5.68047875839063e-018 1.0
outer loop
vertex 197.578381817049 85.7426829921142 7.00000000000002
vertex 185.078381817048 84.2426829921142 7.00000000000002
vertex 197.785488598235 84.2426829921142 7.00000000000002
endloop
endfacet
facet normal -1.97485560232244e-017 -5.68047875839063e-018 1.0
outer loop
vertex 197.578381817049 85.7426829921142 7.00000000000002
vertex 197.785488598235 84.2426829921142 7.00000000000002
vertex 199.578381817049 83.7426829921142 7.00000000000002
endloop
endfacet
facet normal -1.97485560232244e-017 -5.68047875839063e-018 1.0
outer loop
vertex 199.578381817049 83.7426829921142 7.00000000000002
vertex 197.785488598235 84.2426829921142 7.00000000000002
vertex 199.785488598235 82.2426829921142 7.00000000000002
endloop
endfacet
facet normal -1.97485560232244e-017 -5.68047875839063e-018 1.0
outer loop
vertex 199.578381817049 83.7426829921142 7.00000000000002
vertex 199.785488598235 82.2426829921142 7.00000000000002
vertex 221.578381817048 83.7426829921142 7.00000000000002
endloop
endfacet
facet normal -1.97485560232244e-017 -5.68047875839063e-018 1.0
outer loop
vertex 221.578381817048 83.7426829921142 7.00000000000002
vertex 199.785488598235 82.2426829921142 7.00000000000002
vertex 221.371275035862 82.2426829921142 7.00000000000002
endloop
endfacet
facet normal -1.97485560232244e-017 -5.68047875839063e-018 1.0
outer loop
vertex 221.578381817048 83.7426829921142 7.00000000000002
vertex 221.371275035862 82.2426829921142 7.00000000000002
vertex 223.371275035862 84.2426829921142 7.00000000000002
endloop
endfacet
facet normal -1.97485560232244e-017 -5.68047875839063e-018 1.0
outer loop
vertex 221.578381817048 83.7426829921142 7.00000000000002
vertex 223.371275035862 84.2426829921142 7.00000000000002
vertex 223.578381817048 85.7426829921142 7.00000000000002
endloop
endfacet
facet normal -1.97485560232244e-017 -5.68047875839063e-018 1.0
outer loop
vertex 223.578381817048 85.7426829921142 7.00000000000002
vertex 223.371275035862 84.2426829921142 7.00000000000002
vertex 236.078381817049 84.2426829921142 7.00000000000002
endloop
endfacet
facet normal -1.97485560232244e-017 -5.68047875839063e-018 1.0
outer loop
vertex 223.578381817048 85.7426829921142 7.00000000000002
vertex 236.078381817049 84.2426829921142 7.00000000000002
vertex 237.578381817048 85.7426829921142 7.00000000000002
endloop
endfacet
facet normal -1.97485560232244e-017 -5.68047875839063e-018 1.0
outer loop
vertex 237.578381817048 85.7426829921142 7.00000000000002
vertex 236.078381817049 84.2426829921142 7.00000000000002
vertex 237.578381817048 71.2426829921142 7.00000000000002
endloop
endfacet
facet normal 1.0 -0.0 -0.0
outer loop
vertex 235.828381817049 64.9926829921142 1.00000000000001
vertex 235.828381817049 40.4926829921143 7.00000000000002
vertex 235.828381817049 40.4926829921143 1.00000000000001
endloop
endfacet
facet normal 1.0 -0.0 -0.0
outer loop
vertex 235.828381817049 40.4926829921143 7.00000000000002
vertex 235.828381817049 64.9926829921142 1.00000000000001
vertex 235.828381817049 64.9926829921142 7.00000000000002
endloop
endfacet
facet normal 0.0 -1.0 0.0
outer loop
vertex 185.078381817048 21.8466829921142 6.00000000000002
vertex 185.078381817048 21.8466829921142 4.00000000000002
vertex 186.078381817048 21.8466829921142 5.00000000000002
endloop
endfacet
facet normal 1.0 -0.0 -0.0
outer loop
vertex 185.078381817048 71.7426829921143 3.00000000000002
vertex 185.078381817048 75.7426829921142 4.00000000000002
vertex 185.078381817048 71.7426829921143 7.00000000000002
endloop
endfacet
facet normal 1.0 -0.0 -0.0
outer loop
vertex 185.078381817048 75.7426829921142 4.00000000000002
vertex 185.078381817048 71.7426829921143 3.00000000000002
vertex 185.078381817048 84.2426829921142 3.00000000000002
endloop
endfacet
facet normal 1.0 -0.0 -0.0
outer loop
vertex 185.078381817048 75.7426829921142 4.00000000000002
vertex 185.078381817048 84.2426829921142 3.00000000000002
vertex 185.078381817048 79.7426829921142 4.00000000000002
endloop
endfacet
facet normal 1.0 -0.0 -0.0
outer loop
vertex 185.078381817048 79.7426829921142 4.00000000000002
vertex 185.078381817048 84.2426829921142 3.00000000000002
vertex 185.078381817048 79.7426829921142 6.00000000000002
endloop
endfacet
facet normal 1.0 -0.0 -0.0
outer loop
vertex 185.078381817048 71.7426829921143 7.00000000000002
vertex 185.078381817048 75.7426829921142 6.00000000000002
vertex 185.078381817048 84.2426829921142 7.00000000000002
endloop
endfacet
facet normal 1.0 -0.0 -0.0
outer loop
vertex 185.078381817048 75.7426829921142 6.00000000000002
vertex 185.078381817048 71.7426829921143 7.00000000000002
vertex 185.078381817048 75.7426829921142 4.00000000000002
endloop
endfacet
facet normal 1.0 -0.0 -0.0
outer loop
vertex 185.078381817048 84.2426829921142 7.00000000000002
vertex 185.078381817048 75.7426829921142 6.00000000000002
vertex 185.078381817048 79.7426829921142 6.00000000000002
endloop
endfacet
facet normal 1.0 -0.0 -0.0
outer loop
vertex 185.078381817048 84.2426829921142 7.00000000000002
vertex 185.078381817048 79.7426829921142 6.00000000000002
vertex 185.078381817048 84.2426829921142 3.00000000000002
endloop
endfacet
facet normal 1.0 -0.0 -0.0
outer loop
vertex 240.828381817048 56.4926829921143 1.00000000000001
vertex 240.828381817048 48.9926829921143 3.50000000000001
vertex 240.828381817048 48.9926829921143 1.00000000000001
endloop
endfacet
facet normal 1.0 -0.0 -0.0
outer loop
vertex 240.828381817048 69.4926829921143 1.00000000000001
vertex 240.828381817048 64.9926829921142 3.50000000000001
vertex 240.828381817048 64.9926829921142 1.00000000000001
endloop
endfacet
facet normal 1.0 -0.0 -0.0
outer loop
vertex 240.828381817048 40.4926829921143 1.00000000000001
vertex 240.828381817048 35.9926829921142 7.00000000000002
vertex 240.828381817048 35.9926829921142 1.00000000000001
endloop
endfacet
facet normal 1.0 -0.0 -0.0
outer loop
vertex 240.828381817048 35.9926829921142 7.00000000000002
vertex 240.828381817048 40.4926829921143 1.00000000000001
vertex 240.828381817048 40.4926829921143 3.50000000000001
endloop
endfacet
facet normal 1.0 -0.0 -0.0
outer loop
vertex 240.828381817048 35.9926829921142 7.00000000000002
vertex 240.828381817048 40.4926829921143 3.50000000000001
vertex 240.828381817048 69.4926829921143 7.00000000000002
endloop
endfacet
facet normal 1.0 -0.0 -0.0
outer loop
vertex 240.828381817048 69.4926829921143 7.00000000000002
vertex 240.828381817048 40.4926829921143 3.50000000000001
vertex 240.828381817048 48.9926829921143 3.50000000000001
endloop
endfacet
facet normal 1.0 -0.0 -0.0
outer loop
vertex 240.828381817048 69.4926829921143 7.00000000000002
vertex 240.828381817048 48.9926829921143 3.50000000000001
vertex 240.828381817048 56.4926829921143 3.50000000000001
endloop
endfacet
facet normal 1.0 -0.0 -0.0
outer loop
vertex 240.828381817048 56.4926829921143 3.50000000000001
vertex 240.828381817048 48.9926829921143 3.50000000000001
vertex 240.828381817048 56.4926829921143 1.00000000000001
endloop
endfacet
facet normal 1.0 -0.0 -0.0
outer loop
vertex 240.828381817048 69.4926829921143 7.00000000000002
vertex 240.828381817048 56.4926829921143 3.50000000000001
vertex 240.828381817048 64.9926829921142 3.50000000000001
endloop
endfacet
facet normal 1.0 -0.0 -0.0
outer loop
vertex 240.828381817048 69.4926829921143 7.00000000000002
vertex 240.828381817048 64.9926829921142 3.50000000000001
vertex 240.828381817048 69.4926829921143 1.00000000000001
endloop
endfacet
facet normal -0.0 1.0 -0.0
outer loop
vertex 237.578381817048 71.2426829921142 7.00000000000002
vertex 239.078381817048 71.2426829921142 1.00000000000001
vertex 237.578381817048 71.2426829921142 1.00000000000001
endloop
endfacet
facet normal -0.0 1.0 -0.0
outer loop
vertex 239.078381817048 71.2426829921142 1.00000000000001
vertex 237.578381817048 71.2426829921142 7.00000000000002
vertex 239.078381817048 71.2426829921142 7.00000000000003
endloop
endfacet
facet normal 0.0 -1.0 0.0
outer loop
vertex 236.078381817049 75.7426829921142 6.00000000000002
vertex 235.078381817049 75.7426829921142 5.00000000000002
vertex 236.078381817049 75.7426829921142 4.00000000000002
endloop
endfacet
facet normal -0.707106781186549 0.707106781186547 -1.46073510289581e-030
outer loop
vertex 187.078381817048 35.7426829921142 3.00000000000002
vertex 185.078381817048 33.7426829921142 1.00000000000001
vertex 185.078381817048 33.7426829921142 3.00000000000002
endloop
endfacet
facet normal -0.707106781186549 0.707106781186547 -1.46073510289581e-030
outer loop
vertex 185.078381817048 33.7426829921142 1.00000000000001
vertex 187.078381817048 35.7426829921142 3.00000000000002
vertex 187.078381817048 35.7426829921142 1.00000000000001
endloop
endfacet
facet normal 1.5400776950022e-014 -1.0 2.7822106310436e-031
outer loop
vertex 185.078381817048 71.7426829921143 3.00000000000002
vertex 183.578381817048 71.7426829921142 1.00000000000001
vertex 185.078381817048 71.7426829921143 1.00000000000001
endloop
endfacet
facet normal 1.5400776950022e-014 -1.0 2.7822106310436e-031
outer loop
vertex 183.578381817048 71.7426829921142 1.00000000000001
vertex 185.078381817048 71.7426829921143 3.00000000000002
vertex 183.578381817048 71.7426829921142 7.00000000000002
endloop
endfacet
facet normal 1.5400776950022e-014 -1.0 2.7822106310436e-031
outer loop
vertex 183.578381817048 71.7426829921142 7.00000000000002
vertex 185.078381817048 71.7426829921143 3.00000000000002
vertex 185.078381817048 71.7426829921143 7.00000000000002
endloop
endfacet
facet normal -0.707106781186548 -0.707106781186548 0.0
outer loop
vertex 185.078381817048 71.7426829921143 3.00000000000002
vertex 187.078381817048 69.7426829921143 1.00000000000001
vertex 187.078381817048 69.7426829921143 3.00000000000002
endloop
endfacet
facet normal -0.707106781186548 -0.707106781186548 0.0
outer loop
vertex 187.078381817048 69.7426829921143 1.00000000000001
vertex 185.078381817048 71.7426829921143 3.00000000000002
vertex 185.078381817048 71.7426829921143 1.00000000000001
endloop
endfacet
facet normal -2.12592307048252e-018 1.07965979189475e-019 1.0
outer loop
vertex 187.078381817048 69.7426829921143 3.00000000000002
vertex 185.078381817048 84.2426829921142 3.00000000000002
vertex 185.078381817048 71.7426829921143 3.00000000000002
endloop
endfacet
facet normal -2.12592307048252e-018 1.07965979189475e-019 1.0
outer loop
vertex 185.078381817048 84.2426829921142 3.00000000000002
vertex 187.078381817048 69.7426829921143 3.00000000000002
vertex 197.785488598235 84.2426829921142 3.00000000000002
endloop
endfacet
facet normal -2.12592307048252e-018 1.07965979189475e-019 1.0
outer loop
vertex 187.078381817048 56.7626758692009 3.00000000000002
vertex 184.578381817048 64.7426829921142 3.00000000000002
vertex 184.578381817048 56.7626758692009 3.00000000000002
endloop
endfacet
facet normal -2.12592307048252e-018 1.07965979189475e-019 1.0
outer loop
vertex 184.578381817048 64.7426829921142 3.00000000000002
vertex 187.078381817048 56.7626758692009 3.00000000000002
vertex 187.078381817048 64.7426829921142 3.00000000000002
endloop
endfacet
facet normal -2.12592307048252e-018 1.07965979189475e-019 1.0
outer loop
vertex 187.078381817048 40.7426829921143 3.00000000000002
vertex 184.578381817048 48.7426829921143 3.00000000000002
vertex 184.578381817048 40.7426829921143 3.00000000000002
endloop
endfacet
facet normal -2.12592307048252e-018 1.07965979189475e-019 1.0
outer loop
vertex 184.578381817048 48.7426829921143 3.00000000000002
vertex 187.078381817048 40.7426829921143 3.00000000000002
vertex 187.078381817048 48.7426829921143 3.00000000000002
endloop
endfacet
facet normal -2.12592307048252e-018 1.07965979189475e-019 1.0
outer loop
vertex 236.078381817049 13.7426829921142 3.00000000000002
vertex 185.078381817048 33.7426829921142 3.00000000000002
vertex 185.078381817048 13.7426829921142 3.00000000000002
endloop
endfacet
facet normal -2.12592307048252e-018 1.07965979189475e-019 1.0
outer loop
vertex 185.078381817048 33.7426829921142 3.00000000000002
vertex 236.078381817049 13.7426829921142 3.00000000000002
vertex 187.078381817048 35.7426829921142 3.00000000000002
endloop
endfacet
facet normal -2.12592307048252e-018 1.07965979189475e-019 1.0
outer loop
vertex 187.078381817048 35.7426829921142 3.00000000000002
vertex 236.078381817049 13.7426829921142 3.00000000000002
vertex 187.078381817048 40.7426829921143 3.00000000000002
endloop
endfacet
facet normal -2.12592307048252e-018 1.07965979189475e-019 1.0
outer loop
vertex 187.078381817048 40.7426829921143 3.00000000000002
vertex 236.078381817049 13.7426829921142 3.00000000000002
vertex 187.078381817048 48.7426829921143 3.00000000000002
endloop
endfacet
facet normal -2.12592307048252e-018 1.07965979189475e-019 1.0
outer loop
vertex 187.078381817048 48.7426829921143 3.00000000000002
vertex 236.078381817049 13.7426829921142 3.00000000000002
vertex 187.078381817048 56.7626758692009 3.00000000000002
endloop
endfacet
facet normal -2.12592307048252e-018 1.07965979189475e-019 1.0
outer loop
vertex 187.078381817048 56.7626758692009 3.00000000000002
vertex 236.078381817049 13.7426829921142 3.00000000000002
vertex 187.078381817048 64.7426829921142 3.00000000000002
endloop
endfacet
facet normal -2.12592307048252e-018 1.07965979189475e-019 1.0
outer loop
vertex 187.078381817048 64.7426829921142 3.00000000000002
vertex 236.078381817049 13.7426829921142 3.00000000000002
vertex 187.078381817048 69.7426829921143 3.00000000000002
endloop
endfacet
facet normal -2.12592307048252e-018 1.07965979189475e-019 1.0
outer loop
vertex 187.078381817048 69.7426829921143 3.00000000000002
vertex 236.078381817049 13.7426829921142 3.00000000000002
vertex 197.785488598235 84.2426829921142 3.00000000000002
endloop
endfacet
facet normal -2.12592307048252e-018 1.07965979189475e-019 1.0
outer loop
vertex 197.785488598235 84.2426829921142 3.00000000000002
vertex 236.078381817049 13.7426829921142 3.00000000000002
vertex 199.785488598235 82.2426829921142 3.00000000000002
endloop
endfacet
facet normal -2.12592307048252e-018 1.07965979189475e-019 1.0
outer loop
vertex 199.785488598235 82.2426829921142 3.00000000000002
vertex 236.078381817049 13.7426829921142 3.00000000000002
vertex 221.371275035862 82.2426829921142 3.00000000000002
endloop
endfacet
facet normal -2.12592307048252e-018 1.07965979189475e-019 1.0
outer loop
vertex 221.371275035862 82.2426829921142 3.00000000000002
vertex 236.078381817049 13.7426829921142 3.00000000000002
vertex 223.371275035862 84.2426829921142 3.00000000000002
endloop
endfacet
facet normal -2.12592307048252e-018 1.07965979189475e-019 1.0
outer loop
vertex 223.371275035862 84.2426829921142 3.00000000000002
vertex 236.078381817049 13.7426829921142 3.00000000000002
vertex 234.078381817049 35.9497897733008 3.00000000000002
endloop
endfacet
facet normal -2.12592307048252e-018 1.07965979189475e-019 1.0
outer loop
vertex 234.078381817049 35.9497897733008 3.00000000000002
vertex 236.078381817049 13.7426829921142 3.00000000000002
vertex 236.078381817049 33.9497897733008 3.00000000000002
endloop
endfacet
facet normal -2.12592307048252e-018 1.07965979189475e-019 1.0
outer loop
vertex 223.371275035862 84.2426829921142 3.00000000000002
vertex 234.078381817049 69.5355762109277 3.00000000000002
vertex 236.078381817049 84.2426829921142 3.00000000000002
endloop
endfacet
facet normal -2.12592307048252e-018 1.07965979189475e-019 1.0
outer loop
vertex 234.078381817049 69.5355762109277 3.00000000000002
vertex 223.371275035862 84.2426829921142 3.00000000000002
vertex 234.078381817049 35.9497897733008 3.00000000000002
endloop
endfacet
facet normal -2.12592307048252e-018 1.07965979189475e-019 1.0
outer loop
vertex 236.078381817049 84.2426829921142 3.00000000000002
vertex 234.078381817049 69.5355762109277 3.00000000000002
vertex 236.078381817049 71.5355762109277 3.00000000000002
endloop
endfacet
facet normal 0.707106781186566 0.707106781186529 5.76262172811791e-018
outer loop
vertex 239.078381817048 71.2426829921142 1.00000000000001
vertex 240.828381817048 69.4926829921143 7.00000000000002
vertex 240.828381817048 69.4926829921143 1.00000000000001
endloop
endfacet
facet normal 0.707106781186566 0.707106781186529 5.76262172811791e-018
outer loop
vertex 240.828381817048 69.4926829921143 7.00000000000002
vertex 239.078381817048 71.2426829921142 1.00000000000001
vertex 239.078381817048 71.2426829921142 7.00000000000003
endloop
endfacet
facet normal -0.0 1.0 -0.0
outer loop
vertex 199.578381817049 83.7426829921142 7.00000000000002
vertex 221.578381817048 83.7426829921142 1.00000000000001
vertex 199.578381817049 83.7426829921142 1.00000000000001
endloop
endfacet
facet normal -0.0 1.0 -0.0
outer loop
vertex 221.578381817048 83.7426829921142 1.00000000000001
vertex 199.578381817049 83.7426829921142 7.00000000000002
vertex 221.578381817048 83.7426829921142 7.00000000000002
endloop
endfacet
facet normal 0.0 -1.0 0.0
outer loop
vertex 236.078381817049 21.8457897733007 6.00000000000002
vertex 235.078381817049 21.8457897733007 5.00000000000002
vertex 236.078381817049 21.8457897733007 4.00000000000002
endloop
endfacet
facet normal 1.5400776950022e-014 1.0 -2.22576850483488e-031
outer loop
vertex 183.578381817048 33.7426829921142 7.00000000000002
vertex 185.078381817048 33.7426829921142 1.00000000000001
vertex 183.578381817048 33.7426829921142 1.00000000000001
endloop
endfacet
facet normal 1.5400776950022e-014 1.0 -2.22576850483488e-031
outer loop
vertex 185.078381817048 33.7426829921142 1.00000000000001
vertex 183.578381817048 33.7426829921142 7.00000000000002
vertex 185.078381817048 33.7426829921142 3.00000000000002
endloop
endfacet
facet normal 1.5400776950022e-014 1.0 -2.22576850483488e-031
outer loop
vertex 185.078381817048 33.7426829921142 3.00000000000002
vertex 183.578381817048 33.7426829921142 7.00000000000002
vertex 185.078381817048 33.7426829921142 7.00000000000002
endloop
endfacet
facet normal -1.0 0.0 0.0
outer loop
vertex 187.078381817048 69.7426829921143 3.00000000000002
vertex 187.078381817048 64.7426829921142 1.00000000000001
vertex 187.078381817048 64.7426829921142 3.00000000000002
endloop
endfacet
facet normal -1.0 0.0 0.0
outer loop
vertex 187.078381817048 64.7426829921142 1.00000000000001
vertex 187.078381817048 69.7426829921143 3.00000000000002
vertex 187.078381817048 69.7426829921143 1.00000000000001
endloop
endfacet
facet normal -0.707106781186579 0.0 0.707106781186516
outer loop
vertex 236.078381817049 25.8457897733008 6.00000000000002
vertex 235.078381817049 21.8457897733007 5.00000000000002
vertex 236.078381817049 21.8457897733007 6.00000000000002
endloop
endfacet
facet normal -0.707106781186579 0.0 0.707106781186516
outer loop
vertex 235.078381817049 21.8457897733007 5.00000000000002
vertex 236.078381817049 25.8457897733008 6.00000000000002
vertex 235.078381817049 25.8457897733008 5.00000000000002
endloop
endfacet
facet normal 0.707106781186566 -0.707106781186529 6.37732876366346e-030
outer loop
vertex 240.828381817048 35.9926829921142 1.00000000000001
vertex 239.078381817048 34.2426829921143 7.00000000000002
vertex 239.078381817048 34.2426829921143 1.00000000000001
endloop
endfacet
facet normal 0.707106781186566 -0.707106781186529 6.37732876366346e-030
outer loop
vertex 239.078381817048 34.2426829921143 7.00000000000002
vertex 240.828381817048 35.9926829921142 1.00000000000001
vertex 240.828381817048 35.9926829921142 7.00000000000002
endloop
endfacet
facet normal -1.0 0.0 0.0
outer loop
vertex 187.078381817048 40.7426829921143 3.00000000000002
vertex 187.078381817048 35.7426829921142 1.00000000000001
vertex 187.078381817048 35.7426829921142 3.00000000000002
endloop
endfacet
facet normal -1.0 0.0 0.0
outer loop
vertex 187.078381817048 35.7426829921142 1.00000000000001
vertex 187.078381817048 40.7426829921143 3.00000000000002
vertex 187.078381817048 40.7426829921143 1.00000000000001
endloop
endfacet
facet normal 0.0 -1.0 0.0
outer loop
vertex 239.078381817048 34.2426829921143 7.00000000000002
vertex 237.578381817048 34.2426829921143 1.00000000000001
vertex 239.078381817048 34.2426829921143 1.00000000000001
endloop
endfacet
facet normal 0.0 -1.0 0.0
outer loop
vertex 237.578381817048 34.2426829921143 1.00000000000001
vertex 239.078381817048 34.2426829921143 7.00000000000002
vertex 237.578381817048 34.2426829921143 7.00000000000002
endloop
endfacet
endsolid stacking box
