solid OpenSCAD_Model
  facet normal -1 0 0
    outer loop
      vertex 0 0 0
      vertex 0 0 10
      vertex 0 177.8 0
    endloop
  endfacet
  facet normal -1 0 0
    outer loop
      vertex 0 177.8 0
      vertex 0 0 10
      vertex 0 177.8 10
    endloop
  endfacet
  facet normal 0 -1 0
    outer loop
      vertex 0 0 10
      vertex 0 0 0
      vertex 18 0 0
    endloop
  endfacet
  facet normal 0 -1 0
    outer loop
      vertex 18 0 10
      vertex 0 0 10
      vertex 18 0 0
    endloop
  endfacet
  facet normal 0 0 -1
    outer loop
      vertex 5 167.8 0
      vertex 0 177.8 0
      vertex 5 177.8 0
    endloop
  endfacet
  facet normal 0 0 -1
    outer loop
      vertex 18 162.8 0
      vertex 13 152.8 0
      vertex 5 162.8 0
    endloop
  endfacet
  facet normal 0 0 -1
    outer loop
      vertex 18 167.8 0
      vertex 5 177.8 0
      vertex 18 177.8 0
    endloop
  endfacet
  facet normal 0 0 -1
    outer loop
      vertex 5 152.8 0
      vertex 5 162.8 0
      vertex 13 152.8 0
    endloop
  endfacet
  facet normal 0 0 -1
    outer loop
      vertex 5 162.8 0
      vertex 0 177.8 0
      vertex 5 167.8 0
    endloop
  endfacet
  facet normal 0 0 -1
    outer loop
      vertex 5 152.8 0
      vertex 0 177.8 0
      vertex 5 162.8 0
    endloop
  endfacet
  facet normal 0 0 -1
    outer loop
      vertex 5 15.5 0
      vertex 13 25.5 0
      vertex 18 15.5 0
    endloop
  endfacet
  facet normal 0 0 -1
    outer loop
      vertex 0 0 0
      vertex 0 177.8 0
      vertex 5 15.5 0
    endloop
  endfacet
  facet normal 0 0 -1
    outer loop
      vertex 0 0 0
      vertex 5 15.5 0
      vertex 5 10 0
    endloop
  endfacet
  facet normal 0 0 -1
    outer loop
      vertex 0 0 0
      vertex 5 10 0
      vertex 18 0 0
    endloop
  endfacet
  facet normal 0 0 -1
    outer loop
      vertex 5 15.5 0
      vertex 0 177.8 0
      vertex 5 25.5 0
    endloop
  endfacet
  facet normal 0 0 -1
    outer loop
      vertex 18 10 0
      vertex 18 0 0
      vertex 5 10 0
    endloop
  endfacet
  facet normal 0 0 -1
    outer loop
      vertex 13 25.5 0
      vertex 13 152.8 0
      vertex 18 15.5 0
    endloop
  endfacet
  facet normal 0 0 -1
    outer loop
      vertex 18 15.5 0
      vertex 13 152.8 0
      vertex 18 162.8 0
    endloop
  endfacet
  facet normal 0 0 -1
    outer loop
      vertex 5 167.8 0
      vertex 5 177.8 0
      vertex 18 167.8 0
    endloop
  endfacet
  facet normal 0 0 -1
    outer loop
      vertex 5 15.5 0
      vertex 5 25.5 0
      vertex 13 25.5 0
    endloop
  endfacet
  facet normal 0 0 -1
    outer loop
      vertex 5 25.5 0
      vertex 0 177.8 0
      vertex 5 152.8 0
    endloop
  endfacet
  facet normal 0 1 0
    outer loop
      vertex 0 177.8 0
      vertex 0 177.8 10
      vertex 5 177.8 0
    endloop
  endfacet
  facet normal 0 1 0
    outer loop
      vertex 5 177.8 0
      vertex 0 177.8 10
      vertex 5 177.8 10
    endloop
  endfacet
  facet normal 0 0 1
    outer loop
      vertex 5 10 10
      vertex 0 0 10
      vertex 18 0 10
    endloop
  endfacet
  facet normal 0 0 1
    outer loop
      vertex 0 177.8 10
      vertex 0 0 10
      vertex 5 10 10
    endloop
  endfacet
  facet normal 0 0 1
    outer loop
      vertex 0 177.8 10
      vertex 5 10 10
      vertex 5 15.5 10
    endloop
  endfacet
  facet normal 0 0 1
    outer loop
      vertex 5 167.8 10
      vertex 0 177.8 10
      vertex 5 162.8 10
    endloop
  endfacet
  facet normal 0 0 1
    outer loop
      vertex 5 177.8 10
      vertex 0 177.8 10
      vertex 18 167.8 10
    endloop
  endfacet
  facet normal 0 0 1
    outer loop
      vertex 18 177.8 10
      vertex 5 177.8 10
      vertex 18 167.8 10
    endloop
  endfacet
  facet normal 0 0 1
    outer loop
      vertex 5 152.8 10
      vertex 13 152.8 10
      vertex 5 162.8 10
    endloop
  endfacet
  facet normal 0 0 1
    outer loop
      vertex 0 177.8 10
      vertex 5 15.5 10
      vertex 5 25.5 10
    endloop
  endfacet
  facet normal 0 0 1
    outer loop
      vertex 13 152.8 10
      vertex 13 25.5 10
      vertex 18 15.5 10
    endloop
  endfacet
  facet normal 0 0 1
    outer loop
      vertex 5 162.8 10
      vertex 0 177.8 10
      vertex 5 152.8 10
    endloop
  endfacet
  facet normal 0 0 1
    outer loop
      vertex 18 162.8 10
      vertex 13 152.8 10
      vertex 18 15.5 10
    endloop
  endfacet
  facet normal 0 0 1
    outer loop
      vertex 18 162.8 10
      vertex 5 162.8 10
      vertex 13 152.8 10
    endloop
  endfacet
  facet normal 0 0 1
    outer loop
      vertex 5 15.5 10
      vertex 18 15.5 10
      vertex 13 25.5 10
    endloop
  endfacet
  facet normal 0 0 1
    outer loop
      vertex 5 15.5 10
      vertex 13 25.5 10
      vertex 5 25.5 10
    endloop
  endfacet
  facet normal 0 0 1
    outer loop
      vertex 5 167.8 10
      vertex 18 167.8 10
      vertex 0 177.8 10
    endloop
  endfacet
  facet normal 0 0 1
    outer loop
      vertex 5 25.5 10
      vertex 5 152.8 10
      vertex 0 177.8 10
    endloop
  endfacet
  facet normal 0 0 1
    outer loop
      vertex 18 10 10
      vertex 5 10 10
      vertex 18 0 10
    endloop
  endfacet
  facet normal 1 0 0
    outer loop
      vertex 18 0 10
      vertex 18 0 0
      vertex 18 10 0
    endloop
  endfacet
  facet normal 1 0 0
    outer loop
      vertex 18 10 10
      vertex 18 0 10
      vertex 18 10 0
    endloop
  endfacet
  facet normal 0 1 0
    outer loop
      vertex 5 10 0
      vertex 5 10 10
      vertex 18 10 0
    endloop
  endfacet
  facet normal 0 1 0
    outer loop
      vertex 18 10 0
      vertex 5 10 10
      vertex 18 10 10
    endloop
  endfacet
  facet normal 1 0 0
    outer loop
      vertex 5 10 10
      vertex 5 10 0
      vertex 5 15.5 0
    endloop
  endfacet
  facet normal 1 0 0
    outer loop
      vertex 5 15.5 10
      vertex 5 10 10
      vertex 5 15.5 0
    endloop
  endfacet
  facet normal 0 -1 0
    outer loop
      vertex 5 15.5 10
      vertex 5 15.5 0
      vertex 18 15.5 0
    endloop
  endfacet
  facet normal 0 -1 0
    outer loop
      vertex 18 15.5 10
      vertex 5 15.5 10
      vertex 18 15.5 0
    endloop
  endfacet
  facet normal 1 0 0
    outer loop
      vertex 18 15.5 10
      vertex 18 15.5 0
      vertex 18 162.8 0
    endloop
  endfacet
  facet normal 1 0 0
    outer loop
      vertex 18 162.8 10
      vertex 18 15.5 10
      vertex 18 162.8 0
    endloop
  endfacet
  facet normal 0 1 0
    outer loop
      vertex 5 162.8 0
      vertex 5 162.8 10
      vertex 18 162.8 0
    endloop
  endfacet
  facet normal 0 1 0
    outer loop
      vertex 18 162.8 0
      vertex 5 162.8 10
      vertex 18 162.8 10
    endloop
  endfacet
  facet normal 1 0 0
    outer loop
      vertex 5 162.8 10
      vertex 5 162.8 0
      vertex 5 167.8 0
    endloop
  endfacet
  facet normal 1 0 0
    outer loop
      vertex 5 167.8 10
      vertex 5 162.8 10
      vertex 5 167.8 0
    endloop
  endfacet
  facet normal 0 -1 0
    outer loop
      vertex 5 167.8 10
      vertex 5 167.8 0
      vertex 18 167.8 0
    endloop
  endfacet
  facet normal 0 -1 0
    outer loop
      vertex 18 167.8 10
      vertex 5 167.8 10
      vertex 18 167.8 0
    endloop
  endfacet
  facet normal 1 0 0
    outer loop
      vertex 18 167.8 10
      vertex 18 167.8 0
      vertex 18 177.8 0
    endloop
  endfacet
  facet normal 1 0 0
    outer loop
      vertex 18 177.8 10
      vertex 18 167.8 10
      vertex 18 177.8 0
    endloop
  endfacet
  facet normal 0 1 0
    outer loop
      vertex 5 177.8 0
      vertex 5 177.8 10
      vertex 18 177.8 0
    endloop
  endfacet
  facet normal 0 1 0
    outer loop
      vertex 18 177.8 0
      vertex 5 177.8 10
      vertex 18 177.8 10
    endloop
  endfacet
  facet normal 1 0 0
    outer loop
      vertex 5 25.5 10
      vertex 5 25.5 0
      vertex 5 152.8 0
    endloop
  endfacet
  facet normal 1 0 0
    outer loop
      vertex 5 152.8 10
      vertex 5 25.5 10
      vertex 5 152.8 0
    endloop
  endfacet
  facet normal 0 -1 0
    outer loop
      vertex 5 152.8 10
      vertex 5 152.8 0
      vertex 13 152.8 0
    endloop
  endfacet
  facet normal 0 -1 0
    outer loop
      vertex 13 152.8 10
      vertex 5 152.8 10
      vertex 13 152.8 0
    endloop
  endfacet
  facet normal -1 0 0
    outer loop
      vertex 13 25.5 0
      vertex 13 25.5 10
      vertex 13 152.8 0
    endloop
  endfacet
  facet normal -1 0 0
    outer loop
      vertex 13 152.8 0
      vertex 13 25.5 10
      vertex 13 152.8 10
    endloop
  endfacet
  facet normal 0 1 0
    outer loop
      vertex 5 25.5 0
      vertex 5 25.5 10
      vertex 13 25.5 0
    endloop
  endfacet
  facet normal 0 1 0
    outer loop
      vertex 13 25.5 0
      vertex 5 25.5 10
      vertex 13 25.5 10
    endloop
  endfacet
endsolid OpenSCAD_Model
