solid OpenSCAD_Model
  facet normal -1 0 0
    outer loop
      vertex 0 0 0
      vertex 0 0 6
      vertex 0 11.5 0
    endloop
  endfacet
  facet normal -1 0 0
    outer loop
      vertex 0 11.5 0
      vertex 0 0 6
      vertex 0 11.5 6
    endloop
  endfacet
  facet normal 0 -1 0
    outer loop
      vertex 0 0 6
      vertex 0 0 0
      vertex 9 0 0
    endloop
  endfacet
  facet normal 0 -1 0
    outer loop
      vertex 9 0 6
      vertex 0 0 6
      vertex 9 0 0
    endloop
  endfacet
  facet normal 0 0 -1
    outer loop
      vertex 2 10 0
      vertex 0 11.5 0
      vertex 4 11.5 0
    endloop
  endfacet
  facet normal 0 0 -1
    outer loop
      vertex 5 10 0
      vertex 4 11.5 0
      vertex 4 13.5 0
    endloop
  endfacet
  facet normal 0 0 -1
    outer loop
      vertex 2 15 0
      vertex 0 13.5 0
      vertex 0 25 0
    endloop
  endfacet
  facet normal 0 0 -1
    outer loop
      vertex 8 24 0
      vertex 0 25 0
      vertex 9 25 0
    endloop
  endfacet
  facet normal 0 0 -1
    outer loop
      vertex 2 1 0
      vertex 0 11.5 0
      vertex 2 10 0
    endloop
  endfacet
  facet normal 0 0 -1
    outer loop
      vertex 0 0 0
      vertex 0 11.5 0
      vertex 2 1 0
    endloop
  endfacet
  facet normal 0 0 -1
    outer loop
      vertex 0 0 0
      vertex 2 1 0
      vertex 9 0 0
    endloop
  endfacet
  facet normal 0 0 -1
    outer loop
      vertex 8 24 0
      vertex 9 0 0
      vertex 8 1 0
    endloop
  endfacet
  facet normal 0 0 -1
    outer loop
      vertex 2 1 0
      vertex 8 1 0
      vertex 9 0 0
    endloop
  endfacet
  facet normal 0 0 -1
    outer loop
      vertex 2 24 0
      vertex 0 25 0
      vertex 8 24 0
    endloop
  endfacet
  facet normal 0 0 -1
    outer loop
      vertex 9 0 0
      vertex 8 24 0
      vertex 9 25 0
    endloop
  endfacet
  facet normal 0 0 -1
    outer loop
      vertex 4 13.5 0
      vertex 0 13.5 0
      vertex 2 15 0
    endloop
  endfacet
  facet normal 0 0 -1
    outer loop
      vertex 2 15 0
      vertex 0 25 0
      vertex 2 24 0
    endloop
  endfacet
  facet normal 0 0 -1
    outer loop
      vertex 2 10 0
      vertex 4 11.5 0
      vertex 5 10 0
    endloop
  endfacet
  facet normal 0 0 -1
    outer loop
      vertex 5 15 0
      vertex 4 13.5 0
      vertex 2 15 0
    endloop
  endfacet
  facet normal 0 0 -1
    outer loop
      vertex 5 10 0
      vertex 4 13.5 0
      vertex 5 15 0
    endloop
  endfacet
  facet normal 0 1 0
    outer loop
      vertex 4 11.5 6
      vertex 4 11.5 0
      vertex 0 11.5 6
    endloop
  endfacet
  facet normal 0 1 0
    outer loop
      vertex 0 11.5 6
      vertex 4 11.5 0
      vertex 0 11.5 0
    endloop
  endfacet
  facet normal 0 0 1
    outer loop
      vertex 2 1 6
      vertex 0 0 6
      vertex 9 0 6
    endloop
  endfacet
  facet normal 0 0 1
    outer loop
      vertex 8 1 6
      vertex 2 1 6
      vertex 9 0 6
    endloop
  endfacet
  facet normal 0 0 1
    outer loop
      vertex 0 11.5 6
      vertex 0 0 6
      vertex 2 1 6
    endloop
  endfacet
  facet normal 0 0 1
    outer loop
      vertex 5 10 6
      vertex 5 15 6
      vertex 4 13.5 6
    endloop
  endfacet
  facet normal 0 0 1
    outer loop
      vertex 4 11.5 6
      vertex 0 11.5 6
      vertex 2 10 6
    endloop
  endfacet
  facet normal 0 0 1
    outer loop
      vertex 5 15 6
      vertex 2 15 6
      vertex 4 13.5 6
    endloop
  endfacet
  facet normal 0 0 1
    outer loop
      vertex 4 13.5 6
      vertex 4 11.5 6
      vertex 5 10 6
    endloop
  endfacet
  facet normal 0 0 1
    outer loop
      vertex 2 1 6
      vertex 2 10 6
      vertex 0 11.5 6
    endloop
  endfacet
  facet normal 0 0 1
    outer loop
      vertex 0 25 6
      vertex 2 24 6
      vertex 9 25 6
    endloop
  endfacet
  facet normal 0 0 1
    outer loop
      vertex 0 25 6
      vertex 0 13.5 6
      vertex 2 24 6
    endloop
  endfacet
  facet normal 0 0 1
    outer loop
      vertex 2 24 6
      vertex 8 24 6
      vertex 9 25 6
    endloop
  endfacet
  facet normal 0 0 1
    outer loop
      vertex 2 10 6
      vertex 5 10 6
      vertex 4 11.5 6
    endloop
  endfacet
  facet normal 0 0 1
    outer loop
      vertex 2 15 6
      vertex 2 24 6
      vertex 0 13.5 6
    endloop
  endfacet
  facet normal 0 0 1
    outer loop
      vertex 0 13.5 6
      vertex 4 13.5 6
      vertex 2 15 6
    endloop
  endfacet
  facet normal 0 0 1
    outer loop
      vertex 8 24 6
      vertex 9 0 6
      vertex 9 25 6
    endloop
  endfacet
  facet normal 0 0 1
    outer loop
      vertex 8 24 6
      vertex 8 1 6
      vertex 9 0 6
    endloop
  endfacet
  facet normal 1 0 0
    outer loop
      vertex 9 0 6
      vertex 9 0 0
      vertex 9 25 0
    endloop
  endfacet
  facet normal 1 0 0
    outer loop
      vertex 9 25 6
      vertex 9 0 6
      vertex 9 25 0
    endloop
  endfacet
  facet normal 0 1 0
    outer loop
      vertex 0 25 0
      vertex 0 25 6
      vertex 9 25 0
    endloop
  endfacet
  facet normal 0 1 0
    outer loop
      vertex 9 25 0
      vertex 0 25 6
      vertex 9 25 6
    endloop
  endfacet
  facet normal -1 0 0
    outer loop
      vertex 0 13.5 0
      vertex 0 13.5 6
      vertex 0 25 0
    endloop
  endfacet
  facet normal -1 0 0
    outer loop
      vertex 0 25 0
      vertex 0 13.5 6
      vertex 0 25 6
    endloop
  endfacet
  facet normal 0 -1 0
    outer loop
      vertex 4 13.5 0
      vertex 4 13.5 6
      vertex 0 13.5 6
    endloop
  endfacet
  facet normal 0 -1 0
    outer loop
      vertex 0 13.5 0
      vertex 4 13.5 0
      vertex 0 13.5 6
    endloop
  endfacet
  facet normal -1 0 0
    outer loop
      vertex 4 13.5 6
      vertex 4 13.5 0
      vertex 4 11.5 6
    endloop
  endfacet
  facet normal -1 0 0
    outer loop
      vertex 4 11.5 6
      vertex 4 13.5 0
      vertex 4 11.5 0
    endloop
  endfacet
  facet normal 1 0 0
    outer loop
      vertex 2 10 0
      vertex 2 10 6
      vertex 2 1 6
    endloop
  endfacet
  facet normal 1 0 0
    outer loop
      vertex 2 1 0
      vertex 2 10 0
      vertex 2 1 6
    endloop
  endfacet
  facet normal 0 -1 0
    outer loop
      vertex 2 10 6
      vertex 2 10 0
      vertex 5 10 0
    endloop
  endfacet
  facet normal 0 -1 0
    outer loop
      vertex 5 10 6
      vertex 2 10 6
      vertex 5 10 0
    endloop
  endfacet
  facet normal 1 0 0
    outer loop
      vertex 5 10 6
      vertex 5 10 0
      vertex 5 15 0
    endloop
  endfacet
  facet normal 1 0 0
    outer loop
      vertex 5 15 6
      vertex 5 10 6
      vertex 5 15 0
    endloop
  endfacet
  facet normal 0 1 0
    outer loop
      vertex 2 15 0
      vertex 2 15 6
      vertex 5 15 0
    endloop
  endfacet
  facet normal 0 1 0
    outer loop
      vertex 5 15 0
      vertex 2 15 6
      vertex 5 15 6
    endloop
  endfacet
  facet normal 1 0 0
    outer loop
      vertex 2 24 0
      vertex 2 24 6
      vertex 2 15 6
    endloop
  endfacet
  facet normal 1 0 0
    outer loop
      vertex 2 15 0
      vertex 2 24 0
      vertex 2 15 6
    endloop
  endfacet
  facet normal 0 -1 0
    outer loop
      vertex 8 24 0
      vertex 8 24 6
      vertex 2 24 6
    endloop
  endfacet
  facet normal 0 -1 0
    outer loop
      vertex 2 24 0
      vertex 8 24 0
      vertex 2 24 6
    endloop
  endfacet
  facet normal -1 0 0
    outer loop
      vertex 8 24 6
      vertex 8 24 0
      vertex 8 1 6
    endloop
  endfacet
  facet normal -1 0 0
    outer loop
      vertex 8 1 6
      vertex 8 24 0
      vertex 8 1 0
    endloop
  endfacet
  facet normal 0 1 0
    outer loop
      vertex 8 1 6
      vertex 8 1 0
      vertex 2 1 6
    endloop
  endfacet
  facet normal 0 1 0
    outer loop
      vertex 2 1 6
      vertex 8 1 0
      vertex 2 1 0
    endloop
  endfacet
endsolid OpenSCAD_Model
