solid OpenSCAD_Model
  facet normal 0 -0.900969 -0.433884
    outer loop
      vertex 0 7 10
      vertex 3 6.24698 11.5637
      vertex 0 6.24698 11.5637
    endloop
  endfacet
  facet normal 0 -0.900969 -0.433884
    outer loop
      vertex 3 6.24698 11.5637
      vertex 0 7 10
      vertex 3 7 10
    endloop
  endfacet
  facet normal 0 1 -0
    outer loop
      vertex 3 3.19806 9.13223
      vertex 0 3.19806 10.8678
      vertex 3 3.19806 10.8678
    endloop
  endfacet
  facet normal 0 1 0
    outer loop
      vertex 0 3.19806 10.8678
      vertex 3 3.19806 9.13223
      vertex 0 3.19806 9.13223
    endloop
  endfacet
  facet normal 0 -0.222521 -0.974928
    outer loop
      vertex 0 4.55496 11.9499
      vertex 3 6.24698 11.5637
      vertex 3 4.55496 11.9499
    endloop
  endfacet
  facet normal -0 -0.222521 -0.974928
    outer loop
      vertex 3 6.24698 11.5637
      vertex 0 4.55496 11.9499
      vertex 0 6.24698 11.5637
    endloop
  endfacet
  facet normal 0 0.62349 -0.781831
    outer loop
      vertex 0 3.19806 10.8678
      vertex 3 4.55496 11.9499
      vertex 3 3.19806 10.8678
    endloop
  endfacet
  facet normal 0 0.62349 -0.781831
    outer loop
      vertex 3 4.55496 11.9499
      vertex 0 3.19806 10.8678
      vertex 0 4.55496 11.9499
    endloop
  endfacet
  facet normal 0 -0.900969 0.433884
    outer loop
      vertex 0 6.24698 8.43634
      vertex 3 7 10
      vertex 0 7 10
    endloop
  endfacet
  facet normal 0 -0.900969 0.433884
    outer loop
      vertex 3 7 10
      vertex 0 6.24698 8.43634
      vertex 3 6.24698 8.43634
    endloop
  endfacet
  facet normal 0 -0.222521 0.974928
    outer loop
      vertex 0 6.24698 8.43634
      vertex 3 4.55496 8.05014
      vertex 3 6.24698 8.43634
    endloop
  endfacet
  facet normal 0 -0.222521 0.974928
    outer loop
      vertex 3 4.55496 8.05014
      vertex 0 6.24698 8.43634
      vertex 0 4.55496 8.05014
    endloop
  endfacet
  facet normal -0 0.62349 0.781831
    outer loop
      vertex 0 4.55496 8.05014
      vertex 3 3.19806 9.13223
      vertex 3 4.55496 8.05014
    endloop
  endfacet
  facet normal 0 0.62349 0.781831
    outer loop
      vertex 3 3.19806 9.13223
      vertex 0 4.55496 8.05014
      vertex 0 3.19806 9.13223
    endloop
  endfacet
  facet normal 0 -0.900969 -0.433884
    outer loop
      vertex 0 27 10
      vertex 3 26.247 11.5637
      vertex 0 26.247 11.5637
    endloop
  endfacet
  facet normal 0 -0.900969 -0.433884
    outer loop
      vertex 3 26.247 11.5637
      vertex 0 27 10
      vertex 3 27 10
    endloop
  endfacet
  facet normal 0 1 -1.099e-06
    outer loop
      vertex 3 23.1981 9.13223
      vertex 0 23.1981 10.8678
      vertex 3 23.1981 10.8678
    endloop
  endfacet
  facet normal 0 1 -1.099e-06
    outer loop
      vertex 0 23.1981 10.8678
      vertex 3 23.1981 9.13223
      vertex 0 23.1981 9.13223
    endloop
  endfacet
  facet normal 0 -0.222521 -0.974928
    outer loop
      vertex 0 24.555 11.9499
      vertex 3 26.247 11.5637
      vertex 3 24.555 11.9499
    endloop
  endfacet
  facet normal -0 -0.222521 -0.974928
    outer loop
      vertex 3 26.247 11.5637
      vertex 0 24.555 11.9499
      vertex 0 26.247 11.5637
    endloop
  endfacet
  facet normal 0 0.62349 -0.781831
    outer loop
      vertex 0 23.1981 10.8678
      vertex 3 24.555 11.9499
      vertex 3 23.1981 10.8678
    endloop
  endfacet
  facet normal 0 0.62349 -0.781831
    outer loop
      vertex 3 24.555 11.9499
      vertex 0 23.1981 10.8678
      vertex 0 24.555 11.9499
    endloop
  endfacet
  facet normal 0 -0.900969 0.433884
    outer loop
      vertex 0 26.247 8.43634
      vertex 3 27 10
      vertex 0 27 10
    endloop
  endfacet
  facet normal 0 -0.900969 0.433884
    outer loop
      vertex 3 27 10
      vertex 0 26.247 8.43634
      vertex 3 26.247 8.43634
    endloop
  endfacet
  facet normal 0 -0.222521 0.974928
    outer loop
      vertex 0 26.247 8.43634
      vertex 3 24.555 8.05014
      vertex 3 26.247 8.43634
    endloop
  endfacet
  facet normal 0 -0.222521 0.974928
    outer loop
      vertex 3 24.555 8.05014
      vertex 0 26.247 8.43634
      vertex 0 24.555 8.05014
    endloop
  endfacet
  facet normal -0 0.62349 0.781831
    outer loop
      vertex 0 24.555 8.05014
      vertex 3 23.1981 9.13223
      vertex 3 24.555 8.05014
    endloop
  endfacet
  facet normal 0 0.62349 0.781831
    outer loop
      vertex 3 23.1981 9.13223
      vertex 0 24.555 8.05014
      vertex 0 23.1981 9.13223
    endloop
  endfacet
  facet normal -1 0 0
    outer loop
      vertex 0 30 0
      vertex 0 27 10
      vertex 0 30 15
    endloop
  endfacet
  facet normal -1 0 0
    outer loop
      vertex 0 30 0
      vertex 0 26.247 8.43634
      vertex 0 27 10
    endloop
  endfacet
  facet normal -1 0 0
    outer loop
      vertex 0 30 0
      vertex 0 24.555 8.05014
      vertex 0 26.247 8.43634
    endloop
  endfacet
  facet normal -1 0 0
    outer loop
      vertex 0 6.24698 8.43634
      vertex 0 24.555 8.05014
      vertex 0 30 0
    endloop
  endfacet
  facet normal -1 0 0
    outer loop
      vertex 0 24.555 8.05014
      vertex 0 6.24698 8.43634
      vertex 0 23.1981 9.13223
    endloop
  endfacet
  facet normal -1 -0 0
    outer loop
      vertex 0 23.1981 9.13223
      vertex 0 6.24698 8.43634
      vertex 0 7 10
    endloop
  endfacet
  facet normal -1 0 0
    outer loop
      vertex 0 0 0
      vertex 0 6.24698 8.43634
      vertex 0 30 0
    endloop
  endfacet
  facet normal -1 0 0
    outer loop
      vertex 0 0 15
      vertex 0 3.19806 9.13223
      vertex 0 0 0
    endloop
  endfacet
  facet normal -1 -0 0
    outer loop
      vertex 0 4.55496 8.05014
      vertex 0 0 0
      vertex 0 3.19806 9.13223
    endloop
  endfacet
  facet normal -1 0 0
    outer loop
      vertex 0 6.24698 8.43634
      vertex 0 0 0
      vertex 0 4.55496 8.05014
    endloop
  endfacet
  facet normal -1 0 0
    outer loop
      vertex 0 26.247 11.5637
      vertex 0 30 15
      vertex 0 27 10
    endloop
  endfacet
  facet normal -1 0 0
    outer loop
      vertex 0 24.555 11.9499
      vertex 0 30 15
      vertex 0 26.247 11.5637
    endloop
  endfacet
  facet normal -1 0 0
    outer loop
      vertex 0 7 10
      vertex 0 23.1981 10.8678
      vertex 0 23.1981 9.13223
    endloop
  endfacet
  facet normal -1 0 0
    outer loop
      vertex 0 6.24698 11.5637
      vertex 0 23.1981 10.8678
      vertex 0 7 10
    endloop
  endfacet
  facet normal -1 0 0
    outer loop
      vertex 0 23.1981 10.8678
      vertex 0 6.24698 11.5637
      vertex 0 24.555 11.9499
    endloop
  endfacet
  facet normal -1 0 0
    outer loop
      vertex 0 0 15
      vertex 0 24.555 11.9499
      vertex 0 6.24698 11.5637
    endloop
  endfacet
  facet normal -1 0 0
    outer loop
      vertex 0 0 15
      vertex 0 6.24698 11.5637
      vertex 0 4.55496 11.9499
    endloop
  endfacet
  facet normal -1 0 0
    outer loop
      vertex 0 24.555 11.9499
      vertex 0 0 15
      vertex 0 30 15
    endloop
  endfacet
  facet normal -1 0 0
    outer loop
      vertex 0 3.19806 10.8678
      vertex 0 0 15
      vertex 0 4.55496 11.9499
    endloop
  endfacet
  facet normal -1 0 0
    outer loop
      vertex 0 3.19806 9.13223
      vertex 0 0 15
      vertex 0 3.19806 10.8678
    endloop
  endfacet
  facet normal 0 0 1
    outer loop
      vertex 35 30 4
      vertex 30 15 4
      vertex 35 0 4
    endloop
  endfacet
  facet normal 0 0 1
    outer loop
      vertex 35 30 4
      vertex 29.7815 17.0791 4
      vertex 30 15 4
    endloop
  endfacet
  facet normal 0 0 1
    outer loop
      vertex 35 30 4
      vertex 29.1355 19.0674 4
      vertex 29.7815 17.0791 4
    endloop
  endfacet
  facet normal 0 0 1
    outer loop
      vertex 35 30 4
      vertex 28.0902 20.8779 4
      vertex 29.1355 19.0674 4
    endloop
  endfacet
  facet normal 0 0 1
    outer loop
      vertex 35 30 4
      vertex 26.6913 22.4314 4
      vertex 28.0902 20.8779 4
    endloop
  endfacet
  facet normal 0 0 1
    outer loop
      vertex 35 30 4
      vertex 25 23.6603 4
      vertex 26.6913 22.4314 4
    endloop
  endfacet
  facet normal 0 0 1
    outer loop
      vertex 35 30 4
      vertex 23.0902 24.5106 4
      vertex 25 23.6603 4
    endloop
  endfacet
  facet normal 0 0 1
    outer loop
      vertex 35 30 4
      vertex 21.0453 24.9452 4
      vertex 23.0902 24.5106 4
    endloop
  endfacet
  facet normal 0 0 1
    outer loop
      vertex 35 30 4
      vertex 18.9547 24.9452 4
      vertex 21.0453 24.9452 4
    endloop
  endfacet
  facet normal -0 0 1
    outer loop
      vertex 3 30 4
      vertex 18.9547 24.9452 4
      vertex 35 30 4
    endloop
  endfacet
  facet normal 0 0 1
    outer loop
      vertex 10.2185 17.0791 4
      vertex 3 30 4
      vertex 10 15 4
    endloop
  endfacet
  facet normal 0 0 1
    outer loop
      vertex 10.8645 19.0674 4
      vertex 3 30 4
      vertex 10.2185 17.0791 4
    endloop
  endfacet
  facet normal 0 0 1
    outer loop
      vertex 11.9098 20.8779 4
      vertex 3 30 4
      vertex 10.8645 19.0674 4
    endloop
  endfacet
  facet normal 0 0 1
    outer loop
      vertex 13.3087 22.4314 4
      vertex 3 30 4
      vertex 11.9098 20.8779 4
    endloop
  endfacet
  facet normal 0 0 1
    outer loop
      vertex 15 23.6603 4
      vertex 3 30 4
      vertex 13.3087 22.4314 4
    endloop
  endfacet
  facet normal 0 0 1
    outer loop
      vertex 16.9098 24.5106 4
      vertex 3 30 4
      vertex 15 23.6603 4
    endloop
  endfacet
  facet normal 0 0 1
    outer loop
      vertex 18.9547 24.9452 4
      vertex 3 30 4
      vertex 16.9098 24.5106 4
    endloop
  endfacet
  facet normal -0 0 1
    outer loop
      vertex 29.7815 12.9209 4
      vertex 35 0 4
      vertex 30 15 4
    endloop
  endfacet
  facet normal -0 0 1
    outer loop
      vertex 29.1355 10.9326 4
      vertex 35 0 4
      vertex 29.7815 12.9209 4
    endloop
  endfacet
  facet normal -0 0 1
    outer loop
      vertex 28.0902 9.12215 4
      vertex 35 0 4
      vertex 29.1355 10.9326 4
    endloop
  endfacet
  facet normal -0 0 1
    outer loop
      vertex 26.6913 7.56855 4
      vertex 35 0 4
      vertex 28.0902 9.12215 4
    endloop
  endfacet
  facet normal -0 0 1
    outer loop
      vertex 25 6.33975 4
      vertex 35 0 4
      vertex 26.6913 7.56855 4
    endloop
  endfacet
  facet normal -0 0 1
    outer loop
      vertex 23.0902 5.48943 4
      vertex 35 0 4
      vertex 25 6.33975 4
    endloop
  endfacet
  facet normal -0 0 1
    outer loop
      vertex 21.0453 5.05478 4
      vertex 35 0 4
      vertex 23.0902 5.48943 4
    endloop
  endfacet
  facet normal -0 0 1
    outer loop
      vertex 18.9547 5.05478 4
      vertex 35 0 4
      vertex 21.0453 5.05478 4
    endloop
  endfacet
  facet normal 0 0 1
    outer loop
      vertex 3 0 4
      vertex 18.9547 5.05478 4
      vertex 16.9098 5.48943 4
    endloop
  endfacet
  facet normal 0 0 1
    outer loop
      vertex 3 0 4
      vertex 10 15 4
      vertex 3 30 4
    endloop
  endfacet
  facet normal 0 0 1
    outer loop
      vertex 10 15 4
      vertex 3 0 4
      vertex 10.2185 12.9209 4
    endloop
  endfacet
  facet normal 0 0 1
    outer loop
      vertex 18.9547 5.05478 4
      vertex 3 0 4
      vertex 35 0 4
    endloop
  endfacet
  facet normal 0 0 1
    outer loop
      vertex 15 6.33975 4
      vertex 3 0 4
      vertex 16.9098 5.48943 4
    endloop
  endfacet
  facet normal 0 0 1
    outer loop
      vertex 13.3087 7.56855 4
      vertex 3 0 4
      vertex 15 6.33975 4
    endloop
  endfacet
  facet normal 0 0 1
    outer loop
      vertex 11.9098 9.12215 4
      vertex 3 0 4
      vertex 13.3087 7.56855 4
    endloop
  endfacet
  facet normal 0 0 1
    outer loop
      vertex 10.8645 10.9326 4
      vertex 3 0 4
      vertex 11.9098 9.12215 4
    endloop
  endfacet
  facet normal 0 0 1
    outer loop
      vertex 10.2185 12.9209 4
      vertex 3 0 4
      vertex 10.8645 10.9326 4
    endloop
  endfacet
  facet normal 1 -0 0
    outer loop
      vertex 35 0 4
      vertex 35 30 0
      vertex 35 30 4
    endloop
  endfacet
  facet normal 1 0 0
    outer loop
      vertex 35 30 0
      vertex 35 0 4
      vertex 35 0 0
    endloop
  endfacet
  facet normal 0 1 0
    outer loop
      vertex 35 30 4
      vertex 35 30 0
      vertex 3 30 4
    endloop
  endfacet
  facet normal 0 1 -0
    outer loop
      vertex 3 30 4
      vertex 0 30 15
      vertex 3 30 15
    endloop
  endfacet
  facet normal 0 1 0
    outer loop
      vertex 3 30 4
      vertex 0 30 0
      vertex 0 30 15
    endloop
  endfacet
  facet normal 0 1 0
    outer loop
      vertex 0 30 0
      vertex 3 30 4
      vertex 35 30 0
    endloop
  endfacet
  facet normal 0 0 -1
    outer loop
      vertex 35 0 0
      vertex 30 15 0
      vertex 35 30 0
    endloop
  endfacet
  facet normal 0 0 -1
    outer loop
      vertex 35 0 0
      vertex 29.7815 12.9209 0
      vertex 30 15 0
    endloop
  endfacet
  facet normal 0 0 -1
    outer loop
      vertex 35 0 0
      vertex 29.1355 10.9326 0
      vertex 29.7815 12.9209 0
    endloop
  endfacet
  facet normal 0 0 -1
    outer loop
      vertex 35 0 0
      vertex 28.0902 9.12215 0
      vertex 29.1355 10.9326 0
    endloop
  endfacet
  facet normal 0 0 -1
    outer loop
      vertex 35 0 0
      vertex 26.6913 7.56855 0
      vertex 28.0902 9.12215 0
    endloop
  endfacet
  facet normal 0 0 -1
    outer loop
      vertex 35 0 0
      vertex 25 6.33975 0
      vertex 26.6913 7.56855 0
    endloop
  endfacet
  facet normal 0 0 -1
    outer loop
      vertex 35 0 0
      vertex 23.0902 5.48943 0
      vertex 25 6.33975 0
    endloop
  endfacet
  facet normal 0 0 -1
    outer loop
      vertex 35 0 0
      vertex 21.0453 5.05478 0
      vertex 23.0902 5.48943 0
    endloop
  endfacet
  facet normal 0 0 -1
    outer loop
      vertex 35 0 0
      vertex 18.9547 5.05478 0
      vertex 21.0453 5.05478 0
    endloop
  endfacet
  facet normal 0 0 -1
    outer loop
      vertex 0 0 0
      vertex 18.9547 5.05478 0
      vertex 35 0 0
    endloop
  endfacet
  facet normal -0 0 -1
    outer loop
      vertex 10.2185 12.9209 0
      vertex 0 0 0
      vertex 10 15 0
    endloop
  endfacet
  facet normal -0 0 -1
    outer loop
      vertex 10.8645 10.9326 0
      vertex 0 0 0
      vertex 10.2185 12.9209 0
    endloop
  endfacet
  facet normal -0 0 -1
    outer loop
      vertex 11.9098 9.12215 0
      vertex 0 0 0
      vertex 10.8645 10.9326 0
    endloop
  endfacet
  facet normal -0 0 -1
    outer loop
      vertex 13.3087 7.56855 0
      vertex 0 0 0
      vertex 11.9098 9.12215 0
    endloop
  endfacet
  facet normal -0 0 -1
    outer loop
      vertex 15 6.33975 0
      vertex 0 0 0
      vertex 13.3087 7.56855 0
    endloop
  endfacet
  facet normal -0 0 -1
    outer loop
      vertex 16.9098 5.48943 0
      vertex 0 0 0
      vertex 15 6.33975 0
    endloop
  endfacet
  facet normal -0 0 -1
    outer loop
      vertex 18.9547 5.05478 0
      vertex 0 0 0
      vertex 16.9098 5.48943 0
    endloop
  endfacet
  facet normal 0 0 -1
    outer loop
      vertex 29.7815 17.0791 0
      vertex 35 30 0
      vertex 30 15 0
    endloop
  endfacet
  facet normal 0 0 -1
    outer loop
      vertex 29.1355 19.0674 0
      vertex 35 30 0
      vertex 29.7815 17.0791 0
    endloop
  endfacet
  facet normal 0 0 -1
    outer loop
      vertex 28.0902 20.8779 0
      vertex 35 30 0
      vertex 29.1355 19.0674 0
    endloop
  endfacet
  facet normal 0 0 -1
    outer loop
      vertex 26.6913 22.4314 0
      vertex 35 30 0
      vertex 28.0902 20.8779 0
    endloop
  endfacet
  facet normal 0 0 -1
    outer loop
      vertex 25 23.6603 0
      vertex 35 30 0
      vertex 26.6913 22.4314 0
    endloop
  endfacet
  facet normal 0 0 -1
    outer loop
      vertex 23.0902 24.5106 0
      vertex 35 30 0
      vertex 25 23.6603 0
    endloop
  endfacet
  facet normal 0 0 -1
    outer loop
      vertex 21.0453 24.9452 0
      vertex 35 30 0
      vertex 23.0902 24.5106 0
    endloop
  endfacet
  facet normal 0 0 -1
    outer loop
      vertex 18.9547 24.9452 0
      vertex 35 30 0
      vertex 21.0453 24.9452 0
    endloop
  endfacet
  facet normal 0 0 -1
    outer loop
      vertex 0 30 0
      vertex 18.9547 24.9452 0
      vertex 16.9098 24.5106 0
    endloop
  endfacet
  facet normal 0 0 -1
    outer loop
      vertex 0 30 0
      vertex 10 15 0
      vertex 0 0 0
    endloop
  endfacet
  facet normal 0 0 -1
    outer loop
      vertex 10 15 0
      vertex 0 30 0
      vertex 10.2185 17.0791 0
    endloop
  endfacet
  facet normal 0 0 -1
    outer loop
      vertex 18.9547 24.9452 0
      vertex 0 30 0
      vertex 35 30 0
    endloop
  endfacet
  facet normal 0 0 -1
    outer loop
      vertex 15 23.6603 0
      vertex 0 30 0
      vertex 16.9098 24.5106 0
    endloop
  endfacet
  facet normal 0 0 -1
    outer loop
      vertex 13.3087 22.4314 0
      vertex 0 30 0
      vertex 15 23.6603 0
    endloop
  endfacet
  facet normal 0 0 -1
    outer loop
      vertex 11.9098 20.8779 0
      vertex 0 30 0
      vertex 13.3087 22.4314 0
    endloop
  endfacet
  facet normal 0 0 -1
    outer loop
      vertex 10.8645 19.0674 0
      vertex 0 30 0
      vertex 11.9098 20.8779 0
    endloop
  endfacet
  facet normal 0 0 -1
    outer loop
      vertex 10.2185 17.0791 0
      vertex 0 30 0
      vertex 10.8645 19.0674 0
    endloop
  endfacet
  facet normal 0 -1 0
    outer loop
      vertex 0 0 15
      vertex 3 0 4
      vertex 3 0 15
    endloop
  endfacet
  facet normal 0 -1 0
    outer loop
      vertex 0 0 0
      vertex 3 0 4
      vertex 0 0 15
    endloop
  endfacet
  facet normal 0 -1 0
    outer loop
      vertex 35 0 0
      vertex 3 0 4
      vertex 0 0 0
    endloop
  endfacet
  facet normal 0 -1 0
    outer loop
      vertex 3 0 4
      vertex 35 0 0
      vertex 35 0 4
    endloop
  endfacet
  facet normal -0 0 1
    outer loop
      vertex 0 30 15
      vertex 3 0 15
      vertex 3 30 15
    endloop
  endfacet
  facet normal 0 0 1
    outer loop
      vertex 3 0 15
      vertex 0 30 15
      vertex 0 0 15
    endloop
  endfacet
  facet normal 1 0 0
    outer loop
      vertex 3 30 15
      vertex 3 27 10
      vertex 3 30 4
    endloop
  endfacet
  facet normal 1 0 0
    outer loop
      vertex 3 30 15
      vertex 3 26.247 11.5637
      vertex 3 27 10
    endloop
  endfacet
  facet normal 1 0 0
    outer loop
      vertex 3 30 15
      vertex 3 24.555 11.9499
      vertex 3 26.247 11.5637
    endloop
  endfacet
  facet normal 1 0 0
    outer loop
      vertex 3 23.1981 10.8678
      vertex 3 7 10
      vertex 3 23.1981 9.13223
    endloop
  endfacet
  facet normal 1 -0 0
    outer loop
      vertex 3 6.24698 11.5637
      vertex 3 23.1981 10.8678
      vertex 3 24.555 11.9499
    endloop
  endfacet
  facet normal 1 -0 0
    outer loop
      vertex 3 0 15
      vertex 3 24.555 11.9499
      vertex 3 30 15
    endloop
  endfacet
  facet normal 1 0 0
    outer loop
      vertex 3 23.1981 10.8678
      vertex 3 6.24698 11.5637
      vertex 3 7 10
    endloop
  endfacet
  facet normal 1 0 0
    outer loop
      vertex 3 24.555 11.9499
      vertex 3 0 15
      vertex 3 6.24698 11.5637
    endloop
  endfacet
  facet normal 1 0 0
    outer loop
      vertex 3 3.19806 10.8678
      vertex 3 0 15
      vertex 3 3.19806 9.13223
    endloop
  endfacet
  facet normal 1 0 0
    outer loop
      vertex 3 4.55496 11.9499
      vertex 3 0 15
      vertex 3 3.19806 10.8678
    endloop
  endfacet
  facet normal 1 0 0
    outer loop
      vertex 3 6.24698 11.5637
      vertex 3 0 15
      vertex 3 4.55496 11.9499
    endloop
  endfacet
  facet normal 1 -0 0
    outer loop
      vertex 3 26.247 8.43634
      vertex 3 30 4
      vertex 3 27 10
    endloop
  endfacet
  facet normal 1 -0 0
    outer loop
      vertex 3 24.555 8.05014
      vertex 3 30 4
      vertex 3 26.247 8.43634
    endloop
  endfacet
  facet normal 1 0 0
    outer loop
      vertex 3 6.24698 8.43634
      vertex 3 23.1981 9.13223
      vertex 3 7 10
    endloop
  endfacet
  facet normal 1 0 0
    outer loop
      vertex 3 23.1981 9.13223
      vertex 3 6.24698 8.43634
      vertex 3 24.555 8.05014
    endloop
  endfacet
  facet normal 1 0 0
    outer loop
      vertex 3 24.555 8.05014
      vertex 3 6.24698 8.43634
      vertex 3 30 4
    endloop
  endfacet
  facet normal 1 0 0
    outer loop
      vertex 3 0 4
      vertex 3 6.24698 8.43634
      vertex 3 4.55496 8.05014
    endloop
  endfacet
  facet normal 1 0 0
    outer loop
      vertex 3 6.24698 8.43634
      vertex 3 0 4
      vertex 3 30 4
    endloop
  endfacet
  facet normal 1 0 0
    outer loop
      vertex 3 3.19806 9.13223
      vertex 3 0 4
      vertex 3 4.55496 8.05014
    endloop
  endfacet
  facet normal 1 0 0
    outer loop
      vertex 3 0 4
      vertex 3 3.19806 9.13223
      vertex 3 0 15
    endloop
  endfacet
  facet normal -0.994522 -0.104529 0
    outer loop
      vertex 30 15 0
      vertex 29.7815 17.0791 4
      vertex 29.7815 17.0791 0
    endloop
  endfacet
  facet normal -0.994522 -0.104529 0
    outer loop
      vertex 29.7815 17.0791 4
      vertex 30 15 0
      vertex 30 15 4
    endloop
  endfacet
  facet normal 0.207911 -0.978148 0
    outer loop
      vertex 16.9098 24.5106 0
      vertex 18.9547 24.9452 4
      vertex 16.9098 24.5106 4
    endloop
  endfacet
  facet normal 0.207911 -0.978148 0
    outer loop
      vertex 18.9547 24.9452 4
      vertex 16.9098 24.5106 0
      vertex 18.9547 24.9452 0
    endloop
  endfacet
  facet normal -0.406737 0.913545 0
    outer loop
      vertex 25 6.33975 0
      vertex 23.0902 5.48943 4
      vertex 25 6.33975 4
    endloop
  endfacet
  facet normal -0.406737 0.913545 0
    outer loop
      vertex 23.0902 5.48943 4
      vertex 25 6.33975 0
      vertex 23.0902 5.48943 0
    endloop
  endfacet
  facet normal -0.587785 -0.809017 0
    outer loop
      vertex 25 23.6603 0
      vertex 26.6913 22.4314 4
      vertex 25 23.6603 4
    endloop
  endfacet
  facet normal -0.587785 -0.809017 -0
    outer loop
      vertex 26.6913 22.4314 4
      vertex 25 23.6603 0
      vertex 26.6913 22.4314 0
    endloop
  endfacet
  facet normal 0.743144 -0.669131 0
    outer loop
      vertex 11.9098 20.8779 4
      vertex 13.3087 22.4314 0
      vertex 13.3087 22.4314 4
    endloop
  endfacet
  facet normal 0.743144 -0.669131 0
    outer loop
      vertex 13.3087 22.4314 0
      vertex 11.9098 20.8779 4
      vertex 11.9098 20.8779 0
    endloop
  endfacet
  facet normal 0.587785 -0.809017 0
    outer loop
      vertex 13.3087 22.4314 0
      vertex 15 23.6603 4
      vertex 13.3087 22.4314 4
    endloop
  endfacet
  facet normal 0.587785 -0.809017 0
    outer loop
      vertex 15 23.6603 4
      vertex 13.3087 22.4314 0
      vertex 15 23.6603 0
    endloop
  endfacet
  facet normal -0.866026 -0.5 0
    outer loop
      vertex 29.1355 19.0674 0
      vertex 28.0902 20.8779 4
      vertex 28.0902 20.8779 0
    endloop
  endfacet
  facet normal -0.866026 -0.5 0
    outer loop
      vertex 28.0902 20.8779 4
      vertex 29.1355 19.0674 0
      vertex 29.1355 19.0674 4
    endloop
  endfacet
  facet normal -0.951057 -0.309017 0
    outer loop
      vertex 29.7815 17.0791 0
      vertex 29.1355 19.0674 4
      vertex 29.1355 19.0674 0
    endloop
  endfacet
  facet normal -0.951057 -0.309017 0
    outer loop
      vertex 29.1355 19.0674 4
      vertex 29.7815 17.0791 0
      vertex 29.7815 17.0791 4
    endloop
  endfacet
  facet normal -0.743144 -0.669131 0
    outer loop
      vertex 28.0902 20.8779 0
      vertex 26.6913 22.4314 4
      vertex 26.6913 22.4314 0
    endloop
  endfacet
  facet normal -0.743144 -0.669131 0
    outer loop
      vertex 26.6913 22.4314 4
      vertex 28.0902 20.8779 0
      vertex 28.0902 20.8779 4
    endloop
  endfacet
  facet normal -0.207911 -0.978148 0
    outer loop
      vertex 21.0453 24.9452 0
      vertex 23.0902 24.5106 4
      vertex 21.0453 24.9452 4
    endloop
  endfacet
  facet normal -0.207911 -0.978148 -0
    outer loop
      vertex 23.0902 24.5106 4
      vertex 21.0453 24.9452 0
      vertex 23.0902 24.5106 0
    endloop
  endfacet
  facet normal 0 -1 0
    outer loop
      vertex 18.9547 24.9452 0
      vertex 21.0453 24.9452 4
      vertex 18.9547 24.9452 4
    endloop
  endfacet
  facet normal 0 -1 -0
    outer loop
      vertex 21.0453 24.9452 4
      vertex 18.9547 24.9452 0
      vertex 21.0453 24.9452 0
    endloop
  endfacet
  facet normal -0.406737 -0.913545 0
    outer loop
      vertex 23.0902 24.5106 0
      vertex 25 23.6603 4
      vertex 23.0902 24.5106 4
    endloop
  endfacet
  facet normal -0.406737 -0.913545 -0
    outer loop
      vertex 25 23.6603 4
      vertex 23.0902 24.5106 0
      vertex 25 23.6603 0
    endloop
  endfacet
  facet normal 0.951057 -0.309017 0
    outer loop
      vertex 10.2185 17.0791 4
      vertex 10.8645 19.0674 0
      vertex 10.8645 19.0674 4
    endloop
  endfacet
  facet normal 0.951057 -0.309017 0
    outer loop
      vertex 10.8645 19.0674 0
      vertex 10.2185 17.0791 4
      vertex 10.2185 17.0791 0
    endloop
  endfacet
  facet normal 0.866026 -0.5 0
    outer loop
      vertex 10.8645 19.0674 4
      vertex 11.9098 20.8779 0
      vertex 11.9098 20.8779 4
    endloop
  endfacet
  facet normal 0.866026 -0.5 0
    outer loop
      vertex 11.9098 20.8779 0
      vertex 10.8645 19.0674 4
      vertex 10.8645 19.0674 0
    endloop
  endfacet
  facet normal 0.994522 -0.104528 0
    outer loop
      vertex 10 15 4
      vertex 10.2185 17.0791 0
      vertex 10.2185 17.0791 4
    endloop
  endfacet
  facet normal 0.994522 -0.104528 0
    outer loop
      vertex 10.2185 17.0791 0
      vertex 10 15 4
      vertex 10 15 0
    endloop
  endfacet
  facet normal 0.406737 -0.913545 0
    outer loop
      vertex 15 23.6603 0
      vertex 16.9098 24.5106 4
      vertex 15 23.6603 4
    endloop
  endfacet
  facet normal 0.406737 -0.913545 0
    outer loop
      vertex 16.9098 24.5106 4
      vertex 15 23.6603 0
      vertex 16.9098 24.5106 0
    endloop
  endfacet
  facet normal -0.994522 0.104529 0
    outer loop
      vertex 29.7815 12.9209 0
      vertex 30 15 4
      vertex 30 15 0
    endloop
  endfacet
  facet normal -0.994522 0.104529 0
    outer loop
      vertex 30 15 4
      vertex 29.7815 12.9209 0
      vertex 29.7815 12.9209 4
    endloop
  endfacet
  facet normal -0.866026 0.5 0
    outer loop
      vertex 28.0902 9.12215 0
      vertex 29.1355 10.9326 4
      vertex 29.1355 10.9326 0
    endloop
  endfacet
  facet normal -0.866026 0.5 0
    outer loop
      vertex 29.1355 10.9326 4
      vertex 28.0902 9.12215 0
      vertex 28.0902 9.12215 4
    endloop
  endfacet
  facet normal 0 1 -0
    outer loop
      vertex 21.0453 5.05478 0
      vertex 18.9547 5.05478 4
      vertex 21.0453 5.05478 4
    endloop
  endfacet
  facet normal 0 1 0
    outer loop
      vertex 18.9547 5.05478 4
      vertex 21.0453 5.05478 0
      vertex 18.9547 5.05478 0
    endloop
  endfacet
  facet normal 0.994522 0.104528 0
    outer loop
      vertex 10.2185 12.9209 4
      vertex 10 15 0
      vertex 10 15 4
    endloop
  endfacet
  facet normal 0.994522 0.104528 0
    outer loop
      vertex 10 15 0
      vertex 10.2185 12.9209 4
      vertex 10.2185 12.9209 0
    endloop
  endfacet
  facet normal -0.587785 0.809017 0
    outer loop
      vertex 26.6913 7.56855 0
      vertex 25 6.33975 4
      vertex 26.6913 7.56855 4
    endloop
  endfacet
  facet normal -0.587785 0.809017 0
    outer loop
      vertex 25 6.33975 4
      vertex 26.6913 7.56855 0
      vertex 25 6.33975 0
    endloop
  endfacet
  facet normal 0.743145 0.669131 0
    outer loop
      vertex 13.3087 7.56855 4
      vertex 11.9098 9.12215 0
      vertex 11.9098 9.12215 4
    endloop
  endfacet
  facet normal 0.743145 0.669131 0
    outer loop
      vertex 11.9098 9.12215 0
      vertex 13.3087 7.56855 4
      vertex 13.3087 7.56855 0
    endloop
  endfacet
  facet normal 0.951057 0.309017 0
    outer loop
      vertex 10.8645 10.9326 4
      vertex 10.2185 12.9209 0
      vertex 10.2185 12.9209 4
    endloop
  endfacet
  facet normal 0.951057 0.309017 0
    outer loop
      vertex 10.2185 12.9209 0
      vertex 10.8645 10.9326 4
      vertex 10.8645 10.9326 0
    endloop
  endfacet
  facet normal 0.866026 0.5 0
    outer loop
      vertex 11.9098 9.12215 4
      vertex 10.8645 10.9326 0
      vertex 10.8645 10.9326 4
    endloop
  endfacet
  facet normal 0.866026 0.5 0
    outer loop
      vertex 10.8645 10.9326 0
      vertex 11.9098 9.12215 4
      vertex 11.9098 9.12215 0
    endloop
  endfacet
  facet normal -0.951057 0.309017 0
    outer loop
      vertex 29.1355 10.9326 0
      vertex 29.7815 12.9209 4
      vertex 29.7815 12.9209 0
    endloop
  endfacet
  facet normal -0.951057 0.309017 0
    outer loop
      vertex 29.7815 12.9209 4
      vertex 29.1355 10.9326 0
      vertex 29.1355 10.9326 4
    endloop
  endfacet
  facet normal -0.207911 0.978148 0
    outer loop
      vertex 23.0902 5.48943 0
      vertex 21.0453 5.05478 4
      vertex 23.0902 5.48943 4
    endloop
  endfacet
  facet normal -0.207911 0.978148 0
    outer loop
      vertex 21.0453 5.05478 4
      vertex 23.0902 5.48943 0
      vertex 21.0453 5.05478 0
    endloop
  endfacet
  facet normal 0.406737 0.913545 -0
    outer loop
      vertex 16.9098 5.48943 0
      vertex 15 6.33975 4
      vertex 16.9098 5.48943 4
    endloop
  endfacet
  facet normal 0.406737 0.913545 0
    outer loop
      vertex 15 6.33975 4
      vertex 16.9098 5.48943 0
      vertex 15 6.33975 0
    endloop
  endfacet
  facet normal 0.207911 0.978148 -0
    outer loop
      vertex 18.9547 5.05478 0
      vertex 16.9098 5.48943 4
      vertex 18.9547 5.05478 4
    endloop
  endfacet
  facet normal 0.207911 0.978148 0
    outer loop
      vertex 16.9098 5.48943 4
      vertex 18.9547 5.05478 0
      vertex 16.9098 5.48943 0
    endloop
  endfacet
  facet normal 0.587785 0.809017 -0
    outer loop
      vertex 15 6.33975 0
      vertex 13.3087 7.56855 4
      vertex 15 6.33975 4
    endloop
  endfacet
  facet normal 0.587785 0.809017 0
    outer loop
      vertex 13.3087 7.56855 4
      vertex 15 6.33975 0
      vertex 13.3087 7.56855 0
    endloop
  endfacet
  facet normal -0.743145 0.669131 0
    outer loop
      vertex 26.6913 7.56855 0
      vertex 28.0902 9.12215 4
      vertex 28.0902 9.12215 0
    endloop
  endfacet
  facet normal -0.743145 0.669131 0
    outer loop
      vertex 28.0902 9.12215 4
      vertex 26.6913 7.56855 0
      vertex 26.6913 7.56855 4
    endloop
  endfacet
endsolid OpenSCAD_Model
