solid OpenSCAD_Model
  facet normal -0.92388 -0.382683 0
    outer loop
      vertex 15.5 5.5 0
      vertex 14.7678 7.26777 3
      vertex 14.7678 7.26777 0
    endloop
  endfacet
  facet normal -0.92388 -0.382683 0
    outer loop
      vertex 14.7678 7.26777 3
      vertex 15.5 5.5 0
      vertex 15.5 5.5 3
    endloop
  endfacet
  facet normal 0.92388 -0.382683 0
    outer loop
      vertex 10.5 5.5 3
      vertex 11.2322 7.26777 0
      vertex 11.2322 7.26777 3
    endloop
  endfacet
  facet normal 0.92388 -0.382683 0
    outer loop
      vertex 11.2322 7.26777 0
      vertex 10.5 5.5 3
      vertex 10.5 5.5 0
    endloop
  endfacet
  facet normal -0.382683 -0.92388 0
    outer loop
      vertex 13 8 0
      vertex 14.7678 7.26777 3
      vertex 13 8 3
    endloop
  endfacet
  facet normal -0.382683 -0.92388 -0
    outer loop
      vertex 14.7678 7.26777 3
      vertex 13 8 0
      vertex 14.7678 7.26777 0
    endloop
  endfacet
  facet normal 0 0 -1
    outer loop
      vertex 15.2865 36.1198 0
      vertex 15.5 38.5 0
      vertex 18.5 38.4545 0
    endloop
  endfacet
  facet normal 0 0 -1
    outer loop
      vertex 15.2865 36.1198 0
      vertex 14.7678 36.7322 0
      vertex 15.5 38.5 0
    endloop
  endfacet
  facet normal -0 0 -1
    outer loop
      vertex 15.2865 36.1198 0
      vertex 13 36 0
      vertex 14.7678 36.7322 0
    endloop
  endfacet
  facet normal 0 0 -1
    outer loop
      vertex 12.6287 33.1679 0
      vertex 13 36 0
      vertex 15.2865 36.1198 0
    endloop
  endfacet
  facet normal 0 0 -1
    outer loop
      vertex 12.6287 33.1679 0
      vertex 11.2322 36.7322 0
      vertex 13 36 0
    endloop
  endfacet
  facet normal 0 0 -1
    outer loop
      vertex 10.6426 29.728 0
      vertex 11.2322 36.7322 0
      vertex 12.6287 33.1679 0
    endloop
  endfacet
  facet normal 0 0 -1
    outer loop
      vertex 10.6426 29.728 0
      vertex 10.5 38.5 0
      vertex 11.2322 36.7322 0
    endloop
  endfacet
  facet normal 0 0 -1
    outer loop
      vertex 0 44 0
      vertex 10.6426 29.728 0
      vertex 9.4152 25.9503 0
    endloop
  endfacet
  facet normal 0 0 -1
    outer loop
      vertex 15.5 5.5 0
      vertex 15.2865 7.88025 0
      vertex 18.5 5.54552 0
    endloop
  endfacet
  facet normal 0 0 -1
    outer loop
      vertex 14.7678 7.26777 0
      vertex 15.2865 7.88025 0
      vertex 15.5 5.5 0
    endloop
  endfacet
  facet normal 0 0 -1
    outer loop
      vertex 13 8 0
      vertex 15.2865 7.88025 0
      vertex 14.7678 7.26777 0
    endloop
  endfacet
  facet normal 0 0 -1
    outer loop
      vertex 13 8 0
      vertex 12.6287 10.8321 0
      vertex 15.2865 7.88025 0
    endloop
  endfacet
  facet normal 0 0 -1
    outer loop
      vertex 11.2322 7.26777 0
      vertex 12.6287 10.8321 0
      vertex 13 8 0
    endloop
  endfacet
  facet normal 0 0 -1
    outer loop
      vertex 11.2322 7.26777 0
      vertex 10.6426 14.272 0
      vertex 12.6287 10.8321 0
    endloop
  endfacet
  facet normal 0 0 -1
    outer loop
      vertex 10.5 5.5 0
      vertex 10.6426 14.272 0
      vertex 11.2322 7.26777 0
    endloop
  endfacet
  facet normal 0 0 -1
    outer loop
      vertex 0 0 0
      vertex 10.6426 14.272 0
      vertex 10.5 5.5 0
    endloop
  endfacet
  facet normal 0 0 -1
    outer loop
      vertex 50 44 0
      vertex 45.3574 29.728 0
      vertex 45.5 38.5 0
    endloop
  endfacet
  facet normal 0 0 -1
    outer loop
      vertex 45.3574 29.728 0
      vertex 44.7678 36.7322 0
      vertex 45.5 38.5 0
    endloop
  endfacet
  facet normal 0 0 -1
    outer loop
      vertex 43.3713 33.1679 0
      vertex 44.7678 36.7322 0
      vertex 45.3574 29.728 0
    endloop
  endfacet
  facet normal 0 0 -1
    outer loop
      vertex 43.3713 33.1679 0
      vertex 43 36 0
      vertex 44.7678 36.7322 0
    endloop
  endfacet
  facet normal 0 0 -1
    outer loop
      vertex 40.7135 36.1198 0
      vertex 43 36 0
      vertex 43.3713 33.1679 0
    endloop
  endfacet
  facet normal 0 0 -1
    outer loop
      vertex 43 36 0
      vertex 40.7135 36.1198 0
      vertex 41.2322 36.7322 0
    endloop
  endfacet
  facet normal 0 0 -1
    outer loop
      vertex 40.7135 36.1198 0
      vertex 40.5 38.5 0
      vertex 41.2322 36.7322 0
    endloop
  endfacet
  facet normal 0 -0 -1
    outer loop
      vertex 40.5 38.5 0
      vertex 40.7135 36.1198 0
      vertex 37.5 38.4545 0
    endloop
  endfacet
  facet normal 0 0 -1
    outer loop
      vertex 50 0 0
      vertex 47 22 0
      vertex 50 44 0
    endloop
  endfacet
  facet normal 0 0 -1
    outer loop
      vertex 50 0 0
      vertex 46.5848 18.0497 0
      vertex 47 22 0
    endloop
  endfacet
  facet normal 0 0 -1
    outer loop
      vertex 45.3574 14.272 0
      vertex 50 0 0
      vertex 45.5 5.5 0
    endloop
  endfacet
  facet normal 0 0 -1
    outer loop
      vertex 50 0 0
      vertex 44.7678 3.73223 0
      vertex 45.5 5.5 0
    endloop
  endfacet
  facet normal 0 0 -1
    outer loop
      vertex 50 0 0
      vertex 43 3 0
      vertex 44.7678 3.73223 0
    endloop
  endfacet
  facet normal 0 0 -1
    outer loop
      vertex 29.986 3.10408 0
      vertex 43 3 0
      vertex 50 0 0
    endloop
  endfacet
  facet normal 0 0 -1
    outer loop
      vertex 41.2322 3.73223 0
      vertex 37.5 5.54552 0
      vertex 40.5 5.5 0
    endloop
  endfacet
  facet normal 0 0 -1
    outer loop
      vertex 41.2322 3.73223 0
      vertex 33.8713 3.92993 0
      vertex 37.5 5.54552 0
    endloop
  endfacet
  facet normal 0 0 -1
    outer loop
      vertex 43 3 0
      vertex 33.8713 3.92993 0
      vertex 41.2322 3.73223 0
    endloop
  endfacet
  facet normal 0 0 -1
    outer loop
      vertex 43 3 0
      vertex 29.986 3.10408 0
      vertex 33.8713 3.92993 0
    endloop
  endfacet
  facet normal 0 0 -1
    outer loop
      vertex 50 0 0
      vertex 26.014 3.10408 0
      vertex 29.986 3.10408 0
    endloop
  endfacet
  facet normal 0 0 -1
    outer loop
      vertex 14.7678 3.73223 0
      vertex 18.5 5.54552 0
      vertex 22.1287 3.92993 0
    endloop
  endfacet
  facet normal 0 0 -1
    outer loop
      vertex 18.5 5.54552 0
      vertex 14.7678 3.73223 0
      vertex 15.5 5.5 0
    endloop
  endfacet
  facet normal 0 0 -1
    outer loop
      vertex 13 3 0
      vertex 22.1287 3.92993 0
      vertex 26.014 3.10408 0
    endloop
  endfacet
  facet normal 0 0 -1
    outer loop
      vertex 0 0 0
      vertex 26.014 3.10408 0
      vertex 50 0 0
    endloop
  endfacet
  facet normal 0 0 -1
    outer loop
      vertex 22.1287 3.92993 0
      vertex 13 3 0
      vertex 14.7678 3.73223 0
    endloop
  endfacet
  facet normal -0 0 -1
    outer loop
      vertex 10.6426 14.272 0
      vertex 0 0 0
      vertex 9.4152 18.0497 0
    endloop
  endfacet
  facet normal -0 0 -1
    outer loop
      vertex 9.4152 18.0497 0
      vertex 0 0 0
      vertex 9 22 0
    endloop
  endfacet
  facet normal -0 0 -1
    outer loop
      vertex 11.2322 3.73223 0
      vertex 0 0 0
      vertex 10.5 5.5 0
    endloop
  endfacet
  facet normal -0 0 -1
    outer loop
      vertex 13 3 0
      vertex 0 0 0
      vertex 11.2322 3.73223 0
    endloop
  endfacet
  facet normal 0 0 -1
    outer loop
      vertex 26.014 3.10408 0
      vertex 0 0 0
      vertex 13 3 0
    endloop
  endfacet
  facet normal 0 0 -1
    outer loop
      vertex 46.5848 25.9503 0
      vertex 50 44 0
      vertex 47 22 0
    endloop
  endfacet
  facet normal 0 0 -1
    outer loop
      vertex 45.3574 29.728 0
      vertex 50 44 0
      vertex 46.5848 25.9503 0
    endloop
  endfacet
  facet normal 0 0 -1
    outer loop
      vertex 44.7678 40.2678 0
      vertex 50 44 0
      vertex 45.5 38.5 0
    endloop
  endfacet
  facet normal 0 0 -1
    outer loop
      vertex 43 41 0
      vertex 50 44 0
      vertex 44.7678 40.2678 0
    endloop
  endfacet
  facet normal 0 0 -1
    outer loop
      vertex 33.8713 40.0701 0
      vertex 43 41 0
      vertex 41.2322 40.2678 0
    endloop
  endfacet
  facet normal 0 0 -1
    outer loop
      vertex 37.5 38.4545 0
      vertex 41.2322 40.2678 0
      vertex 40.5 38.5 0
    endloop
  endfacet
  facet normal 0 0 -1
    outer loop
      vertex 33.8713 40.0701 0
      vertex 41.2322 40.2678 0
      vertex 37.5 38.4545 0
    endloop
  endfacet
  facet normal 0 0 -1
    outer loop
      vertex 29.986 40.8959 0
      vertex 43 41 0
      vertex 33.8713 40.0701 0
    endloop
  endfacet
  facet normal -0 0 -1
    outer loop
      vertex 43 41 0
      vertex 29.986 40.8959 0
      vertex 50 44 0
    endloop
  endfacet
  facet normal 0 0 -1
    outer loop
      vertex 26.014 40.8959 0
      vertex 50 44 0
      vertex 29.986 40.8959 0
    endloop
  endfacet
  facet normal 0 0 -1
    outer loop
      vertex 14.7678 40.2678 0
      vertex 18.5 38.4545 0
      vertex 15.5 38.5 0
    endloop
  endfacet
  facet normal 0 0 -1
    outer loop
      vertex 18.5 38.4545 0
      vertex 14.7678 40.2678 0
      vertex 22.1287 40.0701 0
    endloop
  endfacet
  facet normal 0 0 -1
    outer loop
      vertex 13 41 0
      vertex 22.1287 40.0701 0
      vertex 14.7678 40.2678 0
    endloop
  endfacet
  facet normal 0 0 -1
    outer loop
      vertex 22.1287 40.0701 0
      vertex 13 41 0
      vertex 26.014 40.8959 0
    endloop
  endfacet
  facet normal 0 0 -1
    outer loop
      vertex 0 44 0
      vertex 26.014 40.8959 0
      vertex 13 41 0
    endloop
  endfacet
  facet normal 0 0 -1
    outer loop
      vertex 0 44 0
      vertex 9.4152 25.9503 0
      vertex 9 22 0
    endloop
  endfacet
  facet normal 0 0 -1
    outer loop
      vertex 0 44 0
      vertex 9 22 0
      vertex 0 0 0
    endloop
  endfacet
  facet normal 0 0 -1
    outer loop
      vertex 26.014 40.8959 0
      vertex 0 44 0
      vertex 50 44 0
    endloop
  endfacet
  facet normal 0 0 -1
    outer loop
      vertex 11.2322 40.2678 0
      vertex 0 44 0
      vertex 13 41 0
    endloop
  endfacet
  facet normal 0 0 -1
    outer loop
      vertex 10.5 38.5 0
      vertex 0 44 0
      vertex 11.2322 40.2678 0
    endloop
  endfacet
  facet normal 0 0 -1
    outer loop
      vertex 10.6426 29.728 0
      vertex 0 44 0
      vertex 10.5 38.5 0
    endloop
  endfacet
  facet normal 0 0 -1
    outer loop
      vertex 50 0 0
      vertex 45.3574 14.272 0
      vertex 46.5848 18.0497 0
    endloop
  endfacet
  facet normal 0 0 -1
    outer loop
      vertex 44.7678 7.26777 0
      vertex 45.3574 14.272 0
      vertex 45.5 5.5 0
    endloop
  endfacet
  facet normal 0 0 -1
    outer loop
      vertex 44.7678 7.26777 0
      vertex 43.3713 10.8321 0
      vertex 45.3574 14.272 0
    endloop
  endfacet
  facet normal 0 0 -1
    outer loop
      vertex 43 8 0
      vertex 43.3713 10.8321 0
      vertex 44.7678 7.26777 0
    endloop
  endfacet
  facet normal 0 0 -1
    outer loop
      vertex 40.7135 7.88025 0
      vertex 43 8 0
      vertex 41.2322 7.26777 0
    endloop
  endfacet
  facet normal -0 0 -1
    outer loop
      vertex 43 8 0
      vertex 40.7135 7.88025 0
      vertex 43.3713 10.8321 0
    endloop
  endfacet
  facet normal 0 0 -1
    outer loop
      vertex 40.5 5.5 0
      vertex 40.7135 7.88025 0
      vertex 41.2322 7.26777 0
    endloop
  endfacet
  facet normal 0 0 -1
    outer loop
      vertex 40.7135 7.88025 0
      vertex 40.5 5.5 0
      vertex 37.5 5.54552 0
    endloop
  endfacet
  facet normal 0.382683 -0.92388 0
    outer loop
      vertex 11.2322 7.26777 0
      vertex 13 8 3
      vertex 11.2322 7.26777 3
    endloop
  endfacet
  facet normal 0.382683 -0.92388 0
    outer loop
      vertex 13 8 3
      vertex 11.2322 7.26777 0
      vertex 13 8 0
    endloop
  endfacet
  facet normal -0.382683 0.92388 0
    outer loop
      vertex 14.7678 3.73223 0
      vertex 13 3 3
      vertex 14.7678 3.73223 3
    endloop
  endfacet
  facet normal -0.382683 0.92388 0
    outer loop
      vertex 13 3 3
      vertex 14.7678 3.73223 0
      vertex 13 3 0
    endloop
  endfacet
  facet normal 0.92388 0.382683 0
    outer loop
      vertex 11.2322 3.73223 3
      vertex 10.5 5.5 0
      vertex 10.5 5.5 3
    endloop
  endfacet
  facet normal 0.92388 0.382683 0
    outer loop
      vertex 10.5 5.5 0
      vertex 11.2322 3.73223 3
      vertex 11.2322 3.73223 0
    endloop
  endfacet
  facet normal -0.92388 0.382683 0
    outer loop
      vertex 14.7678 3.73223 0
      vertex 15.5 5.5 3
      vertex 15.5 5.5 0
    endloop
  endfacet
  facet normal -0.92388 0.382683 0
    outer loop
      vertex 15.5 5.5 3
      vertex 14.7678 3.73223 0
      vertex 14.7678 3.73223 3
    endloop
  endfacet
  facet normal 0.382683 0.92388 -0
    outer loop
      vertex 13 3 0
      vertex 11.2322 3.73223 3
      vertex 13 3 3
    endloop
  endfacet
  facet normal 0.382683 0.92388 0
    outer loop
      vertex 11.2322 3.73223 3
      vertex 13 3 0
      vertex 11.2322 3.73223 0
    endloop
  endfacet
  facet normal 0 0 1
    outer loop
      vertex 15.2865 7.88025 3
      vertex 15.5 5.5 3
      vertex 18.5 5.54552 3
    endloop
  endfacet
  facet normal 0 0 1
    outer loop
      vertex 15.2865 7.88025 3
      vertex 14.7678 7.26777 3
      vertex 15.5 5.5 3
    endloop
  endfacet
  facet normal 0 0 1
    outer loop
      vertex 15.2865 7.88025 3
      vertex 13 8 3
      vertex 14.7678 7.26777 3
    endloop
  endfacet
  facet normal 0 0 1
    outer loop
      vertex 12.6287 10.8321 3
      vertex 13 8 3
      vertex 15.2865 7.88025 3
    endloop
  endfacet
  facet normal 0 0 1
    outer loop
      vertex 12.6287 10.8321 3
      vertex 11.2322 7.26777 3
      vertex 13 8 3
    endloop
  endfacet
  facet normal 0 0 1
    outer loop
      vertex 10.6426 14.272 3
      vertex 11.2322 7.26777 3
      vertex 12.6287 10.8321 3
    endloop
  endfacet
  facet normal 0 0 1
    outer loop
      vertex 10.6426 14.272 3
      vertex 10.5 5.5 3
      vertex 11.2322 7.26777 3
    endloop
  endfacet
  facet normal 0 0 1
    outer loop
      vertex 0 0 3
      vertex 10.6426 14.272 3
      vertex 9.4152 18.0497 3
    endloop
  endfacet
  facet normal 0 0 1
    outer loop
      vertex 15.5 38.5 3
      vertex 15.2865 36.1198 3
      vertex 18.5 38.4545 3
    endloop
  endfacet
  facet normal -0 0 1
    outer loop
      vertex 14.7678 36.7322 3
      vertex 15.2865 36.1198 3
      vertex 15.5 38.5 3
    endloop
  endfacet
  facet normal 0 0 1
    outer loop
      vertex 13 36 3
      vertex 15.2865 36.1198 3
      vertex 14.7678 36.7322 3
    endloop
  endfacet
  facet normal -0 0 1
    outer loop
      vertex 13 36 3
      vertex 12.6287 33.1679 3
      vertex 15.2865 36.1198 3
    endloop
  endfacet
  facet normal 0 0 1
    outer loop
      vertex 11.2322 36.7322 3
      vertex 12.6287 33.1679 3
      vertex 13 36 3
    endloop
  endfacet
  facet normal 0 0 1
    outer loop
      vertex 11.2322 36.7322 3
      vertex 10.6426 29.728 3
      vertex 12.6287 33.1679 3
    endloop
  endfacet
  facet normal 0 0 1
    outer loop
      vertex 10.5 38.5 3
      vertex 10.6426 29.728 3
      vertex 11.2322 36.7322 3
    endloop
  endfacet
  facet normal 0 0 1
    outer loop
      vertex 0 44 3
      vertex 10.6426 29.728 3
      vertex 10.5 38.5 3
    endloop
  endfacet
  facet normal 0 0 1
    outer loop
      vertex 50 0 3
      vertex 45.3574 14.272 3
      vertex 45.5 5.5 3
    endloop
  endfacet
  facet normal 0 0 1
    outer loop
      vertex 45.3574 14.272 3
      vertex 44.7678 7.26777 3
      vertex 45.5 5.5 3
    endloop
  endfacet
  facet normal -0 0 1
    outer loop
      vertex 43.3713 10.8321 3
      vertex 44.7678 7.26777 3
      vertex 45.3574 14.272 3
    endloop
  endfacet
  facet normal 0 0 1
    outer loop
      vertex 43.3713 10.8321 3
      vertex 43 8 3
      vertex 44.7678 7.26777 3
    endloop
  endfacet
  facet normal 0 0 1
    outer loop
      vertex 40.7135 7.88025 3
      vertex 43 8 3
      vertex 43.3713 10.8321 3
    endloop
  endfacet
  facet normal 0 0 1
    outer loop
      vertex 43 8 3
      vertex 40.7135 7.88025 3
      vertex 41.2322 7.26777 3
    endloop
  endfacet
  facet normal 0 0 1
    outer loop
      vertex 40.7135 7.88025 3
      vertex 40.5 5.5 3
      vertex 41.2322 7.26777 3
    endloop
  endfacet
  facet normal 0 -0 1
    outer loop
      vertex 40.5 5.5 3
      vertex 40.7135 7.88025 3
      vertex 37.5 5.54552 3
    endloop
  endfacet
  facet normal 0 0 1
    outer loop
      vertex 50 44 3
      vertex 47 22 3
      vertex 50 0 3
    endloop
  endfacet
  facet normal 0 0 1
    outer loop
      vertex 50 44 3
      vertex 46.5848 25.9503 3
      vertex 47 22 3
    endloop
  endfacet
  facet normal 0 0 1
    outer loop
      vertex 45.3574 29.728 3
      vertex 50 44 3
      vertex 45.5 38.5 3
    endloop
  endfacet
  facet normal 0 0 1
    outer loop
      vertex 50 44 3
      vertex 44.7678 40.2678 3
      vertex 45.5 38.5 3
    endloop
  endfacet
  facet normal 0 0 1
    outer loop
      vertex 50 44 3
      vertex 43 41 3
      vertex 44.7678 40.2678 3
    endloop
  endfacet
  facet normal 0 0 1
    outer loop
      vertex 29.986 40.8959 3
      vertex 43 41 3
      vertex 50 44 3
    endloop
  endfacet
  facet normal 0 0 1
    outer loop
      vertex 41.2322 40.2678 3
      vertex 37.5 38.4545 3
      vertex 40.5 38.5 3
    endloop
  endfacet
  facet normal 0 0 1
    outer loop
      vertex 41.2322 40.2678 3
      vertex 33.8713 40.0701 3
      vertex 37.5 38.4545 3
    endloop
  endfacet
  facet normal 0 0 1
    outer loop
      vertex 43 41 3
      vertex 33.8713 40.0701 3
      vertex 41.2322 40.2678 3
    endloop
  endfacet
  facet normal 0 0 1
    outer loop
      vertex 43 41 3
      vertex 29.986 40.8959 3
      vertex 33.8713 40.0701 3
    endloop
  endfacet
  facet normal 0 0 1
    outer loop
      vertex 50 44 3
      vertex 26.014 40.8959 3
      vertex 29.986 40.8959 3
    endloop
  endfacet
  facet normal 0 0 1
    outer loop
      vertex 14.7678 40.2678 3
      vertex 18.5 38.4545 3
      vertex 22.1287 40.0701 3
    endloop
  endfacet
  facet normal 0 0 1
    outer loop
      vertex 18.5 38.4545 3
      vertex 14.7678 40.2678 3
      vertex 15.5 38.5 3
    endloop
  endfacet
  facet normal 0 0 1
    outer loop
      vertex 13 41 3
      vertex 22.1287 40.0701 3
      vertex 26.014 40.8959 3
    endloop
  endfacet
  facet normal -0 0 1
    outer loop
      vertex 0 44 3
      vertex 26.014 40.8959 3
      vertex 50 44 3
    endloop
  endfacet
  facet normal 0 0 1
    outer loop
      vertex 22.1287 40.0701 3
      vertex 13 41 3
      vertex 14.7678 40.2678 3
    endloop
  endfacet
  facet normal 0 0 1
    outer loop
      vertex 10.6426 29.728 3
      vertex 0 44 3
      vertex 9.4152 25.9503 3
    endloop
  endfacet
  facet normal 0 0 1
    outer loop
      vertex 9.4152 25.9503 3
      vertex 0 44 3
      vertex 9 22 3
    endloop
  endfacet
  facet normal 0 0 1
    outer loop
      vertex 11.2322 40.2678 3
      vertex 0 44 3
      vertex 10.5 38.5 3
    endloop
  endfacet
  facet normal 0 0 1
    outer loop
      vertex 13 41 3
      vertex 0 44 3
      vertex 11.2322 40.2678 3
    endloop
  endfacet
  facet normal 0 0 1
    outer loop
      vertex 26.014 40.8959 3
      vertex 0 44 3
      vertex 13 41 3
    endloop
  endfacet
  facet normal -0 0 1
    outer loop
      vertex 46.5848 18.0497 3
      vertex 50 0 3
      vertex 47 22 3
    endloop
  endfacet
  facet normal -0 0 1
    outer loop
      vertex 45.3574 14.272 3
      vertex 50 0 3
      vertex 46.5848 18.0497 3
    endloop
  endfacet
  facet normal -0 0 1
    outer loop
      vertex 44.7678 3.73223 3
      vertex 50 0 3
      vertex 45.5 5.5 3
    endloop
  endfacet
  facet normal -0 0 1
    outer loop
      vertex 43 3 3
      vertex 50 0 3
      vertex 44.7678 3.73223 3
    endloop
  endfacet
  facet normal 0 0 1
    outer loop
      vertex 33.8713 3.92993 3
      vertex 43 3 3
      vertex 41.2322 3.73223 3
    endloop
  endfacet
  facet normal 0 0 1
    outer loop
      vertex 37.5 5.54552 3
      vertex 41.2322 3.73223 3
      vertex 40.5 5.5 3
    endloop
  endfacet
  facet normal -0 0 1
    outer loop
      vertex 33.8713 3.92993 3
      vertex 41.2322 3.73223 3
      vertex 37.5 5.54552 3
    endloop
  endfacet
  facet normal -0 0 1
    outer loop
      vertex 29.986 3.10408 3
      vertex 43 3 3
      vertex 33.8713 3.92993 3
    endloop
  endfacet
  facet normal 0 0 1
    outer loop
      vertex 43 3 3
      vertex 29.986 3.10408 3
      vertex 50 0 3
    endloop
  endfacet
  facet normal -0 0 1
    outer loop
      vertex 26.014 3.10408 3
      vertex 50 0 3
      vertex 29.986 3.10408 3
    endloop
  endfacet
  facet normal 0 0 1
    outer loop
      vertex 14.7678 3.73223 3
      vertex 18.5 5.54552 3
      vertex 15.5 5.5 3
    endloop
  endfacet
  facet normal 0 0 1
    outer loop
      vertex 18.5 5.54552 3
      vertex 14.7678 3.73223 3
      vertex 22.1287 3.92993 3
    endloop
  endfacet
  facet normal 0 0 1
    outer loop
      vertex 13 3 3
      vertex 22.1287 3.92993 3
      vertex 14.7678 3.73223 3
    endloop
  endfacet
  facet normal 0 0 1
    outer loop
      vertex 22.1287 3.92993 3
      vertex 13 3 3
      vertex 26.014 3.10408 3
    endloop
  endfacet
  facet normal 0 0 1
    outer loop
      vertex 0 0 3
      vertex 26.014 3.10408 3
      vertex 13 3 3
    endloop
  endfacet
  facet normal 0 0 1
    outer loop
      vertex 0 0 3
      vertex 9.4152 18.0497 3
      vertex 9 22 3
    endloop
  endfacet
  facet normal 0 0 1
    outer loop
      vertex 0 0 3
      vertex 9 22 3
      vertex 0 44 3
    endloop
  endfacet
  facet normal 0 0 1
    outer loop
      vertex 26.014 3.10408 3
      vertex 0 0 3
      vertex 50 0 3
    endloop
  endfacet
  facet normal 0 0 1
    outer loop
      vertex 11.2322 3.73223 3
      vertex 0 0 3
      vertex 13 3 3
    endloop
  endfacet
  facet normal 0 0 1
    outer loop
      vertex 10.5 5.5 3
      vertex 0 0 3
      vertex 11.2322 3.73223 3
    endloop
  endfacet
  facet normal 0 0 1
    outer loop
      vertex 10.6426 14.272 3
      vertex 0 0 3
      vertex 10.5 5.5 3
    endloop
  endfacet
  facet normal 0 0 1
    outer loop
      vertex 50 44 3
      vertex 45.3574 29.728 3
      vertex 46.5848 25.9503 3
    endloop
  endfacet
  facet normal -0 0 1
    outer loop
      vertex 44.7678 36.7322 3
      vertex 45.3574 29.728 3
      vertex 45.5 38.5 3
    endloop
  endfacet
  facet normal 0 0 1
    outer loop
      vertex 44.7678 36.7322 3
      vertex 43.3713 33.1679 3
      vertex 45.3574 29.728 3
    endloop
  endfacet
  facet normal -0 0 1
    outer loop
      vertex 43 36 3
      vertex 43.3713 33.1679 3
      vertex 44.7678 36.7322 3
    endloop
  endfacet
  facet normal -0 0 1
    outer loop
      vertex 40.7135 36.1198 3
      vertex 43 36 3
      vertex 41.2322 36.7322 3
    endloop
  endfacet
  facet normal 0 0 1
    outer loop
      vertex 43 36 3
      vertex 40.7135 36.1198 3
      vertex 43.3713 33.1679 3
    endloop
  endfacet
  facet normal 0 0 1
    outer loop
      vertex 40.5 38.5 3
      vertex 40.7135 36.1198 3
      vertex 41.2322 36.7322 3
    endloop
  endfacet
  facet normal 0 0 1
    outer loop
      vertex 40.7135 36.1198 3
      vertex 40.5 38.5 3
      vertex 37.5 38.4545 3
    endloop
  endfacet
  facet normal -0.92388 -0.382683 0
    outer loop
      vertex 15.5 38.5 0
      vertex 14.7678 40.2678 3
      vertex 14.7678 40.2678 0
    endloop
  endfacet
  facet normal -0.92388 -0.382683 0
    outer loop
      vertex 14.7678 40.2678 3
      vertex 15.5 38.5 0
      vertex 15.5 38.5 3
    endloop
  endfacet
  facet normal 0.382683 -0.92388 0
    outer loop
      vertex 11.2322 40.2678 0
      vertex 13 41 3
      vertex 11.2322 40.2678 3
    endloop
  endfacet
  facet normal 0.382683 -0.92388 0
    outer loop
      vertex 13 41 3
      vertex 11.2322 40.2678 0
      vertex 13 41 0
    endloop
  endfacet
  facet normal -0.382683 -0.92388 0
    outer loop
      vertex 13 41 0
      vertex 14.7678 40.2678 3
      vertex 13 41 3
    endloop
  endfacet
  facet normal -0.382683 -0.92388 -0
    outer loop
      vertex 14.7678 40.2678 3
      vertex 13 41 0
      vertex 14.7678 40.2678 0
    endloop
  endfacet
  facet normal 0.92388 -0.382683 0
    outer loop
      vertex 10.5 38.5 3
      vertex 11.2322 40.2678 0
      vertex 11.2322 40.2678 3
    endloop
  endfacet
  facet normal 0.92388 -0.382683 0
    outer loop
      vertex 11.2322 40.2678 0
      vertex 10.5 38.5 3
      vertex 10.5 38.5 0
    endloop
  endfacet
  facet normal -0.92388 0.382683 0
    outer loop
      vertex 14.7678 36.7322 0
      vertex 15.5 38.5 3
      vertex 15.5 38.5 0
    endloop
  endfacet
  facet normal -0.92388 0.382683 0
    outer loop
      vertex 15.5 38.5 3
      vertex 14.7678 36.7322 0
      vertex 14.7678 36.7322 3
    endloop
  endfacet
  facet normal 0.382683 0.92388 -0
    outer loop
      vertex 13 36 0
      vertex 11.2322 36.7322 3
      vertex 13 36 3
    endloop
  endfacet
  facet normal 0.382683 0.92388 0
    outer loop
      vertex 11.2322 36.7322 3
      vertex 13 36 0
      vertex 11.2322 36.7322 0
    endloop
  endfacet
  facet normal 0.92388 0.382683 0
    outer loop
      vertex 11.2322 36.7322 3
      vertex 10.5 38.5 0
      vertex 10.5 38.5 3
    endloop
  endfacet
  facet normal 0.92388 0.382683 0
    outer loop
      vertex 10.5 38.5 0
      vertex 11.2322 36.7322 3
      vertex 11.2322 36.7322 0
    endloop
  endfacet
  facet normal -0.382683 0.92388 0
    outer loop
      vertex 14.7678 36.7322 0
      vertex 13 36 3
      vertex 14.7678 36.7322 3
    endloop
  endfacet
  facet normal -0.382683 0.92388 0
    outer loop
      vertex 13 36 3
      vertex 14.7678 36.7322 0
      vertex 13 36 0
    endloop
  endfacet
  facet normal -0.92388 -0.382683 0
    outer loop
      vertex 45.5 5.5 0
      vertex 44.7678 7.26777 3
      vertex 44.7678 7.26777 0
    endloop
  endfacet
  facet normal -0.92388 -0.382683 0
    outer loop
      vertex 44.7678 7.26777 3
      vertex 45.5 5.5 0
      vertex 45.5 5.5 3
    endloop
  endfacet
  facet normal 0.382683 0.92388 -0
    outer loop
      vertex 43 3 0
      vertex 41.2322 3.73223 3
      vertex 43 3 3
    endloop
  endfacet
  facet normal 0.382683 0.92388 0
    outer loop
      vertex 41.2322 3.73223 3
      vertex 43 3 0
      vertex 41.2322 3.73223 0
    endloop
  endfacet
  facet normal 0.382683 -0.92388 0
    outer loop
      vertex 41.2322 7.26777 0
      vertex 43 8 3
      vertex 41.2322 7.26777 3
    endloop
  endfacet
  facet normal 0.382683 -0.92388 0
    outer loop
      vertex 43 8 3
      vertex 41.2322 7.26777 0
      vertex 43 8 0
    endloop
  endfacet
  facet normal -0.382683 -0.92388 0
    outer loop
      vertex 43 8 0
      vertex 44.7678 7.26777 3
      vertex 43 8 3
    endloop
  endfacet
  facet normal -0.382683 -0.92388 -0
    outer loop
      vertex 44.7678 7.26777 3
      vertex 43 8 0
      vertex 44.7678 7.26777 0
    endloop
  endfacet
  facet normal 0.92388 -0.382683 0
    outer loop
      vertex 40.5 5.5 3
      vertex 41.2322 7.26777 0
      vertex 41.2322 7.26777 3
    endloop
  endfacet
  facet normal 0.92388 -0.382683 0
    outer loop
      vertex 41.2322 7.26777 0
      vertex 40.5 5.5 3
      vertex 40.5 5.5 0
    endloop
  endfacet
  facet normal 0.92388 0.382683 0
    outer loop
      vertex 41.2322 3.73223 3
      vertex 40.5 5.5 0
      vertex 40.5 5.5 3
    endloop
  endfacet
  facet normal 0.92388 0.382683 0
    outer loop
      vertex 40.5 5.5 0
      vertex 41.2322 3.73223 3
      vertex 41.2322 3.73223 0
    endloop
  endfacet
  facet normal -0.382683 0.92388 0
    outer loop
      vertex 44.7678 3.73223 0
      vertex 43 3 3
      vertex 44.7678 3.73223 3
    endloop
  endfacet
  facet normal -0.382683 0.92388 0
    outer loop
      vertex 43 3 3
      vertex 44.7678 3.73223 0
      vertex 43 3 0
    endloop
  endfacet
  facet normal -0.92388 0.382683 0
    outer loop
      vertex 44.7678 3.73223 0
      vertex 45.5 5.5 3
      vertex 45.5 5.5 0
    endloop
  endfacet
  facet normal -0.92388 0.382683 0
    outer loop
      vertex 45.5 5.5 3
      vertex 44.7678 3.73223 0
      vertex 44.7678 3.73223 3
    endloop
  endfacet
  facet normal -0.92388 -0.382682 0
    outer loop
      vertex 45.5 38.5 0
      vertex 44.7678 40.2678 3
      vertex 44.7678 40.2678 0
    endloop
  endfacet
  facet normal -0.92388 -0.382682 0
    outer loop
      vertex 44.7678 40.2678 3
      vertex 45.5 38.5 0
      vertex 45.5 38.5 3
    endloop
  endfacet
  facet normal 0.382682 -0.92388 0
    outer loop
      vertex 41.2322 40.2678 0
      vertex 43 41 3
      vertex 41.2322 40.2678 3
    endloop
  endfacet
  facet normal 0.382682 -0.92388 0
    outer loop
      vertex 43 41 3
      vertex 41.2322 40.2678 0
      vertex 43 41 0
    endloop
  endfacet
  facet normal -0.382682 -0.92388 0
    outer loop
      vertex 43 41 0
      vertex 44.7678 40.2678 3
      vertex 43 41 3
    endloop
  endfacet
  facet normal -0.382682 -0.92388 -0
    outer loop
      vertex 44.7678 40.2678 3
      vertex 43 41 0
      vertex 44.7678 40.2678 0
    endloop
  endfacet
  facet normal 0.92388 -0.382682 0
    outer loop
      vertex 40.5 38.5 3
      vertex 41.2322 40.2678 0
      vertex 41.2322 40.2678 3
    endloop
  endfacet
  facet normal 0.92388 -0.382682 0
    outer loop
      vertex 41.2322 40.2678 0
      vertex 40.5 38.5 3
      vertex 40.5 38.5 0
    endloop
  endfacet
  facet normal -0.92388 0.382682 0
    outer loop
      vertex 44.7678 36.7322 0
      vertex 45.5 38.5 3
      vertex 45.5 38.5 0
    endloop
  endfacet
  facet normal -0.92388 0.382682 0
    outer loop
      vertex 45.5 38.5 3
      vertex 44.7678 36.7322 0
      vertex 44.7678 36.7322 3
    endloop
  endfacet
  facet normal 0.382682 0.92388 -0
    outer loop
      vertex 43 36 0
      vertex 41.2322 36.7322 3
      vertex 43 36 3
    endloop
  endfacet
  facet normal 0.382682 0.92388 0
    outer loop
      vertex 41.2322 36.7322 3
      vertex 43 36 0
      vertex 41.2322 36.7322 0
    endloop
  endfacet
  facet normal 0.92388 0.382682 0
    outer loop
      vertex 41.2322 36.7322 3
      vertex 40.5 38.5 0
      vertex 40.5 38.5 3
    endloop
  endfacet
  facet normal 0.92388 0.382682 0
    outer loop
      vertex 40.5 38.5 0
      vertex 41.2322 36.7322 3
      vertex 41.2322 36.7322 0
    endloop
  endfacet
  facet normal -0.382682 0.92388 0
    outer loop
      vertex 44.7678 36.7322 0
      vertex 43 36 3
      vertex 44.7678 36.7322 3
    endloop
  endfacet
  facet normal -0.382682 0.92388 0
    outer loop
      vertex 43 36 3
      vertex 44.7678 36.7322 0
      vertex 43 36 0
    endloop
  endfacet
  facet normal -0.994522 -0.104528 0
    outer loop
      vertex 47 22 0
      vertex 46.5848 25.9503 3
      vertex 46.5848 25.9503 0
    endloop
  endfacet
  facet normal -0.994522 -0.104528 0
    outer loop
      vertex 46.5848 25.9503 3
      vertex 47 22 0
      vertex 47 22 3
    endloop
  endfacet
  facet normal 0.994522 -0.104529 0
    outer loop
      vertex 9 22 3
      vertex 9.4152 25.9503 0
      vertex 9.4152 25.9503 3
    endloop
  endfacet
  facet normal 0.994522 -0.104529 0
    outer loop
      vertex 9.4152 25.9503 0
      vertex 9 22 3
      vertex 9 22 0
    endloop
  endfacet
  facet normal 0 -1 0
    outer loop
      vertex 26.014 40.8959 0
      vertex 29.986 40.8959 3
      vertex 26.014 40.8959 3
    endloop
  endfacet
  facet normal 0 -1 -0
    outer loop
      vertex 29.986 40.8959 3
      vertex 26.014 40.8959 0
      vertex 29.986 40.8959 0
    endloop
  endfacet
  facet normal 0 1 -0
    outer loop
      vertex 29.986 3.10408 0
      vertex 26.014 3.10408 3
      vertex 29.986 3.10408 3
    endloop
  endfacet
  facet normal 0 1 0
    outer loop
      vertex 26.014 3.10408 3
      vertex 29.986 3.10408 0
      vertex 26.014 3.10408 0
    endloop
  endfacet
  facet normal -0.587785 -0.809017 0
    outer loop
      vertex 37.5 38.4545 0
      vertex 40.7135 36.1198 3
      vertex 37.5 38.4545 3
    endloop
  endfacet
  facet normal -0.587785 -0.809017 -0
    outer loop
      vertex 40.7135 36.1198 3
      vertex 37.5 38.4545 0
      vertex 40.7135 36.1198 0
    endloop
  endfacet
  facet normal 0.743145 -0.669131 0
    outer loop
      vertex 12.6287 33.1679 3
      vertex 15.2865 36.1198 0
      vertex 15.2865 36.1198 3
    endloop
  endfacet
  facet normal 0.743145 -0.669131 0
    outer loop
      vertex 15.2865 36.1198 0
      vertex 12.6287 33.1679 3
      vertex 12.6287 33.1679 0
    endloop
  endfacet
  facet normal 0.866025 -0.5 0
    outer loop
      vertex 10.6426 29.728 3
      vertex 12.6287 33.1679 0
      vertex 12.6287 33.1679 3
    endloop
  endfacet
  facet normal 0.866025 -0.5 0
    outer loop
      vertex 12.6287 33.1679 0
      vertex 10.6426 29.728 3
      vertex 10.6426 29.728 0
    endloop
  endfacet
  facet normal 0.406736 -0.913546 0
    outer loop
      vertex 18.5 38.4545 0
      vertex 22.1287 40.0701 3
      vertex 18.5 38.4545 3
    endloop
  endfacet
  facet normal 0.406736 -0.913546 0
    outer loop
      vertex 22.1287 40.0701 3
      vertex 18.5 38.4545 0
      vertex 22.1287 40.0701 0
    endloop
  endfacet
  facet normal -0.951056 0.309018 0
    outer loop
      vertex 45.3574 14.272 0
      vertex 46.5848 18.0497 3
      vertex 46.5848 18.0497 0
    endloop
  endfacet
  facet normal -0.951056 0.309018 0
    outer loop
      vertex 46.5848 18.0497 3
      vertex 45.3574 14.272 0
      vertex 45.3574 14.272 3
    endloop
  endfacet
  facet normal -0.866026 -0.5 0
    outer loop
      vertex 45.3574 29.728 0
      vertex 43.3713 33.1679 3
      vertex 43.3713 33.1679 0
    endloop
  endfacet
  facet normal -0.866026 -0.5 0
    outer loop
      vertex 43.3713 33.1679 3
      vertex 45.3574 29.728 0
      vertex 45.3574 29.728 3
    endloop
  endfacet
  facet normal -0.951056 -0.309018 0
    outer loop
      vertex 46.5848 25.9503 0
      vertex 45.3574 29.728 3
      vertex 45.3574 29.728 0
    endloop
  endfacet
  facet normal -0.951056 -0.309018 0
    outer loop
      vertex 45.3574 29.728 3
      vertex 46.5848 25.9503 0
      vertex 46.5848 25.9503 3
    endloop
  endfacet
  facet normal -0.743145 -0.669131 0
    outer loop
      vertex 43.3713 33.1679 0
      vertex 40.7135 36.1198 3
      vertex 40.7135 36.1198 0
    endloop
  endfacet
  facet normal -0.743145 -0.669131 0
    outer loop
      vertex 40.7135 36.1198 3
      vertex 43.3713 33.1679 0
      vertex 43.3713 33.1679 3
    endloop
  endfacet
  facet normal -0.207912 -0.978148 0
    outer loop
      vertex 29.986 40.8959 0
      vertex 33.8713 40.0701 3
      vertex 29.986 40.8959 3
    endloop
  endfacet
  facet normal -0.207912 -0.978148 -0
    outer loop
      vertex 33.8713 40.0701 3
      vertex 29.986 40.8959 0
      vertex 33.8713 40.0701 0
    endloop
  endfacet
  facet normal -0.406736 -0.913546 0
    outer loop
      vertex 33.8713 40.0701 0
      vertex 37.5 38.4545 3
      vertex 33.8713 40.0701 3
    endloop
  endfacet
  facet normal -0.406736 -0.913546 -0
    outer loop
      vertex 37.5 38.4545 3
      vertex 33.8713 40.0701 0
      vertex 37.5 38.4545 0
    endloop
  endfacet
  facet normal 0.951057 -0.309017 0
    outer loop
      vertex 9.4152 25.9503 3
      vertex 10.6426 29.728 0
      vertex 10.6426 29.728 3
    endloop
  endfacet
  facet normal 0.951057 -0.309017 0
    outer loop
      vertex 10.6426 29.728 0
      vertex 9.4152 25.9503 3
      vertex 9.4152 25.9503 0
    endloop
  endfacet
  facet normal 0.587785 -0.809017 0
    outer loop
      vertex 15.2865 36.1198 0
      vertex 18.5 38.4545 3
      vertex 15.2865 36.1198 3
    endloop
  endfacet
  facet normal 0.587785 -0.809017 0
    outer loop
      vertex 18.5 38.4545 3
      vertex 15.2865 36.1198 0
      vertex 18.5 38.4545 0
    endloop
  endfacet
  facet normal 0.207912 -0.978148 0
    outer loop
      vertex 22.1287 40.0701 0
      vertex 26.014 40.8959 3
      vertex 22.1287 40.0701 3
    endloop
  endfacet
  facet normal 0.207912 -0.978148 0
    outer loop
      vertex 26.014 40.8959 3
      vertex 22.1287 40.0701 0
      vertex 26.014 40.8959 0
    endloop
  endfacet
  facet normal -0.994522 0.104528 0
    outer loop
      vertex 46.5848 18.0497 0
      vertex 47 22 3
      vertex 47 22 0
    endloop
  endfacet
  facet normal -0.994522 0.104528 0
    outer loop
      vertex 47 22 3
      vertex 46.5848 18.0497 0
      vertex 46.5848 18.0497 3
    endloop
  endfacet
  facet normal -0.866026 0.5 0
    outer loop
      vertex 43.3713 10.8321 0
      vertex 45.3574 14.272 3
      vertex 45.3574 14.272 0
    endloop
  endfacet
  facet normal -0.866026 0.5 0
    outer loop
      vertex 45.3574 14.272 3
      vertex 43.3713 10.8321 0
      vertex 43.3713 10.8321 3
    endloop
  endfacet
  facet normal 0.866025 0.5 0
    outer loop
      vertex 12.6287 10.8321 3
      vertex 10.6426 14.272 0
      vertex 10.6426 14.272 3
    endloop
  endfacet
  facet normal 0.866025 0.5 0
    outer loop
      vertex 10.6426 14.272 0
      vertex 12.6287 10.8321 3
      vertex 12.6287 10.8321 0
    endloop
  endfacet
  facet normal -0.207912 0.978148 0
    outer loop
      vertex 33.8713 3.92993 0
      vertex 29.986 3.10408 3
      vertex 33.8713 3.92993 3
    endloop
  endfacet
  facet normal -0.207912 0.978148 0
    outer loop
      vertex 29.986 3.10408 3
      vertex 33.8713 3.92993 0
      vertex 29.986 3.10408 0
    endloop
  endfacet
  facet normal -0.587785 0.809017 0
    outer loop
      vertex 40.7135 7.88025 0
      vertex 37.5 5.54552 3
      vertex 40.7135 7.88025 3
    endloop
  endfacet
  facet normal -0.587785 0.809017 0
    outer loop
      vertex 37.5 5.54552 3
      vertex 40.7135 7.88025 0
      vertex 37.5 5.54552 0
    endloop
  endfacet
  facet normal 0.743145 0.669131 0
    outer loop
      vertex 15.2865 7.88025 3
      vertex 12.6287 10.8321 0
      vertex 12.6287 10.8321 3
    endloop
  endfacet
  facet normal 0.743145 0.669131 0
    outer loop
      vertex 12.6287 10.8321 0
      vertex 15.2865 7.88025 3
      vertex 15.2865 7.88025 0
    endloop
  endfacet
  facet normal 0.951057 0.309017 0
    outer loop
      vertex 10.6426 14.272 3
      vertex 9.4152 18.0497 0
      vertex 9.4152 18.0497 3
    endloop
  endfacet
  facet normal 0.951057 0.309017 0
    outer loop
      vertex 9.4152 18.0497 0
      vertex 10.6426 14.272 3
      vertex 10.6426 14.272 0
    endloop
  endfacet
  facet normal 0.994522 0.104529 0
    outer loop
      vertex 9.4152 18.0497 3
      vertex 9 22 0
      vertex 9 22 3
    endloop
  endfacet
  facet normal 0.994522 0.104529 0
    outer loop
      vertex 9 22 0
      vertex 9.4152 18.0497 3
      vertex 9.4152 18.0497 0
    endloop
  endfacet
  facet normal -0.406737 0.913545 0
    outer loop
      vertex 37.5 5.54552 0
      vertex 33.8713 3.92993 3
      vertex 37.5 5.54552 3
    endloop
  endfacet
  facet normal -0.406737 0.913545 0
    outer loop
      vertex 33.8713 3.92993 3
      vertex 37.5 5.54552 0
      vertex 33.8713 3.92993 0
    endloop
  endfacet
  facet normal -0.743145 0.669131 0
    outer loop
      vertex 40.7135 7.88025 0
      vertex 43.3713 10.8321 3
      vertex 43.3713 10.8321 0
    endloop
  endfacet
  facet normal -0.743145 0.669131 0
    outer loop
      vertex 43.3713 10.8321 3
      vertex 40.7135 7.88025 0
      vertex 40.7135 7.88025 3
    endloop
  endfacet
  facet normal 0.587785 0.809017 -0
    outer loop
      vertex 18.5 5.54552 0
      vertex 15.2865 7.88025 3
      vertex 18.5 5.54552 3
    endloop
  endfacet
  facet normal 0.587785 0.809017 0
    outer loop
      vertex 15.2865 7.88025 3
      vertex 18.5 5.54552 0
      vertex 15.2865 7.88025 0
    endloop
  endfacet
  facet normal 0.406737 0.913545 -0
    outer loop
      vertex 22.1287 3.92993 0
      vertex 18.5 5.54552 3
      vertex 22.1287 3.92993 3
    endloop
  endfacet
  facet normal 0.406737 0.913545 0
    outer loop
      vertex 18.5 5.54552 3
      vertex 22.1287 3.92993 0
      vertex 18.5 5.54552 0
    endloop
  endfacet
  facet normal 0.207912 0.978148 -0
    outer loop
      vertex 26.014 3.10408 0
      vertex 22.1287 3.92993 3
      vertex 26.014 3.10408 3
    endloop
  endfacet
  facet normal 0.207912 0.978148 0
    outer loop
      vertex 22.1287 3.92993 3
      vertex 26.014 3.10408 0
      vertex 22.1287 3.92993 0
    endloop
  endfacet
  facet normal -1 0 0
    outer loop
      vertex 0 0 0
      vertex 0 44 3
      vertex 0 44 0
    endloop
  endfacet
  facet normal -1 -0 0
    outer loop
      vertex 0 44 3
      vertex 0 0 0
      vertex 0 0 3
    endloop
  endfacet
  facet normal 1 -0 0
    outer loop
      vertex 50 0 3
      vertex 50 44 0
      vertex 50 44 3
    endloop
  endfacet
  facet normal 1 0 0
    outer loop
      vertex 50 44 0
      vertex 50 0 3
      vertex 50 0 0
    endloop
  endfacet
  facet normal 0 1 -0
    outer loop
      vertex 50 44 0
      vertex 0 44 3
      vertex 50 44 3
    endloop
  endfacet
  facet normal 0 1 0
    outer loop
      vertex 0 44 3
      vertex 50 44 0
      vertex 0 44 0
    endloop
  endfacet
  facet normal 0 -1 0
    outer loop
      vertex 0 0 0
      vertex 50 0 3
      vertex 0 0 3
    endloop
  endfacet
  facet normal 0 -1 -0
    outer loop
      vertex 50 0 3
      vertex 0 0 0
      vertex 50 0 0
    endloop
  endfacet
endsolid OpenSCAD_Model
